<svg width="48" height="48" viewBox="0 0 48 48" fill="none" xmlns="http://www.w3.org/2000/svg">
<path d="M25.7964 28.2644L25.7969 28.2641C26.2957 27.9717 26.91 27.8207 27.5636 27.6922C27.8693 27.6338 28.1121 27.6067 28.2983 27.6044H28.3029C28.4343 27.6044 28.5458 27.6192 28.6359 27.667C28.7219 27.7126 28.7993 27.7941 28.8514 27.9513C28.9018 28.1051 28.9556 28.3052 28.9887 28.509C29.0221 28.7142 29.0332 28.9156 29.0035 29.0754C28.9755 29.2184 28.9513 29.3278 28.8985 29.4126C28.8503 29.4899 28.7732 29.5538 28.6183 29.5875C28.6182 29.5875 28.6182 29.5875 28.6181 29.5875L24.8238 30.3944C24.8237 30.3944 24.8236 30.3944 24.8234 30.3945C24.7209 30.4155 24.6933 30.4094 24.6848 30.4057C24.6785 30.4029 24.669 30.3965 24.6302 30.3309C24.5776 30.2354 24.533 30.0041 24.6316 29.7296L24.6316 29.7296L24.6319 29.7286C24.8995 28.9592 25.3021 28.5507 25.7964 28.2644ZM29.9968 27.6163L29.9968 27.6163L29.9965 27.615C29.9131 27.3336 29.7536 27.0208 29.4567 26.7832C29.1687 26.5493 28.772 26.4133 28.3203 26.4108L28.3194 26.4103L28.2925 26.4108C28.0136 26.4155 27.7048 26.4514 27.3482 26.5199H27.3456L27.3363 26.5217C26.6565 26.6525 25.8978 26.8225 25.195 27.2311L25.1946 27.2313C24.4888 27.6453 23.8624 28.3204 23.5069 29.337C23.3129 29.886 23.3271 30.4589 23.5963 30.9245C23.8668 31.3971 24.4713 31.6907 25.0697 31.561C25.0697 31.561 25.0698 31.561 25.0698 31.561L28.8708 30.7514C29.2824 30.6641 29.6294 30.4378 29.8491 30.1437L29.8495 30.1432C30.0665 29.8482 30.1523 29.5163 30.1864 29.2059L30.1864 29.205C30.2485 28.5883 30.104 27.9962 29.9968 27.6163Z" fill="#3B893B" stroke="#3B893B" stroke-width="0.2"/>
<path d="M9.77479 28.2641L9.77524 28.2644C10.2693 28.5505 10.6696 28.959 10.9398 29.7288C11.0366 30.005 10.9934 30.236 10.9399 30.3301C10.9005 30.3963 10.8909 30.403 10.8845 30.4058C10.8765 30.4094 10.8497 30.4156 10.7483 30.3945C10.7483 30.3945 10.7482 30.3944 10.7481 30.3944L6.95108 29.5875C6.95099 29.5875 6.9509 29.5875 6.95081 29.5875C6.7973 29.5539 6.72009 29.49 6.67188 29.4126C6.61909 29.3279 6.59479 29.2182 6.56823 29.0758L6.56823 29.0758L6.56807 29.075C6.53689 28.9154 6.54715 28.7141 6.58023 28.5089C6.61306 28.3052 6.66708 28.1051 6.71788 27.9514C6.76996 27.7945 6.84792 27.7129 6.9347 27.6672C7.02572 27.6192 7.13811 27.6044 7.26945 27.6044H7.27406C7.46012 27.6067 7.7003 27.6338 8.00541 27.6922C8.65919 27.8208 9.27597 27.9717 9.77479 28.2641ZM5.72215 30.1432L5.72226 30.1433C5.93979 30.4378 6.28683 30.6641 6.70099 30.7514C6.70101 30.7514 6.70102 30.7514 6.70104 30.7514L10.5019 31.561C10.5019 31.561 10.502 31.561 10.502 31.561C11.1007 31.6907 11.7021 31.3968 11.9752 30.9249L11.9753 30.9246C12.2426 30.4589 12.2555 29.886 12.0624 29.337L11.9681 29.3701L12.0625 29.3371C11.7071 28.3207 11.084 27.6453 10.3746 27.2312L10.3744 27.2311C9.67158 26.8225 8.91285 26.6525 8.23311 26.5217L8.22375 26.5199H8.22121C7.86743 26.4514 7.55834 26.4155 7.27648 26.4108L7.24612 26.4102L7.24524 26.4108C6.79487 26.414 6.39938 26.5499 6.11211 26.7834C5.81879 27.0206 5.65608 27.333 5.57503 27.6157C5.46504 27.9962 5.32123 28.5883 5.38525 29.2051C5.41643 29.517 5.50546 29.8486 5.72215 30.1432Z" fill="#3B893B" stroke="#3B893B" stroke-width="0.2"/>
<path d="M24.4679 17.39C24.2631 17.0094 24.0358 16.7307 23.6855 16.6565L24.4679 17.39ZM24.4679 17.39C25.1918 18.7299 25.6791 20.2062 26.1435 21.7454L24.4679 17.39ZM26.9383 22.8826C25.0942 23.0881 21.045 23.4964 17.7852 23.4964C14.5282 23.4964 10.4737 23.0907 8.62843 22.8826C8.26428 22.8424 8.02109 22.4851 8.1226 22.1294L8.12265 22.1292C8.65207 20.2877 9.24742 18.5259 10.1394 16.8716L10.1395 16.8715C10.4 16.3896 10.8509 15.7558 11.6566 15.585L11.6566 15.5849C13.6225 15.1688 15.7182 15.1635 17.7409 15.1606C19.7682 15.1576 21.6918 15.1657 23.8942 15.5812C24.5395 15.7017 25.0131 16.1891 25.4252 16.8669C26.3798 18.4298 26.8873 20.1887 27.4014 21.9703C27.4167 22.0232 27.432 22.0761 27.4472 22.1291L27.4475 22.1301C27.5462 22.4854 27.3026 22.8429 26.9383 22.8826ZM26.9383 22.8826C26.9382 22.8826 26.9382 22.8826 26.9382 22.8826L26.9273 22.7832L26.9384 22.8826C26.9384 22.8826 26.9383 22.8826 26.9383 22.8826ZM17.7857 16.357L17.786 16.357C19.7461 16.3511 21.5718 16.39 23.6665 16.7547C23.9697 16.8196 24.1778 17.062 24.3799 17.4374L24.3799 17.4375C25.0958 18.7627 25.5797 20.2242 26.0423 21.7562C24.0453 21.9699 20.6628 22.3062 17.7854 22.3062C14.908 22.3062 11.5226 21.9703 9.52843 21.7563C9.99113 20.2246 10.4778 18.7627 11.1908 17.4375C11.3941 17.0614 11.6022 16.8187 11.9033 16.7543C13.7058 16.3735 15.7232 16.357 17.7856 16.357L17.7857 16.357ZM26.0716 21.8536C24.0772 22.0672 20.6777 22.4062 17.7854 22.4062C14.8931 22.4062 11.4907 22.0676 9.49906 21.8537L26.0716 21.8536Z" fill="#3B893B" stroke="#3B893B" stroke-width="0.2"/>
<path d="M17.7758 14.127L17.7759 14.1271H17.787C17.9686 14.1271 18.1491 14.1269 18.3284 14.1267C20.1464 14.1247 21.8562 14.1228 23.5707 14.3285C24.4914 14.4393 25.1319 14.7029 25.6223 15.1228C26.1144 15.5441 26.4647 16.1307 26.7905 16.906L26.7905 16.9061C27.1664 17.7979 27.5325 18.7418 27.9021 19.6979L27.9544 19.8334C28.3066 20.7449 28.6624 21.6656 29.0322 22.5586L29.0322 22.5587C29.1399 22.8179 29.3927 22.9901 29.6774 22.9901L29.6777 22.9901L31.6387 22.9842C31.8652 22.9842 31.9672 23.0346 32.0201 23.095C32.0768 23.1599 32.1003 23.2607 32.1112 23.4191L32.1112 23.4196C32.1387 23.7936 32.0787 24.1231 31.9064 24.4219C31.7335 24.7217 31.4428 24.9991 30.9947 25.2596L30.9946 25.2596C30.6749 25.4457 30.5573 25.848 30.7227 26.1769C30.7227 26.1769 30.7227 26.1769 30.7227 26.177L31.0035 26.7442C31.3537 27.4995 31.5848 28.2688 31.5848 28.8684V33.7174C31.5848 34.1139 31.4572 34.5862 31.278 34.9014C31.188 35.0592 31.1009 35.1591 31.0289 35.2184C30.9547 35.2794 30.9041 35.2916 30.8856 35.2916L4.68769 35.2922C4.66916 35.2922 4.61788 35.2799 4.54303 35.2188C4.47043 35.1595 4.38268 35.0596 4.29264 34.902C4.11301 34.5873 3.9885 34.1151 3.9885 33.718V28.869C3.9885 28.2666 4.22249 27.4917 4.57566 26.7334L4.85088 26.177L4.85092 26.1769C5.01302 25.8485 4.8959 25.4466 4.57904 25.2605L4.57869 25.2603C4.13124 24.9998 3.84797 24.7227 3.67833 24.4228C3.50896 24.1234 3.44791 23.7926 3.4597 23.416L3.45971 23.4159C3.46633 23.1973 3.52469 23.1023 3.59105 23.0544C3.66469 23.0014 3.77523 22.9848 3.93499 22.9848L5.89594 22.9907H5.89624C6.17784 22.9907 6.43332 22.8186 6.53916 22.5592C6.90507 21.6741 7.25891 20.7616 7.60939 19.8579C7.62998 19.8048 7.65056 19.7517 7.67113 19.6987C8.042 18.7426 8.40968 17.7986 8.78538 16.9067L8.78542 16.9066C9.11124 16.1312 9.46023 15.5446 9.95125 15.1234C10.4406 14.7035 11.0804 14.44 12.0026 14.3292L12.0026 14.3292C13.7177 14.1228 15.4305 14.1246 17.2475 14.1266C17.4226 14.1268 17.5987 14.127 17.7758 14.127ZM17.7974 12.7367L17.7973 12.7366H17.787C17.5864 12.7366 17.3864 12.7363 17.1867 12.736C15.3934 12.7333 13.6358 12.7307 11.8344 12.9481C10.6984 13.0845 9.80406 13.4873 9.0985 14.084C8.39379 14.6799 7.88214 15.4653 7.50427 16.3607L7.50426 16.3607C7.09367 17.3343 6.69653 18.356 6.30092 19.3739C6.00963 20.1234 5.71916 20.8707 5.42476 21.5951L3.9355 21.5948H3.93548C3.42268 21.5948 2.92871 21.7389 2.57335 22.0886C2.21763 22.4383 2.07017 22.9318 2.07017 23.4129C2.07017 24.3657 2.55339 25.2779 3.39394 25.9902C2.96849 26.918 2.59888 27.984 2.59888 28.8691V33.718H2.59878L2.59897 33.7224C2.62537 34.3294 2.72891 34.8375 2.95787 35.2589C3.17954 35.6669 3.51471 35.9862 3.99439 36.236V38.3562C3.99439 39.2598 4.67501 40.0896 5.6077 40.0896H8.21305C9.14553 40.0896 9.82864 39.2594 9.82864 38.3562L9.82833 36.6841H25.7493V38.3573C25.7493 39.2606 26.4271 40.0906 27.36 40.0906H29.9681C30.9007 40.0906 31.5814 39.2602 31.5814 38.3573V36.2404C32.6154 35.7606 32.9683 34.7436 32.9796 33.7201V33.7191V28.8701C32.9796 27.7364 32.601 26.8847 32.1847 25.991C33.0252 25.278 33.505 24.3662 33.505 23.4139C33.505 22.9333 33.3604 22.4396 33.0044 22.0895L32.9343 22.1609L33.0044 22.0895C32.6487 21.7398 32.1524 21.5958 31.6397 21.5958H30.1476C29.8582 20.8815 29.5729 20.1448 29.2865 19.4056C28.8883 18.3776 28.4883 17.3449 28.0733 16.3613L28.0733 16.3613C27.3151 14.5666 26.0172 13.2225 23.7378 12.9488C21.9349 12.7307 20.1816 12.7334 18.3869 12.7361C18.1909 12.7364 17.9945 12.7367 17.7974 12.7367ZM27.1381 36.684H30.1893V38.3572C30.1893 38.6145 30.044 38.7005 29.9661 38.7005H27.358C27.2794 38.7005 27.1381 38.616 27.1381 38.3572L27.1381 36.684ZM5.38337 36.684H8.43721V38.3572C8.43721 38.614 8.2923 38.7005 8.21133 38.7005H5.60657C5.52681 38.7005 5.38333 38.6147 5.38333 38.3572L5.38337 36.684Z" fill="#3B893B" stroke="#3B893B" stroke-width="0.2"/>
<path d="M15.363 31.8557H20.2066C20.5565 31.8557 20.8234 32.1226 20.8234 32.4724C20.8234 32.82 20.5567 33.0869 20.2066 33.0869H15.363C15.0101 33.0869 14.7437 32.8195 14.7436 32.4725C14.7439 32.1228 15.0104 31.8557 15.363 31.8557ZM15.363 30.6622C14.3691 30.6622 13.5528 31.4781 13.5528 32.4724C13.5528 33.4665 14.3689 34.2804 15.363 34.2804H20.2066C21.2004 34.2804 22.0169 33.4666 22.0169 32.4724C22.0169 31.4785 21.2009 30.6622 20.2066 30.6622H15.363Z" fill="#3B893B" stroke="#3B893B" stroke-width="0.2"/>
<path d="M41.3202 21.0856L41.3089 21.0864C41.1465 21.0971 40.9338 21.1112 40.6762 21.1612C40.1048 21.2729 39.5753 21.4025 39.1507 21.6501L41.3202 21.0856ZM41.3202 21.0856C41.4723 21.0759 41.542 21.1049 41.5856 21.1408C41.6323 21.1794 41.6625 21.2343 41.7111 21.3228C41.7161 21.3319 41.7213 21.3413 41.7268 21.3511C41.7855 21.4596 41.8221 21.6197 41.8405 21.7972C41.8586 21.9727 41.858 22.1552 41.8486 22.3013L41.8486 22.3019C41.8401 22.4468 41.8021 22.5277 41.7581 22.5763C41.7139 22.6254 41.6523 22.6541 41.5714 22.6725M41.3202 21.0856L41.5714 22.6725M41.5714 22.6725L38.2393 23.3806L38.2391 23.3806C38.2081 23.3873 38.1875 23.3911 38.1731 23.3929C38.1727 23.3923 38.1723 23.3916 38.1719 23.3908C38.1712 23.3894 38.1704 23.388 38.1695 23.3864C38.1655 23.3792 38.1606 23.3703 38.1551 23.3607L38.1551 23.3607L38.1545 23.3597C38.1211 23.3035 38.0824 23.1224 38.1627 22.8975L38.1627 22.8975L38.1629 22.8967C38.3929 22.2355 38.7297 21.8958 39.1506 21.6501L41.5714 22.6725ZM37.1229 23.9559C37.3772 24.3921 37.9396 24.6639 38.4912 24.5449C38.4912 24.5449 38.4913 24.5449 38.4914 24.5449L41.8213 23.8414L41.8216 23.8414C42.1989 23.7605 42.5229 23.5538 42.724 23.2773C42.9244 23.0065 43.0043 22.6974 43.0328 22.4188C43.0922 21.8605 42.9627 21.3359 42.8628 20.9985C42.7908 20.7397 42.6408 20.4528 42.3702 20.2319L42.37 20.2318C42.148 20.0511 41.8563 19.9356 41.5284 19.9022L41.5404 19.8898L41.3015 19.8923C41.0478 19.895 40.7704 19.9291 40.4519 19.9901L40.4519 19.9901L40.4513 19.9902C39.8574 20.1079 39.1775 20.2524 38.5486 20.6197C37.9153 20.9869 37.3552 21.5913 37.0377 22.4987L37.0376 22.4989C36.8639 22.9989 36.8744 23.5257 37.1227 23.9556L37.1229 23.9559Z" fill="#3B893B" stroke="#3B893B" stroke-width="0.2"/>
<path d="M25.3256 11.5709C25.5592 11.1403 25.9668 10.5639 26.702 10.4069L26.7022 10.4069C28.4356 10.0402 30.2799 10.0386 32.092 10.0386V10.0386C33.8298 10.0327 35.5214 10.0457 37.4566 10.4071L37.4568 10.4071C38.0599 10.5214 38.4659 10.9465 38.853 11.5691L38.8531 11.5692C39.6857 12.911 40.1211 14.424 40.5604 15.9511C40.5834 16.031 40.6064 16.1109 40.6295 16.1909L40.5334 16.2186M25.3256 11.5709L32.102 10.1386C33.836 10.1327 35.5167 10.1466 37.4382 10.5054C37.9989 10.6116 38.3852 11.0061 38.7681 11.6219C39.5932 12.9516 40.025 14.4522 40.4655 15.9828C40.4881 16.0613 40.5107 16.1399 40.5334 16.2186M25.3256 11.5709C25.2187 11.7435 25.2032 11.918 25.2546 12.0699C25.3052 12.2198 25.4177 12.3386 25.5508 12.4104C25.6839 12.4822 25.845 12.5108 25.9978 12.4706C26.1529 12.4299 26.2897 12.3207 26.3746 12.1363M25.3256 11.5709L26.2849 12.0919M40.5334 16.2186L40.6293 16.1902C40.7343 16.5459 40.4911 16.9108 40.1224 16.9506M40.5334 16.2186C40.6208 16.5144 40.4183 16.8182 40.1115 16.8512M40.1224 16.9506C40.1224 16.9506 40.1223 16.9506 40.1222 16.9506L40.1115 16.8512M40.1224 16.9506C40.1225 16.9506 40.1225 16.9506 40.1226 16.9506L40.1115 16.8512M40.1224 16.9506C38.5029 17.1311 34.9516 17.4872 32.0916 17.4872C31.2765 17.4872 30.4092 17.4571 29.5442 17.4135L29.5438 17.4135C29.3512 17.4031 29.2033 17.3217 29.1068 17.2007C29.0118 17.0817 28.9713 16.9304 28.9789 16.7849C28.9865 16.6395 29.0427 16.4933 29.1497 16.385C29.2583 16.2751 29.4139 16.21 29.6064 16.2203M40.1115 16.8512C38.4924 17.0316 34.9457 17.3872 32.0916 17.3872C31.2788 17.3872 30.4133 17.3572 29.5492 17.3136C28.8872 17.278 28.9393 16.2845 29.6013 16.3201M29.6064 16.2203L29.6013 16.3201M29.6064 16.2203C29.6065 16.2203 29.6066 16.2203 29.6067 16.2203L29.6013 16.3201M29.6064 16.2203C30.4539 16.2638 31.3033 16.2937 32.0916 16.2937C34.5732 16.2937 37.4635 16.0044 39.2234 15.8173M29.6013 16.3201C30.4497 16.3637 31.3009 16.3937 32.0916 16.3937C34.5881 16.3937 37.4952 16.1017 39.2531 15.9147C39.2432 15.8822 39.2333 15.8497 39.2234 15.8173M39.2234 15.8173C38.8268 14.5149 38.4165 13.2653 37.8078 12.1398L37.8077 12.1396C37.6354 11.8195 37.4683 11.6326 37.2355 11.5791M39.2234 15.8173C39.2576 15.8136 39.2914 15.81 39.3247 15.8065C38.9262 14.4974 38.5125 13.2326 37.8958 12.0922L37.2355 11.5791M37.2355 11.5791C37.2364 11.5793 37.2372 11.5794 37.2381 11.5796L37.2552 11.481L37.2332 11.5786C37.234 11.5788 37.2348 11.5789 37.2355 11.5791ZM37.2355 11.5791C35.4066 11.2605 33.808 11.2225 32.092 11.2285L32.0917 11.2285C30.2813 11.2285 28.5189 11.245 26.949 11.5765M37.2355 11.5791L26.9281 11.4787M26.949 11.5765C26.949 11.5765 26.9491 11.5765 26.9492 11.5765L26.9281 11.4787M26.949 11.5765C26.9489 11.5765 26.9488 11.5766 26.9487 11.5766L26.9281 11.4787M26.949 11.5765C26.716 11.6269 26.5463 11.8143 26.3746 12.1363M26.9281 11.4787C26.6484 11.5391 26.4597 11.7634 26.2849 12.0919M26.3746 12.1363C26.375 12.1353 26.3755 12.1343 26.3759 12.1333L26.2849 12.0919M26.3746 12.1363C26.3741 12.1371 26.3736 12.138 26.3732 12.1389L26.2849 12.0919" fill="#3B893B" stroke="#3B893B" stroke-width="0.2"/>
<mask id="path-8-outside-1_137_3518" maskUnits="userSpaceOnUse" x="22.0192" y="7" width="25" height="26" fill="black">
<rect fill="white" x="22.0192" y="7" width="25" height="26"/>
<path d="M40.2745 28.9483H42.9776V30.4282C42.9776 30.6532 42.8542 30.7376 42.7668 30.7376H40.4844C40.394 30.7376 40.2743 30.6499 40.2743 30.4282L40.2745 28.9483ZM32.0896 8.0016C30.3325 8.0016 28.6302 7.97159 26.8738 8.18235C24.8925 8.41984 23.7486 9.60531 23.0889 11.1704C22.7228 11.9227 23.9043 12.4208 24.1866 11.6302C24.7582 10.2762 25.4015 9.55847 27.019 9.36452C28.6688 9.16761 30.319 9.19234 32.0896 9.19234C33.8628 9.19234 35.513 9.1676 37.1628 9.36452C38.7807 9.55847 39.4235 10.2762 39.9951 11.6302C40.6551 13.1933 41.2811 14.9418 41.9626 16.5837C42.053 16.808 42.2717 16.9531 42.5128 16.9531H44.2339C44.4694 16.9531 44.5486 17.0078 44.5842 17.0408C44.6198 17.0765 44.6637 17.1421 44.6637 17.342C44.6663 18.004 44.4615 18.5162 43.6758 18.9727C43.4047 19.1306 43.3038 19.4733 43.443 19.7524L43.6867 20.2422C43.9958 20.9078 44.2036 21.5889 44.2036 22.1193V26.3666C44.2036 26.7139 44.0885 27.1295 43.9325 27.4089C43.7745 27.6847 43.626 27.7592 43.5746 27.7592L34.3877 27.7589C33.5558 27.7206 33.5558 28.9846 34.3877 28.949H39.0832V30.4289C39.0832 31.2169 39.6776 31.9343 40.4844 31.9343H42.7669C43.5717 31.9343 44.168 31.2172 44.168 30.4289V28.5439C44.5153 28.4509 44.8086 28.2814 44.9672 28.0023C45.243 27.5148 45.3937 26.9373 45.3937 26.3656V22.1183C45.3937 21.3029 45.118 20.4902 44.7647 19.7379C44.7621 19.7319 44.7588 19.727 44.7565 19.7211L44.614 19.4285C45.2733 18.8127 45.8561 18.1207 45.8561 17.3409C45.8561 16.9191 45.7278 16.4922 45.4211 16.1915C45.1147 15.8903 44.6796 15.7623 44.2337 15.7623H42.9144C42.3045 14.257 41.7187 12.6563 41.0923 11.1703C40.4323 9.60526 39.2888 8.41983 37.3075 8.1823C35.5534 7.97088 33.8491 8.00155 32.0894 8.00155L32.0896 8.0016Z"/>
</mask>
<path d="M40.2745 28.9483H42.9776V30.4282C42.9776 30.6532 42.8542 30.7376 42.7668 30.7376H40.4844C40.394 30.7376 40.2743 30.6499 40.2743 30.4282L40.2745 28.9483ZM32.0896 8.0016C30.3325 8.0016 28.6302 7.97159 26.8738 8.18235C24.8925 8.41984 23.7486 9.60531 23.0889 11.1704C22.7228 11.9227 23.9043 12.4208 24.1866 11.6302C24.7582 10.2762 25.4015 9.55847 27.019 9.36452C28.6688 9.16761 30.319 9.19234 32.0896 9.19234C33.8628 9.19234 35.513 9.1676 37.1628 9.36452C38.7807 9.55847 39.4235 10.2762 39.9951 11.6302C40.6551 13.1933 41.2811 14.9418 41.9626 16.5837C42.053 16.808 42.2717 16.9531 42.5128 16.9531H44.2339C44.4694 16.9531 44.5486 17.0078 44.5842 17.0408C44.6198 17.0765 44.6637 17.1421 44.6637 17.342C44.6663 18.004 44.4615 18.5162 43.6758 18.9727C43.4047 19.1306 43.3038 19.4733 43.443 19.7524L43.6867 20.2422C43.9958 20.9078 44.2036 21.5889 44.2036 22.1193V26.3666C44.2036 26.7139 44.0885 27.1295 43.9325 27.4089C43.7745 27.6847 43.626 27.7592 43.5746 27.7592L34.3877 27.7589C33.5558 27.7206 33.5558 28.9846 34.3877 28.949H39.0832V30.4289C39.0832 31.2169 39.6776 31.9343 40.4844 31.9343H42.7669C43.5717 31.9343 44.168 31.2172 44.168 30.4289V28.5439C44.5153 28.4509 44.8086 28.2814 44.9672 28.0023C45.243 27.5148 45.3937 26.9373 45.3937 26.3656V22.1183C45.3937 21.3029 45.118 20.4902 44.7647 19.7379C44.7621 19.7319 44.7588 19.727 44.7565 19.7211L44.614 19.4285C45.2733 18.8127 45.8561 18.1207 45.8561 17.3409C45.8561 16.9191 45.7278 16.4922 45.4211 16.1915C45.1147 15.8903 44.6796 15.7623 44.2337 15.7623H42.9144C42.3045 14.257 41.7187 12.6563 41.0923 11.1703C40.4323 9.60526 39.2888 8.41983 37.3075 8.1823C35.5534 7.97088 33.8491 8.00155 32.0894 8.00155L32.0896 8.0016Z" fill="#3B893B"/>
<path d="M40.2745 28.9483V28.7483H40.0746L40.0745 28.9482L40.2745 28.9483ZM42.9776 28.9483H43.1776V28.7483H42.9776V28.9483ZM40.2743 30.4282L40.0743 30.4282V30.4282H40.2743ZM32.0896 8.0016V8.2016L32.1533 7.81202L32.0896 8.0016ZM26.8738 8.18235L26.8976 8.38093L26.8976 8.38093L26.8738 8.18235ZM23.0889 11.1704L23.269 11.258L23.2732 11.2481L23.0889 11.1704ZM24.1866 11.6302L24.0021 11.5523L23.9983 11.5629L24.1866 11.6302ZM27.019 9.36452L26.9953 9.16593L26.9952 9.16594L27.019 9.36452ZM37.1628 9.36452L37.1866 9.16594L37.1865 9.16593L37.1628 9.36452ZM39.9951 11.6302L39.8109 11.708L39.8109 11.708L39.9951 11.6302ZM41.9626 16.5837L42.1482 16.5089L42.1474 16.507L41.9626 16.5837ZM44.5842 17.0408L44.7257 16.8993L44.7201 16.8941L44.5842 17.0408ZM44.6637 17.342H44.4637L44.4637 17.3428L44.6637 17.342ZM43.6758 18.9727L43.5754 18.7997L43.5752 18.7999L43.6758 18.9727ZM43.443 19.7524L43.622 19.6633L43.622 19.6631L43.443 19.7524ZM43.6867 20.2422L43.8682 20.1579L43.8658 20.1531L43.6867 20.2422ZM43.9325 27.4089L44.106 27.5084L44.1071 27.5064L43.9325 27.4089ZM43.5746 27.7592L43.5746 27.9592H43.5746V27.7592ZM34.3877 27.7589L34.3785 27.9589H34.3877L34.3877 27.7589ZM34.3877 28.949V28.7488L34.3791 28.7491L34.3877 28.949ZM39.0832 28.949H39.2832V28.749H39.0832V28.949ZM44.168 28.5439L44.1163 28.3507L43.968 28.3904V28.5439H44.168ZM44.9672 28.0023L45.1411 28.1012L45.1413 28.1008L44.9672 28.0023ZM44.7647 19.7379L44.5819 19.8191L44.5837 19.8229L44.7647 19.7379ZM44.7565 19.7211L44.9429 19.6486L44.9399 19.6409L44.9363 19.6335L44.7565 19.7211ZM44.614 19.4285L44.4775 19.2823L44.3694 19.3832L44.4342 19.5161L44.614 19.4285ZM45.4211 16.1915L45.2809 16.3341L45.2811 16.3343L45.4211 16.1915ZM42.9144 15.7623L42.729 15.8374L42.7796 15.9623H42.9144V15.7623ZM41.0923 11.1703L41.2766 11.0926L41.2766 11.0926L41.0923 11.1703ZM37.3075 8.1823L37.2835 8.38086L37.2837 8.38088L37.3075 8.1823ZM32.0894 8.00155V7.80155L32.0257 8.19113L32.0894 8.00155ZM40.2745 29.1483H42.9776V28.7483H40.2745V29.1483ZM42.7776 28.9483V30.4282H43.1776V28.9483H42.7776ZM42.7776 30.4282C42.7776 30.504 42.7573 30.5322 42.7525 30.5379C42.7462 30.5453 42.748 30.5376 42.7668 30.5376V30.9376C42.9943 30.9376 43.1776 30.7315 43.1776 30.4282H42.7776ZM42.7668 30.5376H40.4844V30.9376H42.7668V30.5376ZM40.4844 30.5376C40.5031 30.5376 40.5055 30.5457 40.4993 30.5383C40.4941 30.532 40.4743 30.5031 40.4743 30.4282H40.0743C40.0743 30.724 40.2504 30.9376 40.4844 30.9376V30.5376ZM40.4743 30.4283L40.4745 28.9483L40.0745 28.9482L40.0743 30.4282L40.4743 30.4283ZM32.0896 7.8016C30.3379 7.8016 28.6212 7.77124 26.85 7.98378L26.8976 8.38093C28.6393 8.17194 30.3271 8.2016 32.0896 8.2016V7.8016ZM26.85 7.98378C24.7807 8.2318 23.585 9.47842 22.9046 11.0927L23.2732 11.2481C23.9121 9.7322 25.0042 8.60788 26.8976 8.38093L26.85 7.98378ZM22.9091 11.0829C22.7932 11.3211 22.7943 11.5558 22.8842 11.7536C22.9716 11.9459 23.1351 12.0868 23.3171 12.1633C23.4991 12.2398 23.7143 12.258 23.913 12.1856C24.1173 12.1112 24.2857 11.9474 24.375 11.6974L23.9983 11.5629C23.9464 11.7083 23.8613 11.7787 23.7761 11.8098C23.6853 11.8428 23.575 11.8378 23.4721 11.7945C23.3692 11.7513 23.2883 11.676 23.2484 11.5881C23.2109 11.5056 23.2017 11.3958 23.2688 11.2579L22.9091 11.0829ZM24.3709 11.708C24.6524 11.0413 24.9413 10.5571 25.3409 10.2141C25.7369 9.87415 26.2608 9.65686 27.0428 9.5631L26.9952 9.16594C26.1596 9.26613 25.5532 9.50468 25.0803 9.91058C24.611 10.3135 24.2925 10.8651 24.0024 11.5524L24.3709 11.708ZM27.0427 9.56311C28.6778 9.36795 30.3138 9.39234 32.0896 9.39234V8.99234C30.3242 8.99234 28.6598 8.96727 26.9953 9.16593L27.0427 9.56311ZM32.0896 9.39234C33.868 9.39234 35.5039 9.36794 37.1391 9.56311L37.1865 9.16593C35.522 8.96726 33.8576 8.99234 32.0896 8.99234V9.39234ZM37.139 9.5631C37.9212 9.65686 38.4451 9.87415 38.841 10.2141C39.2405 10.557 39.5294 11.0412 39.8109 11.708L40.1794 11.5524C39.8892 10.8651 39.5709 10.3135 39.1016 9.91059C38.6288 9.50468 38.0223 9.26612 37.1866 9.16594L37.139 9.5631ZM39.8109 11.708C40.1395 12.4863 40.46 13.3115 40.7843 14.1496C41.1082 14.9867 41.4361 15.8367 41.7779 16.6603L42.1474 16.507C41.8077 15.6887 41.4818 14.8436 41.1573 14.0052C40.8333 13.1678 40.5107 12.3372 40.1794 11.5524L39.8109 11.708ZM41.7771 16.6584C41.8985 16.9596 42.1914 17.1531 42.5128 17.1531V16.7531C42.352 16.7531 42.2075 16.6563 42.1481 16.5089L41.7771 16.6584ZM42.5128 17.1531H44.2339V16.7531H42.5128V17.1531ZM44.2339 17.1531C44.3371 17.1531 44.3933 17.1652 44.421 17.1744C44.4345 17.1789 44.4413 17.1827 44.4438 17.1842C44.4461 17.1856 44.447 17.1864 44.4483 17.1876L44.7201 16.8941C44.6371 16.8172 44.5036 16.7531 44.2339 16.7531V17.1531ZM44.4428 17.1823C44.4436 17.1831 44.4437 17.1832 44.4435 17.183C44.4434 17.1829 44.4433 17.1827 44.4432 17.1826C44.4431 17.1825 44.4431 17.1824 44.4431 17.1824C44.4431 17.1825 44.4432 17.1826 44.4434 17.183C44.4436 17.1833 44.4439 17.1839 44.4443 17.1847C44.445 17.1863 44.4463 17.1892 44.4477 17.1936C44.454 17.2121 44.4637 17.2552 44.4637 17.342H44.8637C44.8637 17.2289 44.8515 17.1392 44.8269 17.0661C44.8005 16.9876 44.7626 16.9364 44.7256 16.8994L44.4428 17.1823ZM44.4637 17.3428C44.4649 17.653 44.4175 17.9092 44.2906 18.1371C44.1637 18.3651 43.9466 18.584 43.5754 18.7997L43.7763 19.1456C44.1907 18.9048 44.4689 18.6394 44.6401 18.3316C44.8114 18.0239 44.8651 17.693 44.8637 17.3412L44.4637 17.3428ZM43.5752 18.7999C43.2126 19.0111 43.078 19.4687 43.264 19.8417L43.622 19.6631C43.5296 19.478 43.5969 19.2502 43.7765 19.1455L43.5752 18.7999ZM43.2639 19.8415L43.5077 20.3313L43.8658 20.1531L43.622 19.6633L43.2639 19.8415ZM43.5053 20.3264C43.8098 20.9821 44.0036 21.6319 44.0036 22.1193H44.4036C44.4036 21.5459 44.1818 20.8335 43.8681 20.158L43.5053 20.3264ZM44.0036 22.1193V26.3666H44.4036V22.1193H44.0036ZM44.0036 26.3666C44.0036 26.6786 43.8978 27.0608 43.7578 27.3114L44.1071 27.5064C44.2792 27.1983 44.4036 26.7493 44.4036 26.3666H44.0036ZM43.7589 27.3095C43.6892 27.4312 43.6268 27.4992 43.585 27.5343C43.564 27.5519 43.5497 27.5599 43.5437 27.5628C43.5341 27.5674 43.546 27.5592 43.5746 27.5592V27.9592C43.6289 27.9592 43.6787 27.9417 43.7163 27.9237C43.7575 27.904 43.7998 27.8762 43.8421 27.8407C43.9269 27.7696 44.0178 27.6624 44.106 27.5084L43.7589 27.3095ZM43.5746 27.5592L34.3877 27.5589L34.3877 27.9589L43.5746 27.9592L43.5746 27.5592ZM34.3969 27.5591C34.1339 27.547 33.9194 27.6393 33.7729 27.798C33.6301 27.9525 33.5638 28.1565 33.5638 28.3529C33.5638 28.5494 33.6301 28.7534 33.7727 28.9082C33.919 29.067 34.1332 29.16 34.3962 29.1488L34.3791 28.7491C34.2262 28.7557 34.1285 28.7041 34.0669 28.6372C34.0014 28.5661 33.9638 28.4632 33.9638 28.3529C33.9638 28.2426 34.0014 28.14 34.0667 28.0694C34.1281 28.003 34.2256 27.9516 34.3785 27.9587L34.3969 27.5591ZM34.3877 29.149H39.0832V28.749H34.3877V29.149ZM38.8832 28.949V30.4289H39.2832V28.949H38.8832ZM38.8832 30.4289C38.8832 31.3065 39.5474 32.1343 40.4844 32.1343V31.7343C39.8078 31.7343 39.2832 31.1273 39.2832 30.4289H38.8832ZM40.4844 32.1343H42.7669V31.7343H40.4844V32.1343ZM42.7669 32.1343C43.7016 32.1343 44.368 31.3071 44.368 30.4289H43.968C43.968 31.1274 43.4417 31.7343 42.7669 31.7343V32.1343ZM44.368 30.4289V28.5439H43.968V30.4289H44.368ZM44.2198 28.7371C44.5941 28.6368 44.9456 28.445 45.1411 28.1012L44.7934 27.9035C44.6716 28.1177 44.4366 28.2649 44.1163 28.3507L44.2198 28.7371ZM45.1413 28.1008C45.4344 27.5827 45.5937 26.9711 45.5937 26.3656H45.1937C45.1937 26.9034 45.0516 27.4469 44.7931 27.9038L45.1413 28.1008ZM45.5937 26.3656V22.1183H45.1937V26.3656H45.5937ZM45.5937 22.1183C45.5937 21.2601 45.3041 20.4161 44.9457 19.6529L44.5837 19.8229C44.9318 20.5644 45.1937 21.3458 45.1937 22.1183H45.5937ZM44.9475 19.6567C44.9447 19.6505 44.9422 19.6455 44.9404 19.642C44.9396 19.6403 44.9388 19.6389 44.9383 19.6379C44.938 19.6373 44.9377 19.6369 44.9376 19.6365C44.9374 19.6362 44.9373 19.636 44.9372 19.6358C44.9367 19.6349 44.9373 19.6361 44.9383 19.6381C44.9393 19.6402 44.941 19.6438 44.9429 19.6486L44.5701 19.7936C44.5758 19.8083 44.582 19.8199 44.5838 19.8232C44.5852 19.8259 44.5848 19.8252 44.5848 19.8251C44.5845 19.8245 44.5833 19.8223 44.5819 19.8191L44.9475 19.6567ZM44.9363 19.6335L44.7938 19.3409L44.4342 19.5161L44.5766 19.8086L44.9363 19.6335ZM44.7505 19.5747C45.407 18.9615 46.0561 18.2159 46.0561 17.3409H45.6561C45.6561 18.0256 45.1397 18.6639 44.4775 19.2823L44.7505 19.5747ZM46.0561 17.3409C46.0561 16.8821 45.9167 16.3973 45.5611 16.0487L45.2811 16.3343C45.539 16.5871 45.6561 16.9561 45.6561 17.3409H46.0561ZM45.5613 16.0488C45.2065 15.7001 44.7143 15.5623 44.2337 15.5623V15.9623C44.6449 15.9623 45.0229 16.0805 45.2809 16.3341L45.5613 16.0488ZM44.2337 15.5623H42.9144V15.9623H44.2337V15.5623ZM43.0997 15.6873C42.4948 14.1941 41.9023 12.5768 41.2766 11.0926L40.9081 11.248C41.5352 12.7357 42.1142 14.3199 42.729 15.8374L43.0997 15.6873ZM41.2766 11.0926C40.5959 9.47839 39.4006 8.23179 37.3313 7.98372L37.2837 8.38088C39.1771 8.60786 40.2688 9.73213 40.9081 11.248L41.2766 11.0926ZM37.3314 7.98374C35.5625 7.77052 33.8436 7.80155 32.0894 7.80155V8.20155C33.8546 8.20155 35.5444 8.17123 37.2835 8.38086L37.3314 7.98374ZM32.0257 8.19113L32.0259 8.19119L32.1533 7.81202L32.1531 7.81197L32.0257 8.19113Z" fill="#3B893B" mask="url(#path-8-outside-1_137_3518)"/>
</svg>
