<svg width="48" height="48" viewBox="0 0 48 48" fill="none" xmlns="http://www.w3.org/2000/svg">
<path d="M23.6995 39.4C23.6995 39.4 36.1282 33.9378 36.1282 26.1V12.8C36.1282 12.8 35.3767 12.9073 34.2017 12.9073C31.5996 12.9073 26.9171 12.381 23.6996 9C20.482 12.381 15.7994 12.9073 13.1964 12.9073C12.0213 12.9073 11.2708 12.8 11.2708 12.8V26.1C11.2708 33.9378 23.6995 39.4 23.6995 39.4H23.6995ZM13.1708 14.8075H13.1973C15.7006 14.8075 20.1345 14.3524 23.7005 11.5595C27.2668 14.3524 31.6995 14.8075 34.2037 14.8075H34.2302L34.2304 26.1C34.2304 31.0998 27.2243 35.5723 23.6995 37.3035C20.1722 35.5783 13.1708 31.116 13.1708 26.1L13.1708 14.8075Z" fill="#28747E"/>
<path d="M18.2373 27.144H29.1623V29.044H18.2373V27.144Z" fill="#28747E"/>
<path d="M18.2373 22.6914H29.1623V24.5914H18.2373V22.6914Z" fill="#28747E"/>
<path d="M18.2373 18.2368H29.1623V20.1368H18.2373V18.2368Z" fill="#28747E"/>
</svg>
