<svg width="36" height="32" viewBox="0 0 36 32" fill="none" xmlns="http://www.w3.org/2000/svg">
<path d="M32.7491 5.69711H26.8303V3.96045C26.8303 2.24587 25.4356 0.85084 23.7209 0.85084L12.2908 0.850586C10.5765 0.850586 9.18139 2.24562 9.18139 3.9602V5.69685L3.26288 5.69711C1.46994 5.69711 0.0114746 7.15583 0.0114746 8.94851V27.8634C0.0114746 29.6566 1.4702 31.1148 3.26288 31.1148H32.7483C34.5413 31.1148 35.9997 29.6561 35.9997 27.8634L36 8.94851C36.0002 7.15557 34.5415 5.69711 32.7488 5.69711H32.7491ZM10.6504 3.96071C10.6504 3.05584 11.3864 2.31995 12.291 2.31995H23.7218C24.6264 2.31995 25.3623 3.0559 25.3623 3.96071V5.69737H10.6504V3.96071ZM3.26301 7.16596H32.7485C33.7317 7.16596 34.531 7.96579 34.531 8.94851V11.5225H1.48007V8.94851C1.48032 7.96579 2.28016 7.16596 3.26288 7.16596H3.26301ZM25.8057 12.9914H29.1193V14.9519H25.8057V12.9914ZM6.89148 12.9914H10.2048V14.9519H6.89148V12.9914ZM32.7485 29.6457H3.26236C2.27912 29.6457 1.47981 28.8459 1.47981 27.8632V12.9916H5.4225V15.6866C5.4225 16.0921 5.75141 16.421 6.15689 16.421H10.939C11.3445 16.421 11.6734 16.0921 11.6734 15.6866V12.9916H24.3364V15.6866C24.3364 16.0921 24.6653 16.421 25.0708 16.421H29.8531C30.2586 16.421 30.5875 16.0921 30.5875 15.6866V12.9916H34.5307V27.8632C34.5307 28.8459 33.7309 29.6457 32.7482 29.6457H32.7485Z" fill="#287E36"/>
</svg>
