<svg width="18" height="19" viewBox="0 0 18 19" fill="none" xmlns="http://www.w3.org/2000/svg">
<path d="M14.3333 6.07248C14.3333 4.70827 13.7714 3.39993 12.7712 2.43529C11.771 1.47064 10.4145 0.928711 9 0.928711C7.58551 0.928711 6.22896 1.47064 5.22876 2.43529C4.22857 3.39993 3.66667 4.70827 3.66667 6.07248C3.66667 12.0735 1 13.7881 1 13.7881H17C17 13.7881 14.3333 12.0735 14.3333 6.07248Z" stroke="white" stroke-width="1.2" stroke-linecap="round" stroke-linejoin="round"/>
<path d="M10.5354 17.2168C10.3791 17.4766 10.1548 17.6923 9.88493 17.8422C9.61505 17.9921 9.30906 18.0711 8.99762 18.0711C8.68617 18.0711 8.38019 17.9921 8.1103 17.8422C7.84042 17.6923 7.61611 17.4766 7.45984 17.2168" stroke="white" stroke-width="1.2" stroke-linecap="round" stroke-linejoin="round"/>
</svg>
