<svg width="48" height="48" viewBox="0 0 48 48" fill="none" xmlns="http://www.w3.org/2000/svg">
<path d="M11.5805 20.1053L15.4838 21.8795L16.5483 23.6536L14.4193 24.3633L10.516 23.6536C10.516 23.6536 9.38055 23.6536 9.80636 21.5246C10.1612 19.7504 10.658 19.7859 11.5805 20.1053Z" stroke="#939090" stroke-width="1.4" stroke-miterlimit="10" stroke-linejoin="round"/>
<path d="M16.1936 23.2988H22.2259" stroke="#939090" stroke-width="1.4" stroke-miterlimit="10" stroke-linejoin="round"/>
<path d="M25.4194 22.9443C25.4194 23.7281 24.7838 24.3636 24 24.3636C23.2162 24.3636 22.5807 23.7281 22.5807 22.9443C22.5807 22.1605 23.2162 21.5249 24 21.5249C24.7838 21.5249 25.4194 22.1605 25.4194 22.9443Z" stroke="#939090" stroke-width="1.4" stroke-miterlimit="10" stroke-linejoin="round"/>
<path d="M10.1614 17.2666H24.0001" stroke="#939090" stroke-width="1.4" stroke-miterlimit="10" stroke-linejoin="round"/>
<path d="M8.74203 15.1374C8.74203 15.1374 8.74203 14.4277 8.03235 14.4277C7.32267 14.4277 4.83881 14.4277 4.83881 15.8471C4.83881 17.2664 8.74203 17.2664 8.74203 17.2664V15.1374Z" stroke="#939090" stroke-width="1.4" stroke-miterlimit="10" stroke-linejoin="round"/>
<path d="M7.32263 31.46V34.2987C7.32263 34.2987 7.32263 35.3632 8.38715 35.3632H11.5807C11.5807 35.3632 12.6452 35.3632 12.6452 34.2987V32.1696" stroke="#939090" stroke-width="1.4" stroke-miterlimit="10" stroke-linejoin="round"/>
<path d="M24.0001 26.8472H12.2904C12.2904 26.8472 10.871 26.8472 10.871 28.2665C10.871 29.6859 12.2904 29.6859 12.2904 29.6859H24.0001" stroke="#939090" stroke-width="1.4" stroke-miterlimit="10" stroke-linejoin="round"/>
<path d="M31.8065 23.2988H25.7742" stroke="#939090" stroke-width="1.4" stroke-miterlimit="10" stroke-linejoin="round"/>
<path d="M32.1613 17.2666H24" stroke="#939090" stroke-width="1.4" stroke-miterlimit="10" stroke-linejoin="round"/>
<path d="M36.3485 14.6053C35.4259 12.9731 34.2549 11.0569 33.6162 10.1698C32.5162 8.75049 27.1936 8.75049 27.1936 8.75049H20.8065C20.8065 8.75049 15.484 8.75049 14.4549 10.1344C13.213 11.8021 10.1614 17.2666 10.1614 17.2666C10.1614 17.2666 8.03236 17.2666 8.03236 19.0408C8.03236 19.0408 6.613 19.3956 6.613 20.4602V29.3311C6.613 29.3311 6.57752 32.1698 9.09687 32.1698H32.1614" stroke="#939090" stroke-width="1.4" stroke-miterlimit="10" stroke-linejoin="round"/>
<path d="M32.1613 29.686H24" stroke="#939090" stroke-width="1.4" stroke-miterlimit="10" stroke-linejoin="round"/>
<path d="M24 26.8472H32.1613" stroke="#939090" stroke-width="1.4" stroke-miterlimit="10" stroke-linejoin="round"/>
<path d="M32.1613 14.4277H41.742V39.2664H32.1613V14.4277Z" stroke="#939090" stroke-width="1.4" stroke-miterlimit="10" stroke-linejoin="round"/>
<path d="M34.2903 17.2666H37.4839" stroke="#939090" stroke-width="1.4" stroke-miterlimit="10" stroke-linejoin="round"/>
<path d="M34.2903 20.8149H39.6129" stroke="#939090" stroke-width="1.4" stroke-miterlimit="10" stroke-linejoin="round"/>
<path d="M34.2903 23.6538H39.6129" stroke="#939090" stroke-width="1.4" stroke-miterlimit="10" stroke-linejoin="round"/>
<path d="M32.1613 35.3633H2.00006V39.2665H32.1613" stroke="#939090" stroke-width="1.4" stroke-miterlimit="10" stroke-linejoin="round"/>
<path d="M41.7419 39.2665H46V35.3633H41.7419" stroke="#939090" stroke-width="1.4" stroke-miterlimit="10" stroke-linejoin="round"/>
</svg>
