<svg width="48" height="48" viewBox="0 0 48 48" fill="none" xmlns="http://www.w3.org/2000/svg">
<path d="M14.4198 33.0178H12.7477C12.404 33.0178 12.0745 32.8813 11.8315 32.6383C11.5882 32.3953 11.4517 32.0655 11.4517 31.7218H10.1556C10.1556 32.4091 10.4287 33.0685 10.915 33.5547C11.401 34.0407 12.0603 34.3138 12.7477 34.3138H14.4198C15.3458 34.3138 16.2015 33.8197 16.6644 33.0178C17.1276 32.2159 17.1276 31.2277 16.6644 30.4258C16.2015 29.6239 15.3458 29.1298 14.4198 29.1298H12.7477C12.2848 29.1298 11.857 28.8827 11.6255 28.4817C11.3938 28.0808 11.3938 27.5867 11.6255 27.1857C11.857 26.7848 12.2848 26.5377 12.7477 26.5377H14.4198C14.7634 26.5377 15.0929 26.6743 15.3359 26.9173C15.5792 27.1603 15.7158 27.4901 15.7158 27.8337H17.0118C17.0118 27.1464 16.7387 26.4871 16.2524 26.0008C15.7664 25.5148 15.1071 25.2417 14.4198 25.2417H12.7477C11.8216 25.2417 10.9659 25.7358 10.503 26.5377C10.0399 27.3396 10.0399 28.3279 10.503 29.1298C10.9659 29.9317 11.8216 30.4258 12.7477 30.4258H14.4198C14.8826 30.4258 15.3105 30.6728 15.5419 31.0738C15.7736 31.4747 15.7736 31.9689 15.5419 32.3698C15.3105 32.7708 14.8826 33.0178 14.4198 33.0178Z" fill="#C01010"/>
<path d="M21.3603 34.3138H22.0083C22.8675 34.3138 23.6916 33.9725 24.2995 33.365C24.907 32.7572 25.2483 31.933 25.2483 31.0738V28.4817C25.2483 27.6225 24.907 26.7984 24.2995 26.1905C23.6917 25.583 22.8675 25.2417 22.0083 25.2417H21.3603C20.5011 25.2417 19.6769 25.5831 19.0691 26.1905C18.4616 26.7983 18.1202 27.6225 18.1202 28.4817V31.0738C18.1202 31.933 18.4616 32.7571 19.0691 33.365C19.6769 33.9725 20.5011 34.3138 21.3603 34.3138ZM19.4163 28.4817C19.4163 27.9662 19.6211 27.4715 19.9856 27.1071C20.3501 26.7426 20.8448 26.5378 21.3603 26.5378H22.0083C22.5238 26.5378 23.0185 26.7426 23.3829 27.1071C23.7474 27.4716 23.9523 27.9663 23.9523 28.4817V31.0738C23.9523 31.5893 23.7474 32.084 23.3829 32.4485C23.0184 32.8129 22.5237 33.0178 22.0083 33.0178H21.3603C20.8447 33.0178 20.35 32.813 19.9856 32.4485C19.6211 32.084 19.4163 31.5892 19.4163 31.0738V28.4817Z" fill="#C01010"/>
<path d="M27.1922 34.3138H31.0803V33.0178H27.8402V25.2417H26.5442V33.6658C26.5442 33.8377 26.6125 34.0026 26.734 34.1241C26.8555 34.2456 27.0204 34.3138 27.1922 34.3138Z" fill="#C01010"/>
<path d="M33.0239 34.3138H36.2639C36.9513 34.3138 37.6106 34.0407 38.0969 33.5547C38.5829 33.0684 38.856 32.4091 38.856 31.7218V27.8337C38.856 27.1464 38.5829 26.4871 38.0969 26.0008C37.6106 25.5148 36.9512 25.2417 36.2639 25.2417H33.0239C32.666 25.2417 32.3759 25.5319 32.3759 25.8897V33.6658C32.3759 33.8377 32.4441 34.0026 32.5656 34.1241C32.6871 34.2456 32.852 34.3138 33.0239 34.3138ZM33.6719 26.5377H36.2639C36.6076 26.5377 36.9374 26.6743 37.1804 26.9173C37.4234 27.1603 37.5599 27.4901 37.5599 27.8337V31.7218C37.5599 32.0655 37.4234 32.3953 37.1804 32.6383C36.9374 32.8813 36.6076 33.0178 36.2639 33.0178H33.6719V26.5377Z" fill="#C01010"/>
<path d="M25.5707 12.2811C25.5707 12.818 25.1356 13.2531 24.5987 13.2531C24.0618 13.2531 23.6267 12.818 23.6267 12.2811C23.6267 11.7442 24.0618 11.3091 24.5987 11.3091C25.1356 11.3091 25.5707 11.7442 25.5707 12.2811Z" fill="#C01010"/>
<path d="M42.744 22.6495C42.9158 22.6495 43.0807 22.5812 43.2022 22.4597C43.3237 22.3382 43.392 22.1733 43.392 22.0015V19.4095C43.392 19.2376 43.3237 19.0727 43.2022 18.9512C43.0807 18.8297 42.9158 18.7615 42.744 18.7615H37.7867L28.3324 11.1994C28.0162 10.1151 27.2444 9.22209 26.2174 8.75226C25.1901 8.28245 24.0098 8.28245 22.9825 8.75226C21.9555 9.22207 21.1837 10.1151 20.8675 11.1994L11.4132 18.7615H6.45587C6.09802 18.7615 5.80786 19.0516 5.80786 19.4095V22.0015C5.80786 22.1733 5.87613 22.3382 5.99764 22.4597C6.11914 22.5812 6.28403 22.6495 6.45587 22.6495H7.10388V36.9057H6.45587C6.09802 36.9057 5.80786 37.1959 5.80786 37.5537V40.1458C5.80786 40.3176 5.87613 40.4825 5.99764 40.604C6.11914 40.7255 6.28403 40.7938 6.45587 40.7938H42.7444C42.9163 40.7938 43.0812 40.7255 43.2027 40.604C43.3242 40.4825 43.3924 40.3176 43.3924 40.1458V37.5537C43.3924 37.3819 43.3242 37.217 43.2027 37.0955C43.0812 36.974 42.9163 36.9057 42.7444 36.9057H42.0964V22.6495H42.744ZM24.5997 9.68932C25.2871 9.68932 25.9464 9.96241 26.4326 10.4484C26.9187 10.9347 27.1917 11.594 27.1917 12.2814C27.1917 12.9687 26.9187 13.628 26.4326 14.1143C25.9464 14.6003 25.287 14.8734 24.5997 14.8734C23.9124 14.8734 23.253 14.6003 22.7668 14.1143C22.2808 13.628 22.0077 12.9687 22.0077 12.2814C22.0077 11.594 22.2808 10.9347 22.7668 10.4484C23.2531 9.96241 23.9124 9.68932 24.5997 9.68932ZM20.7701 12.9294C20.9821 14.1406 21.7548 15.1801 22.8536 15.7323C23.952 16.2846 25.2474 16.2846 26.3459 15.7323C27.4446 15.1801 28.2173 14.1407 28.4293 12.9294L35.7131 18.7615H13.4867L20.7701 12.9294ZM7.10336 20.0575H42.0959V21.3535H7.10336V20.0575ZM42.0959 39.4978H7.10336V38.2018H42.0959V39.4978ZM40.7999 36.9057H8.39938V22.6495H40.7999V36.9057Z" fill="#C01010"/>
</svg>
