<svg width="23" height="31" viewBox="0 0 23 31" fill="none" xmlns="http://www.w3.org/2000/svg">
<path d="M16.0788 0C16.0107 0.00119312 15.9432 0.0143172 15.8798 0.0386555L0.35197 6.2376C0.142678 6.32017 0.0058075 6.51511 0.00555814 6.7313V30.3903C-0.0174196 30.5449 0.0315328 30.7014 0.13968 30.8186C0.247574 30.9358 0.40392 31.0021 0.56726 30.9999H22.4383C22.5874 31.0004 22.7308 30.9441 22.8362 30.8434C22.9415 30.7427 23.0005 30.6058 23 30.4633V6.73162C23.0007 6.58917 22.9421 6.45196 22.8364 6.35103C22.731 6.2501 22.5877 6.19354 22.4383 6.19402H16.6525V0.532623V0.532861C16.652 0.388975 16.5908 0.251532 16.4829 0.151316C16.375 0.0510989 16.2294 -0.00330366 16.079 0.00026984L16.0788 0ZM15.5336 1.33722V23.9107L1.12408 29.6609V7.08676L15.5336 1.33722ZM13.0304 4.7227L13.0301 4.72294C12.9622 4.72461 12.8952 4.73797 12.8323 4.76255L3.42456 8.51453C3.21701 8.59805 3.08239 8.79228 3.08239 9.00727V14.6226C3.08264 14.8016 3.1763 14.9686 3.33215 15.0676C3.48824 15.1667 3.68555 15.1846 3.85838 15.1154L13.2616 11.3593C13.4714 11.2772 13.6088 11.0821 13.609 10.8654V5.25532C13.6086 5.11072 13.5466 4.97232 13.4375 4.87211C13.3283 4.77165 13.1812 4.71796 13.0299 4.72297L13.0304 4.7227ZM12.4894 6.05582V10.5103L4.20119 13.8178V9.36641L12.4894 6.05582ZM16.6525 7.26367H21.8809V29.9306H3.35441L16.3094 24.762C16.4133 24.7205 16.5017 24.6499 16.5629 24.5597V24.5585C16.6211 24.4723 16.6523 24.3719 16.6523 24.2693L16.6525 7.26367ZM13.0346 13.8291V13.8294C12.9649 13.8315 12.8965 13.8461 12.8323 13.8721L3.42454 17.6293C3.28193 17.6806 3.16755 17.7849 3.10736 17.9185C3.04716 18.0521 3.04642 18.2034 3.10536 18.3373C3.16455 18.4714 3.27819 18.5769 3.42005 18.6291C3.56216 18.6814 3.72025 18.6764 3.85837 18.6148L13.2616 14.8588C13.5121 14.7612 13.6537 14.5063 13.5978 14.2534C13.5421 14.0005 13.3048 13.822 13.0344 13.8294L13.0346 13.8291Z" fill="#47709B"/>
</svg>
