<svg width="30" height="30" viewBox="0 0 30 30" fill="none" xmlns="http://www.w3.org/2000/svg">
<path d="M15.0002 30.0004C11.0219 30.0004 7.20647 28.4201 4.39332 25.6071C1.58035 22.7939 0 18.9785 0 15.0002C0 11.0219 1.58035 7.20647 4.39332 4.39332C7.20647 1.58035 11.0219 0 15.0002 0C18.9785 0 22.7939 1.58035 25.6071 4.39332C28.4201 7.20647 30.0004 11.0219 30.0004 15.0002C30.0004 17.6332 29.3073 20.2199 27.9908 22.5002C26.6743 24.7806 24.7807 26.6741 22.5004 27.9906C20.22 29.3072 17.6334 30.0002 15.0004 30.0002L15.0002 30.0004ZM15.0002 2.00035C11.5524 2.00035 8.2459 3.37001 5.80761 5.80796C3.36967 8.24591 2 11.5525 2 15.0005C2 18.4486 3.36967 21.7549 5.80761 24.1931C8.24556 26.6311 11.5522 28.0008 15.0002 28.0008C18.4482 28.0008 21.7545 26.6311 24.1928 24.1931C26.6307 21.7552 28.0004 18.4486 28.0004 15.0005C28.0004 11.5525 26.6307 8.24625 24.1928 5.80796C21.7549 3.37001 18.4482 2.00035 15.0002 2.00035Z" fill="#CF4343"/>
<path d="M15.0002 20.0005C14.7351 20.0005 14.4806 19.8952 14.2931 19.7077C14.1056 19.5202 14.0002 19.2657 14.0002 19.0005V16.6706C14.0029 16.1336 14.1612 15.6088 14.4558 15.1599C14.7505 14.711 15.1688 14.3567 15.6603 14.1405C16.202 13.892 16.6429 13.4666 16.9101 12.9338C17.1772 12.4012 17.2549 11.7934 17.1302 11.2106C16.9755 10.4539 16.4898 9.80655 15.807 9.44604C15.1239 9.08577 14.3154 9.05006 13.6034 9.34917C12.8916 9.64827 12.3509 10.2505 12.1302 10.9905C12.0585 11.2514 11.884 11.472 11.6467 11.6021C11.4094 11.732 11.1295 11.7603 10.8711 11.6804C10.6126 11.6005 10.3974 11.4193 10.2748 11.1782C10.1521 10.9371 10.1324 10.6565 10.2204 10.4005C10.6987 8.92311 11.892 7.78756 13.3916 7.3831C14.8909 6.97864 16.4933 7.35967 17.65 8.39608C18.8067 9.43271 19.3608 10.9836 19.1228 12.5184C18.8846 14.053 17.8866 15.3633 16.4703 16.0006C16.1884 16.1198 16.0038 16.3946 16.0002 16.7006V19.0006C16.0002 19.2658 15.8949 19.5203 15.7074 19.7078C15.5199 19.8953 15.2654 20.0006 15.0002 20.0006L15.0002 20.0005Z" fill="#CF4343"/>
<path d="M16.0001 23.0005C16.0001 23.5527 15.5524 24.0005 15.0001 24.0005C14.4479 24.0005 14.0001 23.5527 14.0001 23.0005C14.0001 22.4483 14.4479 22.0005 15.0001 22.0005C15.5524 22.0005 16.0001 22.4483 16.0001 23.0005Z" fill="#CF4343"/>
</svg>
