<svg xmlns="http://www.w3.org/2000/svg" width="11.468" height="17.195" viewBox="0 0 11.468 17.195">
  <path id="Icon_ionic-ios-arrow-round-forward" data-name="Icon ionic-ios-arrow-round-forward" d="M10.965.22a.78.78,0,0,0-.006,1.1l3.631,3.637H.77a.776.776,0,0,0,0,1.553H14.585l-3.631,3.637a.786.786,0,0,0,.006,1.1.773.773,0,0,0,1.093-.006l4.921-4.957h0a.872.872,0,0,0,.161-.245.741.741,0,0,0,.06-.3.778.778,0,0,0-.221-.543L12.052.237A.761.761,0,0,0,10.965.22Z" transform="translate(11.468) rotate(90)" fill="#040419"/>
</svg>
