<svg width="31" height="31" viewBox="0 0 31 31" fill="none" xmlns="http://www.w3.org/2000/svg">
<path d="M30.4897 3.84C30.4897 2.82137 30.0852 1.84471 29.365 1.12443C28.6447 0.404435 27.6681 0 26.6497 0H3.84006C2.82164 0 1.84504 0.404462 1.12477 1.12443C0.404495 1.84471 6.10352e-05 2.8213 6.10352e-05 3.84V26.3424C6.10352e-05 27.361 0.404523 28.3377 1.12477 29.058C1.84504 29.778 2.82164 30.1824 3.84006 30.1824H26.6497C27.6681 30.1824 28.6447 29.7779 29.365 29.058C30.0852 28.3377 30.4897 27.3611 30.4897 26.3424V3.84ZM3.87846 1.53586H26.6497C27.2606 1.53586 27.8467 1.77854 28.2788 2.21059C28.7108 2.64265 28.9538 3.22874 28.9538 3.83999V6.14412L1.53618 6.14386V3.83972V3.83999C1.53618 3.22873 1.77913 2.64266 2.21119 2.21059C2.64324 1.77854 3.22934 1.53586 3.84031 1.53586H3.87846ZM26.6497 28.6463H3.84006C3.22908 28.6463 2.64301 28.4036 2.21094 27.9715C1.77889 27.5395 1.53594 26.9534 1.53594 26.3421V7.67974H28.9535V26.3421C28.9535 26.9534 28.7106 27.5395 28.2785 27.9715C27.8465 28.4036 27.2604 28.6463 26.6494 28.6463H26.6497Z" fill="#7E2828"/>
<path d="M10.4449 11.0591H6.22075C5.79673 11.0591 5.45282 11.403 5.45282 11.827V16.0512C5.45282 16.2547 5.53371 16.4503 5.67782 16.5941C5.82193 16.7382 6.01719 16.8191 6.22076 16.8191H10.4449C10.6485 16.8191 10.844 16.7382 10.9879 16.5941C11.132 16.4503 11.2128 16.2547 11.2128 16.0512V11.827C11.2128 11.6235 11.132 11.4282 10.9879 11.2841C10.844 11.14 10.6485 11.0591 10.4449 11.0591ZM9.67696 15.2832H6.98903V12.5953H9.67696V15.2832Z" fill="#7E2828"/>
<path d="M15.8208 12.5952H21.197C21.621 12.5952 21.9649 12.2513 21.9649 11.827C21.9649 11.403 21.621 11.0591 21.197 11.0591H15.8208C15.3968 11.0591 15.0529 11.403 15.0529 11.827C15.0529 12.2513 15.3968 12.5952 15.8208 12.5952Z" fill="#7E2828"/>
<path d="M24.2689 14.8994H15.8208C15.3968 14.8994 15.0529 15.2433 15.0529 15.6673C15.0529 16.0916 15.3968 16.4355 15.8208 16.4355H24.2689C24.6929 16.4355 25.0368 16.0916 25.0368 15.6673C25.0368 15.2433 24.6929 14.8994 24.2689 14.8994Z" fill="#7E2828"/>
<path d="M10.4449 19.5073H6.22075C5.79673 19.5073 5.45282 19.8513 5.45282 20.2755V24.4997V24.4994C5.45282 24.7032 5.53371 24.8985 5.67782 25.0426C5.82193 25.1865 6.01719 25.2674 6.22076 25.2674H10.4449C10.6485 25.2674 10.844 25.1865 10.9879 25.0426C11.132 24.8985 11.2128 24.7032 11.2128 24.4994V20.2753V20.2755C11.2128 20.0717 11.132 19.8764 10.9879 19.7323C10.844 19.5882 10.6485 19.5073 10.4449 19.5073ZM9.67696 23.7315H6.98903V21.0435H9.67696V23.7315Z" fill="#7E2828"/>
<path d="M15.8208 21.043H21.197C21.621 21.043 21.9649 20.699 21.9649 20.275C21.9649 19.8508 21.621 19.5068 21.197 19.5068H15.8208C15.3968 19.5068 15.0529 19.8508 15.0529 20.275C15.0529 20.6991 15.3968 21.043 15.8208 21.043Z" fill="#7E2828"/>
<path d="M24.2689 23.3472H15.8208C15.3968 23.3472 15.0529 23.6911 15.0529 24.1154C15.0529 24.5394 15.3968 24.8833 15.8208 24.8833H24.2689C24.6929 24.8833 25.0368 24.5394 25.0368 24.1154C25.0368 23.6911 24.6929 23.3472 24.2689 23.3472Z" fill="#7E2828"/>
</svg>
