<svg xmlns="http://www.w3.org/2000/svg" width="24.808" height="24.044" viewBox="0 0 24.808 24.044">
  <g id="noun-cart-1533141" transform="translate(-131.44 -68.151)">
    <path id="Path_6884" data-name="Path 6884" d="M244.3,383.978a3.147,3.147,0,1,0-.933,2.2,3.147,3.147,0,0,0,.933-2.2Zm-4.991,0a1.844,1.844,0,1,1,.54,1.3,1.845,1.845,0,0,1-.54-1.3Z" transform="translate(-100.515 -294.898)"/>
    <path id="Path_6885" data-name="Path 6885" d="M413.909,385.036a3.116,3.116,0,1,0-.913,2.2A3.117,3.117,0,0,0,413.909,385.036Zm-4.96,0a1.844,1.844,0,1,1,.54,1.3A1.845,1.845,0,0,1,408.95,385.036Z" transform="translate(-260.556 -295.957)"/>
    <path id="Path_6886" data-name="Path 6886" d="M155.61,73.311H136.854l-.795-4.006a.7.7,0,0,0-.509-.509l-3.338-.636a.667.667,0,0,0-.763.509.636.636,0,0,0,.508.731l2.925.572,2.384,11.89a3.179,3.179,0,0,0,3.116,2.575H150.81a3.211,3.211,0,0,0,3.084-2.289l2.321-8.011a.6.6,0,0,0-.1-.572.667.667,0,0,0-.509-.254Zm-2.956,8.52A1.876,1.876,0,0,1,150.81,83.2H140.382a1.939,1.939,0,0,1-1.876-1.526l-1.4-7.089h17.644Z" transform="translate(0 0)"/>
  </g>
</svg>
