<svg id="noun-evaluation-1903894" xmlns="http://www.w3.org/2000/svg" width="20.759" height="25.177" viewBox="0 0 20.759 25.177">
  <path id="Path_9" data-name="Path 9" d="M445.156,190.577a.5.5,0,0,0-.486-.486h-2.3a.486.486,0,0,0,0,.973h2.3A.478.478,0,0,0,445.156,190.577Z" transform="translate(-424.397 -184.591)" fill="#fff"/>
  <path id="Path_10" data-name="Path 10" d="M430.658,143.337l1.621-1.621a.481.481,0,1,0-.681-.681l-1.621,1.621a.47.47,0,0,0,0,.681.487.487,0,0,0,.357.13A.578.578,0,0,0,430.658,143.337Z" transform="translate(-413.335 -139.187)" fill="#fff"/>
  <path id="Path_11" data-name="Path 11" d="M400.963,122.929v-2.3a.486.486,0,0,0-.973,0v2.3a.486.486,0,1,0,.972,0Z" transform="translate(-385.702 -120.141)" fill="#fff"/>
  <path id="Path_12" data-name="Path 12" d="M236.687,154.141a.465.465,0,1,0-.929,0v13.732a2.308,2.308,0,0,1-2.323,2.263H221.449a2.308,2.308,0,0,1-2.323-2.263V151.382a2.308,2.308,0,0,1,2.323-2.263h9.291a.465.465,0,0,0,0-.93h-9.291a3.22,3.22,0,0,0-3.252,3.193v16.491a3.22,3.22,0,0,0,3.252,3.193h11.985a3.22,3.22,0,0,0,3.252-3.193Z" transform="translate(-218.198 -145.888)" fill="#fff"/>
  <path id="Path_13" data-name="Path 13" d="M262.289,274.27a2.2,2.2,0,1,0,2.2,2.2A2.207,2.207,0,0,0,262.289,274.27Zm0,3.436a1.232,1.232,0,1,1,1.232-1.232A1.231,1.231,0,0,1,262.289,277.706Z" transform="translate(-256.822 -262.234)" fill="#fff"/>
  <path id="Path_14" data-name="Path 14" d="M262.289,344.22a2.2,2.2,0,1,0,2.2,2.2A2.207,2.207,0,0,0,262.289,344.22Zm0,3.437a1.232,1.232,0,1,1,1.232-1.232A1.231,1.231,0,0,1,262.289,347.657Z" transform="translate(-256.822 -326.887)" fill="#fff"/>
  <path id="Path_15" data-name="Path 15" d="M261.109,195.421a.738.738,0,0,0,.616-.324l2.139-4.539a.486.486,0,1,0-.875-.421l-1.913,4.052-.648-1.1a.495.495,0,0,0-.843.519l.875,1.491a.756.756,0,0,0,.648.324Z" transform="translate(-256.287 -184.429)" fill="#fff"/>
  <path id="Path_16" data-name="Path 16" d="M330.04,218.637a.5.5,0,0,0,.486.486h5.738a.486.486,0,0,0,0-.973h-5.738a.5.5,0,0,0-.486.486Z" transform="translate(-321.397 -210.444)" fill="#fff"/>
  <path id="Path_17" data-name="Path 17" d="M336.3,260.04h-5.771a.486.486,0,1,0,0,.973h5.738a.5.5,0,0,0,.486-.486A.471.471,0,0,0,336.3,260.04Z" transform="translate(-321.4 -249.041)" fill="#fff"/>
  <path id="Path_18" data-name="Path 18" d="M336.3,302.33h-5.771a.486.486,0,1,0,0,.973h5.738a.5.5,0,0,0,.486-.486A.471.471,0,0,0,336.3,302.33Z" transform="translate(-321.4 -288.006)" fill="#fff"/>
  <path id="Path_19" data-name="Path 19" d="M336.3,344.22h-5.771a.486.486,0,1,0,0,.973h5.738a.5.5,0,0,0,.486-.486A.471.471,0,0,0,336.3,344.22Z" transform="translate(-321.4 -326.602)" fill="#fff"/>
  <path id="Path_20" data-name="Path 20" d="M347.548,386.11h-4.765a.486.486,0,1,0,0,.973h4.733A.5.5,0,0,0,348,386.6a.471.471,0,0,0-.454-.486Z" transform="translate(-332.669 -365.341)" fill="#fff"/>
</svg>
