<svg xmlns="http://www.w3.org/2000/svg" width="24" height="28.591" viewBox="0 0 24 28.591">
  <g id="Group_6" data-name="Group 6" transform="translate(-1255 -401.705)">
    <rect id="noun-hybrid-5223639_1" data-name="noun-hybrid-5223639 1" width="24" height="24" transform="translate(1255 404)" fill="none"/>
    <path id="Vector" d="M18.712,3.689a3.2,3.2,0,0,1,2.5,3.122v1.95a.461.461,0,0,1-.461.461H18.4a2.306,2.306,0,0,1-4.519,0H6.871a2.306,2.306,0,0,1-4.519,0H.461A.461.461,0,0,1,0,8.761V4.445A1.383,1.383,0,0,1,1.134,3.09L2.564,2.8,4.15,1.213A4.117,4.117,0,0,1,7.06,0h3.4A4.117,4.117,0,0,1,13.4,1.213h0l1.591,1.6,3.726.881ZM5.59,9.739a1.384,1.384,0,1,0-.978.405A1.384,1.384,0,0,0,5.59,9.739Zm11.528,0a1.384,1.384,0,1,0-.978.405A1.384,1.384,0,0,0,17.117,9.739Zm3.172-2.929A2.3,2.3,0,0,0,18.5,4.574l-3.855-.89a.461.461,0,0,1-.221-.12h0L12.741,1.877A3.2,3.2,0,0,0,10.463.955H7.06a3.2,3.2,0,0,0-2.278.922h0L3.094,3.564a.46.46,0,0,1-.235.125l-1.563.3a.461.461,0,0,0-.373.461V8.3H2.352a2.306,2.306,0,0,1,4.519,0H13.88a2.306,2.306,0,0,1,4.519,0h1.891Z" transform="translate(1256.858 419.227)"/>
    <path id="Vector-2" data-name="Vector" d="M10.01,2.439a.464.464,0,0,1-.327.788H.46a.464.464,0,0,1-.327-.788h0L1.9.673A2.306,2.306,0,0,1,3.531,0h3.08A2.305,2.305,0,0,1,8.244.673ZM4.61.922H3.531a1.384,1.384,0,0,0-.977.406h0l-.982.978H4.61ZM8.571,2.306l-.982-.978A1.384,1.384,0,0,0,6.612.922H5.533V2.306Z" transform="translate(1260.548 421.072)"/>
    <path id="Vector-3" data-name="Vector" d="M0,0H.922V.922H0Z" transform="translate(1266.542 405.394)"/>
    <path id="Vector-4" data-name="Vector" d="M0,0H.922V.922H0Z" transform="translate(1266.542 403.55)"/>
    <path id="Vector-5" data-name="Vector" d="M0,0H.922V.922H0Z" transform="translate(1266.542 407.238)"/>
    <path id="Vector-6" data-name="Vector" d="M0,0H.922V.922H0Z" transform="translate(1266.542 401.705)"/>
    <path id="Vector-7" data-name="Vector" d="M0,0H.922V.922H0Z" transform="translate(1266.542 410.927)"/>
    <path id="Vector-8" data-name="Vector" d="M0,0H.922V.922H0Z" transform="translate(1266.542 414.616)"/>
    <path id="Vector-9" data-name="Vector" d="M0,0H.922V.922H0Z" transform="translate(1266.542 416.461)"/>
    <path id="Vector-10" data-name="Vector" d="M0,0H.922V.922H0Z" transform="translate(1266.542 412.772)"/>
    <path id="Vector-11" data-name="Vector" d="M0,0H.922V.922H0Z" transform="translate(1266.542 409.083)"/>
    <path id="Vector-12" data-name="Vector" d="M4.339.3A14.678,14.678,0,0,0,6.248,3.567h0C7.1,4.766,7.839,5.8,7.839,7.03a4.048,4.048,0,0,1-2.117,3.578,3.836,3.836,0,0,1-3.629,0A4.048,4.048,0,0,1,0,7.03,6.232,6.232,0,0,1,1.568,3.567,14.675,14.675,0,0,0,3.477.3a.461.461,0,0,1,.862,0Zm.945,9.5A3.131,3.131,0,0,0,6.917,7.03,5.53,5.53,0,0,0,5.487,4.107,18.987,18.987,0,0,1,3.9,1.6,18.535,18.535,0,0,1,2.31,4.107,5.652,5.652,0,0,0,.89,7.035,3.131,3.131,0,0,0,2.518,9.8a2.965,2.965,0,0,0,2.767,0Z" transform="translate(1271.153 404.008)"/>
    <path id="Vector-13" data-name="Vector" d="M.5,1.153A1.3,1.3,0,0,0,.994.668,1.3,1.3,0,0,0,1.167,0h.922a2.219,2.219,0,0,1-.311,1.144,2.22,2.22,0,0,1-.856.82A1.956,1.956,0,0,1,0,2.195V1.273a1.079,1.079,0,0,0,.5-.12Z" transform="translate(1275.059 411.038)"/>
    <path id="Vector-14" data-name="Vector" d="M2.689,6.456H.475a.458.458,0,0,1-.461-.572L1.4.351A.461.461,0,0,1,1.859,0H5.548a.464.464,0,0,1,.434.622L4.828,3.689h2.1a.465.465,0,0,1,.378.724L2.79,10.869a.461.461,0,0,1-.378.2.387.387,0,0,1-.175-.037.461.461,0,0,1-.277-.507Zm.553-.922a.458.458,0,0,1,.461.544L3.242,8.623l2.8-4.012H4.164a.464.464,0,0,1-.434-.622L4.883.922H2.218L1.065,5.534Z" transform="translate(1255 404.011)"/>
  </g>
</svg>
