<svg width="28" height="31" viewBox="0 0 28 31" fill="none" xmlns="http://www.w3.org/2000/svg">
<path d="M27.5208 30.1317C27.5994 30.0966 27.4984 12.4043 27.5372 12.3494C27.4974 12.2079 27.4361 12.0727 27.3558 11.9481L25.0742 9.90699V6.44788C25.0742 6.14589 24.8215 5.90145 24.5099 5.90145H20.5914L14.1512 0.144904C13.9351 -0.0483012 13.6021 -0.0483012 13.3859 0.144904L6.94578 5.90145H3.02725C2.71563 5.90145 2.46296 6.14589 2.46296 6.44788V9.90699L0.181378 11.9481C0.0748211 12.0576 0.0105828 12.1993 0 12.3494V30.0537C0.00529016 30.1622 0.0423217 30.2671 0.106808 30.3559C0.204549 30.5093 0.378117 30.602 0.564286 30.6001H26.9729C27.251 30.5991 27.4853 30.3988 27.5208 30.132V30.1317ZM1.12832 13.5971C2.03369 14.4087 8.56851 20.246 9.63517 21.2015L1.12832 28.8059V13.5971ZM10.4671 21.9447L13.3855 24.5533V24.5536C13.6017 24.7465 13.9347 24.7465 14.1508 24.5536L17.0692 21.9449L25.529 29.5068H2.00699L10.4671 21.9447ZM17.9015 21.2011C19.0053 20.2129 25.4661 14.4404 26.4083 13.5967V28.8049L17.9015 21.2011ZM26.1407 12.349L25.0738 13.3028V11.3944L26.1407 12.349ZM13.7683 1.28989L18.9273 5.90113L8.60953 5.90137L13.7683 1.28989ZM23.9455 6.99399V14.3118L13.7683 23.4087L3.59119 14.3118V6.99461L23.9455 6.99399ZM2.46261 13.3026L1.39576 12.349L2.46261 11.3945V13.3026Z" fill="#EEBC25"/>
<path d="M5.51558 13.6581H10.3707C10.6823 13.6581 10.935 13.4134 10.935 13.1117V8.41508C10.935 8.11333 10.6823 7.86865 10.3707 7.86865H5.51558C5.20397 7.86865 4.95129 8.11333 4.95129 8.41508V13.1117C4.95129 13.4134 5.20397 13.6581 5.51558 13.6581ZM6.07987 8.96151H9.80641V12.5653H6.07987V8.96151Z" fill="#EEBC25"/>
<path d="M13.7683 8.96151H21.894C22.2056 8.96151 22.4583 8.71683 22.4583 8.41508C22.4583 8.11333 22.2056 7.86865 21.894 7.86865H13.7683C13.461 7.87451 13.2151 8.11747 13.2151 8.41508C13.2151 8.71269 13.461 8.95541 13.7683 8.96151Z" fill="#EEBC25"/>
<path d="M13.7683 10.9288H21.894C22.2056 10.9288 22.4583 10.6841 22.4583 10.3824C22.4583 10.0806 22.2056 9.83594 21.894 9.83594H13.7683C13.461 9.84179 13.2151 10.0848 13.2151 10.3824C13.2151 10.68 13.461 10.9229 13.7683 10.9288Z" fill="#EEBC25"/>
<path d="M13.7683 12.8956H21.894C22.2056 12.8956 22.4583 12.6509 22.4583 12.3492C22.4583 12.0474 22.2056 11.8027 21.894 11.8027H13.7683C13.461 11.8088 13.2151 12.0516 13.2151 12.3492C13.2151 12.6468 13.461 12.8897 13.7683 12.8956Z" fill="#EEBC25"/>
<path d="M13.7683 14.8629H21.894C22.2056 14.8629 22.4583 14.6184 22.4583 14.3164C22.4583 14.0147 22.2056 13.77 21.894 13.77H13.7683C13.461 13.7761 13.2151 14.0191 13.2151 14.3164C13.2151 14.6141 13.461 14.857 13.7683 14.8629Z" fill="#EEBC25"/>
<path d="M13.7683 16.8302H19.6933C20.0006 16.8243 20.2467 16.5813 20.2467 16.2835C20.2467 15.9859 20.0006 15.7429 19.6933 15.7373H13.7683C13.461 15.7429 13.2148 15.9859 13.2148 16.2837C13.2148 16.5813 13.461 16.8243 13.7683 16.8302Z" fill="#EEBC25"/>
</svg>
