<svg xmlns="http://www.w3.org/2000/svg" width="49.924" height="45.385" viewBox="0 0 49.924 45.385">
  <g id="Group_7319" data-name="Group 7319" transform="translate(-9629.887 2256)">
    <path id="Path_13582" data-name="Path 13582" d="M147.53,56.19l-.053.017-32.8,5.652a1.134,1.134,0,0,0-.9.62c-.013.029-.025.059-.036.089l-.018.018c-.007.029-.013.059-.017.089a1.134,1.134,0,0,0-.053.319V77.842a11.924,11.924,0,1,0,13.611,12.368h22.684a1.134,1.134,0,0,0,1.134-1.134V81.138h1.134A1.135,1.135,0,0,0,153.342,80V72.066h0a1.135,1.135,0,0,0-1.135-1.134h-1.134V62.994h0a1.134,1.134,0,0,0-1.134-1.134h-1.134V57.324a1.134,1.134,0,0,0-1.276-1.134Zm-.992,2.48V61.86h-18.5Zm-30.624,5.457h32.893v6.8H135.195a3.414,3.414,0,0,0-3.4,3.4v3.4a3.414,3.414,0,0,0,3.4,3.4h13.611v6.8H127.149a11.955,11.955,0,0,0-11.236-10.206ZM135.195,73.2h15.88v5.67h-15.88a1.218,1.218,0,0,1-1.134-1.134v-3.4a1.218,1.218,0,0,1,1.134-1.134Zm1.7,1.134a1.7,1.7,0,1,0,1.7,1.7A1.7,1.7,0,0,0,136.9,74.334Zm-21.55,5.688a9.621,9.621,0,1,1-9.623,9.621A9.593,9.593,0,0,1,115.346,80.021Zm5.016,2.8h0a1.131,1.131,0,0,0-.762.39l-1.01,1.116a6.707,6.707,0,0,0-3.243-.921,7.9,7.9,0,0,0-4.785,1.949,21.555,21.555,0,0,0-3.474,3.579h0a1.135,1.135,0,0,0,0,1.4,22.452,22.452,0,0,0,3.119,3.3l-.815.921a1.136,1.136,0,1,0,1.7,1.506l.993-1.116a6.657,6.657,0,0,0,3.261.939,7.922,7.922,0,0,0,4.785-1.967,21.524,21.524,0,0,0,3.474-3.579,1.135,1.135,0,0,0,0-1.4,22.372,22.372,0,0,0-3.137-3.3l.833-.921a1.134,1.134,0,0,0-.94-1.9Zm-5.016,2.853a4.174,4.174,0,0,1,1.666.425l-.372.408a3.316,3.316,0,0,0-1.294-.266,3.423,3.423,0,0,0-3.4,3.4,3.342,3.342,0,0,0,.408,1.612l-.62.673a18.585,18.585,0,0,1-2.268-2.286,17.814,17.814,0,0,1,2.5-2.5,5.937,5.937,0,0,1,3.385-1.471Zm3.6,1.648a18.639,18.639,0,0,1,2.286,2.321,17.776,17.776,0,0,1-2.5,2.48,5.975,5.975,0,0,1-3.385,1.488,4.07,4.07,0,0,1-1.683-.408l.372-.425a3.319,3.319,0,0,0,1.311.266,3.423,3.423,0,0,0,3.4-3.4,3.337,3.337,0,0,0-.425-1.63l.62-.691Z" transform="translate(9526.469 -2312.182)" fill="#0097c9"/>
  </g>
</svg>
