<svg id="noun-like-488419" xmlns="http://www.w3.org/2000/svg" width="43.499" height="40.539" viewBox="0 0 43.499 40.539">
  <path id="Path_6816" data-name="Path 6816" d="M156.639,71.974h-8.376a1.892,1.892,0,0,0-.558.056h-2.457l.838-2.9V64.715a4.421,4.421,0,0,0-4.411-4.411h-2.066v6.254L138.324,68.4l-5.416,5.919a7.469,7.469,0,0,0-1.675,2.792h-.949V75.882H117.441a.67.67,0,1,0,0,1.34h8.543V99.5h-8.543a.67.67,0,1,0,0,1.34h9.883v-2.68h2.96V94.7h2.234a7.292,7.292,0,0,0,5.639,2.68h13.68a3.682,3.682,0,0,0,3.685-3.685,3.748,3.748,0,0,0-.838-2.345,3.675,3.675,0,0,0,3.239-3.629,3.6,3.6,0,0,0-1.229-2.736,3.68,3.68,0,0,0,1-5.807,3.689,3.689,0,0,0-1.061-7.2Zm-11.279,1.4-.335.5c-.056-.168-.056-.335-.112-.5Zm-.168,4.355a1.5,1.5,0,0,0,.391.447,3.833,3.833,0,0,0-.447.168c0-.223.056-.447.056-.614Zm-16.249,19.04H127.38V77.222h1.563Zm4.467-3.183-.223-.223h-2.9V78.451h1.954l.112-.5a5.494,5.494,0,0,1,1.452-2.68l5.528-6.03,1.619-2.289v-5.3h.726a3.1,3.1,0,0,1,3.071,3.071v4.132l-.949,3.518a.718.718,0,0,0-.335.838c0,.056.056.112.056.168v.056a9.323,9.323,0,0,1,.056,5.528c-1.284,4.579-5.528,7.371-9.38,6.254a.671.671,0,1,0-.391,1.284,8.748,8.748,0,0,0,2.066.279,9.134,9.134,0,0,0,7.259-3.964,3.4,3.4,0,0,0,1.061,1.563,3.7,3.7,0,0,0-.447,6.31,3.7,3.7,0,0,0-1.563,3.015,3.748,3.748,0,0,0,.838,2.345h-4.858a5.926,5.926,0,0,1-4.747-2.457Zm18.427,2.4h-5.975a2.345,2.345,0,0,1,0-4.691h5.975a2.345,2.345,0,1,1,0,4.691Zm2.4-5.975h-8.376a2.345,2.345,0,0,1,0-4.691h8.376a2.345,2.345,0,1,1,0,4.691Zm.782-6.03h-8.376a2.345,2.345,0,0,1,0-4.691h8.432a2.36,2.36,0,0,1,2.345,2.345,2.447,2.447,0,0,1-2.4,2.345ZM156.639,78h-8.376a2.36,2.36,0,0,1-2.345-2.345,2.33,2.33,0,0,1,1.9-2.289h3.8a.5.5,0,0,0,.279-.056h4.746a2.345,2.345,0,1,1,0,4.69Z" transform="translate(-116.771 -60.303)" fill="#fff"/>
  <path id="Path_6817" data-name="Path 6817" d="M147.139,413.03a2.569,2.569,0,1,0-2.569,2.569A2.562,2.562,0,0,0,147.139,413.03Zm-3.8,0a1.229,1.229,0,1,1,1.229,1.229A1.239,1.239,0,0,1,143.342,413.03Z" transform="translate(-139.713 -378.689)" fill="#fff"/>
</svg>
