<svg id="noun-tick-801900" xmlns="http://www.w3.org/2000/svg" width="13.857" height="13.857" viewBox="0 0 13.857 13.857">
  <ellipse id="Ellipse_11" data-name="Ellipse 11" cx="4.447" cy="5.231" rx="4.447" ry="5.231" transform="translate(2.482 1.698)" fill="#fafafc"/>
  <path id="Path_6878" data-name="Path 6878" d="M88.128,11.2a6.928,6.928,0,1,0,6.928,6.928A6.93,6.93,0,0,0,88.128,11.2Zm3.565,5.254-2.685,2.695-1.385,1.39a.735.735,0,0,1-.505.216.677.677,0,0,1-.505-.216l-2.05-2.05a.725.725,0,1,1,1.025-1.025l1.53,1.53,3.565-3.565a.715.715,0,0,1,1.025,0,.728.728,0,0,1-.014,1.025Z" transform="translate(-81.2 -11.199)" fill="#f0f0f0"/>
</svg>
