<svg xmlns="http://www.w3.org/2000/svg" width="18.4" height="19.17" viewBox="0 0 18.4 19.17">
  <g id="noun-customer-care-1155444" transform="translate(0.25 0.25)">
    <path id="Path_6883" data-name="Path 6883" d="M147.272,59.414a7.062,7.062,0,0,0-7.055,7.055v.473a2.84,2.84,0,0,0-1.894,2.675V70.78a2.841,2.841,0,0,0,2.841,2.841h1.056a.474.474,0,0,0,.473-.473V67.26a.474.474,0,0,0-.473-.473h-1.056v-.317a6.108,6.108,0,0,1,12.216,0v.317h-1.054a.473.473,0,0,0-.473.473v5.9a.474.474,0,0,0,.473.473h.729a2.022,2.022,0,0,1-1.984,1.657h-1.657a2.219,2.219,0,1,0,.038.947h1.619a2.969,2.969,0,0,0,2.952-2.68,2.841,2.841,0,0,0,2.2-2.765V69.627a2.841,2.841,0,0,0-1.894-2.675v-.473a7.062,7.062,0,0,0-7.057-7.064Zm-5.528,13.269h-.582a1.894,1.894,0,0,1-1.894-1.894V69.627a1.894,1.894,0,0,1,1.894-1.894h.582Zm5.528,4.434a1.274,1.274,0,1,1,.9-.374,1.274,1.274,0,0,1-.9.374Zm8-7.49V70.79a1.894,1.894,0,0,1-1.894,1.894H152.8v-4.95h.582a1.894,1.894,0,0,1,1.894,1.894Z" transform="translate(-138.323 -59.414)" fill="#4e4e4e" stroke="#4e4e4e" stroke-width="0.5"/>
  </g>
</svg>
