<svg xmlns="http://www.w3.org/2000/svg" width="10.602" height="13.385" viewBox="0 0 10.602 13.385">
  <g id="Group_2115" data-name="Group 2115" transform="translate(0.2 0.2)">
    <g id="Group_2044" data-name="Group 2044">
      <g id="noun-dustbin-5354104">
        <path id="Path_6861" data-name="Path 6861" d="M149.811,15.855h-1.1l-.671-1.343a.923.923,0,0,0-.83-.512H145a.923.923,0,0,0-.83.512l-.671,1.343h-1.1A1.391,1.391,0,0,0,141,17.246v.464a1.391,1.391,0,0,0,.928,1.306v6.578a1.391,1.391,0,0,0,1.391,1.391h5.565a1.391,1.391,0,0,0,1.391-1.391V19.016a1.391,1.391,0,0,0,.927-1.306v-.464a1.391,1.391,0,0,0-1.391-1.391ZM145,14.927h2.209l.464.927h-3.137Zm4.351,10.666a.464.464,0,0,1-.464.464h-5.565a.464.464,0,0,1-.464-.464V19.1h6.492Zm.927-7.884a.464.464,0,0,1-.464.464h-7.42a.464.464,0,0,1-.464-.464v-.464a.464.464,0,0,1,.464-.464h7.42a.464.464,0,0,1,.464.464Z" transform="translate(-141 -14)" fill="#6a6a6a" stroke="#fff" stroke-width="0.4"/>
        <path id="Path_6862" data-name="Path 6862" d="M255.515,266.668a.515.515,0,0,0,.515-.515v-4.637a.515.515,0,0,0-1.031,0v4.637A.515.515,0,0,0,255.515,266.668Z" transform="translate(-252.248 -255.744)" fill="#6a6a6a" stroke="#fff" stroke-width="0.4"/>
        <path id="Path_6863" data-name="Path 6863" d="M331.515,266.668a.515.515,0,0,0,.515-.515v-4.637a.515.515,0,0,0-1.031,0v4.637A.515.515,0,0,0,331.515,266.668Z" transform="translate(-326.414 -255.744)" fill="#6a6a6a" stroke="#fff" stroke-width="0.4"/>
        <path id="Path_6864" data-name="Path 6864" d="M407.515,266.668a.515.515,0,0,0,.515-.515v-4.637a.515.515,0,0,0-1.031,0v4.637A.515.515,0,0,0,407.515,266.668Z" transform="translate(-400.58 -255.744)" fill="#6a6a6a" stroke="#fff" stroke-width="0.4"/>
      </g>
    </g>
  </g>
</svg>
