<svg xmlns="http://www.w3.org/2000/svg" width="24.406" height="24.481" viewBox="0 0 24.406 24.481">
  <g id="Group_7833" data-name="Group 7833" transform="translate(-98.59 -27.8)">
    <path id="Path_13601" data-name="Path 13601" d="M122.552,43.278a8.328,8.328,0,0,1-1.365-.228c-.3-.084-.63-.2-1.009-.343-.3-.11-.638-.234-1.03-.364s-.771-.246-1.147-.351V28.948a.95.95,0,0,0-.949-.949H99.738a.949.949,0,0,0-.948.949V51.185a.949.949,0,0,0,.948.949h17.315a.95.95,0,0,0,.949-.949v-.556h0A1.948,1.948,0,0,0,119.6,49.8h2.225a1.028,1.028,0,0,0,1.027-1.027V43.6a.326.326,0,0,0-.3-.32Zm-.349,2.378H121.11a1.085,1.085,0,0,1,1.036-.762c.02,0,.039,0,.059,0ZM101.949,28.643h1.641v2.215l-.56-.783a.322.322,0,0,0-.522,0l-.56.782Zm15.409,22.541a.306.306,0,0,1-.306.3H99.738a.306.306,0,0,1-.306-.306V28.949a.306.306,0,0,1,.306-.3h1.569v3.214a.322.322,0,0,0,.582.188l.881-1.23.881,1.23a.322.322,0,0,0,.582-.188V28.644h12.819a.306.306,0,0,1,.306.306V41.824c-.54-.132-1.065-.236-1.571-.312h0a14.713,14.713,0,0,0-3.781-.088,13.176,13.176,0,0,0-3.065.767c-.268.1-.517.2-.757.295a15.717,15.717,0,0,1-1.579.563c-.365.106-.778.206-1.216.312-.656.159-1.334.324-1.942.528h0a12.534,12.534,0,0,0-1.942.851c-.994.555-1.477,1.091-1.477,1.639v2.4h0a1.028,1.028,0,0,0,1.027,1.027h1.789a1.945,1.945,0,0,0,3.181,0h10.386a1.957,1.957,0,0,0,.946.715ZM101.922,45.79a1.086,1.086,0,0,1-1.035.763l-.158,0-.057,0V46.38c0-.173.156-.377.414-.59Zm2.514,4.2a1.307,1.307,0,1,1,.923-.383,1.3,1.3,0,0,1-.923.383Zm13.568,0a1.307,1.307,0,1,1,.923-.383,1.305,1.305,0,0,1-.923.383Zm3.816-.826h-1.93a1.948,1.948,0,1,0-3.775,0h-9.793a1.948,1.948,0,1,0-3.775,0h-1.492a.385.385,0,0,1-.384-.385v-.227h.691a.322.322,0,0,0,0-.642h-.691V47.2l.075,0,.14,0a1.729,1.729,0,0,0,1.726-1.725.322.322,0,0,0-.322-.322h-.184a11.438,11.438,0,0,1,1.545-.648c.582-.195,1.246-.356,1.889-.513.444-.107.864-.21,1.243-.319a16.207,16.207,0,0,0,1.64-.585c.236-.095.481-.192.742-.289h0a12.553,12.553,0,0,1,2.916-.731,14.06,14.06,0,0,1,3.611.085,19.522,19.522,0,0,1,3.252.8c.383.128.718.25,1.013.358.392.144.731.268,1.058.359a8.011,8.011,0,0,0,1.189.218v.366l-.059,0a1.728,1.728,0,0,0-1.726,1.726.322.322,0,0,0,.322.322H122.2v2.478a.385.385,0,0,1-.384.385Zm-3-5.846a19.167,19.167,0,0,0-3.187-.789,13.483,13.483,0,0,0-3.509-.084,12.171,12.171,0,0,0-2.827.71c-.26.1-.517.2-.765.295-.2.078-.4.158-.6.234-.487.184-.475.51-.46.607.031.2.206.413.6.431q2.265.1,4.064.1c3.618,0,5.844-.31,6.764-.937h0a.322.322,0,0,0-.08-.57Zm-10.194.786.139-.054c.245-.1.5-.2.753-.291h0a11.526,11.526,0,0,1,2.679-.674,12.817,12.817,0,0,1,3.339.08,17.387,17.387,0,0,1,2.276.51c-1.22.37-3.808.646-9.186.428Zm5.3,4.127a.322.322,0,0,1-.322.322H108.8a.322.322,0,1,1,0-.642h4.816a.322.322,0,0,1,.321.321ZM101.592,34.539a.322.322,0,0,1,.322-.322h12.965a.322.322,0,0,1,0,.644H101.912a.322.322,0,0,1-.321-.322Zm0,2.154a.322.322,0,0,1,.322-.322h12.965a.322.322,0,0,1,0,.643H101.912a.322.322,0,0,1-.321-.322Zm0,2.154h0a.322.322,0,0,1,.322-.322h12.965a.322.322,0,0,1,0,.644H101.912a.322.322,0,0,1-.321-.322Zm0,2.1h0a.322.322,0,0,1,.322-.322h5.16a.322.322,0,0,1,0,.642h-5.161a.322.322,0,0,1-.321-.32Z" transform="translate(-0.026 -0.026)" fill="#191970"/>
    <path id="Path_7445_-_Outline" data-name="Path 7445 - Outline" d="M117.027,52.281H99.712a1.123,1.123,0,0,1-1.122-1.122V28.922A1.123,1.123,0,0,1,99.711,27.8h17.315a1.123,1.123,0,0,1,1.122,1.122V41.834c.336.1.682.2,1.028.317.405.135.754.263,1.035.366.376.138.7.256,1,.338a8.179,8.179,0,0,0,1.167.207l.167.015a.5.5,0,0,1,.453.491v5.18a1.2,1.2,0,0,1-1.2,1.2h-2.138a2.125,2.125,0,0,1-1.508.819v.389a1.123,1.123,0,0,1-1.122,1.122ZM99.712,28.148a.775.775,0,0,0-.774.775V51.158a.775.775,0,0,0,.775.775h17.314a.776.776,0,0,0,.775-.775v-.73h.174a1.777,1.777,0,0,0,1.452-.752l.052-.074h2.316a.854.854,0,0,0,.853-.853V43.571a.151.151,0,0,0-.129-.146h-.007a8.529,8.529,0,0,1-1.393-.233c-.313-.087-.643-.208-1.026-.348-.279-.1-.626-.23-1.026-.363-.385-.128-.768-.245-1.138-.348L117.8,42.1V28.922a.776.776,0,0,0-.775-.775Zm17.315,23.49H99.712a.481.481,0,0,1-.48-.479V28.922a.481.481,0,0,1,.48-.479h1.743v3.388a.147.147,0,0,0,.1.139.149.149,0,0,0,.165-.054l1.022-1.427,1.022,1.427a.15.15,0,0,0,.164.053.147.147,0,0,0,.1-.14V28.444h12.993a.48.48,0,0,1,.48.48v13.1l-.215-.052c-.495-.121-.978-.218-1.439-.291l-.117-.018A14.539,14.539,0,0,0,112,41.571a13.01,13.01,0,0,0-3.021.756c-.26.1-.5.192-.732.285l-.022.009a15.933,15.933,0,0,1-1.594.568c-.381.11-.81.214-1.225.315h0c-.65.158-1.323.321-1.922.522h0a12.4,12.4,0,0,0-1.916.84c-.919.514-1.386,1.014-1.386,1.486v2.4a.854.854,0,0,0,.853.853h1.879l.052.074a1.771,1.771,0,0,0,2.9,0l.052-.074h10.567l.052.073a1.773,1.773,0,0,0,.862.652l.116.041v.79A.481.481,0,0,1,117.026,51.637ZM99.712,28.791a.133.133,0,0,0-.132.132V51.158a.132.132,0,0,0,.132.132h17.315a.133.133,0,0,0,.132-.132V50.61a2.116,2.116,0,0,1-.86-.661H106.088a2.119,2.119,0,0,1-3.357,0h-1.7a1.2,1.2,0,0,1-1.2-1.2h0v-2.4c0-.616.512-1.2,1.566-1.79a12.75,12.75,0,0,1,1.971-.864v0c.613-.206,1.294-.371,1.952-.531h0c.411-.1.837-.2,1.209-.31a15.6,15.6,0,0,0,1.56-.557l.025-.01c.234-.094.477-.19.739-.288a13.36,13.36,0,0,1,3.1-.776,14.885,14.885,0,0,1,3.629.059h0l.2.03c.439.066.9.155,1.371.264V28.923a.132.132,0,0,0-.132-.132H104.381v3.04a.5.5,0,0,1-.9.29l-.74-1.033L102,32.121a.5.5,0,0,1-.9-.288V28.791Zm18.267,21.343a1.479,1.479,0,0,1-1.479-1.479,1.489,1.489,0,0,1,.433-1.046,1.479,1.479,0,0,1,2.092,0,1.489,1.489,0,0,1,.433,1.046,1.48,1.48,0,0,1-1.479,1.479Zm0-2.611a1.124,1.124,0,0,0-.8.331,1.139,1.139,0,0,0-.331.8,1.131,1.131,0,0,0,2.263,0,1.138,1.138,0,0,0-.331-.8A1.124,1.124,0,0,0,117.978,47.523ZM104.41,50.134a1.479,1.479,0,0,1-1.479-1.479,1.489,1.489,0,0,1,.433-1.046,1.479,1.479,0,0,1,2.092,0,1.489,1.489,0,0,1,.433,1.046,1.48,1.48,0,0,1-1.479,1.479Zm0-2.611a1.123,1.123,0,0,0-.8.331,1.139,1.139,0,0,0-.331.8,1.131,1.131,0,0,0,2.263,0,1.138,1.138,0,0,0-.331-.8A1.124,1.124,0,0,0,104.41,47.523Zm17.385,1.785h-2.153l.055-.217a1.774,1.774,0,0,0-1.719-2.212,1.785,1.785,0,0,0-1.4.685,1.763,1.763,0,0,0-.319,1.526l.055.217h-10.24l.055-.217a1.774,1.774,0,1,0-3.438,0l.055.217H101.03a.559.559,0,0,1-.558-.559v-.4h.858a.148.148,0,0,0,0-.294h-.858V47l.244-.006.145,0a1.555,1.555,0,0,0,1.552-1.552.148.148,0,0,0-.148-.148h-.184L102,44.966a11.651,11.651,0,0,1,1.568-.658c.588-.2,1.255-.359,1.9-.516.46-.111.868-.211,1.238-.318a16.092,16.092,0,0,0,1.621-.578c.226-.091.48-.192.747-.291h0a12.739,12.739,0,0,1,2.956-.741,14.23,14.23,0,0,1,3.659.086,19.754,19.754,0,0,1,3.281.812c.374.125.7.245.992.351l.041.015c.382.14.713.261,1.028.348a7.859,7.859,0,0,0,1.161.213l.155.017v.7h-.174l-.059,0a1.554,1.554,0,0,0-1.552,1.553.148.148,0,0,0,.148.148h1.638V48.75a.56.56,0,0,1-.557.558Zm-1.718-.348h1.716A.211.211,0,0,0,122,48.75v-2.3h-1.29a.5.5,0,0,1-.5-.5,1.9,1.9,0,0,1,1.785-1.9v-.039a8.211,8.211,0,0,1-1.059-.205c-.331-.092-.668-.215-1.057-.357l-.041-.015c-.287-.1-.613-.224-.984-.348a19.408,19.408,0,0,0-3.224-.8,13.886,13.886,0,0,0-3.566-.084,12.386,12.386,0,0,0-2.872.721l0-.008,0,.009c-.263.1-.515.2-.738.288a16.426,16.426,0,0,1-1.655.59c-.378.109-.79.21-1.252.321-.64.156-1.3.316-1.874.508a11.3,11.3,0,0,0-1.092.431.5.5,0,0,1,.171.374,1.9,1.9,0,0,1-1.9,1.9h-.042v.364h.528a.5.5,0,0,1,0,.989h-.528v.053a.211.211,0,0,0,.211.211h1.28a2.122,2.122,0,1,1,4.2,0h9.369a2.122,2.122,0,1,1,4.2,0ZM108.75,48.7a.5.5,0,1,1,.026-.991h4.811a.495.495,0,0,1,0,.99H108.75Zm0-.644a.148.148,0,1,0,.009.3h4.827a.147.147,0,1,0,0-.295h-4.836Zm-8.279-1.344v-.357c0-.222.156-.459.478-.724l.048-.04h1.135l-.07.226a1.259,1.259,0,0,1-1.2.885l-.122,0Zm.652-.773c-.279.242-.3.377-.3.415h.041a.913.913,0,0,0,.764-.415Zm20.043.011-.517-.493h.313a1.258,1.258,0,0,1,1.157-.762c.022,0,.047,0,.075,0l.157.015V45.8h-1.14Zm.19-.493H122v-.407a.909.909,0,0,0-.648.407Zm-9.241-.487h0c-1.2,0-2.566-.035-4.072-.1a.736.736,0,0,1-.767-.577.745.745,0,0,1,.57-.8c.2-.077.417-.161.6-.233l.06-.024c.23-.09.468-.183.708-.273a12.353,12.353,0,0,1,2.866-.72,13.655,13.655,0,0,1,3.558.084,19.4,19.4,0,0,1,3.215.8h0a.5.5,0,0,1,.33.561h.259l-.465.317C118.022,44.653,115.778,44.969,112.115,44.969Zm1.423-2.456a13.365,13.365,0,0,0-1.418.076,12,12,0,0,0-2.784.7c-.239.089-.476.182-.7.271l-.06.023c-.184.073-.4.157-.6.235-.354.134-.362.336-.349.417.01.062.071.268.44.284,1.5.067,2.865.1,4.056.1,3.519,0,5.756-.3,6.649-.9l.015-.011a.148.148,0,0,0-.037-.262h0a19.048,19.048,0,0,0-3.159-.782A13.347,13.347,0,0,0,113.538,42.513Zm-1.463,1.812c-1.042,0-2.212-.026-3.478-.077l-.055-.336.168-.065c.237-.093.481-.189.727-.28l0,0a11.712,11.712,0,0,1,2.713-.682,12.987,12.987,0,0,1,3.387.081,17.624,17.624,0,0,1,2.3.516l.557.165-.556.168A22.5,22.5,0,0,1,112.075,44.325Zm-2.621-.394c.94.031,1.819.046,2.621.046a27.72,27.72,0,0,0,5.026-.341c-.532-.135-1.072-.246-1.613-.329a12.643,12.643,0,0,0-3.294-.079,11.359,11.359,0,0,0-2.635.664l-.031.012Zm-2.4-2.514h-5.167a.5.5,0,0,1-.495-.494l0-.41.108.1a.5.5,0,0,1,.39-.19h5.172a.5.5,0,0,1,0,.989Zm-5.314-.488a.148.148,0,0,0,.147.14h5.154a.148.148,0,0,0,0-.294h-5.154a.148.148,0,0,0-.148.148Zm13.113-1.613H101.886a.5.5,0,0,1-.495-.5v-.4l.1.094a.5.5,0,0,1,.393-.194h12.965a.5.5,0,0,1,0,.991Zm-13.113-.488a.148.148,0,0,0,.147.14h12.966a.148.148,0,0,0,0-.3H101.887a.148.148,0,0,0-.148.148Zm13.113-1.667H101.886a.5.5,0,0,1-.495-.5v-.174h.032a.5.5,0,0,1,.464-.322h12.965a.5.5,0,1,1,0,.991Zm-13.113-.488a.148.148,0,0,0,.147.14h12.966a.148.148,0,0,0,0-.3H101.887a.148.148,0,0,0-.148.148Zm13.113-1.667H101.886a.5.5,0,0,1-.495-.5v-.174h.032a.5.5,0,0,1,.464-.322h12.965a.5.5,0,0,1,0,.991Zm-13.113-.488a.148.148,0,0,0,.147.14h12.966a.148.148,0,0,0,0-.3H101.887a.148.148,0,0,0-.148.148Zm2-3.146-.875-1.224a.148.148,0,0,0-.24,0l-.875,1.222V28.443h1.989Zm-.994-1.632a.5.5,0,0,1,.4.206l.245.342v-1.5H102.1v1.5l.244-.341A.5.5,0,0,1,102.744,29.742Z" transform="translate(0 0)" fill="#191970"/>
  </g>
</svg>
