<svg xmlns="http://www.w3.org/2000/svg" width="25.81" height="25.81" viewBox="0 0 25.81 25.81">
  <g id="noun-callback-221171" transform="translate(0)">
    <path id="Path_6" data-name="Path 6" d="M10.5,0a12.9,12.9,0,1,0,7.949,23.074v1.29H19.59V20.957H16.183v1.136h1.755a11.741,11.741,0,0,1-7.382,2.633A11.8,11.8,0,1,1,22.326,12.9a11.67,11.67,0,0,1-2.374,7.072l.878.671A12.9,12.9,0,0,0,10.5,0Z" transform="translate(2.4 0)" fill="#fff"/>
    <path id="Path_7" data-name="Path 7" d="M428.861,316.8a1.66,1.66,0,0,0-1.66,1.66v7.034a1.66,1.66,0,0,0,1.66,1.66h2.927a1.66,1.66,0,0,0,1.66-1.66V318.46a1.66,1.66,0,0,0-1.66-1.66Zm3.626,1.66v7.034a.69.69,0,0,1-.7.7h-2.927a.69.69,0,0,1-.7-.7V318.46a.69.69,0,0,1,.7-.7h2.927A.718.718,0,0,1,432.488,318.46Z" transform="translate(-417.393 -309.043)" fill="#fff"/>
    <path id="Path_8" data-name="Path 8" d="M565.223,732.61a.612.612,0,1,1-.612-.612.612.612,0,0,1,.612.612" transform="translate(-551.707 -716.11)" fill="#fff"/>
  </g>
</svg>
