<svg xmlns="http://www.w3.org/2000/svg" width="28" height="24" viewBox="0 0 28 24">
  <g id="Group_6460" data-name="Group 6460" transform="translate(5.442 -7.116)">
    <g id="Rectangle_1813" data-name="Rectangle 1813" transform="translate(-5.442 7.116)" fill="#fff" stroke="#fafafc" stroke-width="1">
      <rect width="28" height="24" rx="4" stroke="none"/>
      <rect x="0.5" y="0.5" width="27" height="23" rx="3.5" fill="none"/>
    </g>
    <g id="noun-360-vr-2320703" transform="translate(-114.922 -133.504)">
      <path id="Path_13577" data-name="Path 13577" d="M123.48,329.68c-.392,0-9.6.028-9.6,2.451,0,1.9,5.615,2.326,8.009,2.42l-.787.783a.529.529,0,0,0,0,.749h0a.529.529,0,0,0,.749,0l1.509-1.5a.589.589,0,0,0,.038-.781c-.381-.453-1-1.18-1.38-1.633a.53.53,0,0,0-.807.686l.533.628a18.79,18.79,0,0,1-6.355-1.057.325.325,0,0,1,0-.6c1.049-.5,3.854-1.09,8.1-1.09s7.049.593,8.1,1.09a.325.325,0,0,1,0,.6,19.654,19.654,0,0,1-6.8,1.074.535.535,0,0,0-.52.543.523.523,0,0,0,.539.516c2.2-.072,8.287-.45,8.287-2.43,0-2.423-9.208-2.451-9.6-2.451Z" transform="translate(0 -176.606)" fill="#191970"/>
      <path id="Path_13578" data-name="Path 13578" d="M149.679,179.769v-1.045h.118a3.2,3.2,0,0,0,1.579.482,1.506,1.506,0,0,0,.909-.241.82.82,0,0,0,.327-.7.68.68,0,0,0-.256-.568,1.879,1.879,0,0,0-1.058-.2h-.324v-.836h.305q1.236,0,1.237-.754a.53.53,0,0,0-.265-.48,1.44,1.44,0,0,0-.754-.164,3.407,3.407,0,0,0-1.546.471h-.11v-1.034a5.13,5.13,0,0,1,1.8-.35,2.649,2.649,0,0,1,1.547.375,1.169,1.169,0,0,1,.524,1,1.227,1.227,0,0,1-.291.811,1.414,1.414,0,0,1-.776.466v.051a1.575,1.575,0,0,1,.88.432,1.181,1.181,0,0,1,.324.859,1.564,1.564,0,0,1-.618,1.3,2.64,2.64,0,0,1-1.675.486,4.917,4.917,0,0,1-1.877-.35Z" transform="translate(-34.347 -27.571)" fill="#191970"/>
      <path id="Path_13579" data-name="Path 13579" d="M278.476,174.438v.949h-.107a1.92,1.92,0,0,0-.843-.169,1.543,1.543,0,0,0-1.678,1.575,2.631,2.631,0,0,1,1.317-.434,1.84,1.84,0,0,1,1.312.467,1.709,1.709,0,0,1,.5,1.31,1.859,1.859,0,0,1-.6,1.429,2.171,2.171,0,0,1-1.536.554,2.059,2.059,0,0,1-1.65-.665,2.858,2.858,0,0,1-.572-1.919,3.379,3.379,0,0,1,.756-2.366,2.831,2.831,0,0,1,2.2-.824,4.055,4.055,0,0,1,.906.092Zm-2.631,2.955,0,.151c0,.081,0,.146,0,.2q0,1.553,1.008,1.553a.82.82,0,0,0,.653-.287,1.191,1.191,0,0,0,.248-.806q0-1.012-1.056-1.012A1.97,1.97,0,0,0,275.845,177.393Z" transform="translate(-154.22 -27.573)" fill="#191970"/>
      <path id="Path_13580" data-name="Path 13580" d="M401.031,180.13a1.96,1.96,0,0,1-1.658-.686,4.831,4.831,0,0,1,0-4.4,2.33,2.33,0,0,1,3.312,0,4.849,4.849,0,0,1,0,4.4,1.964,1.964,0,0,1-1.66.682Zm0-4.917a.759.759,0,0,0-.738.484,3.95,3.95,0,0,0-.223,1.547,3.87,3.87,0,0,0,.228,1.546.793.793,0,0,0,1.465-.007,5.4,5.4,0,0,0,.006-3.088A.761.761,0,0,0,401.031,175.213Z" transform="translate(-273.408 -27.582)" fill="#191970"/>
      <path id="Path_13581" data-name="Path 13581" d="M508.981,146.774a1.166,1.166,0,1,1-1.166-1.166,1.166,1.166,0,0,1,1.166,1.166" transform="translate(-376.84)" fill="#191970"/>
    </g>
  </g>
</svg>
