<svg xmlns="http://www.w3.org/2000/svg" width="26.825" height="25" viewBox="0 0 26.825 25">
  <g id="noun-like-488419" transform="translate(-116.771 -60.303)">
    <path id="Path_6816" data-name="Path 6816" d="M141.357,67.5h-5.165a1.167,1.167,0,0,0-.344.035h-1.515l.517-1.791v-2.72a2.726,2.726,0,0,0-2.72-2.72h-1.274V64.16l-.792,1.136-3.34,3.65a4.606,4.606,0,0,0-1.033,1.722H125.1v-.758h-7.92a.413.413,0,1,0,0,.826h5.268v13.74h-5.268a.413.413,0,1,0,0,.826h6.095V83.65H125.1V81.515h1.377a4.5,4.5,0,0,0,3.478,1.653H138.4a2.271,2.271,0,0,0,2.273-2.273,2.311,2.311,0,0,0-.517-1.446,2.266,2.266,0,0,0,2-2.238,2.218,2.218,0,0,0-.758-1.687,2.27,2.27,0,0,0,.62-3.581,2.275,2.275,0,0,0-.654-4.442Zm-6.955.861-.207.31c-.035-.1-.035-.207-.069-.31Zm-.1,2.686a.926.926,0,0,0,.241.275,2.361,2.361,0,0,0-.275.1C134.264,71.288,134.3,71.15,134.3,71.047ZM124.278,82.789h-.964V70.737h.964Zm2.755-1.963-.138-.138H125.1V71.495h1.205l.069-.31a3.388,3.388,0,0,1,.9-1.653l3.409-3.719,1-1.412V61.13h.448a1.911,1.911,0,0,1,1.894,1.894v2.548l-.585,2.169a.443.443,0,0,0-.207.517c0,.035.035.069.035.1V68.4A5.75,5.75,0,0,1,133.3,71.8c-.792,2.824-3.409,4.545-5.785,3.857a.414.414,0,1,0-.241.792,5.4,5.4,0,0,0,1.274.172,5.633,5.633,0,0,0,4.477-2.445,2.1,2.1,0,0,0,.654.964,2.28,2.28,0,0,0-.275,3.891,2.283,2.283,0,0,0-.964,1.859,2.312,2.312,0,0,0,.517,1.446h-3a3.655,3.655,0,0,1-2.927-1.515ZM138.4,82.307h-3.685a1.446,1.446,0,1,1,0-2.893H138.4a1.446,1.446,0,1,1,0,2.893Zm1.481-3.685h-5.165a1.446,1.446,0,1,1,0-2.893h5.165a1.446,1.446,0,1,1,0,2.893Zm.482-3.719h-5.165a1.446,1.446,0,1,1,0-2.893h5.2a1.455,1.455,0,0,1,1.446,1.446A1.509,1.509,0,0,1,140.359,74.9Zm1-3.685h-5.165a1.455,1.455,0,0,1-1.446-1.446,1.437,1.437,0,0,1,1.171-1.412h2.342a.31.31,0,0,0,.172-.035h2.927a1.446,1.446,0,1,1,0,2.893Z" transform="translate(0 0)" fill="#fff"/>
    <path id="Path_6817" data-name="Path 6817" d="M147.139,413.03a2.569,2.569,0,1,0-2.569,2.569A2.562,2.562,0,0,0,147.139,413.03Zm-3.8,0a1.229,1.229,0,1,1,1.229,1.229A1.239,1.239,0,0,1,143.342,413.03Z" transform="translate(-22.942 -333.924)" fill="#fff"/>
  </g>
</svg>
