<svg xmlns="http://www.w3.org/2000/svg" width="53.338" height="58.14" viewBox="0 0 53.338 58.14">
  <path id="Path_13621" data-name="Path 13621" d="M189.788,66.5V57.741a3.613,3.613,0,0,0-3.6-3.6l-5.32.408a1.2,1.2,0,0,0-1.1,1.285h0a1.224,1.224,0,0,0,1.3,1.1l5.163-.4a1.2,1.2,0,0,1,1.165,1.2V72.15a1.207,1.207,0,0,1-1.177,1.2L181.595,73l-2.429-.187-8.507-.657h-.084a1.2,1.2,0,0,1-1.2-1.2V58.942a1.2,1.2,0,0,1,1.2-1.2l.9-.073a1.163,1.163,0,0,0,.816-.409,1.177,1.177,0,0,0,.289-.874v0a1.2,1.2,0,0,0-1.285-1.1l-.793.059a3.615,3.615,0,0,0-3.53,3.6v2.4H144.156a1.2,1.2,0,0,0-1.2,1.2v3a1.2,1.2,0,0,0,.263.75l2.4,3a1.2,1.2,0,0,0,.938.45h20.415v1.2a3.613,3.613,0,0,0,3.566,3.6l8.475.654a8.355,8.355,0,0,0,1.969,4.777,4.216,4.216,0,0,0-1.765,2.2l-.474-.474a1.2,1.2,0,0,0-1.7,0l-2.836,2.836-3.57-1.437a3.6,3.6,0,0,0-4.159.674l-7.741,7.742a3.559,3.559,0,0,0-.714,4.07l1.475,3.658-1.986,1.986a4.81,4.81,0,0,0,0,6.793l3.4,3.4a1.2,1.2,0,0,0,1.7,0l2.838-2.838a4.194,4.194,0,0,0,5.363-5.362l5.677-5.677a4.194,4.194,0,0,0,5.363-5.362l2.838-2.839a1.2,1.2,0,0,0,0-1.7l-.127-.127a4.156,4.156,0,0,0,2.776-4.57l.048,0a8.4,8.4,0,0,0,2.4-16.457ZM179.169,94.869l0,0a1.8,1.8,0,0,1-2.042.344,1.681,1.681,0,0,1-.849-.849,1.8,1.8,0,0,1,2.894-2.045,1.775,1.775,0,0,1,.346.5,1.8,1.8,0,0,1-.344,2.042l0,0Zm1.24-4.636a4.2,4.2,0,0,0-5.876,5.876l-5.163,5.163a4.2,4.2,0,0,0-5.875,5.877l-1.732,1.732-2.548-2.546a2.408,2.408,0,0,1,0-3.4l2.544-2.544L175.351,86.8l2.545-2.546,4.246,4.247ZM168.13,105.908l0,0a1.8,1.8,0,0,1-2.042.343,1.771,1.771,0,0,1-.5-.345,1.8,1.8,0,1,1,2.55,0l0,0Zm-7.692-12.688,7.742-7.743a1.164,1.164,0,0,1,.832-.342,1.442,1.442,0,0,1,.641.158l2.712,1.094L161.346,97.407l-1.132-2.8a1.2,1.2,0,0,1,.224-1.387Zm2.931-27.074a1.2,1.2,0,0,0-1.2,1.2h-2.4a1.2,1.2,0,1,0-2.4,0h-2.4a1.2,1.2,0,1,0-2.4,0h-2.4a1.2,1.2,0,1,0-2.4,0h-.624l-1.778-2.222v-1.38h21.615v3.6h-2.4a1.2,1.2,0,0,0-1.2-1.2Zm21.615,17.412a1.8,1.8,0,1,1-1.891-1.792,8.4,8.4,0,0,0,1.523.713,1.782,1.782,0,0,1,.368,1.079Zm2.4-3a6,6,0,0,1-1.478-.191,4.181,4.181,0,0,0-2.024-.946,6,6,0,0,1-2.435-4.024l4.641.359h.1a3.614,3.614,0,0,0,3.6-3.6v-3.1a6,6,0,0,1-2.4,11.5ZM174.969,56.2h0a1.217,1.217,0,0,1,.289-.875,1.238,1.238,0,0,1,.828-.422,1.206,1.206,0,0,1,1.285,1.1.028.028,0,0,1,0,.006,1.217,1.217,0,0,1-1.1,1.291h-.1a1.223,1.223,0,0,1-1.2-1.1Zm1.009,12.945a4.2,4.2,0,1,0-4.2-4.2A4.208,4.208,0,0,0,175.978,69.149Zm0-6a1.8,1.8,0,1,1-1.8,1.8A1.8,1.8,0,0,1,175.978,63.144Zm7.805,7.805a1.208,1.208,0,0,1-1.2-1.2V60.142a1.2,1.2,0,1,1,2.4,0v9.606a1.2,1.2,0,0,1-1.2,1.2Z" transform="translate(-142.705 -53.888)" fill="#191970" stroke="#fff" stroke-width="0.5"/>
</svg>
