<svg xmlns="http://www.w3.org/2000/svg" width="21.602" height="30.831" viewBox="0 0 21.602 30.831">
  <g id="Group_6960" data-name="Group 6960" transform="translate(0 0)">
    <path id="Path_13508" data-name="Path 13508" d="M174.634,14.312a10.8,10.8,0,0,1,10.8,10.8c0,5.219-2.32,7.3-5.026,9.72a20.577,20.577,0,0,0-5.339,6.5.487.487,0,0,1-.651.221.481.481,0,0,1-.221-.221,20.568,20.568,0,0,0-5.34-6.5c-2.706-2.423-5.026-4.5-5.026-9.72a10.8,10.8,0,0,1,10.8-10.8Zm-6.115,30.831a.487.487,0,1,1,0-.975h12.229a.487.487,0,1,1,0,.975Zm1.718-1.771a.487.487,0,1,1,0-.975h8.792a.487.487,0,1,1,0,.975Zm4.4-23.493a5.231,5.231,0,0,1,3.7,8.932l0,0a5.229,5.229,0,0,1-7.4,0l-.027-.029a5.234,5.234,0,0,1,3.728-8.905Zm3.011,2.222a4.259,4.259,0,0,0-6.046,6l.024.022a4.258,4.258,0,1,0,6.022-6.023Zm3.937-3.936a9.825,9.825,0,0,0-16.773,6.948c0,4.79,2.168,6.731,4.7,9a22.32,22.32,0,0,1,5.128,5.964,22.339,22.339,0,0,1,5.127-5.964c2.53-2.265,4.7-4.208,4.7-9a9.8,9.8,0,0,0-2.877-6.948Z" transform="translate(-163.832 -14.312)" fill="#191970"/>
  </g>
</svg>
