<svg xmlns="http://www.w3.org/2000/svg" width="9.727" height="13.468" viewBox="0 0 9.727 13.468">
  <g id="noun-map-marker-icon-2096978" transform="translate(-198.33 -70)">
    <path id="Path_13573" data-name="Path 13573" d="M203.194,70a4.722,4.722,0,0,0-4.864,4.676,7.654,7.654,0,0,0,.6,2.581,30.349,30.349,0,0,0,3.984,6.079.336.336,0,0,0,.281.131.4.4,0,0,0,.281-.131,30.359,30.359,0,0,0,3.984-6.079,7.654,7.654,0,0,0,.6-2.581A4.722,4.722,0,0,0,203.193,70Zm3.573,6.959a28.167,28.167,0,0,1-3.573,5.537,28.176,28.176,0,0,1-3.573-5.537,6.646,6.646,0,0,1-.542-2.282,4.12,4.12,0,0,1,8.23,0,6.646,6.646,0,0,1-.542,2.282Z" transform="translate(0)" fill="#191970"/>
    <path id="Path_13574" data-name="Path 13574" d="M270.951,140a2.619,2.619,0,1,0,2.619,2.619A2.627,2.627,0,0,0,270.951,140Zm0,4.489a1.871,1.871,0,1,1,1.871-1.871A1.876,1.876,0,0,1,270.951,144.489Z" transform="translate(-67.757 -67.755)" fill="#191970"/>
  </g>
</svg>
