<svg width="203" height="10" viewBox="0 0 203 10" fill="none" xmlns="http://www.w3.org/2000/svg">
<g clip-path="url(#clip0_610_182)">
<path d="M2.19311 7.69911V0.1019C2.19343 0.0890459 2.19116 0.0762573 2.18639 0.0643182C2.18162 0.0523791 2.17447 0.0415362 2.16538 0.0324443C2.15629 0.0233523 2.14546 0.0161945 2.13353 0.011421C2.12159 0.00664757 2.10881 0.00435009 2.09597 0.00466762H0.0971727C0.0843266 0.00435009 0.0715458 0.00664757 0.0596141 0.011421C0.0476824 0.0161945 0.0368462 0.0233523 0.0277599 0.0324443C0.0186735 0.0415362 0.0115766 0.0523791 0.00680612 0.0643182C0.0020356 0.0762573 -0.000288702 0.0890459 2.86331e-05 0.1019V9.99078H16.7073C16.7201 9.9911 16.7329 9.9888 16.7448 9.98403C16.7568 9.97926 16.7676 9.9721 16.7767 9.96301C16.7858 9.95391 16.7929 9.94307 16.7977 9.93113C16.8025 9.91919 16.8048 9.90643 16.8045 9.89358V7.89357C16.8048 7.88072 16.8025 7.86793 16.7977 7.85599C16.7929 7.84405 16.7858 7.83321 16.7767 7.82412C16.7676 7.81503 16.7568 7.80787 16.7448 7.8031C16.7329 7.79832 16.7201 7.79602 16.7073 7.79634H2.29026C2.27732 7.79701 2.26439 7.79495 2.2523 7.7903C2.24021 7.78564 2.22927 7.77852 2.22011 7.76936C2.21095 7.76019 2.2038 7.74918 2.19916 7.73709C2.19451 7.72499 2.19245 7.71205 2.19311 7.69911Z" fill="black"/>
<path d="M35.1324 0.101895V7.64355C35.1319 7.69743 35.1103 7.74897 35.0722 7.78707C35.0341 7.82517 34.9826 7.84677 34.9288 7.84726H22.381C22.3272 7.84677 22.2757 7.82517 22.2376 7.78707C22.1995 7.74897 22.1779 7.69743 22.1775 7.64355V0.101895C22.1778 0.0890414 22.1755 0.0762527 22.1707 0.0643136C22.1659 0.0523746 22.1588 0.0415317 22.1497 0.0324397C22.1406 0.0233478 22.1298 0.01619 22.1178 0.0114165C22.1059 0.00664305 22.0931 0.00434557 22.0803 0.0046631H20.4332C20.4203 0.00434557 20.4075 0.00664305 20.3956 0.0114165C20.3837 0.01619 20.3728 0.0233478 20.3638 0.0324397C20.3547 0.0415317 20.3475 0.0523746 20.3427 0.0643136C20.338 0.0762527 20.3356 0.0890414 20.336 0.101895V7.84726C20.3356 8.35489 20.524 8.8445 20.8643 9.22097C21.2046 9.59744 21.6727 9.83387 22.1775 9.8843C22.2469 9.88893 22.3162 9.89357 22.381 9.89357H34.9195C34.9889 9.89357 35.0584 9.88893 35.1231 9.8843C35.6286 9.83237 36.0969 9.59501 36.4378 9.218C36.7787 8.841 36.968 8.35103 36.9692 7.84262V0.0972613C36.9695 0.0844072 36.9672 0.0716186 36.9624 0.0596795C36.9577 0.0477404 36.9506 0.0368976 36.9415 0.0278056C36.9324 0.0187136 36.9215 0.0115558 36.9096 0.00678237C36.8977 0.0020089 36.8849 -0.000288582 36.8721 2.89486e-05H35.2249C35.1995 0.00224158 35.1759 0.0139567 35.1587 0.0328353C35.1416 0.0517139 35.1322 0.0763827 35.1324 0.101895Z" fill="black"/>
<path d="M82.2417 0.101895V7.64355C82.2413 7.69743 82.2197 7.74897 82.1816 7.78707C82.1435 7.82517 82.092 7.84677 82.0382 7.84726H69.4904C69.4366 7.84677 69.385 7.82517 69.3469 7.78707C69.3089 7.74897 69.2873 7.69743 69.2868 7.64355V0.101895C69.2871 0.0890414 69.2848 0.0762527 69.2801 0.0643136C69.2753 0.0523746 69.2681 0.0415317 69.2591 0.0324397C69.25 0.0233478 69.2391 0.01619 69.2272 0.0114165C69.2153 0.00664305 69.2025 0.00434557 69.1896 0.0046631H67.5425C67.5296 0.00434557 67.5169 0.00664305 67.5049 0.0114165C67.493 0.01619 67.4822 0.0233478 67.4731 0.0324397C67.464 0.0415317 67.4568 0.0523746 67.4521 0.0643136C67.4473 0.0762527 67.445 0.0890414 67.4453 0.101895V7.84726C67.445 8.35489 67.6333 8.8445 67.9736 9.22097C68.314 9.59744 68.782 9.83387 69.2868 9.8843C69.3562 9.88893 69.4256 9.89357 69.4904 9.89357H82.0289C82.0983 9.89357 82.1677 9.88893 82.2325 9.8843C82.7379 9.83237 83.2062 9.59501 83.5471 9.218C83.888 8.841 84.0773 8.35103 84.0785 7.84262V0.0972613C84.0789 0.0844072 84.0766 0.0716186 84.0718 0.0596795C84.0671 0.0477404 84.0599 0.0368976 84.0508 0.0278056C84.0417 0.0187136 84.0309 0.0115558 84.019 0.00678237C84.007 0.0020089 83.9942 -0.000288582 83.9814 2.89486e-05H82.3342C82.3092 0.00302898 82.286 0.0150037 82.269 0.0337113C82.252 0.0524189 82.2423 0.07662 82.2417 0.101895Z" fill="black"/>
<path d="M63.5528 0.0139206L59.5599 0.106519C59.5456 0.107371 59.5315 0.110478 59.5182 0.115759L52.2912 3.87504C52.2776 3.88192 52.2625 3.8855 52.2473 3.8855C52.232 3.8855 52.2169 3.88192 52.2033 3.87504L44.9763 0.115759C44.963 0.110485 44.9489 0.107379 44.9346 0.106519L40.9417 0.0139206C40.9197 0.0137085 40.8982 0.0209206 40.8808 0.0344069C40.8634 0.0478932 40.851 0.0668728 40.8457 0.0882648C40.8403 0.109657 40.8423 0.132214 40.8514 0.152323C40.8604 0.172433 40.8759 0.188928 40.8955 0.199117L49.9269 4.93985C49.9417 4.94822 49.9539 4.96034 49.9624 4.97498C49.9709 4.98961 49.9754 5.00624 49.9754 5.02318C49.9754 5.04012 49.9709 5.05675 49.9624 5.07139C49.9539 5.08603 49.9417 5.09815 49.9269 5.10651L40.877 9.81484C40.8574 9.82503 40.8419 9.84152 40.8329 9.86163C40.8238 9.88174 40.8218 9.9043 40.8271 9.92569C40.8325 9.94708 40.8449 9.96606 40.8623 9.97955C40.8798 9.99303 40.9012 10.0002 40.9232 10H44.9115C44.9273 9.99919 44.9429 9.99606 44.9578 9.99077L52.2033 6.18522C52.2169 6.17835 52.232 6.17474 52.2473 6.17474C52.2625 6.17474 52.2776 6.17835 52.2912 6.18522L59.5368 9.99077C59.5508 9.99869 59.567 10.0019 59.583 10H63.5713C63.5931 9.99983 63.6142 9.99239 63.6314 9.97887C63.6485 9.96535 63.6607 9.94653 63.666 9.92535C63.6713 9.90417 63.6694 9.88183 63.6606 9.86183C63.6519 9.84183 63.6367 9.82529 63.6175 9.81484L54.5676 5.10651C54.5529 5.09815 54.5406 5.08603 54.5321 5.07139C54.5236 5.05675 54.5191 5.04012 54.5191 5.02318C54.5191 5.00624 54.5236 4.98961 54.5321 4.97498C54.5406 4.96034 54.5529 4.94822 54.5676 4.93985L63.599 0.199117C63.6186 0.188928 63.6341 0.172433 63.6432 0.152323C63.6522 0.132214 63.6542 0.109657 63.6489 0.0882648C63.6435 0.0668728 63.6311 0.0478932 63.6137 0.0344069C63.5963 0.0209206 63.5748 0.0137085 63.5528 0.0139206Z" fill="black"/>
<path d="M130.943 0.0139445L126.95 0.106543C126.936 0.107395 126.922 0.110502 126.909 0.115783L119.682 3.87507C119.668 3.88195 119.653 3.88552 119.638 3.88552C119.623 3.88552 119.608 3.88195 119.594 3.87507L112.367 0.115783C112.354 0.110509 112.34 0.107403 112.325 0.106543L108.332 0.0139445C108.31 0.0137324 108.289 0.0209445 108.271 0.0344308C108.254 0.0479171 108.242 0.0668967 108.236 0.0882887C108.231 0.109681 108.233 0.132238 108.242 0.152347C108.251 0.172457 108.267 0.188952 108.286 0.199141L117.318 4.93988C117.332 4.94824 117.345 4.96036 117.353 4.975C117.362 4.98964 117.366 5.00627 117.366 5.02321C117.366 5.04015 117.362 5.05678 117.353 5.07141C117.345 5.08605 117.332 5.09817 117.318 5.10654L108.268 9.81486C108.248 9.82505 108.233 9.84155 108.223 9.86166C108.214 9.88177 108.212 9.90432 108.218 9.92572C108.223 9.94711 108.235 9.96609 108.253 9.97957C108.27 9.99306 108.292 10.0003 108.314 10.0001H112.302C112.318 9.99922 112.334 9.99609 112.348 9.99079L119.594 6.18525C119.622 6.17136 121.889 4.98155 121.958 4.94451L130.99 0.203747C131.01 0.193731 131.027 0.177011 131.036 0.15636C131.046 0.135709 131.048 0.11237 131.043 0.0902102C131.037 0.0680508 131.025 0.0484174 131.007 0.0345438C130.988 0.0206703 130.966 0.0134004 130.943 0.0139445Z" fill="black"/>
<path d="M104.363 4.01394V2.35189C104.363 1.72937 104.116 1.13235 103.676 0.692161C103.236 0.251971 102.639 0.00466762 102.017 0.00466762H87.7808C87.7679 0.00435009 87.7551 0.00664757 87.7432 0.011421C87.7313 0.0161945 87.7204 0.0233523 87.7114 0.0324443C87.7023 0.0415362 87.6952 0.0523791 87.6904 0.0643182C87.6856 0.0762573 87.6833 0.0890459 87.6836 0.1019V9.89358C87.6833 9.90643 87.6856 9.91919 87.6904 9.93113C87.6952 9.94307 87.7023 9.95391 87.7114 9.96301C87.7204 9.9721 87.7313 9.97926 87.7432 9.98403C87.7551 9.9888 87.7679 9.9911 87.7808 9.99078H89.5991C89.612 9.9911 89.6247 9.9888 89.6367 9.98403C89.6486 9.97926 89.6594 9.9721 89.6685 9.96301C89.6776 9.95391 89.6848 9.94307 89.6895 9.93113C89.6943 9.91919 89.6966 9.90643 89.6963 9.89358V7.46763C89.6962 7.44572 89.7004 7.42404 89.7088 7.4038C89.7171 7.38355 89.7295 7.36514 89.7449 7.34966C89.7604 7.33417 89.7788 7.3219 89.799 7.31354C89.8192 7.30519 89.8409 7.30091 89.8628 7.30097H100.8C101.03 7.30079 101.258 7.34592 101.47 7.4338C101.682 7.52169 101.875 7.65059 102.038 7.81313C102.2 7.97567 102.329 8.16866 102.417 8.38106C102.504 8.59347 102.55 8.82112 102.549 9.05098V9.88894C102.549 9.9018 102.551 9.91459 102.556 9.92653C102.561 9.93846 102.568 9.94931 102.577 9.9584C102.586 9.96749 102.597 9.97462 102.609 9.97939C102.621 9.98417 102.634 9.98647 102.647 9.98615H104.247C104.272 9.98647 104.295 9.9776 104.313 9.96128C104.331 9.94497 104.343 9.92241 104.345 9.89818C104.349 9.81485 104.354 9.72689 104.354 9.63893C104.374 8.98453 104.183 8.34109 103.809 7.80403C103.434 7.26697 102.897 6.86489 102.276 6.65744V6.34263C102.85 6.2792 103.379 6.00664 103.764 5.57704C104.149 5.14743 104.362 4.59094 104.363 4.01394ZM102.216 5.24078H90.034C89.9446 5.24029 89.859 5.20453 89.7957 5.14126C89.7325 5.07798 89.6967 4.99231 89.6963 4.90282V2.3658C89.6967 2.27631 89.7325 2.19061 89.7957 2.12733C89.859 2.06406 89.9446 2.0283 90.034 2.02781H102.216C102.306 2.0283 102.391 2.06406 102.455 2.12733C102.518 2.19061 102.554 2.27631 102.554 2.3658V4.90282C102.554 4.99231 102.518 5.07798 102.455 5.14126C102.391 5.20453 102.306 5.24029 102.216 5.24078Z" fill="black"/>
<path d="M158.074 4.01394V2.35189C158.074 1.72937 157.827 1.13235 157.387 0.692161C156.947 0.251971 156.35 0.00466762 155.728 0.00466762H141.492C141.479 0.00435009 141.466 0.00664757 141.454 0.011421C141.442 0.0161945 141.431 0.0233523 141.422 0.0324443C141.413 0.0415362 141.406 0.0523791 141.401 0.0643182C141.397 0.0762573 141.394 0.0890459 141.395 0.1019V9.89358C141.394 9.90643 141.397 9.91919 141.401 9.93113C141.406 9.94307 141.413 9.95391 141.422 9.96301C141.431 9.9721 141.442 9.97926 141.454 9.98403C141.466 9.9888 141.479 9.9911 141.492 9.99078H143.31C143.323 9.9911 143.336 9.9888 143.348 9.98403C143.36 9.97926 143.37 9.9721 143.379 9.96301C143.389 9.95391 143.396 9.94307 143.4 9.93113C143.405 9.91919 143.408 9.90643 143.407 9.89358V7.46763C143.407 7.44572 143.411 7.42404 143.42 7.4038C143.428 7.38355 143.44 7.36514 143.456 7.34966C143.471 7.33417 143.49 7.3219 143.51 7.31354C143.53 7.30519 143.552 7.30091 143.574 7.30097H154.511C154.741 7.30079 154.969 7.34592 155.181 7.4338C155.393 7.52169 155.586 7.65059 155.749 7.81313C155.911 7.97567 156.04 8.16866 156.128 8.38106C156.215 8.59347 156.261 8.82112 156.26 9.05098V9.88894C156.26 9.9018 156.262 9.91459 156.267 9.92653C156.272 9.93846 156.279 9.94931 156.288 9.9584C156.297 9.96749 156.308 9.97462 156.32 9.97939C156.332 9.98417 156.345 9.98647 156.358 9.98615H157.958C157.983 9.98647 158.006 9.9776 158.024 9.96128C158.042 9.94497 158.053 9.92241 158.056 9.89818C158.06 9.81485 158.065 9.72689 158.065 9.63893C158.085 8.98453 157.894 8.34109 157.519 7.80403C157.145 7.26697 156.608 6.86489 155.987 6.65744V6.34263C156.561 6.2792 157.09 6.00664 157.475 5.57704C157.86 5.14743 158.073 4.59094 158.074 4.01394ZM155.932 5.24078H143.75C143.66 5.24029 143.575 5.20453 143.511 5.14126C143.448 5.07798 143.412 4.99231 143.412 4.90282V2.3658C143.412 2.27631 143.448 2.19061 143.511 2.12733C143.575 2.06406 143.66 2.0283 143.75 2.02781H155.932C156.021 2.0283 156.107 2.06406 156.17 2.12733C156.233 2.19061 156.269 2.27631 156.27 2.3658V4.90282C156.269 4.99231 156.233 5.07798 156.17 5.14126C156.107 5.20453 156.021 5.24029 155.932 5.24078Z" fill="black"/>
<path d="M163.009 9.99542H161.191C161.178 9.99573 161.165 9.99344 161.153 9.98866C161.141 9.98389 161.131 9.97673 161.122 9.96764C161.112 9.95855 161.105 9.9477 161.101 9.93577C161.096 9.92383 161.093 9.91104 161.094 9.89818V0.1019C161.093 0.0890459 161.096 0.0762573 161.101 0.0643182C161.105 0.0523791 161.112 0.0415362 161.122 0.0324443C161.131 0.0233523 161.141 0.0161945 161.153 0.011421C161.165 0.00664757 161.178 0.00435009 161.191 0.00466762H163.009C163.022 0.00435009 163.035 0.00664757 163.047 0.011421C163.059 0.0161945 163.07 0.0233523 163.079 0.0324443C163.088 0.0415362 163.095 0.0523791 163.1 0.0643182C163.104 0.0762573 163.107 0.0890459 163.106 0.1019V9.89818C163.107 9.91104 163.104 9.92383 163.1 9.93577C163.095 9.9477 163.088 9.95855 163.079 9.96764C163.07 9.97673 163.059 9.98389 163.047 9.98866C163.035 9.99344 163.022 9.99573 163.009 9.99542Z" fill="black"/>
<path d="M180.265 0.00466762H166.144C166.131 0.00435009 166.118 0.00664757 166.106 0.011421C166.095 0.0161945 166.084 0.0233523 166.075 0.0324443C166.066 0.0415362 166.058 0.0523791 166.054 0.0643182C166.049 0.0762573 166.047 0.0890459 166.047 0.1019V9.89818C166.047 9.91104 166.049 9.92383 166.054 9.93577C166.058 9.9477 166.066 9.95855 166.075 9.96764C166.084 9.97673 166.095 9.98389 166.106 9.98866C166.118 9.99344 166.131 9.99573 166.144 9.99542H180.265C180.589 9.99554 180.91 9.93178 181.209 9.80782C181.508 9.68385 181.78 9.5021 182.009 9.27294C182.238 9.04378 182.42 8.77172 182.544 8.47228C182.667 8.17284 182.731 7.8519 182.731 7.52782V2.4769C182.732 2.15236 182.669 1.83083 182.545 1.53074C182.422 1.23066 182.24 0.957946 182.011 0.728245C181.782 0.498544 181.51 0.316377 181.21 0.192209C180.911 0.0680416 180.589 0.0043004 180.265 0.00466762ZM180.89 7.57876C180.89 7.67699 180.851 7.77119 180.781 7.84065C180.712 7.91011 180.618 7.94913 180.519 7.94913H168.36C168.262 7.94913 168.168 7.91011 168.099 7.84065C168.029 7.77119 167.99 7.67699 167.99 7.57876V2.39357C167.99 2.29534 168.029 2.20114 168.099 2.13169C168.168 2.06223 168.262 2.02321 168.36 2.02321H180.519C180.618 2.02321 180.712 2.06223 180.781 2.13169C180.851 2.20114 180.89 2.29534 180.89 2.39357V7.57876Z" fill="black"/>
<path d="M188.28 5.85656H202.734C202.746 5.85656 202.758 5.85168 202.767 5.84299C202.776 5.83431 202.78 5.82255 202.78 5.81027V4.11118C202.78 4.0989 202.776 4.08714 202.767 4.07846C202.758 4.06977 202.746 4.06489 202.734 4.06489H188.28C188.255 4.06514 188.23 4.06039 188.207 4.05093C188.184 4.04148 188.163 4.02752 188.145 4.00985C188.128 3.99217 188.114 3.97113 188.104 3.94799C188.095 3.92485 188.09 3.90009 188.09 3.87509V2.14359C188.09 2.11859 188.095 2.09379 188.104 2.07065C188.114 2.04751 188.128 2.0265 188.145 2.00883C188.163 1.99115 188.184 1.97716 188.207 1.96771C188.23 1.95826 188.255 1.95354 188.28 1.95378H202.734C202.746 1.95378 202.758 1.9489 202.767 1.94022C202.776 1.93154 202.78 1.91978 202.78 1.9075V0.0834226C202.78 0.0711441 202.776 0.059355 202.767 0.0506727C202.758 0.0419905 202.746 0.0371094 202.734 0.0371094H186.101C186.089 0.0371094 186.077 0.0419905 186.068 0.0506727C186.06 0.059355 186.055 0.0711441 186.055 0.0834226V9.94916C186.055 9.96144 186.06 9.9732 186.068 9.98188C186.077 9.99057 186.089 9.99545 186.101 9.99545H202.734C202.746 9.99545 202.758 9.99057 202.767 9.98188C202.776 9.9732 202.78 9.96144 202.78 9.94916V8.01859C202.78 8.00631 202.776 7.99455 202.767 7.98586C202.758 7.97718 202.746 7.9723 202.734 7.9723H188.28C188.255 7.97255 188.23 7.96779 188.207 7.95834C188.184 7.94889 188.163 7.93493 188.145 7.91726C188.128 7.89958 188.114 7.87854 188.104 7.8554C188.095 7.83226 188.09 7.80747 188.09 7.78247V6.05099C188.09 6.02565 188.094 6.00041 188.103 5.97679C188.113 5.95317 188.126 5.93164 188.144 5.9135C188.162 5.89535 188.183 5.88095 188.206 5.87117C188.23 5.86138 188.255 5.85642 188.28 5.85656Z" fill="black"/>
</g>
<defs>
<clipPath id="clip0_610_182">
<rect width="202.782" height="10" fill="white"/>
</clipPath>
</defs>
</svg>
