<svg xmlns="http://www.w3.org/2000/svg" width="13.088" height="13.299" viewBox="0 0 13.088 13.299">
  <path id="Icon_awesome-power-off" data-name="Icon awesome-power-off" d="M10.906,1.428a6.543,6.543,0,1,1-7.6,0,.635.635,0,0,1,.924.2l.417.741a.633.633,0,0,1-.174.818,4.433,4.433,0,1,0,5.275,0,.629.629,0,0,1-.172-.815l.417-.741a.632.632,0,0,1,.918-.206ZM8.162,6.966V.633A.632.632,0,0,0,7.529,0H6.684a.632.632,0,0,0-.633.633V6.966a.632.632,0,0,0,.633.633h.844A.632.632,0,0,0,8.162,6.966Z" transform="translate(-0.562)" fill="#191970"/>
</svg>
