<svg xmlns="http://www.w3.org/2000/svg" width="19.927" height="15.293" viewBox="0 0 19.927 15.293">
  <path id="noun-mail-5383707" d="M101.715,91.121h14.83a2.549,2.549,0,0,0,2.549-2.549v-10.2a2.549,2.549,0,0,0-2.549-2.549h-14.83a2.549,2.549,0,0,0-2.549,2.549v10.2a2.549,2.549,0,0,0,2.549,2.549Zm14.829-1.39H101.715a1.159,1.159,0,0,1-1.158-1.158V80.407l7.229,4.449a2.587,2.587,0,0,0,1.344.38,2.531,2.531,0,0,0,1.335-.371l7.239-4.449v8.157a1.159,1.159,0,0,1-1.158,1.158ZM101.715,77.218h14.83a1.159,1.159,0,0,1,1.158,1.159v.4l-7.971,4.894h0a1.15,1.15,0,0,1-1.214,0l-7.962-4.894v-.4a1.159,1.159,0,0,1,1.158-1.159Z" transform="translate(-99.166 -75.828)" fill="#4e4e4e"/>
</svg>
