<svg xmlns="http://www.w3.org/2000/svg" width="24.222" height="23.773" viewBox="0 0 24.222 23.773">
  <g id="noun-support-2221334" transform="translate(-74.302 -52.503)">
    <path id="Path_13621" data-name="Path 13621" d="M240.059,85.927h-1.794a3.14,3.14,0,0,1-2.485-1.225,2.242,2.242,0,0,1-2,1.225H227.5v-.9a6.28,6.28,0,1,1,12.559,0Zm-4.037-3.14a2.242,2.242,0,0,0,2.243,2.243h.9a5.383,5.383,0,1,0-10.765,0h5.383a1.345,1.345,0,0,0,1.346-1.346v-.9Z" transform="translate(-147.365 -24.902)" fill="#191970"/>
    <path id="Path_13622" data-name="Path 13622" d="M204.39,206.184h-2.117a1.023,1.023,0,0,1-1.023-1.023v-2.889a1.023,1.023,0,0,1,1.023-1.023h2.117Zm-2.117-4.037a.13.13,0,0,0-.126.126v2.889a.13.13,0,0,0,.126.126h1.22v-3.14Z" transform="translate(-122.462 -141.122)" fill="#191970"/>
    <path id="Path_13623" data-name="Path 13623" d="M439.616,206.184H437.5V201.25h2.117a1.023,1.023,0,0,1,1.023,1.023v2.889a1.023,1.023,0,0,1-1.023,1.023Zm-1.22-.9h1.22a.13.13,0,0,0,.126-.126v-2.889a.13.13,0,0,0-.126-.126H438.4Z" transform="translate(-346.6 -141.122)" fill="#191970"/>
    <path id="Path_13624" data-name="Path 13624" d="M232.207,60.577h-.9V59.231a5.831,5.831,0,1,0-11.662,0v1.346h-.9V59.231a6.728,6.728,0,0,1,13.457,0Z" transform="translate(-139.065)" fill="#191970"/>
    <path id="Path_13625" data-name="Path 13625" d="M250.382,168.037a4.455,4.455,0,0,1-2.691-.9,3.562,3.562,0,0,1-.3-.242,6.609,6.609,0,0,1-1.677-2.131,6.76,6.76,0,0,1-.713-3.01v-2.018h5.383a1.346,1.346,0,0,0,1.346-1.346v-.9h.9a2.242,2.242,0,0,0,2.243,2.243h.9v2.018a6.7,6.7,0,0,1-2.4,5.158,3.427,3.427,0,0,1-.3.233,4.432,4.432,0,0,1-2.682.888Zm-4.486-7.4v1.121a5.833,5.833,0,0,0,.619,2.606,5.741,5.741,0,0,0,1.462,1.857,2.928,2.928,0,0,0,.242.2,3.589,3.589,0,0,0,4.315,0,2.1,2.1,0,0,0,.238-.193,5.8,5.8,0,0,0,2.095-4.467v-1.121a3.14,3.14,0,0,1-2.485-1.225,2.242,2.242,0,0,1-2,1.225Z" transform="translate(-163.969 -99.61)" fill="#191970"/>
    <path id="Path_13626" data-name="Path 13626" d="M291.89,320.57l-3.14-3.14V315l.749.668a2.345,2.345,0,0,0,.229.188,3.588,3.588,0,0,0,4.315,0,2.086,2.086,0,0,0,.238-.193l.749-.664v2.436Zm-2.243-3.508,2.243,2.243,2.243-2.243v-.193a4.552,4.552,0,0,1-4.486,0Z" transform="translate(-205.476 -249.044)" fill="#191970"/>
    <path id="Path_13627" data-name="Path 13627" d="M137.972,383.427H113.75v-.449a6.728,6.728,0,0,1,6.728-6.728h1.794v3.274l3.588-1.992,3.588,1.992V376.25h1.794a6.728,6.728,0,0,1,6.728,6.728Zm-23.325-.9h22.428a5.831,5.831,0,0,0-5.831-5.383h-.9v3.9l-4.486-2.494-4.486,2.494v-3.9h-.9a5.831,5.831,0,0,0-5.831,5.383Z" transform="translate(-39.448 -307.15)" fill="#191970"/>
    <path id="Path_13628" data-name="Path 13628" d="M262.5,352.748v-4.535l1.794-1.794,3.427,3.427Zm.9-4.167v2.642l2.853-1.583-1.956-1.956Z" transform="translate(-180.572 -278.849)" fill="#191970"/>
    <path id="Path_13629" data-name="Path 13629" d="M340.871,352.748l-5.221-2.9,3.427-3.427,1.794,1.794Zm-3.75-3.108,2.853,1.583v-2.642l-.9-.9Z" transform="translate(-249.972 -278.849)" fill="#191970"/>
    <path id="Path_13630" data-name="Path 13630" d="M354.486,282.692h-4.037a.449.449,0,1,1,0-.9h4.037a1.346,1.346,0,0,0,1.346-1.346.449.449,0,0,1,.9,0,2.242,2.242,0,0,1-2.243,2.243Z" transform="translate(-263.587 -215.835)" fill="#191970"/>
    <path id="Path_13631" data-name="Path 13631" d="M315.449,424.934a.449.449,0,0,1-.449-.449v-4.037a.449.449,0,0,1,.9,0v4.037a.448.448,0,0,1-.449.449Z" transform="translate(-230.381 -348.658)" fill="#191970"/>
    <path id="Path_13632" data-name="Path 13632" d="M367.949,424.934a.449.449,0,0,1-.449-.449v-4.037a.449.449,0,0,1,.9,0v4.037a.448.448,0,0,1-.449.449Z" transform="translate(-280.189 -348.658)" fill="#191970"/>
    <path id="Path_13633" data-name="Path 13633" d="M332.949,306.25h.9a.482.482,0,0,1,.449.449v.449a.449.449,0,0,1-.449.449h-.9a.482.482,0,0,1-.449-.449V306.7A.449.449,0,0,1,332.949,306.25Z" transform="translate(-246.984 -240.739)" fill="#191970"/>
  </g>
</svg>
