<svg xmlns="http://www.w3.org/2000/svg" width="32.006" height="46.037" viewBox="0 0 32.006 46.037">
  <g id="noun-car-document-5435935" transform="translate(-80.254 -34.985)">
    <path id="Path_13583" data-name="Path 13583" d="M208.849,138.449H181.9a2.533,2.533,0,0,1-2.53-2.53V100.876a2.534,2.534,0,0,1,2.53-2.532h4.445a.79.79,0,0,1,0,1.581H181.9a.951.951,0,0,0-.95.95v35.042a.951.951,0,0,0,.95.95h26.945a.951.951,0,0,0,.95-.95V100.875a.951.951,0,0,0-.95-.95H204.4a.79.79,0,1,1,0-1.581h4.446a2.533,2.533,0,0,1,2.53,2.532v35.042a2.534,2.534,0,0,1-2.53,2.53Z" transform="translate(-99.119 -57.427)" fill="#d66b00" fill-rule="evenodd"/>
    <path id="Path_13584" data-name="Path 13584" d="M237.641,165.516H213.449a.791.791,0,0,1-.79-.79V132.438a.791.791,0,0,1,.79-.79h2.982a.79.79,0,0,1,0,1.581H214.24v30.707H236.85V133.228h-2.192a.79.79,0,0,1,0-1.581h2.982a.791.791,0,0,1,.79.79v32.288a.79.79,0,0,1-.79.79Z" transform="translate(-129.288 -87.612)" fill="#d66b00" fill-rule="evenodd"/>
    <path id="Path_13585" data-name="Path 13585" d="M260.752,47.87H247.664a3.386,3.386,0,0,1-3.383-3.381v-2.04a3.385,3.385,0,0,1,3.383-3.381h.393a1.753,1.753,0,0,0,1.66-1.1,4.874,4.874,0,0,1,8.982,0,1.754,1.754,0,0,0,1.66,1.1h.393a3.385,3.385,0,0,1,3.381,3.381v2.04a3.385,3.385,0,0,1-3.381,3.382Zm-13.089-7.224a1.8,1.8,0,0,0-1.8,1.8v2.04a1.8,1.8,0,0,0,1.8,1.8H260.75a1.8,1.8,0,0,0,1.8-1.8V42.448a1.8,1.8,0,0,0-1.8-1.8h-.393a3.331,3.331,0,0,1-3.116-2.069,3.293,3.293,0,0,0-6.069,0,3.333,3.333,0,0,1-3.116,2.069h-.393Z" transform="translate(-157.95)" fill="#d66b00" fill-rule="evenodd"/>
    <path id="Path_13586" data-name="Path 13586" d="M327.709,70.957a2.333,2.333,0,1,1,2.333-2.333A2.335,2.335,0,0,1,327.709,70.957Zm0-3.084a.752.752,0,1,0,.752.752A.753.753,0,0,0,327.709,67.873Z" transform="translate(-231.452 -28.376)" fill="#d66b00" fill-rule="evenodd"/>
    <path id="Path_13587" data-name="Path 13587" d="M264.107,203.2H261.15a.79.79,0,0,1,0-1.581h2.165v-.773c0-1.311-.458-2.652-3.85-2.652a.791.791,0,0,1-.773-.624l-.147-.68a2.633,2.633,0,0,0-2.591-2.091h-3.616a2.58,2.58,0,0,0-2.332,1.39l-.859,1.59a.8.8,0,0,1-.268.289l-2.074,1.329v2.221h2.165a.79.79,0,0,1,0,1.581h-2.956a.791.791,0,0,1-.79-.79v-3.443a.79.79,0,0,1,.364-.666l2.266-1.452.763-1.41a4.174,4.174,0,0,1,3.722-2.218h3.617a4.2,4.2,0,0,1,4.137,3.337l.016.072a6.524,6.524,0,0,1,2.929.72,3.737,3.737,0,0,1,1.862,3.5V202.4a.792.792,0,0,1-.791.791Zm-6.186,0a.79.79,0,1,0,0-1.581H252.2a.79.79,0,1,0,0,1.581Z" transform="translate(-158.804 -143.417)" fill="#d66b00" fill-rule="evenodd"/>
    <path id="Path_13588" data-name="Path 13588" d="M283.063,231.048H272.049a.79.79,0,1,1,0-1.581h11.014a.79.79,0,1,1,0,1.581Z" transform="translate(-182.402 -176.274)" fill="#d66b00" fill-rule="evenodd"/>
    <path id="Path_13589" data-name="Path 13589" d="M330.879,198.2a.791.791,0,0,1-.79-.79v-3.394a.79.79,0,0,1,1.581,0v3.394A.791.791,0,0,1,330.879,198.2Z" transform="translate(-235.723 -143.421)" fill="#d66b00" fill-rule="evenodd"/>
    <path id="Path_13590" data-name="Path 13590" d="M279.146,271.943a2.412,2.412,0,1,1,2.412-2.412A2.415,2.415,0,0,1,279.146,271.943Zm0-3.244a.832.832,0,1,0,.832.832A.833.833,0,0,0,279.146,268.7Z" transform="translate(-187.364 -210.399)" fill="#d66b00" fill-rule="evenodd"/>
    <path id="Path_13591" data-name="Path 13591" d="M374.736,271.943a2.412,2.412,0,1,1,2.412-2.412A2.415,2.415,0,0,1,374.736,271.943Zm0-3.244a.832.832,0,1,0,.832.832A.833.833,0,0,0,374.736,268.7Z" transform="translate(-274.005 -210.399)" fill="#d66b00" fill-rule="evenodd"/>
    <path id="Path_13592" data-name="Path 13592" d="M263.907,344.018H245.769a.79.79,0,1,1,0-1.581h18.138a.79.79,0,1,1,0,1.58Z" transform="translate(-158.582 -278.667)" fill="#d66b00" fill-rule="evenodd"/>
    <path id="Path_13593" data-name="Path 13593" d="M260.706,392.318H245.779a.79.79,0,0,1,0-1.581h14.927a.79.79,0,0,1,0,1.581Z" transform="translate(-158.591 -322.445)" fill="#d66b00" fill-rule="evenodd"/>
    <path id="Path_13594" data-name="Path 13594" d="M258.977,440.6h-13.2a.79.79,0,1,1,0-1.581h13.2a.79.79,0,1,1,0,1.581Z" transform="translate(-158.591 -366.204)" fill="#d66b00" fill-rule="evenodd"/>
  </g>
</svg>
