<svg id="noun-callback-221171" xmlns="http://www.w3.org/2000/svg" width="40" height="40" viewBox="0 0 40 40">
  <path id="Path_6" data-name="Path 6" d="M17.6,0A20,20,0,1,0,29.92,35.76v2h1.76V32.48H26.4v1.76h2.72a18.2,18.2,0,0,1-11.44,4.08A18.28,18.28,0,1,1,35.92,20a18.086,18.086,0,0,1-3.68,10.96L33.6,32a20,20,0,0,0-16-32Z" transform="translate(2.4)" fill="#fff"/>
  <path id="Path_7" data-name="Path 7" d="M429.935,316.8a2.733,2.733,0,0,0-2.734,2.734V331.12a2.733,2.733,0,0,0,2.734,2.734h4.821a2.733,2.733,0,0,0,2.734-2.734V319.534a2.733,2.733,0,0,0-2.734-2.734Zm5.972,2.734V331.12a1.136,1.136,0,0,1-1.151,1.151h-4.821a1.137,1.137,0,0,1-1.151-1.151V319.534a1.136,1.136,0,0,1,1.151-1.151h4.821A1.183,1.183,0,0,1,435.908,319.534Z" transform="translate(-412.304 -305.284)" fill="#fff"/>
  <path id="Path_8" data-name="Path 8" d="M566.015,733.005A1.007,1.007,0,1,1,565.007,732a1.007,1.007,0,0,1,1.007,1.008" transform="translate(-545.007 -707.452)" fill="#fff"/>
</svg>
