<svg xmlns="http://www.w3.org/2000/svg" width="32.924" height="25.415" viewBox="0 0 32.924 25.415">
  <g id="Group_7858" data-name="Group 7858" transform="translate(-118.669 -434.234)">
    <g id="noun-front-car-4610264" transform="translate(118.669 443.534)">
      <path id="Path_13614" data-name="Path 13614" d="M224.422,262.981a10.294,10.294,0,0,0-3.733-1.348,1,1,0,0,0-1.09,1.247,2.888,2.888,0,0,0,.732,1.271.4.4,0,0,0,.241.117c.052,0,1.038.1,2.357.1.366,0,.756,0,1.159-.024h0a.732.732,0,0,0,.334-1.368Zm-3.62.527a2.133,2.133,0,0,1-.447-.8.221.221,0,0,1,.048-.205.229.229,0,0,1,.193-.072,9.305,9.305,0,0,1,3.3,1.17,26.183,26.183,0,0,1-3.1-.088Zm3.218.149.193-.338Z" transform="translate(-217.713 -254.899)" fill="#191970"/>
      <path id="Path_13615" data-name="Path 13615" d="M408.053,262.981a.732.732,0,0,0,.334,1.368c.4,0,.8.024,1.159.024,1.319,0,2.305-.1,2.357-.1h0a.4.4,0,0,0,.241-.117,2.887,2.887,0,0,0,.732-1.271,1,1,0,0,0-1.09-1.247,10.294,10.294,0,0,0-3.733,1.348Zm4.023-.5a.221.221,0,0,1,.048.205,2.129,2.129,0,0,1-.446.8,26.222,26.222,0,0,1-3.094.068,9.311,9.311,0,0,1,3.3-1.171.23.23,0,0,1,.193.093Z" transform="translate(-392.317 -254.899)" fill="#191970"/>
      <path id="Path_13616" data-name="Path 13616" d="M216.288,172.331A1.331,1.331,0,0,0,214.957,171H213.3a.4.4,0,0,0-.4.4v.62c-.081-.265-.185-.571-.3-.889a5.646,5.646,0,0,0-1.678-2.639h0a.367.367,0,0,0-.169-.068,52.255,52.255,0,0,0-5.527-.427h-.442a52.359,52.359,0,0,0-5.54.455.365.365,0,0,0-.169.068,5.647,5.647,0,0,0-1.678,2.639c-.117.318-.221.624-.3.889v-.66a.4.4,0,0,0-.4-.4h-1.645a1.34,1.34,0,0,0,0,2.675h.245c-.221.157-.4.31-.579.443h0a1.757,1.757,0,0,0-.644,1.364V183.1h0a1,1,0,0,0,.994.994h2.152a.993.993,0,0,0,.993-.994v-1.11h13.581v1.13a.993.993,0,0,0,.994.994h2.152a1,1,0,0,0,.994-.994v-7.639a1.758,1.758,0,0,0-.644-1.364c-.165-.133-.358-.286-.579-.443h.245a1.344,1.344,0,0,0,1.34-1.344Zm-2.6.463V171.78h1.267a.555.555,0,0,1,.555.551.563.563,0,0,1-.563.563h-1.275a.4.4,0,0,0,.016-.1Zm-14.241-3.588a49.812,49.812,0,0,1,5.552-.451,49.812,49.812,0,0,1,5.552.451,7.945,7.945,0,0,1,1.73,3.46H197.719c.294-1.046.921-2.832,1.73-3.46Zm-4.96,3.126a.555.555,0,0,1,.555-.551h1.267v1.014a.4.4,0,0,0,0,.1h-1.259a.563.563,0,0,1-.563-.563Zm2.949,10.789a.217.217,0,0,1-.217.213h-2.152a.213.213,0,0,1-.213-.213v-1.239a1.3,1.3,0,0,0,.519.109h2.064Zm7.386-1.911h-6.034v-.551A1.657,1.657,0,0,1,200.442,179h9.1a1.657,1.657,0,0,1,1.653,1.653v.551Zm10.11,2.124h-2.152a.217.217,0,0,1-.217-.213v-1.13h2.064a1.3,1.3,0,0,0,.519-.109v1.239a.213.213,0,0,1-.213.213Zm.213-7.852v5.206a.519.519,0,0,1-.519.519h-2.651v-.547a2.438,2.438,0,0,0-2.434-2.414h-9.084a2.438,2.438,0,0,0-2.434,2.414v.551h-2.651a.519.519,0,0,1-.519-.519v-5.21a.97.97,0,0,1,.358-.76,8.845,8.845,0,0,1,2.084-1.291H212.7a8.843,8.843,0,0,1,2.084,1.291.97.97,0,0,1,.358.76Z" transform="translate(-193.777 -167.998)" fill="#191970"/>
    </g>
    <g id="Group_7857" data-name="Group 7857" transform="matrix(-0.921, 0.391, -0.391, -0.921, 151.593, 439.405)">
      <path id="Path_7433_-_Outline" data-name="Path 7433 - Outline" d="M.412.5V5.118H11.686l2.1-2.239L11.68.5H.412M0,0H11.842L14.4,2.89,11.842,5.617H0Z" transform="translate(0)" fill="#191970"/>
      <path id="Ellipse_94_-_Outline" data-name="Ellipse 94 - Outline" d="M.936.5a.437.437,0,1,0,.437.437A.437.437,0,0,0,.936.5m0-.5A.936.936,0,1,1,0,.936.936.936,0,0,1,.936,0Z" transform="translate(10.675 1.872)" fill="#191970"/>
    </g>
    <path id="Path_13617" data-name="Path 13617" d="M-11330.075-9035.076s2.546-3.117,5.068-2.976" transform="translate(11464.899 9479.509)" fill="none" stroke="#191970" stroke-width="0.6"/>
  </g>
</svg>
