<svg xmlns="http://www.w3.org/2000/svg" width="35.601" height="44.889" viewBox="0 0 35.601 44.889">
  <g id="Group_7318" data-name="Group 7318" transform="translate(-9574.584 2135)">
    <path id="Path_13570" data-name="Path 13570" d="M184.13,46.6a5.23,5.23,0,0,0-1.947-1.2l1.055-.7a.774.774,0,0,0-.859-1.288l-1.455.971c-.587-1.958-1.3-3.991-2.218-4.928a3.636,3.636,0,0,0-.969-.735.8.8,0,0,0-.292-.077.9.9,0,0,1,.145.023,15.009,15.009,0,0,0-4.069-.723V30.117a3.874,3.874,0,0,0-3.87-3.87H152.624a3.874,3.874,0,0,0-3.87,3.87V67.267a3.874,3.874,0,0,0,3.87,3.87h17.027a3.874,3.874,0,0,0,3.87-3.87V54.884h5.418v.774a1.548,1.548,0,0,0,1.548,1.548h2.322a1.548,1.548,0,0,0,1.548-1.548V47.144a.775.775,0,0,0-.226-.547Zm-1.322,4.753L180.6,52.674l-1.1.662H162.9l-1.1-.662L159.59,51.35V47.48c.039-.032.082-.064.131-.1l.061-.04c.033-.022.066-.044.1-.068s.064-.037.1-.055.07-.042.112-.064.093-.046.14-.07l.12-.06.19-.086.129-.057c.073-.032.155-.066.24-.1l.149-.06c.088-.034.188-.071.287-.107l.18-.067c.1-.036.213-.077.323-.113l.188-.062h18.32a8.018,8.018,0,0,1,2.448,1.113ZM169.651,37.887h-.033l-.25.012-.425.023-.267.019c-.12.009-.238.017-.352.027-.088.007-.173.016-.257.023-.1.01-.205.02-.3.031l-.246.029c-.08.01-.172.021-.255.032s-.162.021-.238.032l-.205.032-.232.037-.155.029c-.3.056-.561.112-.779.167l-.044.011-.18.048-.07.019-.145.044-.064.02-.115.038-.057.019-.088.032-.046.018-.064.026-.038.016-.037.016-.045.021h0a3.739,3.739,0,0,0-.967.75,4.082,4.082,0,0,0-.31.376c-.035.048-.07.108-.105.16-.067.1-.134.2-.2.31-.044.074-.088.161-.132.241-.058.107-.117.208-.175.325-.048.1-.1.2-.143.306s-.109.232-.163.354-.1.242-.149.365-.1.254-.155.387-.1.277-.155.417-.1.281-.155.431-.1.31-.155.464-.1.31-.155.476c-.029.093-.058.19-.087.286l-1.443-.962h0a.774.774,0,0,0-.859,1.288l1.055.7-.066.029c-.111.046-.21.091-.31.135-.064.029-.132.059-.19.088-.091.043-.172.086-.251.128-.05.026-.1.053-.149.077-.077.042-.143.084-.209.125-.037.023-.077.046-.112.07-.064.042-.121.084-.177.125-.027.02-.058.041-.084.061-.059.047-.114.094-.167.14l-.047.04c-.067.06-.129.12-.189.18h0a.774.774,0,0,0-.216.558v8.513a1.548,1.548,0,0,0,1.548,1.548h2.322a1.548,1.548,0,0,0,1.548-1.548v-.774h6.192v6.965H152.624V33.987h17.027Zm-7.739,16.661v1.11H159.59v-2.5Zm15.179-14.426a2.275,2.275,0,0,1,.5.4c.751.774,1.48,3.063,1.848,4.3h-16.5c.032-.108.065-.215.1-.318.015-.049.03-.1.046-.149.047-.151.094-.294.14-.433l.031-.1c.171-.511.332-.947.482-1.316l.027-.064c.04-.1.077-.193.117-.281.013-.029.025-.057.038-.085.033-.077.067-.15.1-.22l.042-.089c.03-.063.059-.124.088-.181.013-.028.026-.054.04-.077.027-.054.055-.107.081-.155l.037-.068c.026-.047.051-.092.077-.135l.035-.059c.023-.039.046-.077.068-.112l.032-.05c.022-.034.042-.064.062-.094l.028-.041c.02-.029.039-.054.058-.077l.022-.029c.019-.025.036-.046.054-.067l.016-.019c.022-.026.041-.047.059-.066a2.122,2.122,0,0,1,.532-.43l.019-.009h.008a.507.507,0,0,1,.049-.019l.016-.006.077-.028.024-.009.109-.036.035-.01.142-.042.04-.011c.055-.016.114-.031.179-.046l.051-.012.217-.05.054-.012q.123-.027.263-.053l.056-.011c.1-.019.2-.036.31-.054l.055-.009q.174-.028.365-.054l.057-.009c.13-.017.268-.034.412-.05l.065-.008c.148-.016.3-.031.464-.045l.064-.006c.163-.014.335-.027.513-.039l.077-.006c.173-.011.356-.02.542-.028l.108-.006c.163-.007.338-.012.512-.016l.2-.006h.17c.188,0,.378-.006.578-.006h.055a18.366,18.366,0,0,1,5.8.7Zm-5.118,27.145a2.322,2.322,0,0,1-2.322,2.322H152.624a2.322,2.322,0,0,1-2.322-2.322V30.117a2.322,2.322,0,0,1,2.322-2.322h17.027a2.322,2.322,0,0,1,2.322,2.322v7.746c-.247-.006-.5-.006-.774-.006v-3.87a1.548,1.548,0,0,0-1.548-1.548H152.624a1.548,1.548,0,0,0-1.548,1.548V61.849a1.548,1.548,0,0,0,1.548,1.548h17.027a1.548,1.548,0,0,0,1.548-1.548V54.883h.774Zm10.835-11.609h-2.322v-1.11l2.322-1.393Z" transform="translate(9425.829 -2161.248)" fill="#42b73d"/>
    <path id="Path_13571" data-name="Path 13571" d="M299.822,262.5a2.322,2.322,0,1,0,1.642.68A2.322,2.322,0,0,0,299.822,262.5Zm0,3.1a.774.774,0,1,1,.547-.227A.774.774,0,0,1,299.822,265.6Z" transform="translate(9290.24 -2376.604)" fill="#42b73d"/>
    <path id="Path_13572" data-name="Path 13572" d="M457.322,262.5a2.322,2.322,0,1,0,1.642.68A2.322,2.322,0,0,0,457.322,262.5Zm0,3.1a.774.774,0,1,1,.547-.227A.774.774,0,0,1,457.322,265.6Z" transform="translate(9146.671 -2376.604)" fill="#42b73d"/>
    <path id="Path_13573" data-name="Path 13573" d="M359.652,192.822l-.774.774a.774.774,0,1,0,1.095,1.095l.774-.774a.774.774,0,0,0-1.095-1.095Z" transform="translate(9234.507 -2312.89)" fill="#42b73d"/>
    <path id="Path_13574" data-name="Path 13574" d="M420.226,194.7a.774.774,0,0,0,1.095,0l.774-.774A.774.774,0,0,0,421,192.827l-.774.774a.774.774,0,0,0,0,1.095Z" transform="translate(9178.577 -2312.895)" fill="#42b73d"/>
    <path id="Path_13575" data-name="Path 13575" d="M263.274,62.8h3.1a.774.774,0,0,0,0-1.548h-3.1a.774.774,0,1,0,0,1.548Z" transform="translate(9322.145 -2193.154)" fill="#42b73d"/>
    <path id="Path_13576" data-name="Path 13576" d="M333.274,62.8h.774a.774.774,0,1,0,0-1.548h-.774a.774.774,0,1,0,0,1.548Z" transform="translate(9258.337 -2193.154)" fill="#42b73d"/>
    <path id="Path_13577" data-name="Path 13577" d="M219.524,62.8h.774a.774.774,0,0,0,0-1.548h-.774a.774.774,0,1,0,0,1.548Z" transform="translate(9362.025 -2193.154)" fill="#42b73d"/>
    <path id="Path_13578" data-name="Path 13578" d="M264.822,455a2.322,2.322,0,1,0,1.642.68A2.322,2.322,0,0,0,264.822,455Zm0,3.1a.774.774,0,1,1,.547-.227A.773.773,0,0,1,264.822,458.1Z" transform="translate(9322.145 -2552.077)" fill="#42b73d"/>
    <path id="Path_13579" data-name="Path 13579" d="M228.274,132.8h4.644a.774.774,0,0,0,0-1.548h-4.644a.774.774,0,0,0,0,1.548Z" transform="translate(9354.049 -2256.962)" fill="#42b73d"/>
    <path id="Path_13580" data-name="Path 13580" d="M228.274,167.8h3.1a.774.774,0,0,0,0-1.548h-3.1a.774.774,0,0,0,0,1.548Z" transform="translate(9354.049 -2288.867)" fill="#42b73d"/>
    <path id="Path_13581" data-name="Path 13581" d="M228.274,395.3h9.287a.774.774,0,0,0,0-1.548h-9.287a.774.774,0,0,0,0,1.548Z" transform="translate(9354.049 -2496.244)" fill="#42b73d"/>
  </g>
</svg>
