<svg xmlns="http://www.w3.org/2000/svg" width="21.528" height="27.459" viewBox="0 0 21.528 27.459">
  <g id="Group_7852" data-name="Group 7852" transform="translate(-76.975 -34.998)">
    <path id="Path_13610" data-name="Path 13610" d="M177.7,54.77a.922.922,0,0,1-.355-.706l.1-11.19a.948.948,0,0,1,.372-.712,4.316,4.316,0,0,0-.534-7.094.49.49,0,0,0-.737.419l-.021,2.382-1.482,1.024-1.457-1.021.021-2.379a.49.49,0,0,0-.735-.429,4.358,4.358,0,0,0-1.028,6.739h-1.7a2.516,2.516,0,0,0-1.895.86L164.634,46.8l-5.247,1.552a2.084,2.084,0,0,0-1.491,1.988v3.232a2.084,2.084,0,0,0,2.086,2.078h.87a3.655,3.655,0,0,0,6.988,0h3.435a4.36,4.36,0,1,0,6.42-.878Zm-13.348,2.5a2.661,2.661,0,1,1,2.661-2.633A2.65,2.65,0,0,1,164.347,57.271Zm3.64-2.6a3.64,3.64,0,1,0-7.28,0h-.724a1.1,1.1,0,0,1-1.105-1.1V50.339a1.1,1.1,0,0,1,.787-1.047l5.385-1.593a.488.488,0,0,0,.23-.148l3.7-4.244a1.535,1.535,0,0,1,1.156-.524h2.424c0,.026-.092,11.278-.092,11.278a.9.9,0,0,1-.274.607Zm9.136,5.937a3.411,3.411,0,0,1-5.62-1.955,3.37,3.37,0,0,1,1.218-3.131,1.936,1.936,0,0,0,.727-1.449l.1-11.2a1.927,1.927,0,0,0-.709-1.468,3.309,3.309,0,0,1-1.2-2.582,3.387,3.387,0,0,1,.972-2.329L172.6,38.12a.489.489,0,0,0,.209.406l1.948,1.366a.49.49,0,0,0,.56,0l1.972-1.362a.492.492,0,0,0,.212-.4l.015-1.644a3.327,3.327,0,0,1,.93,2.329,3.374,3.374,0,0,1-1.251,2.585,1.926,1.926,0,0,0-.732,1.462l-.1,11.191a1.9,1.9,0,0,0,.709,1.468,3.359,3.359,0,0,1,.055,5.082Z" transform="translate(-80.921)" fill="#191970"/>
    <path id="Path_13611" data-name="Path 13611" d="M424.125,411.76a.491.491,0,0,0-.423-.25l-1.764-.017a.524.524,0,0,0-.424.237l-.909,1.505a.489.489,0,0,0-.008.493l.854,1.523a.491.491,0,0,0,.423.25l1.764.017a.49.49,0,0,0,.424-.237l.909-1.505a.489.489,0,0,0,.008-.493Zm-.758,2.775-1.2-.012-.576-1.026.617-1.021,1.2.012.576,1.026Z" transform="translate(-328.843 -355.398)" fill="#191970"/>
    <path id="Path_13612" data-name="Path 13612" d="M453.127,173.691a.491.491,0,0,0,.495-.486l.106-11.7a.49.49,0,0,0-.981-.009l-.106,11.7A.49.49,0,0,0,453.127,173.691Z" transform="translate(-359.151 -118.951)" fill="#191970"/>
    <path id="Path_13613" data-name="Path 13613" d="M245.153,355.91a1.659,1.659,0,0,0,0,3.317A1.659,1.659,0,0,0,245.153,355.91Zm0,2.337a.678.678,0,1,1,0-1.356A.678.678,0,1,1,245.153,358.247Z" transform="translate(-161.728 -302.93)" fill="#191970"/>
  </g>
</svg>
