<svg id="noun-thumb-5233776" xmlns="http://www.w3.org/2000/svg" width="33.223" height="33.26" viewBox="0 0 33.223 33.26">
  <path id="Path_13518" data-name="Path 13518" d="M398.271,214.1a4.373,4.373,0,0,0,.941-1.4l-.988-.418a3.333,3.333,0,0,1-1.767,1.766,3.315,3.315,0,0,1-3.638-.711,3.311,3.311,0,0,1-.711-1.055l-.988.418a4.39,4.39,0,0,0,7.151,1.4Z" transform="translate(-371.937 -199.891)" fill="#42b73d"/>
  <path id="Path_13519" data-name="Path 13519" d="M104.723,245.959a2.131,2.131,0,0,0-1.595-.573l-4.749.293,1.085-1.957a6.6,6.6,0,0,0,.474-4.007,1.865,1.865,0,0,0-1.672-1.077,1.454,1.454,0,0,0-1.437.743l-1.651,3.336-4.707,3.8a1.71,1.71,0,0,0-1.667-1.339H86a1.709,1.709,0,0,0-1.707,1.707v9.264A1.709,1.709,0,0,0,86,257.851H88.8a1.709,1.709,0,0,0,1.707-1.707v-.178a7.22,7.22,0,0,0,4.828,1.885h.147l6.139-.134a1.917,1.917,0,0,0,1.385-.642,2.1,2.1,0,0,0,.537-1.561,2.025,2.025,0,0,0-.342-.988,2.061,2.061,0,0,0,.8-1.786,2.035,2.035,0,0,0-.342-.988,2.062,2.062,0,0,0,.8-1.786,1.424,1.424,0,0,0-.262-.7,2.189,2.189,0,0,0,1.116-1.938,1.858,1.858,0,0,0-.6-1.362ZM89.438,256.144a.635.635,0,0,1-.634.634H86a.635.635,0,0,1-.634-.634V246.88a.635.635,0,0,1,.634-.634H88.8a.635.635,0,0,1,.634.634Zm14.115-7.768a3.194,3.194,0,0,1-.438.038l-.145-.012a.544.544,0,0,0-.554.363.537.537,0,0,0,.221.625l.549.348a.471.471,0,0,1,.216.306.986.986,0,0,1-.531.946c-.067.007-.163.008-.251.01a2.079,2.079,0,0,0-.372.029.536.536,0,0,0-.164.98,1.593,1.593,0,0,0,.392.146c.067.02.138.039.192.057a.973.973,0,0,1,.272.605.986.986,0,0,1-.532.946c-.092.01-.288.02-.4.025a2.792,2.792,0,0,0-.427.036.536.536,0,0,0-.165.98,1.939,1.939,0,0,0,.532.18c.092.024.249.063.337.093a.964.964,0,0,1,.194.514,1.023,1.023,0,0,1-.262.76.854.854,0,0,1-.614.291l-6.139.134a6.012,6.012,0,0,1-4.952-2.421v-6.5l5.432-4.38a.537.537,0,0,0,.144-.18l1.7-3.442c.06-.121.267-.154.424-.147a.846.846,0,0,1,.721.387,5.958,5.958,0,0,1-.409,3.106l-1.559,2.813a.537.537,0,0,0,.5.8l5.726-.353a1.091,1.091,0,0,1,.794.284.791.791,0,0,1,.264.581,1.07,1.07,0,0,1-.7,1.054Z" transform="translate(-84.288 -224.591)" fill="#42b73d"/>
  <path id="Path_13520" data-name="Path 13520" d="M126.96,484.19h.993v1.073h-.993Z" transform="translate(-124.292 -454.794)" fill="#42b73d"/>
  <path id="Path_13521" data-name="Path 13521" d="M304.473,13.99A10.054,10.054,0,0,0,294.43,24.032a10.183,10.183,0,0,0,.093,1.371l1.063-.145a9.075,9.075,0,0,1-.083-1.225,8.97,8.97,0,1,1,9.53,8.953l.066,1.071a10.044,10.044,0,0,0-.626-20.067Z" transform="translate(-281.292 -13.989)" fill="#42b73d"/>
  <circle id="Ellipse_111" data-name="Ellipse 111" cx="1" cy="1" r="1" transform="translate(19.632 6.65)" fill="#42b73d"/>
  <circle id="Ellipse_112" data-name="Ellipse 112" cx="1" cy="1" r="1" transform="translate(24.632 6.65)" fill="#42b73d"/>
</svg>
