<svg xmlns="http://www.w3.org/2000/svg" width="28" height="28" viewBox="0 0 28 28">
  <g id="noun-user-5518521" transform="translate(-81.67 -11.668)">
    <path id="Path_13623" data-name="Path 13623" d="M250.54,104.98a5.56,5.56,0,1,0,5.56,5.56A5.563,5.563,0,0,0,250.54,104.98Zm0,1.236a4.324,4.324,0,1,1-4.324,4.325A4.326,4.326,0,0,1,250.54,106.216Z" transform="translate(-154.871 -88.49)" fill="#191970" fill-rule="evenodd"/>
    <path id="Path_13624" data-name="Path 13624" d="M95.67,11.668a14,14,0,1,0,14,14,14.006,14.006,0,0,0-14-14Zm8.839,23.23a10.347,10.347,0,0,0-17.679,0,12.772,12.772,0,0,0,17.679,0Zm.864-.912a12.783,12.783,0,1,0-19.408,0,11.565,11.565,0,0,1,19.408,0Z" transform="translate(0 0)" fill="#191970" fill-rule="evenodd"/>
  </g>
</svg>
