<svg xmlns="http://www.w3.org/2000/svg" width="36.546" height="36.549" viewBox="0 0 36.546 36.549">
  <g id="noun-cold-2479195" transform="translate(0)">
    <path id="Path_13578" data-name="Path 13578" d="M128.638,63.05V49.165a5.414,5.414,0,0,0-10.828,0V63.05a9.475,9.475,0,1,0,10.828,0Zm-5.414,15.894a8.119,8.119,0,0,1-4.372-14.962.676.676,0,0,0,.312-.57V49.165a4.061,4.061,0,0,1,8.121,0V63.411a.677.677,0,0,0,.312.57,8.119,8.119,0,0,1-4.372,14.962Z" transform="translate(-113.749 -43.751)" fill="#191970"/>
    <path id="Path_13579" data-name="Path 13579" d="M181.767,244.153v-7.227a.677.677,0,0,0-.677-.677h-2.707a.677.677,0,0,0-.677.677v7.227a4.737,4.737,0,1,0,4.061,0Zm-2.03,7.662a3.381,3.381,0,0,1-1.131-6.569.676.676,0,0,0,.455-.639v-7h1.354v7a.676.676,0,0,0,.455.639,3.381,3.381,0,0,1-1.131,6.569Z" transform="translate(-170.261 -221.36)" fill="#191970"/>
    <path id="Path_13580" data-name="Path 13580" d="M326.457,236.25h-2.03a.677.677,0,0,0,0,1.354h2.03a.677.677,0,1,0,0-1.354Z" transform="translate(-307.507 -221.361)" fill="#191970"/>
    <path id="Path_13581" data-name="Path 13581" d="M324.427,132.6h.677a.677.677,0,0,0,0-1.354h-.677a.677.677,0,0,0,0,1.354Z" transform="translate(-307.507 -124.482)" fill="#191970"/>
    <path id="Path_13582" data-name="Path 13582" d="M324.427,202.6h.677a.677.677,0,0,0,0-1.354h-.677a.677.677,0,0,0,0,1.354Z" transform="translate(-307.507 -189.068)" fill="#191970"/>
    <path id="Path_13583" data-name="Path 13583" d="M326.457,166.25h-2.03a.677.677,0,0,0,0,1.354h2.03a.677.677,0,1,0,0-1.354Z" transform="translate(-307.507 -156.775)" fill="#191970"/>
    <path id="Path_13584" data-name="Path 13584" d="M424.108,49.841h-1.75l1.552-1.552a.677.677,0,0,0-.957-.957l-2.509,2.509h-1.75v-1.75l2.509-2.509a.677.677,0,1,0-.957-.957l-1.552,1.552v-1.75a.677.677,0,0,0-1.354,0v1.75l-1.552-1.552a.677.677,0,0,0-.957.957l2.509,2.509v1.75h-1.75l-2.509-2.509a.677.677,0,0,0-.957.957l1.552,1.552h-1.75a.677.677,0,1,0,0,1.354h1.75l-1.552,1.552a.677.677,0,1,0,.957.957l2.509-2.509h1.75v1.75l-2.509,2.509a.677.677,0,0,0,.957.957l1.552-1.552v1.75a.677.677,0,0,0,1.354,0v-1.75l1.552,1.552a.677.677,0,0,0,.957-.957l-2.509-2.509v-1.75h1.75l2.509,2.509a.677.677,0,0,0,.957-.957l-1.552-1.552h1.75a.677.677,0,1,0,0-1.354Z" transform="translate(-388.238 -43.75)" fill="#191970"/>
  </g>
</svg>
