<svg xmlns="http://www.w3.org/2000/svg" width="32.733" height="40.807" viewBox="0 0 32.733 40.807">
  <g id="noun-car-key-1765025" transform="translate(-95.45 -45.012)">
    <path id="Path_13031" data-name="Path 13031" d="M166.971,45.017a.574.574,0,0,0-.471.41l-3.343,12.459a.581.581,0,0,0,.4.684l3.555.957-5.591,20.785a.564.564,0,0,0,0,.3l1.5,4.817a.588.588,0,0,0,.9.273l3.981-3.343a.57.57,0,0,0,.182-.532l-.456-2.537,1.337-.988a.565.565,0,0,0,.213-.3l1.094-4.087a.561.561,0,0,0,0-.319l-.76-2.279,1.9-1.9a.572.572,0,0,0,.137-.562l-.729-2.34,1.793-1.626a.563.563,0,0,0,.167-.273l.9-3.312,1.322.349V81.42a3.371,3.371,0,0,0,3.358,3.358h12.535a3.358,3.358,0,0,0,3.343-3.358V58.189a3.345,3.345,0,0,0-3.343-3.343H179.309l1.489-5.561a.581.581,0,0,0-.4-.684l-13.218-3.57a.563.563,0,0,0-.213-.015Zm.471,1.246,12.124,3.267-1.428,5.333a3.355,3.355,0,0,0-3.145,3.327V60.5l-1.565-.425a.582.582,0,0,0-.7.4l-.988,3.722L169.8,65.923a.573.573,0,0,0-.152.592l.729,2.355-1.9,1.9a.572.572,0,0,0-.137.577l.805,2.431-1,3.722-1.459,1.094a.572.572,0,0,0-.213.547l.456,2.552-3.1,2.6-1.185-3.859,5.7-21.149a.581.581,0,0,0-.4-.684l-3.555-.957,3.054-11.379Zm2.6,4.527a.574.574,0,0,0-.471.41l-.805,3.023a.581.581,0,0,0,.4.684l4.589,1.246a.581.581,0,0,0,.684-.4l.82-3.023a.582.582,0,0,0-.4-.7l-4.589-1.231c-.02-.006-.04-.011-.061-.015a.553.553,0,0,0-.167,0Zm.471,1.246,3.51.942-.517,1.945-3.51-.942Zm7.84,3.935h12.535A2.194,2.194,0,0,1,193.1,58.19V81.42a2.207,2.207,0,0,1-2.218,2.234H178.351a2.22,2.22,0,0,1-2.234-2.234V58.19A2.207,2.207,0,0,1,178.351,55.971Zm.881,2.826a.559.559,0,0,0-.456.562v3.95a.559.559,0,0,0,.562.562h10.21a.559.559,0,0,0,.547-.562V59.36a.559.559,0,0,0-.547-.562H179.293a.6.6,0,0,0-.061,0Zm.668,1.124h9.086v2.826H179.9Zm-10.255,1.5-.441.228-.106.182-1.641,6.108.091.486.456.228.441-.228.091-.2,1.641-6.092-.091-.486-.441-.228Zm11.836,6.214a2.864,2.864,0,1,0,2.871,2.871A2.87,2.87,0,0,0,181.482,67.64Zm0,1.109a1.763,1.763,0,0,1,1.763,1.763,1.737,1.737,0,0,1-1.763,1.732,1.712,1.712,0,0,1-1.732-1.732A1.737,1.737,0,0,1,181.482,68.749Zm-14.069.942-.441.213-.091.2-.289,1.079.091.486.441.228.441-.228.106-.182.289-1.094-.091-.471-.456-.228Zm-.866,3.236-.441.228-.106.2-2.324,8.63.106.486.441.213.441-.213.091-.2,2.324-8.63-.091-.486Zm18.278,1.58h0a.559.559,0,0,0-.456.562v4.817h0a.559.559,0,0,0,.562.562h4.816a.559.559,0,0,0,.562-.562V75.069h0a.559.559,0,0,0-.562-.562h-4.862c-.02,0-.04,0-.061,0Zm.668,1.124h3.692v3.692h-3.692Z" transform="translate(-66.045)" fill="#191970"/>
  </g>
</svg>
