<svg xmlns="http://www.w3.org/2000/svg" width="36.451" height="36.444" viewBox="0 0 36.451 36.444">
  <g id="noun-car-accident-3239283" transform="translate(-76.559 -20.688)">
    <path id="Path_13003" data-name="Path 13003" d="M428.488,311.3h9.83a.369.369,0,0,0,.354-.473v-4.256a.369.369,0,0,0-.11-.263.388.388,0,0,0-.264-.106c-5.094.082-7.857,2.455-10.029,4.057a.369.369,0,0,0-.15.3v.375a.368.368,0,0,0,.369.369Zm9.446-4.349v3.611h-8.846a14.278,14.278,0,0,1,8.846-3.611Z" transform="translate(-327.879 -265.463)" fill="#191970"/>
    <path id="Path_13003_-_Outline" data-name="Path 13003 - Outline" d="M428.105,311.091a.515.515,0,0,1-.432-.235l-.095-.057h.063a.511.511,0,0,1-.051-.223V310.2a.516.516,0,0,1,.209-.414c.163-.12.327-.243.5-.373A21.128,21.128,0,0,1,432.11,307a13.96,13.96,0,0,1,5.8-1.294h.01a.532.532,0,0,1,.359.148.518.518,0,0,1,.153.366v4.237a.515.515,0,0,1-.5.637Zm0-.292h9.84a.223.223,0,0,0,.217-.223.227.227,0,0,0-.009-.063l-.006-.02v-4.277a.222.222,0,0,0-.067-.159.242.242,0,0,0-.165-.064,13.673,13.673,0,0,0-5.678,1.267,20.89,20.89,0,0,0-3.759,2.387c-.174.13-.338.253-.5.374a.224.224,0,0,0-.091.18v.375A.223.223,0,0,0,428.1,310.8Zm9.6-.446h-9.415l.333-.261a19.425,19.425,0,0,1,3.882-2.476,13.283,13.283,0,0,1,4.908-1.159v-.007h.146v.146h.146Zm-8.566-.292h8.274V306.75a12.991,12.991,0,0,0-4.787,1.132A18.156,18.156,0,0,0,429.131,310.062Z" transform="translate(-327.497 -265.108)" fill="#191970"/>
    <path id="Path_13004" data-name="Path 13004" d="M359.217,454.69a1.936,1.936,0,1,0,1.937,1.936A1.938,1.938,0,0,0,359.217,454.69Zm0,3.135a1.2,1.2,0,1,1,1.2-1.2A1.2,1.2,0,0,1,359.217,457.825Z" transform="translate(-261.988 -403.58)" fill="#191970"/>
    <path id="Path_13004_-_Outline" data-name="Path 13004 - Outline" d="M358.863,454.19a2.082,2.082,0,1,1-2.082,2.082A2.084,2.084,0,0,1,358.863,454.19Zm0,3.872a1.79,1.79,0,1,0-1.791-1.79A1.792,1.792,0,0,0,358.863,458.062Zm0-3.134a1.344,1.344,0,1,1-1.344,1.344A1.346,1.346,0,0,1,358.863,454.928Zm0,2.4a1.053,1.053,0,1,0-1.053-1.052A1.054,1.054,0,0,0,358.863,457.325Z" transform="translate(-261.634 -403.225)" fill="#191970"/>
    <path id="Path_13005" data-name="Path 13005" d="M100.059,21.188c-3.52,0-6.383,3.426-6.383,7.638v.114a3.493,3.493,0,0,1-.6,1.976,12.131,12.131,0,0,0-1.944,6.661c0,4.842,2.676,9.028,6.538,10.306v9.088a.369.369,0,0,0,.369.369h4.022a.369.369,0,0,0,.369-.369V52.794c.514,1.151.462,1.661.893,1.661a.369.369,0,0,0,.363-.3l.234-1.284c1.279.976,1.5,1.52,1.9,1.251a.359.359,0,0,0,.142-.349h1.791a3.923,3.923,0,0,0,7.814,0h11.358a.369.369,0,0,0,.369-.369V39.054a.369.369,0,0,0-.369-.369H125.09c-10.047,0-10.016,6.524-19.644,7.634l.067-.289a11.474,11.474,0,0,0,3.46-8.452,12.128,12.128,0,0,0-1.942-6.66,3.5,3.5,0,0,1-.6-1.982v-.11c0-4.212-2.86-7.638-6.376-7.638Zm.594,27.065.026.076c-1.275.038-1.789-.237-1.931.214a.369.369,0,0,0,.148.419l1.321.873-1.8,1.459v-3.2a7.812,7.812,0,0,0,2.24.158ZM98.414,56.6V52.221l2.357-.318-.466,2.065a.369.369,0,0,0,.625.338l.768-.792V56.6Zm5.136-4.775a.369.369,0,0,0-.238.282l-.111.618c-.275-.6-.244-.929-.566-.995a.371.371,0,0,0-.339.1l-.983,1.013.294-1.3a.363.363,0,0,0-.225-.422,1.337,1.337,0,0,0-.135-.028c-.04,0-1.655.22-1.7.226l1.521-1.23c.556-.449-.6-.927-.692-1.033l.8.023c.823.031-.02-1.368-.159-2.039l.936.786a.37.37,0,0,0,.6-.217l.112-.62c.3.768.325,1.165.91.893h0c.081-.083.452-.463.967-.994-.037.164-.31,1.359-.294,1.285a0,0,0,0,1,0,0h0a.416.416,0,0,0,.088.325c.2.191.091.147,1.967-.1-1.765,1.4-1.618,1.263-1.664,1.537.058.184-.026.2.808.71-.182.03-1.359-.239-1.129.458l.521,1.571c-.824-.629-.967-.977-1.3-.853Zm3.728-5.034a4.773,4.773,0,0,1-.23.769l-1.949.258.168-.727c.116-.028,1.246-.142,2.011-.3ZM111.66,56.6a3.2,3.2,0,1,1,3.21-3.2A3.206,3.206,0,0,1,111.66,56.6ZM125.09,39.423h1.468V53.031H115.591a3.945,3.945,0,0,0-7.854,0h-1.992l-.549-1.649,1.593.055a.38.38,0,0,0,.376-.369c0-.274-.513-.5-1.132-.925a5.485,5.485,0,0,0,1.393-1.682c.04-.079.85-.475.378-.868a5.62,5.62,0,0,0,.239-.971c7.5-1.874,8.074-7.2,17.046-7.2Zm-16.855-1.845a10.971,10.971,0,0,1-3.022,7.727c-.252,0-.393.251-1.756,1.654l-.582-1.488h0c-.028-.151-.256-.195-.383-.2-.511.269-.15.086-.543,1.585-.632-.52-1.345-1.156-1.525-1.25V41.18l2.884-3.559a.369.369,0,0,0-.573-.465l-2.311,2.851V34.916l2.586-3.722a.369.369,0,0,0-.606-.421l-1.98,2.85V29.154a.369.369,0,1,0-.738,0V37.3l-3.152-3.728a.369.369,0,0,0-.564.476l3.716,4.394v4.588l-2.216-2.51a.369.369,0,0,0-.554.489l2.769,3.137v3.371c-4.769-.27-7.811-5.018-7.811-9.936A11.388,11.388,0,0,1,93.7,31.323a4.271,4.271,0,0,0,.717-2.386v-.11c0-3.8,2.532-6.9,5.645-6.9s5.638,3.1,5.638,6.9v.107a4.281,4.281,0,0,0,.719,2.392,11.387,11.387,0,0,1,1.82,6.253Z" transform="translate(-14.433 -0.354)" fill="#191970"/>
    <path id="Path_13005_-_Outline" data-name="Path 13005 - Outline" d="M99.705,20.688h.343l-.01.01c3.442.208,6.188,3.615,6.188,7.774v.11a3.361,3.361,0,0,0,.573,1.9,12.273,12.273,0,0,1,1.966,6.74,12.5,12.5,0,0,1-.917,4.768,11.184,11.184,0,0,1-1.1,2.053,10.278,10.278,0,0,1-1.456,1.707l-.01.043a17.455,17.455,0,0,0,8.994-3.895,21.065,21.065,0,0,1,4.2-2.563,13.467,13.467,0,0,1,2.742-.837,18.2,18.2,0,0,1,3.519-.315h1.837a.515.515,0,0,1,.515.515V53.046a.515.515,0,0,1-.515.515H115.346a4.1,4.1,0,0,1-1.289,2.5,4.053,4.053,0,0,1-5.5,0,4.1,4.1,0,0,1-1.287-2.5h-1.518a.479.479,0,0,1-.2.324.493.493,0,0,1-.28.094c-.235,0-.431-.179-.788-.5-.2-.182-.463-.422-.813-.7l-.19,1.048a.514.514,0,0,1-.506.423.474.474,0,0,1-.427-.235,2.661,2.661,0,0,1-.231-.557c-.027-.079-.056-.164-.089-.255v3.418a.515.515,0,0,1-.515.515H97.69a.515.515,0,0,1-.515-.515V47.634a8.489,8.489,0,0,1-2.6-1.46,9.946,9.946,0,0,1-2.1-2.383,11.605,11.605,0,0,1-1.359-3.054,12.831,12.831,0,0,1-.484-3.513,12.279,12.279,0,0,1,1.968-6.742,3.347,3.347,0,0,0,.571-1.894v-.115C93.176,24.18,96.1,20.688,99.705,20.688Zm5.2,25.445.124-.534.033-.03a9.978,9.978,0,0,0,1.446-1.688,10.893,10.893,0,0,0,1.072-2,12.213,12.213,0,0,0,.9-4.657,11.979,11.979,0,0,0-1.918-6.579,3.647,3.647,0,0,1-.621-2.064v-.109c0-4.131-2.795-7.492-6.23-7.492h-.054c-3.414.035-6.183,3.383-6.183,7.492v.114a3.633,3.633,0,0,1-.619,2.056,11.985,11.985,0,0,0-1.92,6.581,12.539,12.539,0,0,0,.473,3.433,11.314,11.314,0,0,0,1.325,2.978,9.655,9.655,0,0,0,2.036,2.313,8.182,8.182,0,0,0,2.6,1.443l.1.033v9.193a.223.223,0,0,0,.223.223h4.022a.223.223,0,0,0,.223-.223V52.44l.279-.059c.18.4.289.722.377.979.171.5.218.6.382.6a.223.223,0,0,0,.219-.183l.276-1.519.189.144c.456.348.782.645,1.021.862.283.257.47.428.592.428a.2.2,0,0,0,.116-.044.22.22,0,0,0,.079-.211l-.02-.163h2.088l.013.132a3.808,3.808,0,0,0,1.209,2.442,3.761,3.761,0,0,0,5.1,0,3.805,3.805,0,0,0,1.211-2.441l.013-.132h11.49a.223.223,0,0,0,.223-.223V38.7a.223.223,0,0,0-.223-.223h-1.837a17.908,17.908,0,0,0-3.463.31,13.18,13.18,0,0,0-2.683.819,20.839,20.839,0,0,0-4.143,2.531,17.676,17.676,0,0,1-9.338,3.973ZM99.7,21.426c3.189,0,5.784,3.161,5.784,7.046v.107a4.139,4.139,0,0,0,.695,2.312,11.534,11.534,0,0,1,1.844,6.333v.085a11.983,11.983,0,0,1-.809,4.245,10.176,10.176,0,0,1-2.256,3.5l-.042.042h-.059c-.117,0-.248.135-.782.7-.222.235-.5.527-.871.911l-.158.163-.082-.212-.582-1.487h0v0h0a.167.167,0,0,1-.008-.028.315.315,0,0,0-.206-.073.735.735,0,0,0-.18.113.566.566,0,0,0-.034.19,6.871,6.871,0,0,1-.22,1.171l-.058.221-.176-.145c-.215-.177-.436-.364-.649-.545a10.737,10.737,0,0,0-.851-.688l-.078-.041V40.774l2.917-3.6a.223.223,0,0,0-.347-.281l-2.569,3.17V34.516l2.612-3.76a.223.223,0,1,0-.366-.255l-2.246,3.233V28.8a.223.223,0,0,0-.446,0V37.34l-3.41-4.032a.223.223,0,1,0-.341.288l3.75,4.434v5.027l-2.471-2.8a.224.224,0,0,0-.167-.075.223.223,0,0,0-.168.371l2.806,3.179v3.58l-.154-.009a7.276,7.276,0,0,1-3.3-.994,8.414,8.414,0,0,1-2.505-2.289,10.731,10.731,0,0,1-1.589-3.165,12.066,12.066,0,0,1-.557-3.633,11.537,11.537,0,0,1,1.846-6.336,4.121,4.121,0,0,0,.693-2.3h0v-.11C93.914,24.587,96.512,21.426,99.7,21.426Zm8.031,15.728a11.23,11.23,0,0,0-1.8-6.1,4.429,4.429,0,0,1-.743-2.474v-.106c0-3.724-2.464-6.754-5.492-6.754s-5.5,3.03-5.5,6.754v.11a4.413,4.413,0,0,1-.741,2.467,11.243,11.243,0,0,0-1.8,6.175,11.775,11.775,0,0,0,.543,3.545,10.44,10.44,0,0,0,1.546,3.079,8.124,8.124,0,0,0,2.418,2.211A6.98,6.98,0,0,0,99.187,47v-3.16l-2.733-3.1a.515.515,0,0,1,.772-.682l1.961,2.221V38.138l-3.682-4.353a.515.515,0,1,1,.786-.664l2.9,3.423V28.8a.515.515,0,1,1,1.029,0v4l1.715-2.468a.515.515,0,1,1,.845.588l-2.56,3.684v4.634l2.051-2.531a.515.515,0,0,1,.8.648l-2.852,3.519v4.295c.154.106.429.338.827.675.154.13.311.264.468.395a6.132,6.132,0,0,0,.156-.9c.033-.33.063-.371.4-.551l.034-.018h.039c.22.008.469.092.518.3l.494,1.264c.294-.3.522-.545.711-.745.293-.309.469-.5.6-.61a.634.634,0,0,1,.325-.175,9.9,9.9,0,0,0,2.153-3.362,11.691,11.691,0,0,0,.789-4.224Zm17,1.769h1.614v13.9H115.1l-.012-.132a3.652,3.652,0,0,0-.38-1.307,3.918,3.918,0,0,0-.822-1.1,3.8,3.8,0,0,0-6.361,2.4l-.012.132h-2.23l-.648-1.948.209.007,1.342.046.24.008c.146-.019.237-.1.237-.223s-.311-.319-.612-.508c-.138-.087-.294-.185-.457-.3l-.162-.111.152-.123a5.312,5.312,0,0,0,1.356-1.636.45.45,0,0,1,.15-.138c.115-.084.354-.257.359-.4,0-.018,0-.072-.094-.153l-.077-.064.033-.1a5.5,5.5,0,0,0,.233-.946l.015-.1.094-.024a18.411,18.411,0,0,0,6.949-3.573,20.191,20.191,0,0,1,4.064-2.511,12.876,12.876,0,0,1,2.653-.814,17.379,17.379,0,0,1,3.2-.3h.218Zm1.322.292h-1.322c-5.1,0-7.461,1.736-9.96,3.574a18.716,18.716,0,0,1-6.958,3.6,5.8,5.8,0,0,1-.2.812.44.44,0,0,1,.125.316c-.009.282-.3.5-.479.624-.025.019-.056.041-.071.053a5.589,5.589,0,0,1-1.271,1.585c.1.066.2.127.287.183.434.274.748.471.748.755a.508.508,0,0,1-.374.486v.029h-.153l-.251-.009-1.133-.039.449,1.35h1.756a4.07,4.07,0,0,1,6.837-2.458,4.207,4.207,0,0,1,.883,1.18,3.956,3.956,0,0,1,.4,1.278h10.692Zm-21.6,6.846-.116.509-.291,1.273h0l0,.008,0,.008a.226.226,0,0,0,.05.179l.013.022h0c.062.061.065.061.137.061.116,0,.338-.031.741-.087.246-.034.552-.077.953-.13l.523-.069-.414.328-.339.268c-.643.508-.965.763-1.126.911-.126.116-.128.135-.138.207l0,.027.008.031c.023.092.037.147.726.564l.337.2-.388.065a.391.391,0,0,1-.065,0c-.048,0-.113-.005-.187-.011-.1-.008-.223-.018-.343-.018-.3,0-.395.064-.422.1a.233.233,0,0,0,0,.19l.669,2.02-.376-.287c-.285-.218-.487-.4-.649-.545-.209-.189-.336-.3-.436-.3a.217.217,0,0,0-.076.016.225.225,0,0,0-.146.171l-.194,1.077-.194-.424a5.346,5.346,0,0,1-.2-.512c-.105-.307-.14-.375-.264-.4a.226.226,0,0,0-.2.063l-.954.984h0l-.032.033h0l0,0-.116-.112-.125-.028.294-1.3a.218.218,0,0,0-.129-.251l-.091-.02c-.158.017-1.54.205-1.672.223l-.519.072,1.928-1.559c.1-.082.1-.136.1-.154-.013-.183-.424-.425-.6-.528a.8.8,0,0,1-.209-.145l-.2-.247,1.123.032h.022c.118,0,.145-.039.153-.052.114-.165-.1-.737-.249-1.115a5.062,5.062,0,0,1-.232-.7l-.086-.412,1.258,1.057a.221.221,0,0,0,.142.052.225.225,0,0,0,.221-.184l.2-1.129.187.484c.044.113.082.218.116.312.153.425.219.573.352.573a.591.591,0,0,0,.221-.061c.308-.316.628-.644.949-.975Zm-.685,1.689.169-.737-.587.6-.037.037-.024.012a.882.882,0,0,1-.368.1.459.459,0,0,1-.4-.245,1.86,1.86,0,0,1-.152-.327l-.017.094a.517.517,0,0,1-.508.423.509.509,0,0,1-.329-.12l-.552-.464.071.187c.215.562.418,1.093.217,1.384a.446.446,0,0,1-.394.178h-.032l-.272-.008a.9.9,0,0,1,.461.584.465.465,0,0,1-.2.4l-1.115.9c.492-.067,1.162-.157,1.2-.157a1.046,1.046,0,0,1,.189.039h0a.51.51,0,0,1,.313.59l-.18.8.622-.641a.518.518,0,0,1,.472-.146c.3.061.38.3.482.592l0,.011.02-.108a.517.517,0,0,1,.332-.393.5.5,0,0,1,.176-.033c.212,0,.37.142.631.378.073.066.154.138.247.219l-.364-1.1a.483.483,0,0,1,.038-.453.8.8,0,0,1,.659-.223h.027c-.313-.215-.353-.3-.389-.444,0-.017-.008-.032-.014-.049l-.011-.034.006-.035c0-.018.005-.035.007-.051a.536.536,0,0,1,.229-.383c.162-.149.468-.392,1.064-.863l-.424.059a7.28,7.28,0,0,1-.782.09.407.407,0,0,1-.341-.146l-.03-.03-.01-.019-.02-.034a.612.612,0,0,1-.088-.216h-.206Zm3.34-1.5-.046.218a4.933,4.933,0,0,1-.237.793l-.031.08-2.243.3.236-1.02.088-.021c.043-.01.15-.024.39-.054.415-.052,1.11-.14,1.626-.247Zm-.524.824a4.635,4.635,0,0,0,.142-.45c-.489.089-1.063.161-1.425.207l-.272.035-.1.427Zm-8.676.484.177.039a8.042,8.042,0,0,0,1.66.179c.167,0,.326-.006.476-.018l.128-.152.171.508-.2.006c-.086,0-.173,0-.259,0-.325,0-.6-.018-.814-.033-.149-.01-.278-.019-.382-.019-.271,0-.31.061-.341.16a.224.224,0,0,0,.09.253l1.487.983-2.2,1.777Zm.448.389L98.2,47.92v2.715l1.412-1.142-1.155-.763a.517.517,0,0,1-.207-.584A.531.531,0,0,1,98.362,47.948ZM111.306,49.7a3.348,3.348,0,1,1-3.348,3.348A3.356,3.356,0,0,1,111.306,49.7Zm0,6.405a3.057,3.057,0,1,0-3.057-3.057A3.064,3.064,0,0,0,111.306,56.1Zm-10.7-4.727-.512,2.27a.211.211,0,0,0,.04.184.24.24,0,0,0,.183.089.213.213,0,0,0,.155-.069l1.019-1.051v3.594H97.914V51.739Zm-.29,2.835a.531.531,0,0,1-.411-.2.5.5,0,0,1-.1-.431l.42-1.86-2.023.273V56.1H101.2V53.519l-.518.534A.5.5,0,0,1,100.315,54.21Z" transform="translate(-14.079)" fill="#191970"/>
  </g>
</svg>
