<svg xmlns="http://www.w3.org/2000/svg" width="27.9" height="37.324" viewBox="0 0 27.9 37.324">
  <g id="noun-anti-theft-alarm-4684517" transform="translate(-91.211 -8.486)">
    <path id="Path_12945" data-name="Path 12945" d="M280.534,388.18h-9.809a.563.563,0,0,0-.566.566v2.77a.563.563,0,0,0,.566.566h9.809a.563.563,0,0,0,.566-.566v-2.77A.563.563,0,0,0,280.534,388.18Zm-.566,2.77h-8.678v-1.639h8.678Z" transform="translate(-170.481 -353.596)" fill="#191970"/>
    <path id="Path_12946" data-name="Path 12946" d="M461.421,380.89a1.965,1.965,0,1,0,1.965,1.965A1.966,1.966,0,0,0,461.421,380.89Zm0,2.8a.834.834,0,1,1,.834-.834A.834.834,0,0,1,461.421,383.689Z" transform="translate(-346.766 -346.807)" fill="#191970"/>
    <path id="Path_12947" data-name="Path 12947" d="M184.9,380.89a1.965,1.965,0,1,0,1.965,1.965A1.966,1.966,0,0,0,184.9,380.89Zm0,2.8a.834.834,0,1,1,.834-.834A.834.834,0,0,1,184.9,383.689Z" transform="translate(-89.253 -346.807)" fill="#191970"/>
    <path id="Path_12948" data-name="Path 12948" d="M174.863,255.705v-.735a1.065,1.065,0,0,0-1.061-1.061h-2.659l-1.429-3.348a.56.56,0,0,0-.519-.344H153.279a.566.566,0,0,0-.513.326l-1.569,3.365h-2.671a1.065,1.065,0,0,0-1.061,1.061v.735a1.057,1.057,0,0,0,.712,1l.846.3a4.384,4.384,0,0,0-2.059,3.7,6.177,6.177,0,0,0,.595,2.642v5.29a2.29,2.29,0,0,0,2.286,2.286h1.709a2.29,2.29,0,0,0,2.286-2.286v-1.674h14.51v1.674a2.29,2.29,0,0,0,2.286,2.286h1.709a2.29,2.29,0,0,0,2.286-2.286v-6.4a6.319,6.319,0,0,0,.2-1.534,4.374,4.374,0,0,0-1.89-3.6l1.2-.4a1.059,1.059,0,0,0,.723-1Zm-21.222-4.357h15.175l2.129,4.986H151.32Zm-5.039,3.7h2.07l-.536,1.155-1.534-.542Zm2.963,14.749h-1.709a1.157,1.157,0,0,1-1.155-1.155v-3.633a6.23,6.23,0,0,0,4.018,1.93v1.7a1.161,1.161,0,0,1-1.155,1.155Zm21.94-1.155a1.157,1.157,0,0,1-1.155,1.155h-1.709a1.157,1.157,0,0,1-1.155-1.155v-1.749a6.261,6.261,0,0,0,4.018-2.339Zm.2-7.931a5.327,5.327,0,0,1-.152,1.225,5.123,5.123,0,0,1-4.975,3.9H153.238a5.13,5.13,0,0,1-5.126-5.126,3.247,3.247,0,0,1,3.243-3.243H170.46a3.247,3.247,0,0,1,3.243,3.243Zm.029-5.056-1.61.542-.49-1.155h2.105v.612Z" transform="translate(-55.753 -225.116)" fill="#191970"/>
    <path id="Path_12949" data-name="Path 12949" d="M262.8,22.984h9.879a1.133,1.133,0,0,0,1.131-1.131V14.7a1.133,1.133,0,0,0-1.131-1.131h-.974V12.341a3.967,3.967,0,0,0-7.931.006v1.225H262.8a1.133,1.133,0,0,0-1.131,1.131v7.156a1.131,1.131,0,0,0,1.131,1.126Zm2.105-10.637a2.839,2.839,0,0,1,5.675,0v1.225h-5.675ZM262.8,14.7h9.879v7.156H262.8Z" transform="translate(-162.574)" fill="#191970"/>
    <path id="Path_12950" data-name="Path 12950" d="M326.453,111.91a1.735,1.735,0,0,0-.566,3.377v1.423a.566.566,0,1,0,1.131,0v-1.423a1.735,1.735,0,0,0-.566-3.377Zm0,2.344a.607.607,0,1,1,.607-.607A.61.61,0,0,1,326.453,114.254Z" transform="translate(-221.287 -96.315)" fill="#191970"/>
    <path id="Path_12951" data-name="Path 12951" d="M468.326,116.057a.578.578,0,0,0,.8,0,3.682,3.682,0,0,0,0-5.2.565.565,0,1,0-.8.8,2.548,2.548,0,0,1,0,3.6A.565.565,0,0,0,468.326,116.057Z" transform="translate(-354.873 -95.178)" fill="#191970"/>
    <path id="Path_12952" data-name="Path 12952" d="M498.619,91.676a.578.578,0,0,0,.8,0,6.428,6.428,0,0,0,0-9.087.565.565,0,0,0-.8.8,5.3,5.3,0,0,1,0,7.489A.558.558,0,0,0,498.619,91.676Z" transform="translate(-383.084 -68.855)" fill="#191970"/>
    <path id="Path_12953" data-name="Path 12953" d="M203.62,116.292a.563.563,0,0,0,.4-.962,2.548,2.548,0,0,1,0-3.6.565.565,0,0,0-.8-.8,3.682,3.682,0,0,0,0,5.2A.581.581,0,0,0,203.62,116.292Z" transform="translate(-107.143 -95.25)" fill="#191970"/>
    <path id="Path_12954" data-name="Path 12954" d="M162.515,91.924a.563.563,0,0,0,.4-.962,5.3,5.3,0,0,1,0-7.489.565.565,0,0,0-.8-.8,6.428,6.428,0,0,0,0,9.087A.566.566,0,0,0,162.515,91.924Z" transform="translate(-68.114 -68.934)" fill="#191970"/>
  </g>
</svg>
