<svg id="Group_7951" data-name="Group 7951" xmlns="http://www.w3.org/2000/svg" width="30.354" height="28.908" viewBox="0 0 30.354 28.908">
  <path id="Path_13641" data-name="Path 13641" d="M565.815,509.427a1.42,1.42,0,0,1-1.445-1.445.482.482,0,0,1,.964,0,.482.482,0,0,0,.964,0,.482.482,0,1,1,.964,0A1.42,1.42,0,0,1,565.815,509.427Z" transform="translate(-537.389 -480.519)" fill="#191970"/>
  <path id="Path_13642" data-name="Path 13642" d="M564.852,409.245a.455.455,0,0,1-.482-.482v-5.782a.482.482,0,0,1,.964,0v5.782A.455.455,0,0,1,564.852,409.245Z" transform="translate(-537.389 -381.301)" fill="#191970"/>
  <path id="Path_13643" data-name="Path 13643" d="M599.852,409.245a.455.455,0,0,1-.482-.482v-5.782a.482.482,0,0,1,.964,0v5.782A.455.455,0,0,1,599.852,409.245Z" transform="translate(-570.462 -381.301)" fill="#191970"/>
  <path id="Path_13644" data-name="Path 13644" d="M559,403.464h-2.891a.482.482,0,0,1,0-.964H559a.482.482,0,0,1,0,.964Z" transform="translate(-529.13 -381.301)" fill="#191970"/>
  <path id="Path_13645" data-name="Path 13645" d="M582.352,295.977a.455.455,0,0,1-.482-.482v-6.263a.482.482,0,0,1,.964,0V295.5A.455.455,0,0,1,582.352,295.977Z" transform="translate(-553.926 -273.814)" fill="#191970"/>
  <path id="Path_13646" data-name="Path 13646" d="M582.352,273.177a.437.437,0,0,1-.337-.145.466.466,0,0,1,0-.674l.964-.964a.477.477,0,0,1,.674.675l-.964.964A.437.437,0,0,1,582.352,273.177Z" transform="translate(-553.926 -257.278)" fill="#191970"/>
  <path id="Path_13647" data-name="Path 13647" d="M565.815,273.177a.437.437,0,0,1-.337-.145l-.964-.964a.477.477,0,0,1,.675-.675l.964.964a.466.466,0,0,1,0,.674A.437.437,0,0,1,565.815,273.177Z" transform="translate(-537.389 -257.278)" fill="#191970"/>
  <path id="Path_13648" data-name="Path 13648" d="M564.334,230.355a.29.29,0,0,1-.193-.048.5.5,0,0,1-.289-.626l.964-2.409a.488.488,0,1,1,.915.337l-.964,2.409A.412.412,0,0,1,564.334,230.355Z" transform="translate(-536.871 -215.419)" fill="#191970"/>
  <path id="Path_13649" data-name="Path 13649" d="M583.522,231.079a.421.421,0,0,1-.434-.289l-.964-2.409a.488.488,0,0,1,.915-.337l.964,2.409a.463.463,0,0,1-.289.626Z" transform="translate(-554.132 -216.144)" fill="#191970"/>
  <path id="Path_13650" data-name="Path 13650" d="M453.511,236.873a2.891,2.891,0,0,1-1.156-5.541.453.453,0,0,1,.434.048.491.491,0,0,1,.241.385V233.5a.482.482,0,1,0,.964,0v-1.734a.429.429,0,0,1,.241-.385.468.468,0,0,1,.434-.048,2.891,2.891,0,0,1-1.156,5.541Zm-1.445-4.144a1.927,1.927,0,1,0,2.891,0v.771a1.445,1.445,0,0,1-2.891,0Z" transform="translate(-429.903 -219.528)" fill="#191970"/>
  <path id="Path_13651" data-name="Path 13651" d="M478.315,509.427a1.42,1.42,0,0,1-1.445-1.445.482.482,0,1,1,.964,0,.482.482,0,1,0,.964,0,.482.482,0,1,1,.964,0A1.42,1.42,0,0,1,478.315,509.427Z" transform="translate(-454.708 -480.519)" fill="#191970"/>
  <path id="Path_13652" data-name="Path 13652" d="M512.352,323.256a.455.455,0,0,1-.482-.482V311.982a.482.482,0,0,1,.964,0v10.792A.455.455,0,0,1,512.352,323.256Z" transform="translate(-487.78 -295.312)" fill="#191970"/>
  <path id="Path_13653" data-name="Path 13653" d="M477.352,323.256a.455.455,0,0,1-.482-.482V311.982a.482.482,0,1,1,.964,0v10.792A.455.455,0,0,1,477.352,323.256Z" transform="translate(-454.708 -295.312)" fill="#191970"/>
  <path id="Path_13654" data-name="Path 13654" d="M74.857,398.568a.455.455,0,0,1-.482-.482,4.318,4.318,0,0,1,4.336-4.336.482.482,0,0,1,0,.964,3.352,3.352,0,0,0-3.373,3.373A.455.455,0,0,1,74.857,398.568Z" transform="translate(-74.375 -373.033)" fill="#191970"/>
  <path id="Path_13655" data-name="Path 13655" d="M376.206,398.568a.455.455,0,0,1-.482-.482,3.352,3.352,0,0,0-3.373-3.373.482.482,0,0,1,0-.964,4.318,4.318,0,0,1,4.336,4.336A.455.455,0,0,1,376.206,398.568Z" transform="translate(-355.489 -373.033)" fill="#191970"/>
  <path id="Path_13656" data-name="Path 13656" d="M147.743,394.714h-2.891a.482.482,0,0,1,0-.964h2.891a.482.482,0,0,1,0,.964Z" transform="translate(-140.516 -373.033)" fill="#191970"/>
  <path id="Path_13657" data-name="Path 13657" d="M322.743,394.714h-2.891a.482.482,0,0,1,0-.964h2.891a.482.482,0,0,1,0,.964Z" transform="translate(-305.88 -373.033)" fill="#191970"/>
  <path id="Path_13658" data-name="Path 13658" d="M74.857,468.086a.455.455,0,0,1-.482-.482v-3.373a.482.482,0,1,1,.964,0V467.6A.483.483,0,0,1,74.857,468.086Z" transform="translate(-74.375 -439.178)" fill="#191970"/>
  <path id="Path_13659" data-name="Path 13659" d="M442.352,468.086a.455.455,0,0,1-.482-.482v-3.373a.482.482,0,0,1,.964,0V467.6A.455.455,0,0,1,442.352,468.086Z" transform="translate(-421.634 -439.178)" fill="#191970"/>
  <path id="Path_13660" data-name="Path 13660" d="M197.352,347.585a.455.455,0,0,1-.482-.482v-2.746a.482.482,0,0,1,.964,0V347.1A.455.455,0,0,1,197.352,347.585Z" transform="translate(-190.125 -325.904)" fill="#191970"/>
  <path id="Path_13661" data-name="Path 13661" d="M319.852,347.585a.455.455,0,0,1-.482-.482v-2.746a.482.482,0,1,1,.964,0V347.1A.455.455,0,0,1,319.852,347.585Z" transform="translate(-305.88 -325.904)" fill="#191970"/>
  <path id="Path_13662" data-name="Path 13662" d="M134.589,235.691a7.732,7.732,0,0,1-7.709-7.709.482.482,0,1,1,.964,0,6.745,6.745,0,0,0,13.49,0,.482.482,0,1,1,.964,0A7.732,7.732,0,0,1,134.589,235.691Z" transform="translate(-123.989 -215.937)" fill="#191970"/>
  <path id="Path_13663" data-name="Path 13663" d="M141.806,34.441a.455.455,0,0,1-.482-.482,6.745,6.745,0,1,0-13.49,0,.482.482,0,1,1-.964,0,7.709,7.709,0,1,1,15.418,0A.455.455,0,0,1,141.806,34.441Z" transform="translate(-123.979 -25.768)" fill="#191970"/>
  <path id="Path_13664" data-name="Path 13664" d="M127.352,195.391a.455.455,0,0,1-.482-.482v-1.927a.482.482,0,1,1,.964,0v1.927A.455.455,0,0,1,127.352,195.391Z" transform="translate(-123.979 -182.864)" fill="#191970"/>
  <path id="Path_13665" data-name="Path 13665" d="M389.852,195.391a.455.455,0,0,1-.482-.482v-1.927a.482.482,0,0,1,.964,0v1.927A.455.455,0,0,1,389.852,195.391Z" transform="translate(-372.025 -182.864)" fill="#191970"/>
  <path id="Path_13666" data-name="Path 13666" d="M126.233,193.464H109.852a.482.482,0,1,1,0-.964h16.381a.482.482,0,1,1,0,.964Z" transform="translate(-107.443 -182.864)" fill="#191970"/>
  <path id="Path_13667" data-name="Path 13667" d="M126.128,160.391a.437.437,0,0,1-.337-.145s-1.783-1.783-7.853-1.783-7.805,1.734-7.853,1.783a.466.466,0,0,1-.675,0,.516.516,0,0,1-.048-.675c.1-.1,1.975-2.072,8.576-2.072s8.48,2.024,8.528,2.072a.468.468,0,0,1-.048.675.343.343,0,0,1-.289.145Z" transform="translate(-107.338 -149.791)" fill="#191970"/>
  <path id="Path_13668" data-name="Path 13668" d="M389.852,159.759a.455.455,0,0,1-.482-.482v-1.3a.482.482,0,0,1,.964,0v1.3A.483.483,0,0,1,389.852,159.759Z" transform="translate(-372.025 -149.787)" fill="#191970"/>
  <path id="Path_13669" data-name="Path 13669" d="M127.352,159.759a.455.455,0,0,1-.482-.482v-1.3a.482.482,0,1,1,.964,0v1.3A.483.483,0,0,1,127.352,159.759Z" transform="translate(-123.979 -149.787)" fill="#191970"/>
  <path id="Path_13670" data-name="Path 13670" d="M258.612,18.945a.455.455,0,0,1-.482-.482v-.482a.482.482,0,0,1,.964,0v.482A.455.455,0,0,1,258.612,18.945Z" transform="translate(-248.012 -17.5)" fill="#191970"/>
  <path id="Path_13671" data-name="Path 13671" d="M200.993,396.417a4.492,4.492,0,0,1-3.758-1.638.488.488,0,0,1,.819-.53,3.572,3.572,0,0,0,2.987,1.253,3.472,3.472,0,0,0,2.987-1.253.488.488,0,0,1,.819.53A4.9,4.9,0,0,1,200.993,396.417Z" transform="translate(-190.393 -373.291)" fill="#191970"/>
  <path id="Path_13672" data-name="Path 13672" d="M211.893,476.354a.455.455,0,0,1-.482-.482,2.409,2.409,0,1,0-4.818,0,.482.482,0,1,1-.964,0,3.373,3.373,0,0,1,6.745,0A.455.455,0,0,1,211.893,476.354Z" transform="translate(-198.403 -447.446)" fill="#191970"/>
  <path id="Path_13673" data-name="Path 13673" d="M233.807,73.854a1.927,1.927,0,1,1,1.927-1.927A1.933,1.933,0,0,1,233.807,73.854Zm0-2.891a.964.964,0,1,0,.964.964A.966.966,0,0,0,233.807,70.964Z" transform="translate(-223.208 -67.109)" fill="#191970"/>
</svg>
