<svg xmlns="http://www.w3.org/2000/svg" width="35.792" height="35.792" viewBox="0 0 35.792 35.792">
  <g id="Group_1888" data-name="Group 1888" transform="translate(0.2 0.2)">
    <path id="Path_3020" data-name="Path 3020" d="M315.719,316.666h-3.706l1.033-2.158a.412.412,0,0,0-.37-.589h-3.593a.412.412,0,0,0-.375.243l-2.7,5.976a.412.412,0,0,0,.375.581h2.486l-2.413,4.957a.412.412,0,0,0,.66.473L316,317.371a.412.412,0,0,0-.284-.71Zm-7.462,7.207,1.645-3.387a.412.412,0,0,0-.37-.592h-2.507l2.324-5.153h2.673l-1.033,2.158a.412.412,0,0,0,.37.589h3.357Z" transform="translate(-291.675 -293.838)" fill="#191970" stroke="#191970" stroke-width="0.4"/>
    <path id="Path_3021" data-name="Path 3021" d="M165.682,145.988h-6.1v-2.88a.409.409,0,0,0-.407-.412h-2.845a.409.409,0,0,0-.407.412v2.88H142.1v-2.88a.409.409,0,0,0-.407-.412h-2.845a.409.409,0,0,0-.407.412v2.88h-6.1a.409.409,0,0,0-.407.412v4.938a.409.409,0,0,0,.407.412h1.22v18.93a.409.409,0,0,0,.407.412h30.084a.409.409,0,0,0,.407-.412v-18.93h1.22a.409.409,0,0,0,.407-.412V146.4A.409.409,0,0,0,165.682,145.988Zm-8.944-2.47h2.032v2.47h-2.032Zm-17.482,0h2.025v2.47h-2.032Zm-4.879,26.749V168.62H142.1a.412.412,0,0,0,0-.823h-7.724V154.625h29.271v13.168H149.414a.412.412,0,0,0,0,.823h14.23v1.647ZM163.648,153.8H134.371v-2.058h29.271Zm1.627-2.88h-32.53V146.8h32.525Z" transform="translate(-130.696 -135.699)" fill="#191970" stroke="#191970" stroke-width="0.4"/>
    <path id="Path_3022" data-name="Path 3022" d="M472.389,51.769a.617.617,0,1,1-.617-.617.617.617,0,0,1,.617.617" transform="translate(-444.32 -51.152)" fill="#191970" stroke="#191970" stroke-width="0.4"/>
    <path id="Path_3023" data-name="Path 3023" d="M569.312,137.923a.617.617,0,1,1-.617-.617.617.617,0,0,1,.617.617" transform="translate(-533.927 -130.721)" fill="#191970" stroke="#191970" stroke-width="0.4"/>
    <path id="Path_3024" data-name="Path 3024" d="M278.133,471.567a.412.412,0,1,1-.412-.412.411.411,0,0,1,.412.412" transform="translate(-265.111 -439.056)" fill="#191970" stroke="#191970" stroke-width="0.4"/>
    <path id="Path_3025" data-name="Path 3025" d="M359.312,111a.617.617,0,1,1-.617-.617.617.617,0,0,1,.617.617" transform="translate(-339.781 -105.855)" fill="#191970" stroke="#191970" stroke-width="0.4"/>
    <path id="Path_3026" data-name="Path 3026" d="M246.232,62.539a.617.617,0,1,1-.617-.617.617.617,0,0,1,.617.617" transform="translate(-235.239 -61.099)" fill="#191970" stroke="#191970" stroke-width="0.4"/>
    <path id="Path_3027" data-name="Path 3027" d="M117,148.693a.617.617,0,1,1-.617-.617.617.617,0,0,1,.617.617" transform="translate(-115.767 -140.668)" fill="#191970" stroke="#191970" stroke-width="0.4"/>
    <path id="Path_3028" data-name="Path 3028" d="M184.5,315h-3.7a.412.412,0,0,0-.412.412v1.647a.412.412,0,0,0,.412.412h3.7a.412.412,0,0,0,.412-.412v-1.647A.412.412,0,0,0,184.5,315Zm-.412,1.645h-2.88v-.823H184.1Z" transform="translate(-175.446 -294.835)" fill="#191970"/>
    <path id="Path_3029" data-name="Path 3029" d="M476.949,318.3h.823v.823a.412.412,0,0,0,.412.412h1.235a.412.412,0,0,0,.412-.412V318.3h.823a.412.412,0,0,0,.412-.412v-1.235a.412.412,0,0,0-.412-.412h-.823v-.823a.412.412,0,0,0-.412-.412h-1.235a.412.412,0,0,0-.412.412v.823h-.823a.412.412,0,0,0-.412.412v1.235A.412.412,0,0,0,476.949,318.3Zm.412-1.235h.823a.412.412,0,0,0,.412-.412v-.823h.412v.823a.412.412,0,0,0,.412.412h.823v.412h-.823a.412.412,0,0,0-.412.412v.823H478.6v-.823a.412.412,0,0,0-.412-.412h-.823Z" transform="translate(-449.381 -294.846)" fill="#191970"/>
    <path id="Path_3030" data-name="Path 3030" d="M150.135,92.971a2.057,2.057,0,1,0-2.057-2.057A2.057,2.057,0,0,0,150.135,92.971Zm0-3.292a1.235,1.235,0,1,1-1.235,1.235,1.235,1.235,0,0,1,1.235-1.235Z" transform="translate(-145.609 -85.974)" fill="#191970" stroke="#191970" stroke-width="0.4"/>
    <path id="Path_3031" data-name="Path 3031" d="M511.311,61.481a2.47,2.47,0,1,0-2.47-2.47,2.47,2.47,0,0,0,2.47,2.47Zm0-4.116a1.647,1.647,0,1,1-1.646,1.647,1.647,1.647,0,0,1,1.646-1.647Z" transform="translate(-479.217 -56.131)" fill="#191970" stroke="#191970" stroke-width="0.4"/>
  </g>
</svg>
