<svg xmlns="http://www.w3.org/2000/svg" width="30.707" height="19.815" viewBox="0 0 30.707 19.815">
  <g id="Group_7863" data-name="Group 7863" transform="translate(-76.537 -123.736)">
    <path id="Path_13618" data-name="Path 13618" d="M138.443,142.778l-4.726-6.16v-12.4a.481.481,0,0,0-.48-.48H112.809a.481.481,0,0,0-.48.48v12.417l-4.4,6.16a.477.477,0,0,0,.389.758h29.746a.486.486,0,0,0,.432-.269.471.471,0,0,0-.053-.5ZM113.288,124.7h19.474v11.611H113.288Zm-4.04,17.9,3.8-5.33H133l4.088,5.33Z" transform="translate(-31.302 0)" fill="#191970"/>
    <path id="Path_13619" data-name="Path 13619" d="M267.858,367.1h-11.5a.5.5,0,0,0,0,1.005h11.5a.5.5,0,0,0,0-1.005Z" transform="translate(-170.218 -227.973)" fill="#191970"/>
    <path id="Path_13620" data-name="Path 13620" d="M236.152,176.932a1.955,1.955,0,0,0-1.044-.3h-1.649a6.286,6.286,0,0,0-4.723-1.966,7.449,7.449,0,0,0-3.257.824l-.426.181a16.525,16.525,0,0,1-1.919.724.584.584,0,0,0-.412.477c-.234,1.428-.389,3.016.678,3.83a.511.511,0,0,0,.311.106h.765a1.591,1.591,0,0,0,3.11,0h4.352a1.588,1.588,0,0,0,3.106,0h1.668a.876.876,0,0,0,.692-.357,1.082,1.082,0,0,0,.2-.839,3.5,3.5,0,0,0-1.451-2.684Zm-7.5-1.066a.413.413,0,0,0,.078,0,5.024,5.024,0,0,1,3.207.98,11.32,11.32,0,0,1-5.6-.422,5.54,5.54,0,0,1,2.314-.563Zm-2.616,5a.6.6,0,1,1,.545-.593A.573.573,0,0,1,226.033,180.862Zm7.463,0a.6.6,0,1,1,.545-.593A.573.573,0,0,1,233.5,180.862Zm1.521-1.257a1.588,1.588,0,0,0-3.042,0h-4.421a1.588,1.588,0,0,0-3.042,0h-.6a3.115,3.115,0,0,1-.17-2.152c.353-.116.738-.266,1.131-.432a9.142,9.142,0,0,0,4.938,1.181,17.484,17.484,0,0,0,3.468-.372H235.1a.96.96,0,0,1,.5.141,2.161,2.161,0,0,1,.884,1.634Z" transform="translate(-138.394 -47.776)" fill="#191970"/>
  </g>
</svg>
