<svg xmlns="http://www.w3.org/2000/svg" width="12.563" height="14.357" viewBox="0 0 12.563 14.357">
  <path id="Icon_awesome-calendar-alt" data-name="Icon awesome-calendar-alt" d="M0,13.011a1.346,1.346,0,0,0,1.346,1.346h9.871a1.346,1.346,0,0,0,1.346-1.346V5.384H0Zm8.973-5.5a.337.337,0,0,1,.336-.336h1.122a.337.337,0,0,1,.336.336V8.637a.337.337,0,0,1-.336.336H9.31a.337.337,0,0,1-.336-.336Zm0,3.589a.337.337,0,0,1,.336-.336h1.122a.337.337,0,0,1,.336.336v1.122a.337.337,0,0,1-.336.336H9.31a.337.337,0,0,1-.336-.336ZM5.384,7.515a.337.337,0,0,1,.336-.336H6.842a.337.337,0,0,1,.336.336V8.637a.337.337,0,0,1-.336.336H5.72a.337.337,0,0,1-.336-.336Zm0,3.589a.337.337,0,0,1,.336-.336H6.842a.337.337,0,0,1,.336.336v1.122a.337.337,0,0,1-.336.336H5.72a.337.337,0,0,1-.336-.336ZM1.795,7.515a.337.337,0,0,1,.336-.336H3.253a.337.337,0,0,1,.336.336V8.637a.337.337,0,0,1-.336.336H2.131a.337.337,0,0,1-.336-.336Zm0,3.589a.337.337,0,0,1,.336-.336H3.253a.337.337,0,0,1,.336.336v1.122a.337.337,0,0,1-.336.336H2.131a.337.337,0,0,1-.336-.336Zm9.422-9.31H9.871V.449A.45.45,0,0,0,9.422,0h-.9a.45.45,0,0,0-.449.449V1.795H4.487V.449A.45.45,0,0,0,4.038,0h-.9a.45.45,0,0,0-.449.449V1.795H1.346A1.346,1.346,0,0,0,0,3.141V4.487H12.563V3.141A1.346,1.346,0,0,0,11.217,1.795Z" fill="#838383"/>
</svg>
