<svg xmlns="http://www.w3.org/2000/svg" width="13.856" height="13.856" viewBox="0 0 13.856 13.856">
  <path id="Icon_material-call" data-name="Icon material-call" d="M7.287,10.5A11.661,11.661,0,0,0,12.36,15.57l1.694-1.694a.765.765,0,0,1,.785-.185,8.781,8.781,0,0,0,2.748.439.772.772,0,0,1,.77.77v2.687a.772.772,0,0,1-.77.77A13.085,13.085,0,0,1,4.5,5.27a.772.772,0,0,1,.77-.77H7.964a.772.772,0,0,1,.77.77,8.745,8.745,0,0,0,.439,2.748A.773.773,0,0,1,8.98,8.8L7.287,10.5Z" transform="translate(-4.5 -4.5)" fill="#fff"/>
</svg>
