<svg xmlns="http://www.w3.org/2000/svg" width="48.636" height="37.974" viewBox="0 0 48.636 37.974">
  <g id="noun-car-accident-insurance-2432484" transform="translate(-105.01 -88.711)">
    <path id="Path_13023" data-name="Path 13023" d="M116.561,253.227a5.062,5.062,0,0,0-3.142,1.15,1.311,1.311,0,0,1-1.269.224,5.462,5.462,0,0,0-7.08,3.685,1.64,1.64,0,0,0,.943,1.951l.658.278a4,4,0,0,0,7.077,2.989l16.281,6.87a4,4,0,0,0,7.081,2.989l3.471,1.466a.534.534,0,0,0,.685-.726l-.319-.658a2.79,2.79,0,0,1-.278-1.323,7.047,7.047,0,0,0-5.15-7.06,12.066,12.066,0,0,1-6.8-4.923,15.635,15.635,0,0,0-11.658-6.894,5,5,0,0,0-.505-.02Zm.024,1.737h0a3.291,3.291,0,0,1,.333.019,13.925,13.925,0,0,1,2.575.471,11.929,11.929,0,0,1,.149,2.148,13.358,13.358,0,0,0-3.46-2.6,3.276,3.276,0,0,1,.4-.033Zm-6.249.9a3.9,3.9,0,0,1,1.293.224,2.883,2.883,0,0,0,2.039-.046,1.408,1.408,0,0,1,1.1.02,11.782,11.782,0,0,1,3.823,2.711,12.643,12.643,0,0,0,7.857,3.915,8.313,8.313,0,0,1,3.776,1.391,13.644,13.644,0,0,0,4.878,2.5,5.475,5.475,0,0,1,4,5.482,4.327,4.327,0,0,0,0,.438l-1.411-.6a3.837,3.837,0,0,0-7.022-2.961l-16.339-6.9a3.837,3.837,0,0,0-7.019-2.962l-.689-.292a.065.065,0,0,1-.017-.02.069.069,0,0,1-.017-.019.084.084,0,0,1,0-.02.069.069,0,0,1,0-.04,3.891,3.891,0,0,1,3.752-2.846Zm10.992.247h0a13.894,13.894,0,0,1,5.954,4.994l.085.129q-.375-.07-.753-.111a11.068,11.068,0,0,1-5.336-2.066,13.691,13.691,0,0,0,.05-2.944Zm-10.748,2.605h0a2.264,2.264,0,1,1-1.559.687,2.265,2.265,0,0,1,1.559-.687Zm23.371,9.852h0a2.265,2.265,0,1,1-1.568.686,2.266,2.266,0,0,1,1.568-.686Z" transform="translate(0 -148.185)" fill="#191970"/>
    <path id="Path_13024" data-name="Path 13024" d="M503.277,438.976a.868.868,0,1,0-.253.617A.869.869,0,0,0,503.277,438.976Z" transform="translate(-357.171 -314.712)" fill="#191970"/>
    <path id="Path_13025" data-name="Path 13025" d="M529.98,395.98a.868.868,0,1,0-.253.617A.867.867,0,0,0,529.98,395.98Z" transform="translate(-381.224 -275.984)" fill="#191970"/>
    <path id="Path_13026" data-name="Path 13026" d="M403.327,305.556a.869.869,0,1,0-.253.617A.87.87,0,0,0,403.327,305.556Z" transform="translate(-267.142 -194.535)" fill="#191970"/>
    <path id="Path_13027" data-name="Path 13027" d="M415.687,346.146a.868.868,0,1,0-.253.617A.868.868,0,0,0,415.687,346.146Z" transform="translate(-278.275 -231.096)" fill="#191970"/>
    <path id="Path_13028" data-name="Path 13028" d="M473.367,368.5a.868.868,0,1,0-.253.617A.868.868,0,0,0,473.367,368.5Z" transform="translate(-330.23 -251.231)" fill="#191970"/>
    <path id="Path_13029" data-name="Path 13029" d="M432.894,249.474l6.411-6.463-7.556,2.1,1.749-9-5.642,7.976-5.708-3.905,2.348,6.393,1.63-.6-.475-1.292,2.635,1.8,1.965-2.778-.744,3.83,3.954-1.1-1.8,1.817Z" transform="translate(-285.66 -132.762)" fill="#191970"/>
    <path id="Path_13030" data-name="Path 13030" d="M274.674,88.711a7.808,7.808,0,0,1-8.22,5.659,12.511,12.511,0,0,0,8.22,13.187,12.511,12.511,0,0,0,8.22-13.187,7.808,7.808,0,0,1-8.22-5.659Zm-.869,4.733v11.834a10.775,10.775,0,0,1-5.69-9.187,9.544,9.544,0,0,0,5.689-2.646Zm1.737,0a9.543,9.543,0,0,0,5.689,2.646,10.775,10.775,0,0,1-5.69,9.187Z" transform="translate(-145.348)" fill="#191970"/>
  </g>
</svg>
