<svg xmlns="http://www.w3.org/2000/svg" width="28.514" height="26.771" viewBox="0 0 28.514 26.771">
  <g id="Group_7842" data-name="Group 7842" transform="translate(-96.237 -41.745)">
    <path id="Path_13603" data-name="Path 13603" d="M124.377,52.592h0a.789.789,0,0,0-.8-.659l-2.058.052a.782.782,0,0,0-.76.686l-.036.28-1.055-4.069a2.046,2.046,0,0,0-1.98-1.532H103.165a2.045,2.045,0,0,0-1.98,1.532l-1.055,4.07-.036-.28a.782.782,0,0,0-.76-.686l-2.057-.052a.783.783,0,0,0-.8.659l-.233,1.424a.786.786,0,0,0,.7.91l1.917.178-1.3,2.9a4.061,4.061,0,0,0-.351,1.65v1.961a1.09,1.09,0,0,0-.16.563v1.95a1.088,1.088,0,0,0,.16.563V67.1a1.417,1.417,0,0,0,1.416,1.416h1.8a1.417,1.417,0,0,0,1.416-1.416V65.228h17.162V67.1a1.417,1.417,0,0,0,1.416,1.416h1.8A1.417,1.417,0,0,0,123.64,67.1V64.69a1.089,1.089,0,0,0,.16-.563v-1.95a1.09,1.09,0,0,0-.16-.563V59.653a4.058,4.058,0,0,0-.351-1.65l-1.3-2.9,1.918-.178a.786.786,0,0,0,.7-.91ZM102.1,49.119a1.1,1.1,0,0,1,1.066-.825h14.528a1.1,1.1,0,0,1,1.066.825l1.281,4.941H100.818ZM97.206,54l.184-1.122,1.785.045.163,1.274Zm.955,5.65a3.111,3.111,0,0,1,.255-1.23l3.436,1.043a.158.158,0,0,1,.111.15v1.459h-3.8ZM100.9,67.1a.472.472,0,0,1-.472.472h-1.8a.472.472,0,0,1-.472-.472V65.228H100.9Zm21.792,0a.472.472,0,0,1-.472.472h-1.8a.472.472,0,0,1-.472-.472V65.228H122.7Zm.16-4.924v1.95a.158.158,0,0,1-.157.157H98.159A.158.158,0,0,1,98,64.127v-1.95a.157.157,0,0,1,.157-.157H122.7A.158.158,0,0,1,122.856,62.176Zm-.16-2.524v1.423h-3.8V59.616a.158.158,0,0,1,.111-.15l3.436-1.043a3.11,3.11,0,0,1,.255,1.23Zm-.643-2.1-3.323,1.009a1.1,1.1,0,0,0-.781,1.054v1.459H102.908V59.616a1.1,1.1,0,0,0-.781-1.054L98.8,57.554l1.1-2.457A.158.158,0,0,1,100.05,55h20.758a.158.158,0,0,1,.144.093Zm-.535-3.354.164-1.274,1.785-.045L123.651,54Zm-5.269,4.155a.472.472,0,0,1-.472.472h-10.7a.472.472,0,0,1,0-.944h10.7a.472.472,0,0,1,.472.472Zm-.588,1.6a.472.472,0,0,1-.472.472h-9.522a.472.472,0,0,1,0-.944h9.522a.472.472,0,0,1,.472.472Zm5.9-11.007a.472.472,0,0,1,.472-.472h.653V47.82a.472.472,0,1,1,.944,0v.653h.653a.472.472,0,0,1,0,.944h-.653v.653a.472.472,0,1,1-.944,0v-.653h-.653A.472.472,0,0,1,121.558,48.945Zm-21.347-4.02a.472.472,0,0,1,.472-.472h.653V43.8a.472.472,0,1,1,.944,0v.653h.653a.472.472,0,1,1,0,.944h-.653v.653a.472.472,0,0,1-.944,0V45.4h-.653A.472.472,0,0,1,100.21,44.925Zm9.362-1.583a.472.472,0,0,1,.472-.472h.653v-.653a.472.472,0,0,1,.944,0v.653h.653a.472.472,0,0,1,0,.944h-.653v.653a.472.472,0,0,1-.944,0v-.653h-.653a.472.472,0,0,1-.472-.472ZM96.7,50.028a.589.589,0,1,1,.589.589A.589.589,0,0,1,96.7,50.028Zm21.326-5.782a.589.589,0,1,1,.589.589A.589.589,0,0,1,118.027,44.245ZM102.62,51.288a.472.472,0,0,1,0-.667l1.226-1.226a.472.472,0,1,1,.667.667l-1.226,1.226a.472.472,0,0,1-.667,0Zm3.94-.033a.472.472,0,0,1,0,.667l-1.226,1.226a.472.472,0,1,1-.667-.667l1.226-1.226A.472.472,0,0,1,106.56,51.256Zm-.12-1.167-3.034,3.034a.472.472,0,1,1-.667-.667l3.034-3.034a.472.472,0,1,1,.667.667Z" fill="#191970"/>
  </g>
</svg>
