<svg xmlns="http://www.w3.org/2000/svg" width="28.617" height="23.919" viewBox="0 0 28.617 23.919">
  <g id="Group_7714" data-name="Group 7714" transform="translate(-13350.294 1916.096)">
    <path id="Path_13622" data-name="Path 13622" d="M89.071,63.561H88.017V84.088h1.054V77.831a.257.257,0,0,1,.258-.256h9.714v-1.05H89.328a.257.257,0,0,1-.258-.256Zm-1.31-.512h1.567a.258.258,0,0,1,.257.256V76.014H99.3a.256.256,0,0,1,.256.256v1.562a.257.257,0,0,1-.256.256H89.585v6.257a.257.257,0,0,1-.257.255H87.761a.257.257,0,0,1-.258-.255V63.3a.258.258,0,0,1,.258-.256Zm4.069,3.814L92,66.668a3.141,3.141,0,0,1-1.711-.5.582.582,0,0,1-.074-.858,1.785,1.785,0,0,1,.752-.526,1.573,1.573,0,0,1,1.663.1l.009.01c.25.291.387.344.472.273a2.558,2.558,0,0,0,.432-.817l.163-.389a5.3,5.3,0,0,1,1.769-2.415,4.985,4.985,0,0,1,2.85-.636c.892,0,1.652-.008,2.412-.016,1.7-.02,3.419-.04,5.056.024h.01a3.828,3.828,0,0,1,2.147.635,5.557,5.557,0,0,1,1.766,2.389l.175.416a2.567,2.567,0,0,0,.425.809c.084.072.222.019.472-.27l0,0a1.536,1.536,0,0,1,1.656-.117,1.8,1.8,0,0,1,.756.526.581.581,0,0,1-.071.861,3.1,3.1,0,0,1-1.693.5c.1.109.2.22.3.337a7.984,7.984,0,0,1,1.557,4.675,6.532,6.532,0,0,1-.9,3.954,1.926,1.926,0,0,1-.259.27.265.265,0,0,1-.182.075H109.9a.267.267,0,0,1-.15-.051,1.471,1.471,0,0,1-.428-1.354v-.081l-1.1-.041c-1.375-.029-3.3-.029-5.309-.027h-2.406c-2.009,0-3.939,0-5.3.027-.36.025-.746.027-1.114.044l0,.146a1.766,1.766,0,0,1-.19,1.044.646.646,0,0,1-.1.131l-.123.1a.261.261,0,0,1-.163.059H91.472a.257.257,0,0,1-.16-.059,2.294,2.294,0,0,1-.387-.391,5.968,5.968,0,0,1-.764-4.284,9.106,9.106,0,0,1,1.67-4.381Zm.915-.2a3.387,3.387,0,0,0-.516.52,8.6,8.6,0,0,0-1.56,4.124,5.506,5.506,0,0,0,.655,3.906,1.94,1.94,0,0,0,.241.254h1.86a.252.252,0,0,0,.052-.065,1.462,1.462,0,0,0,.1-.757c0-.124,0-.26,0-.4A.252.252,0,0,1,93.827,74c.441-.021.924-.057,1.36-.057,1.367-.029,3.3-.029,5.323-.027h2.406c2.016,0,3.947,0,5.323.027l1.35.057a.255.255,0,0,1,.244.247v0c0,.107,0,.219,0,.335a1.322,1.322,0,0,0,.165.882h1.863a1.624,1.624,0,0,0,.134-.147,6.039,6.039,0,0,0,.79-3.622,7.482,7.482,0,0,0-1.444-4.371,4.329,4.329,0,0,0-.68-.67.254.254,0,0,1,.161-.455,3.657,3.657,0,0,0,1.965-.41.122.122,0,0,0,.005-.179,1.282,1.282,0,0,0-.538-.357c-.413-.167-.9-.229-1.075-.025l-.006.006c-.5.575-.871.6-1.192.32a2.7,2.7,0,0,1-.564-1l-.168-.4a5.1,5.1,0,0,0-1.592-2.18,3.37,3.37,0,0,0-1.874-.544h-.006c-1.633-.062-3.346-.043-5.035-.024-.867.01-1.725.019-2.417.019a4.529,4.529,0,0,0-2.567.55,4.84,4.84,0,0,0-1.584,2.2l-.158.374a2.745,2.745,0,0,1-.573,1.013c-.321.274-.693.251-1.192-.329-.182-.205-.678-.141-1.093.027a1.317,1.317,0,0,0-.533.356.122.122,0,0,0,.008.177,3.676,3.676,0,0,0,1.977.41.254.254,0,0,1,.137.462Zm.835,4.014a6.059,6.059,0,0,0,1.919-.422h0a1.309,1.309,0,0,0,.359-.274l.012-.015a1.827,1.827,0,0,0,.145-.182,8.663,8.663,0,0,0-1.885-.365,13.481,13.481,0,0,0-2.542-.065,1.429,1.429,0,0,0,.028.488.989.989,0,0,0,.662.69,3.258,3.258,0,0,0,1.3.145Zm2.14.04a6.684,6.684,0,0,1-2.111.47,3.745,3.745,0,0,1-1.51-.179,1.472,1.472,0,0,1-.977-1.045,2.148,2.148,0,0,1-.013-.877.256.256,0,0,1,.2-.207l.009,0a12.333,12.333,0,0,1,2.865.034,6.949,6.949,0,0,1,2.312.537.253.253,0,0,1,.11.31,1.765,1.765,0,0,1-.361.553l-.014.015a1.878,1.878,0,0,1-.51.388Zm3.046.1h5.882a1.923,1.923,0,0,0,.5-.062h0a1.189,1.189,0,0,0,.479-.225l.013-.01a.356.356,0,0,0,.14-.245v-.547c0-.123-.108-.245-.278-.344a1.765,1.765,0,0,0-.854-.2H98.766a1.753,1.753,0,0,0-.85.2c-.173.1-.28.221-.28.342v.547a.343.343,0,0,0,.142.243,1.181,1.181,0,0,0,.484.233l.021,0a2.21,2.21,0,0,0,.232.045,1.845,1.845,0,0,0,.251.017Zm2.948.512H98.766a2.241,2.241,0,0,1-.318-.023,2.113,2.113,0,0,1-.3-.059l-.012,0a1.673,1.673,0,0,1-.7-.341.832.832,0,0,1-.319-.628v-.547a.937.937,0,0,1,.536-.783,2.27,2.27,0,0,1,1.107-.27h5.882a2.254,2.254,0,0,1,1.108.269.932.932,0,0,1,.538.785v.547a.837.837,0,0,1-.314.628l-.017.012a1.7,1.7,0,0,1-.692.333,2.544,2.544,0,0,1-.623.082Zm5.826-1.369a1.331,1.331,0,0,0,.373.29,6.114,6.114,0,0,0,1.917.423,3.279,3.279,0,0,0,1.305-.145,1,1,0,0,0,.668-.7,1.465,1.465,0,0,0,.029-.481,13.428,13.428,0,0,0-2.548.065,8.524,8.524,0,0,0-1.887.367,1.545,1.545,0,0,0,.143.178Zm.147.748a1.794,1.794,0,0,1-.525-.4,1.748,1.748,0,0,1-.356-.553.254.254,0,0,1,.108-.308l.007,0a7.055,7.055,0,0,1,2.309-.534,12.359,12.359,0,0,1,2.878-.031.253.253,0,0,1,.207.222,2.144,2.144,0,0,1-.016.857,1.48,1.48,0,0,1-.981,1.049,3.709,3.709,0,0,1-1.517.176,6.616,6.616,0,0,1-2.109-.47ZM94.819,65.1H108.6l-.651-1.38a3.945,3.945,0,0,0-.748-1.127,1.47,1.47,0,0,0-1.038-.473H97.534a1.9,1.9,0,0,0-1.124.432,3.241,3.241,0,0,0-.943,1.168Zm4.082.511H94.416a.256.256,0,0,1-.257-.255.245.245,0,0,1,.035-.129L95,63.5a3.755,3.755,0,0,1,1.1-1.36,2.408,2.408,0,0,1,1.434-.537h8.627a1.964,1.964,0,0,1,1.4.623,4.424,4.424,0,0,1,.851,1.274l.821,1.741a.254.254,0,0,1-.124.338.237.237,0,0,1-.108.024Zm15.2-2.559h1.568a.257.257,0,0,1,.256.256v21.04a.256.256,0,0,1-.256.255H114.1a.257.257,0,0,1-.257-.255V78.087h-9.7a.257.257,0,0,1-.257-.256V76.269a.256.256,0,0,1,.257-.256h9.7V63.3a.258.258,0,0,1,.257-.256Zm1.31.512h-1.054V76.269a.256.256,0,0,1-.256.256h-9.7v1.05h9.7a.256.256,0,0,1,.256.256v6.257h1.054Z" transform="translate(13262.891 -1976.877)" fill="#191970" stroke="#191970" stroke-width="0.2"/>
  </g>
</svg>
