<svg xmlns="http://www.w3.org/2000/svg" width="57.743" height="44.076" viewBox="0 0 57.743 44.076">
  <g id="noun-car-polish-893180" transform="translate(-86.67 -116.482)">
    <path id="Path_13632" data-name="Path 13632" d="M192.8,250.8H188.61a2.4,2.4,0,0,0,.3-1.21v-2.622l1.311-10.237v-.1a4.682,4.682,0,0,0-1.261-3.177l-.555-.555h1.563a.761.761,0,0,0,.706-.454l1.513-3.379a.7.7,0,0,0-.051-.706.863.863,0,0,0-.655-.353h-7.665l-3.732-3.984a4.572,4.572,0,0,0-3.429-1.463h-.908a.757.757,0,0,0,0,1.513h.908a3.171,3.171,0,0,1,2.32,1.008l8.876,9.43a2.943,2.943,0,0,1,.857,2.068l-1.21,9.582H141.761l-1.21-9.582a2.942,2.942,0,0,1,.857-2.068l8.876-9.481a3.172,3.172,0,0,1,2.32-1.008h8.371a.757.757,0,1,0,0-1.513H152.6a4.849,4.849,0,0,0-3.429,1.463l-3.732,3.984h-7.615a.861.861,0,0,0-.655.353.711.711,0,0,0-.051.706l1.513,3.379a.791.791,0,0,0,.706.454H140.8l-.555.555a4.59,4.59,0,0,0-1.261,3.177v.1l1.311,10.237v2.622a2.4,2.4,0,0,0,.3,1.21h-4.135a.757.757,0,0,0,0,1.513H192.7a.776.776,0,0,0,.757-.757.624.624,0,0,0-.656-.706Zm-2.471-21.282-.857,1.866h-2.522l-1.765-1.866Zm-50.48,1.866-.857-1.866h4.993l-1.765,1.866Zm1.967,18.2v-1.917h7.968v1.917a1.227,1.227,0,0,1-1.21,1.21h-5.547a1.228,1.228,0,0,1-1.21-1.21Zm9.481,0v-1.917h26.577v1.917a2.4,2.4,0,0,0,.3,1.21H151.04a3.043,3.043,0,0,0,.252-1.21Zm28.14,0v-1.917H187.4v1.917a1.227,1.227,0,0,1-1.21,1.21h-5.547a1.2,1.2,0,0,1-1.21-1.21Z" transform="translate(-49.04 -91.703)" fill="#191970"/>
    <path id="Path_13633" data-name="Path 13633" d="M214.667,318.511l-9.783-1.261a.694.694,0,0,0-.605.2.809.809,0,0,0-.252.555v3.278a.776.776,0,0,0,.757.757h10.439a.719.719,0,0,0,.605-.3.634.634,0,0,0,.1-.655l-.655-2.017a.7.7,0,0,0-.606-.555Zm-9.128.353,8.472,1.11.2.555h-8.674Z" transform="translate(-108.129 -173.636)" fill="#191970"/>
    <path id="Path_13634" data-name="Path 13634" d="M407.818,319.144l-.655,2.017a.6.6,0,0,0,.1.655.879.879,0,0,0,.605.3h10.439a.776.776,0,0,0,.757-.757v-3.278a.808.808,0,0,0-.252-.555.88.88,0,0,0-.605-.2l-9.734,1.261a.822.822,0,0,0-.655.555Zm1.311.908,8.472-1.11v1.664h-8.674Z" transform="translate(-283.78 -173.716)" fill="#191970"/>
    <path id="Path_13635" data-name="Path 13635" d="M225.175,268.777a.749.749,0,1,0-1.059-1.059l-1.967,2.017a.79.79,0,0,0-.151.807.714.714,0,0,0,.706.454h33.032a.854.854,0,0,0,.706-.454.768.768,0,0,0-.151-.807l-1.967-2.017a.749.749,0,1,0-1.059,1.059l.706.757h-29.5Z" transform="translate(-123.629 -130.611)" fill="#191970"/>
    <path id="Path_13636" data-name="Path 13636" d="M341.79,189.641a1.307,1.307,0,0,0,1.008,1.311l2.017.5.5,2.017a1.348,1.348,0,0,0,1.311,1.008,1.307,1.307,0,0,0,1.311-1.008l.5-2.017,2.017-.5a1.348,1.348,0,0,0,1.008-1.311,1.307,1.307,0,0,0-1.008-1.311l-2.017-.5-.5-2.017a1.348,1.348,0,0,0-1.311-1.008,1.307,1.307,0,0,0-1.311,1.008l-.5,2.017-2.017.5a1.348,1.348,0,0,0-1.008,1.311Zm4.841,2.925-.4-1.563a1.244,1.244,0,0,0-.958-.958l-1.563-.4,1.563-.4a1.244,1.244,0,0,0,.958-.958l.4-1.563.4,1.563a1.32,1.32,0,0,0,.958.958l1.563.4-1.563.4a1.32,1.32,0,0,0-.958.958Z" transform="translate(-227.283 -59.089)" fill="#191970"/>
    <path id="Path_13637" data-name="Path 13637" d="M209.809,164.263l.5.151a1.367,1.367,0,0,1,1.008,1.008l.151.5a.758.758,0,0,0,.757.555.821.821,0,0,0,.757-.555l.151-.5a1.367,1.367,0,0,1,1.008-1.008l.5-.151a.758.758,0,0,0,.555-.757.821.821,0,0,0-.555-.757l-.5-.151a1.367,1.367,0,0,1-1.008-1.008l-.151-.5a.758.758,0,0,0-.757-.555.82.82,0,0,0-.757.555l-.151.5a1.367,1.367,0,0,1-1.008,1.008l-.5.151a.793.793,0,0,0,0,1.513Zm2.017-.757.3-.3.3.3-.3.3A1.665,1.665,0,0,0,211.826,163.506Z" transform="translate(-112.651 -38.099)" fill="#191970"/>
    <path id="Path_13638" data-name="Path 13638" d="M419.619,154.707l.655.151a1.451,1.451,0,0,1,1.008,1.008l.151.655a.758.758,0,0,0,.757.555.82.82,0,0,0,.757-.555l.151-.655a1.451,1.451,0,0,1,1.008-1.008l.655-.151a.758.758,0,0,0,.555-.757.821.821,0,0,0-.555-.757l-.655-.151a1.451,1.451,0,0,1-1.008-1.008l-.151-.655a.758.758,0,0,0-.757-.555.821.821,0,0,0-.757.555l-.151.655a1.451,1.451,0,0,1-1.008,1.008l-.655.151a.758.758,0,0,0-.555.757A.72.72,0,0,0,419.619,154.707Zm2.169-.706a3.875,3.875,0,0,0,.454-.454,3.874,3.874,0,0,0,.454.454,3.874,3.874,0,0,0-.454.454A1.926,1.926,0,0,0,421.788,154Z" transform="translate(-294.12 -29.703)" fill="#191970"/>
    <path id="Path_13639" data-name="Path 13639" d="M327.779,119.458l.706.2.2.706a.758.758,0,0,0,.757.555.821.821,0,0,0,.757-.555l.2-.706.706-.2a.758.758,0,0,0,.555-.757.82.82,0,0,0-.555-.757l-.706-.2-.2-.706a.758.758,0,0,0-.757-.555.821.821,0,0,0-.757.555l-.2.706-.706.252a.758.758,0,0,0-.555.757A.666.666,0,0,0,327.779,119.458Z" transform="translate(-214.685)" fill="#191970"/>
  </g>
</svg>
