<svg xmlns="http://www.w3.org/2000/svg" width="9.15" height="13.719" viewBox="0 0 9.15 13.719">
  <path id="Icon_ionic-ios-arrow-round-forward" data-name="Icon ionic-ios-arrow-round-forward" d="M8.749.175a.623.623,0,0,0,0,.877l2.9,2.9H.615a.619.619,0,0,0,0,1.239H11.637l-2.9,2.9a.627.627,0,0,0,0,.877.617.617,0,0,0,.872,0l3.927-3.955h0a.7.7,0,0,0,.129-.2.591.591,0,0,0,.048-.238.621.621,0,0,0-.176-.434L9.616.189A.607.607,0,0,0,8.749.175Z" transform="translate(9.15) rotate(90)" fill="#b5b5b5"/>
</svg>
