<svg xmlns="http://www.w3.org/2000/svg" width="47.998" height="48" viewBox="0 0 47.998 48">
  <g id="noun-give-loan-4362318" transform="translate(-70.006 -0.006)">
    <path id="Path_13486" data-name="Path 13486" d="M117.684,31.074a2.523,2.523,0,0,0-1.861-1.264,12.6,12.6,0,0,0,1.381-5.749,21.135,21.135,0,0,0-5.3-13.134,2.392,2.392,0,0,0-1.1-4.521h-.419l1.16-3.646a1.405,1.405,0,0,0-.894-1.726,19.495,19.495,0,0,0-12.508.005,1.407,1.407,0,0,0-.876,1.738l1.155,3.629h-.418a2.392,2.392,0,0,0-1.1,4.522c-.015.018-.033.035-.05.054a21.759,21.759,0,0,0-5.2,11.743c-.017.226-.033.451-.042.678-.009.21-.017.437-.017.655,0,.32.009.627.034.938a12.5,12.5,0,0,0,1.9,5.794L86.821,29.7h0a8.029,8.029,0,0,0-4,.382L79.55,31.5a2.4,2.4,0,0,0-2.344-1.894h-4.8a2.4,2.4,0,0,0-2.4,2.4v11.2a2.4,2.4,0,0,0,2.4,2.4h4.8a2.4,2.4,0,0,0,2.384-2.24,1.663,1.663,0,0,1,.519.073l16.26,4.4h0a4.021,4.021,0,0,0,3.6-.663L117.045,34.29a2.536,2.536,0,0,0,.645-3.208ZM98.856,2.49a17.858,17.858,0,0,1,11.1,0l-1.247,3.916h-8.6Zm-.851,5.516h12.8a.8.8,0,0,1,0,1.6h-12.8a.8.8,0,1,1,0-1.6Zm-4.77,16.871c-.022-.275-.029-.541-.029-.815,0-.2.008-.4.015-.592.008-.207.023-.413.037-.6a20.072,20.072,0,0,1,4.8-10.826,11.257,11.257,0,0,1,.8-.833h11.091A19.584,19.584,0,0,1,115.6,24.06a11.027,11.027,0,0,1-2.061,6.43L106.7,34.357h0a2.529,2.529,0,0,0-2.023-1.766l-8.887-1.44a10.954,10.954,0,0,1-2.554-6.276ZM78.005,43.2a.8.8,0,0,1-.8.8h-4.8a.8.8,0,0,1-.8-.8V32a.8.8,0,0,1,.8-.8h4.8a.8.8,0,0,1,.8.8v.64c0,.018-.008.035-.008.053L78.005,42.7Zm38.06-10.182L98.994,45.9a2.428,2.428,0,0,1-2.188.4L80.555,41.9h0a3.141,3.141,0,0,0-.929-.139h-.021V33.218l3.8-1.641a6.376,6.376,0,0,1,3.161-.292l17.854,2.885a.938.938,0,0,1,.786.915.975.975,0,0,1-.07.352.9.9,0,0,1-.192.3.954.954,0,0,1-.666.278h-12L89.2,36a.8.8,0,0,0,0,1.6l2.855.008L96.714,40.5h0a2.431,2.431,0,0,0,1.184.311,2.387,2.387,0,0,0,1.161-.3l5.132-2.9h.08a2.55,2.55,0,0,0,1.79-.739,2.467,2.467,0,0,0,.4-.545l8.56-4.836a.93.93,0,0,1,1.04,1.533Zm-17.789,6.09a.794.794,0,0,1-.755.009l-2.433-1.51h5.847Z" fill="#191970"/>
    <path id="Path_13487" data-name="Path 13487" d="M109.57,382.67h-1.493a.747.747,0,1,0,0,1.493h1.493a.747.747,0,1,0,0-1.493Z" transform="translate(-34.338 -349.79)" fill="#191970"/>
    <path id="Path_13488" data-name="Path 13488" d="M109.57,476h-1.493a.747.747,0,1,0,0,1.494h1.493a.747.747,0,1,0,0-1.494Z" transform="translate(-34.338 -434.716)" fill="#191970"/>
    <path id="Path_13491" data-name="Path 13491" d="M268.854,170.33h-6.633l-.891,1.089h1.584a2.756,2.756,0,0,1,2.277.99h-2.97l-.891,1.089h4.158c-.1.99-1.287,1.782-2.871,1.782h-.99v.99l3.96,4.851h1.683l-4.059-4.95c1.881-.1,3.366-1.188,3.564-2.673h1.287l.594-1.089h-2.079a2.263,2.263,0,0,0-.693-.99h2.079Z" transform="translate(-160.076 -153.917)" fill="#191970"/>
  </g>
</svg>
