<svg id="Group_1889" data-name="Group 1889" xmlns="http://www.w3.org/2000/svg" width="36.608" height="36.608" viewBox="0 0 36.608 36.608">
  <path id="Path_3032" data-name="Path 3032" d="M122.282,17.5H108.223a1.83,1.83,0,0,0-1.428.677l-5.26,6.517v-.483a.61.61,0,0,0-.61-.61H92.383a.61.61,0,0,0-.61.61V35.2a.61.61,0,0,0,.306.531L94.828,37.3V38.86H91.163a.61.61,0,0,0-.61-.61H88.111a.61.61,0,0,0-.61.61v4.878a.61.61,0,0,0,.61.61h2.442a.61.61,0,0,0,.61-.61h.452L89.35,53.361a.61.61,0,0,0,.117.515.6.6,0,0,0,.476.232h4.272a.61.61,0,0,0,.593-.469l.323-1.361h27.149a1.837,1.837,0,0,0,1.83-1.83V19.33a1.837,1.837,0,0,0-1.83-1.83ZM89.941,43.128h-1.22V39.467h1.22Zm11.593-11.985,8.218-9.983h10.7v12.2H101.536ZM93,24.822h7.323v3.332a3.3,3.3,0,0,1-.55-.213,3.736,3.736,0,0,0-3.375,0,2.548,2.548,0,0,1-2.325,0A3.531,3.531,0,0,0,93,27.579Zm0,10.019V28.82a3.3,3.3,0,0,1,.55.213,3.735,3.735,0,0,0,3.375,0,2.536,2.536,0,0,1,2.318,0,3.639,3.639,0,0,0,1.081.361v5.449l-2.749,1.569a.61.61,0,0,0-.306.531v1.916h-1.22V36.941a.61.61,0,0,0-.306-.531Zm-1.835,7.677v-2.44h10.373v2.44Zm7.732,1.22-.859,3.052h-1.6l.715-3.052ZM93.74,52.892H90.711l2.155-9.153h3.019Zm29.161-2.44a.61.61,0,0,1-.61.61H95.415l.72-3.052h2.349a.61.61,0,0,0,.586-.44l1.093-3.826h1.375a.61.61,0,0,0,.61.61h1.83a.607.607,0,0,0,.311-.086l3.052-1.83a.6.6,0,0,0,.3-.524v-1.22a.6.6,0,0,0-.3-.524l-3.053-1.837a.607.607,0,0,0-.311-.086h-1.83a.61.61,0,0,0-.61.61H98.484V37.295l2.749-1.569a.61.61,0,0,0,.306-.531v-.61h19.526a.61.61,0,0,0,.61-.61V20.552a.61.61,0,0,0-.61-.61H109.473a.6.6,0,0,0-.469.22l-7.462,9.062V26.634l6.212-7.689a.6.6,0,0,1,.476-.225h14.059a.61.61,0,0,1,.61.61Zm-20.145-7.323V39.467h.61v3.662Zm1.83-.469V39.937l1.83,1.1v.521Z" transform="translate(-87.501 -17.5)" fill="#191970"/>
  <path id="Path_3033" data-name="Path 3033" d="M502.347,280h-1.8a1.8,1.8,0,1,0,0,3.6h1.8a1.8,1.8,0,1,0,0-3.6Zm0,2.4h-1.8a.6.6,0,1,1,0-1.2h1.8a.6.6,0,1,1,0,1.2Z" transform="translate(-468.244 -261.658)" fill="#191970"/>
  <path id="Path_3034" data-name="Path 3034" d="M402.5,350h1.2v1.2h-1.2Z" transform="translate(-378.799 -326.798)" fill="#191970"/>
  <path id="Path_3035" data-name="Path 3035" d="M437.5,350h1.2v1.2h-1.2Z" transform="translate(-411.357 -326.798)" fill="#191970"/>
  <path id="Path_3036" data-name="Path 3036" d="M472.5,350h1.2v1.2h-1.2Z" transform="translate(-443.913 -326.798)" fill="#191970"/>
  <path id="Path_3037" data-name="Path 3037" d="M379.88,371.971l.844-.844.844.844-.844.844Z" transform="translate(-357.751 -346.441)" fill="#191970"/>
  <path id="Path_3038" data-name="Path 3038" d="M404.62,396.721l.844-.844.844.844-.844.844Z" transform="translate(-380.766 -369.463)" fill="#191970"/>
  <path id="Path_3039" data-name="Path 3039" d="M429.37,421.471l.844-.844.844.844-.844.844Z" transform="translate(-403.79 -392.486)" fill="#191970"/>
  <path id="Path_3040" data-name="Path 3040" d="M379.87,322.481l.844-.844.844.844-.844.844Z" transform="translate(-357.744 -300.405)" fill="#191970"/>
  <path id="Path_3041" data-name="Path 3041" d="M404.62,297.721l.844-.844.844.844-.844.844Z" transform="translate(-380.766 -277.373)" fill="#191970"/>
  <path id="Path_3042" data-name="Path 3042" d="M429.37,272.981l.844-.844.844.844-.844.844Z" transform="translate(-403.79 -254.36)" fill="#191970"/>
</svg>
