<svg xmlns="http://www.w3.org/2000/svg" width="36.817" height="36.691" viewBox="0 0 36.817 36.691">
  <g id="noun-graph-down-4939845" transform="translate(-103.605 -34.448)">
    <path id="Path_12943" data-name="Path 12943" d="M145.2,114.167a.658.658,0,0,0,.469.192.677.677,0,0,0,.469-.192l5.318-5.318,6.334,6.334-2.862,2.862a.665.665,0,0,0,.473,1.134h9.313a.664.664,0,0,0,.665-.665V109.2a.67.67,0,0,0-.41-.615.663.663,0,0,0-.724.142l-2.862,2.862-9.455-9.455a.658.658,0,0,0-.469-.192.677.677,0,0,0-.469.192l-5.318,5.318L136.7,98.478a.658.658,0,0,0-.469-.192.677.677,0,0,0-.469.192l-2.652,2.652a.667.667,0,0,0,0,.941L145.2,114.167Zm-8.974-14.279,8.974,8.974a.658.658,0,0,0,.469.192.677.677,0,0,0,.469-.192l5.318-5.318L160.91,113a.667.667,0,0,0,.941,0l2.2-2.2v7.046H157l2.2-2.2a.667.667,0,0,0,0-.941l-7.271-7.271a.667.667,0,0,0-.941,0l-5.318,5.318L134.515,101.6l1.715-1.715Z" transform="translate(-27.119 -59.069)" fill="#191970"/>
    <path id="Path_12944" data-name="Path 12944" d="M139.757,69.812H104.936v-34.7a.665.665,0,1,0-1.33,0V70.474a.664.664,0,0,0,.665.665h35.486a.665.665,0,1,0,0-1.33Z" fill="#191970"/>
  </g>
</svg>
