<svg xmlns="http://www.w3.org/2000/svg" width="51.453" height="35.9" viewBox="0 0 51.453 35.9">
  <g id="Group_7609" data-name="Group 7609" transform="translate(-999.622 -911.5)">
    <path id="Path_13640" data-name="Path 13640" d="M454.474,157.561H448.4v-9.982a.5.5,0,0,0-.5-.5H440.96a.5.5,0,1,0,0,.991h6.448v9.487h-6.389a.5.5,0,1,0,0,.991h6.389v2.915a.5.5,0,1,0,.99,0v-2.915h6.076a.5.5,0,0,0,0-.991Z" transform="translate(595.553 766.69)" fill="#191970"/>
    <path id="Path_13641" data-name="Path 13641" d="M138.924,232.518a.5.5,0,0,0,.176-.035.832.832,0,0,0,.149-.093.48.48,0,0,0,.045-.047.49.49,0,0,0,.062-.092.436.436,0,0,0,.029-.063c0-.012.012-.022.016-.034l.291-1.067h1.43a7.973,7.973,0,0,0-.061.936,8.1,8.1,0,0,0,5,7.5.5.5,0,1,0,.381-.914,7.131,7.131,0,0,1,1.681-13.636.5.5,0,1,0-.146-.98,8.164,8.164,0,0,0-6.675,6.1h-1.342l1.973-7.241h7.3a.5.5,0,1,0,0-.99h-7.677a.5.5,0,0,0-.478.365l-.871,3.2h-4.382l2.615-6.046a.564.564,0,0,0,.013-.06.485.485,0,0,0,.024-.076c0-.021.3-2.12,4.149-2.3l11.692-.682a.5.5,0,1,0-.058-.989l-11.686.682c-4.285.2-4.97,2.594-5.064,3.08l-2.763,6.39h-1.422a.5.5,0,0,0-.07,0,1.68,1.68,0,0,0-1.049.638,1.917,1.917,0,0,0-.295,1.485l.481,3.08a2.338,2.338,0,0,0,2.509,1.884Zm-5.557-2.049-.478-3.068c-.118-.758.281-.941.479-.985h6.57l-1.392,5.111H134.9c-1.207,0-1.475-.751-1.533-1.058Z" transform="translate(867.744 706.544)" fill="#191970"/>
    <path id="Path_13642" data-name="Path 13642" d="M379.3,127.823H365.563c-2.572-.186-3.373.845-3.544,1.126l-6.484,8.235a.474.474,0,0,0-.07.139.485.485,0,0,0-.163.167.5.5,0,0,0,.192.674l3.188,1.776a.5.5,0,1,0,.482-.866l-2.68-1.494,6.337-8.047a.692.692,0,0,0,.046-.07c.005-.008.506-.805,2.662-.652H379.3a.5.5,0,1,0,0-.99Z" transform="translate(670.726 783.698)" fill="#191970"/>
    <path id="Path_13643" data-name="Path 13643" d="M418.963,353.09H400.076a.5.5,0,1,0,0,.99h18.887a.5.5,0,1,0,0-.99Z" transform="translate(631.615 584.981)" fill="#191970"/>
    <path id="Path_13644" data-name="Path 13644" d="M441.466,323.369h13.455a.5.5,0,1,0,0-.991H441.466a.5.5,0,0,0,0,.991Z" transform="translate(595.106 612.071)" fill="#191970"/>
    <path id="Path_13645" data-name="Path 13645" d="M402.91,176.992a.492.492,0,0,0,.231-.058l6.643-3.512a.5.5,0,1,0-.463-.876l-6.643,3.512a.5.5,0,0,0,.232.933Z" transform="translate(629.115 744.281)" fill="#191970"/>
    <path id="Path_13646" data-name="Path 13646" d="M427,198.737a.494.494,0,0,0-.662-.229l-3.6,1.755a.5.5,0,1,0,.433.891l3.6-1.755A.5.5,0,0,0,427,198.737Z" transform="translate(611.435 721.375)" fill="#191970"/>
    <path id="Path_13647" data-name="Path 13647" d="M329.875,220.98a2.973,2.973,0,1,0,1.356.33,2.961,2.961,0,0,0-1.356-.33Zm1.759,3.876a1.976,1.976,0,0,1-1.764,1.076,1.981,1.981,0,1,1,.907-3.742,1.983,1.983,0,0,1,.856,2.667Z" transform="translate(695.723 701.51)" fill="#191970"/>
    <path id="Path_13648" data-name="Path 13648" d="M385.331,242.422a4.327,4.327,0,0,0-.668.712,4.275,4.275,0,0,0-.842,2.292.5.5,0,0,0,.463.526h.032a.5.5,0,0,0,.493-.464,3.319,3.319,0,0,1,1.163-2.312.5.5,0,0,0-.641-.755Z" transform="translate(645.516 682.7)" fill="#191970"/>
    <path id="Path_13649" data-name="Path 13649" d="M412.4,235.67a3.3,3.3,0,0,1,1.09.038.49.49,0,0,0,.1.01.5.5,0,0,0,.1-.981,4.3,4.3,0,0,0-1.416-.049.5.5,0,0,0,.129.982Z" transform="translate(620.802 689.451)" fill="#191970"/>
    <path id="Path_13650" data-name="Path 13650" d="M427.754,263.968a.5.5,0,0,0,.172.96.49.49,0,0,0,.172-.031,4.246,4.246,0,0,0,1.933-1.448,4.3,4.3,0,0,0,.737-3.557.5.5,0,0,0-.965.227,3.306,3.306,0,0,1-.566,2.738,3.263,3.263,0,0,1-1.483,1.111Z" transform="translate(607.049 667.524)" fill="#191970"/>
    <path id="Path_13651" data-name="Path 13651" d="M197.581,267.965h-18a2.891,2.891,0,0,0,1.353-2.094c.1-1.689-1.9-2.883-1.943-2.9-1.788-1.326-2.757-2.711-2.878-4.115a3.746,3.746,0,0,1,.849-2.632l1.429-.724a.5.5,0,0,0,.235-.257,4.033,4.033,0,0,0,.267-.958l.984-.793a.516.516,0,0,0,.087-.09l.543-.73c.057,0,.114.015.171.015a2.746,2.746,0,0,0,2.224-1.111,2.781,2.781,0,1,0-4.883-.854l-2.939.726-3.04-.178-2.852-2.715a.5.5,0,0,0-.163-.1,2.081,2.081,0,0,0-1.571.118,4.242,4.242,0,0,0-1.966,2.7l-1.124,3.46c-.143-.012-.286-.021-.432-.021a5.416,5.416,0,0,0,0,10.832q.227,0,.451-.018a.5.5,0,0,0-.083-.987c-.122.01-.244.015-.368.015a4.425,4.425,0,1,1,0-8.85c.039,0,.076,0,.115.006l-.845,2.6a3.2,3.2,0,0,0,1.1,3.909.47.47,0,0,0,.089.059l3.692,1.888-6.279,3.8h-12.7a.5.5,0,1,0,0,.991h12.842a.488.488,0,0,0,.17-.035c.015-.006.029-.012.044-.019s.029-.01.043-.018l7.157-4.335a.495.495,0,0,0-.031-.864l-4.434-2.268a2.2,2.2,0,0,1-.79-2.684.478.478,0,0,0,.035-.082l2.3-7.076a3.44,3.44,0,0,1,1.425-2.1,1.184,1.184,0,0,1,.74-.119l2.879,2.74,2.324,2.4a.5.5,0,0,0,.574.1l2.426-1.194c.287-.043.833-.045,1.032.2.152.185.131.583-.055,1.108l-3.725,1.888-3.118-2.2a.5.5,0,0,0-.758.258l-1.369,4.413a.473.473,0,0,0-.008.081.45.45,0,0,0-.014.075c0,.007,0,.012,0,.019a.472.472,0,0,0,.022.1.464.464,0,0,0,.025.084.508.508,0,0,0,.053.077.293.293,0,0,0,.131.121.454.454,0,0,0,.093.051c.007,0,.012.009.02.011a.808.808,0,0,1,.147.023h.009l5.362-.095c.147.078.518.363.475,1.261l-.33,7.093H174.1l-.316-2.093a2.04,2.04,0,0,0,.421-.61,1.921,1.921,0,0,0,.026-1.416.5.5,0,0,0-.127-.177l-2.874-2.564a.5.5,0,1,0-.659.739l2.77,2.472a.963.963,0,0,1-.049.563,1.614,1.614,0,0,1-.956.784l-6.818,2.33c-.006,0-.009.006-.015.008a.477.477,0,0,0-.094.055.5.5,0,0,0-.07.047.474.474,0,0,0-.057.075.463.463,0,0,0-.053.079.526.526,0,0,0-.022.081.493.493,0,0,0-.022.107c0,.006,0,.011,0,.017a.492.492,0,0,0,.016.077.467.467,0,0,0,.011.083c0,.006.007.012.01.018a.434.434,0,0,0,.026.048.488.488,0,0,0,.069.1c.013.015.027.027.042.041a.478.478,0,0,0,.1.067.5.5,0,0,0,.05.025.484.484,0,0,0,.174.035h31.908a.5.5,0,1,0,0-.991Zm-18.863-14.818a1.349,1.349,0,0,0-.13-.189,1.367,1.367,0,0,0-.254-.235l.28-.724,1.395-1.872.1-.015.626.466a.073.073,0,0,1,.029.047.071.071,0,0,1-.013.053l-.877,1.178h0l-.669.9Zm3.021-4.672a1.792,1.792,0,0,1,.366,2.5,1.756,1.756,0,0,1-.787.6l.228-.306a1.064,1.064,0,0,0-.218-1.487l-.627-.467h0a1.07,1.07,0,0,0-.265-.138c-.019-.007-.038-.015-.058-.021a1.045,1.045,0,0,0-.288-.046c-.007,0-.013,0-.02,0s-.038.006-.058.007-.064,0-.1,0-.036.01-.054.013-.053.012-.079.019a1.059,1.059,0,0,0-.152.055c-.02.009-.04.017-.06.028a1.037,1.037,0,0,0-.15.1c-.014.011-.029.02-.042.031a1.049,1.049,0,0,0-.161.17l-.333.447a1.786,1.786,0,0,1,.353-1.139,1.827,1.827,0,0,1,2.5-.367Zm-5.2,3.958a.523.523,0,0,0-.122.041l-2.167,1.067-1.186-1.222,2.025.119h.029a.471.471,0,0,0,.119-.015l2.373-.586-.216.559a3.147,3.147,0,0,0-.854.036Zm-1.676,6.2a.627.627,0,0,0-.141-.018l-4.778.084.964-3.109,2.806,1.975a.5.5,0,0,0,.509.037l1.158-.587a4.5,4.5,0,0,0-.262,1.732,1.388,1.388,0,0,0-.256-.114Zm1.215,2.816a10.164,10.164,0,0,0,2.36,2.339c.435.258,1.553,1.124,1.5,2.025-.042.731-.856,1.473-2.343,2.148h-1.82Zm-3.408,5.138c.072-.029.131-.065.2-.1l.222,1.47h-4.441Z" transform="translate(852.996 678.444)" fill="#191970"/>
  </g>
</svg>
