<svg xmlns="http://www.w3.org/2000/svg" width="24" height="24" viewBox="0 0 24 24">
  <g id="Group_3" data-name="Group 3" transform="translate(-937.5 -404)">
    <rect id="noun-diesel-gas-4554890_1" data-name="noun-diesel-gas-4554890 1" width="24" height="24" transform="translate(937.5 404)" fill="none"/>
    <g id="Vector" transform="translate(941.327 407.159)">
      <path d="M 11.39102935791016 19.83548927307129 L 11.39095973968506 19.83548927307129 L 11.39089965820312 19.83548927307129 L 1.041709303855896 19.83546829223633 C 0.7364792823791504 19.83489990234375 0.4497692883014679 19.71566009521484 0.2342192977666855 19.49972915649414 C 0.02181930094957352 19.28713989257812 -0.1000107005238533 18.9926586151123 -0.1000107005238533 18.69182968139648 L -0.1000107005238533 0.2268392145633698 C -0.1000107005238533 0.04662921279668808 0.0466093011200428 -0.09999078512191772 0.2268193066120148 -0.09999078512191772 L 12.20613956451416 -0.09999078512191772 C 12.29219913482666 -0.09999078512191772 12.37640953063965 -0.06514078378677368 12.43717956542969 -0.004370785783976316 C 12.49894905090332 0.0573992133140564 12.53296947479248 0.139519214630127 12.53296947479248 0.2268492132425308 L 12.53296947479248 18.69183921813965 C 12.53296947479248 18.99708938598633 12.41419887542725 19.28407859802246 12.19854927062988 19.49994850158691 C 11.98294925689697 19.71592903137207 11.69615936279297 19.83509826660156 11.39102935791016 19.83548927307129 Z M 0.553449273109436 0.5535792112350464 L 0.553449273109436 18.69172859191895 C 0.553449273109436 18.96105003356934 0.7725293040275574 19.18084907531738 1.041809320449829 19.18168830871582 L 11.39059925079346 19.18168830871582 C 11.65956974029541 19.18083000183105 11.87864971160889 18.96102905273438 11.87864971160889 18.69172859191895 L 11.87864971160889 0.5535792112350464 L 0.553449273109436 0.5535792112350464 Z" stroke="none"/>
      <path d="M 11.39089965820312 19.73548889160156 C 11.66733932495117 19.73513984680176 11.93247890472412 19.62493896484375 12.12779903411865 19.42926979064941 C 12.32329940795898 19.23357963562012 12.43296909332275 18.96828842163086 12.43296909332275 18.69183921813965 L 12.43296909332275 0.2268492132425308 C 12.43296909332275 0.1666092127561569 12.40911960601807 0.1089892163872719 12.36646938323975 0.06633921712636948 C 12.32398891448975 0.02385921403765678 12.26619911193848 9.214172678184696e-06 12.20613956451416 9.214172678184696e-06 L 0.2268193066120148 9.214172678184696e-06 C 0.1014792993664742 9.214172678184696e-06 -1.069854715751717e-05 0.1014992147684097 -1.069854715751717e-05 0.2268392145633698 L -1.069854715751717e-05 18.69182968139648 C -1.069854715751717e-05 18.96826934814453 0.1096692979335785 19.23357963562012 0.3049893081188202 19.42907905578613 C 0.5003193020820618 19.6247501373291 0.765259325504303 19.73494911193848 1.041709303855896 19.73546981811523 L 11.39089965820312 19.73548889160156 M 0.4534493088722229 0.4535792171955109 L 11.9786491394043 0.4535792171955109 L 11.9786491394043 18.69172859191895 C 11.9786491394043 19.0167293548584 11.71561908721924 19.28064918518066 11.39059925079346 19.28168869018555 L 1.041499257087708 19.28168869018555 C 0.716489315032959 19.28067016601562 0.4534493088722229 19.01674842834473 0.4534493088722229 18.69172859191895 L 0.4534493088722229 0.4535792171955109 M 11.39114952087402 19.93548965454102 L 1.041709303855896 19.93546867370605 C 0.7096192836761475 19.93484878540039 0.3978492915630341 19.80518913269043 0.163449302315712 19.57037925720215 C -0.07091069966554642 19.3357982635498 -0.2000107020139694 19.02377891540527 -0.2000107020139694 18.69182968139648 L -0.2000107020139694 0.2268392145633698 C -0.2000107020139694 -0.008510786108672619 -0.008530698716640472 -0.1999907791614532 0.2268193066120148 -0.1999907791614532 L 12.20613956451416 -0.1999907791614532 C 12.31852912902832 -0.1999907791614532 12.42850971221924 -0.1544607877731323 12.50788974761963 -0.07508078217506409 C 12.58854961395264 0.005579214077442884 12.63296890258789 0.1127992123365402 12.63296890258789 0.2268492132425308 L 12.63296890258789 18.69183921813965 C 12.63296890258789 19.02377891540527 12.50380897521973 19.33586883544922 12.26928901672363 19.57061958312988 C 12.0348596572876 19.80546951293945 11.72297954559326 19.9350700378418 11.39114952087402 19.93548965454102 Z M 0.6534492969512939 0.6535792350769043 L 0.6534492969512939 18.69172859191895 C 0.6534492969512939 18.90607833862305 0.8278092741966248 19.08101844787598 1.042129278182983 19.08168983459473 L 11.39059925079346 19.08168983459473 C 11.60427951812744 19.08100891113281 11.77864933013916 18.90606880187988 11.77864933013916 18.69172859191895 L 11.77864933013916 0.6535792350769043 L 0.6534492969512939 0.6535792350769043 Z" stroke="none" fill="#000"/>
    </g>
    <g id="Vector-2" data-name="Vector" transform="translate(940.016 405.114)">
      <path d="M 14.04267501831055 2.597779989242554 L 14.04261493682861 2.597779989242554 L 14.0425443649292 2.597779989242554 L 1.013704538345337 2.597779989242554 C 0.7161645889282227 2.597389936447144 0.4366845786571503 2.481379985809326 0.2266145646572113 2.271120071411133 C 0.01946456544101238 2.064150094985962 -0.09960543364286423 1.777320027351379 -0.09998543560504913 1.484220027923584 L -0.09998543560504913 1.013700008392334 C -0.09959543496370316 0.7162500619888306 0.01640456542372704 0.4367100298404694 0.2266445606946945 0.2264600396156311 C 0.4367745518684387 0.01633004285395145 0.7162445783615112 -0.09960995614528656 1.013574600219727 -0.09999995678663254 L 14.0425443649292 -0.09999995678663254 C 14.33986473083496 -0.09960995614528656 14.61932468414307 0.01632004231214523 14.82957458496094 0.226440042257309 C 15.03981494903564 0.4368700385093689 15.15568447113037 0.71642005443573 15.15588474273682 1.013630032539368 L 15.15588474273682 1.484090089797974 C 15.15569496154785 1.781280040740967 15.03982448577881 2.060760021209717 14.82962417602539 2.271120071411133 C 14.61936473846436 2.481389999389648 14.33989429473877 2.597389936447144 14.04267501831055 2.597779989242554 Z M 1.013864517211914 0.5536800622940063 C 0.7604745626449585 0.554110050201416 0.5541145801544189 0.7605200409889221 0.5538545846939087 1.013800024986267 L 0.5538545846939087 1.484090089797974 C 0.554144561290741 1.737330079078674 0.7604745626449585 1.943670034408569 1.013794541358948 1.94393002986908 L 14.04253482818604 1.94393002986908 C 14.29567432403564 1.943639993667603 14.50194454193115 1.73731005191803 14.50223445892334 1.483980059623718 L 14.50223445892334 1.013700008392334 C 14.50194454193115 0.7605000138282776 14.295654296875 0.5540900230407715 14.04237461090088 0.5536800622940063 L 1.013694524765015 0.5536800622940063 L 1.013864517211914 0.5536800622940063 Z" stroke="none"/>
      <path d="M 14.0425443649292 2.497780084609985 C 14.31113433837891 2.497430086135864 14.56879425048828 2.39054012298584 14.75888442993164 2.200439929962158 C 14.94881439208984 2.010370016098022 15.05571460723877 1.752700090408325 15.05588436126709 1.484090089797974 L 15.05588436126709 1.013700008392334 C 15.05570411682129 0.744920015335083 14.94881439208984 0.4872700572013855 14.75888442993164 0.2971700429916382 C 14.56882476806641 0.107230044901371 14.31115436553955 0.0003500423044897616 14.0425443649292 4.230499328627957e-08 L 1.013704538345337 4.230499328627957e-08 C 0.7449245452880859 0.0003500423044897616 0.4872845709323883 0.1072400435805321 0.2973545789718628 0.2971700429916382 C 0.1072445660829544 0.4872900545597076 0.0003645648248493671 0.7449100613594055 1.456481913919561e-05 1.013700008392334 L 1.456481913919561e-05 1.484090089797974 C 0.0003645648248493671 1.752690076828003 0.1072545647621155 2.010509967803955 0.2973545789718628 2.200439929962158 C 0.4872945547103882 2.390550136566162 0.7449145913124084 2.497430086135864 1.013704538345337 2.497780084609985 L 14.0425443649292 2.497780084609985 M 1.013694524765015 0.4536800384521484 L 14.04253482818604 0.4536800384521484 C 14.35155487060547 0.4541800320148468 14.60188484191895 0.7047000527381897 14.60223484039307 1.013700008392334 L 14.60223484039307 1.484090089797974 C 14.60188484191895 1.793070077896118 14.35153484344482 2.043580055236816 14.04253482818604 2.043930053710938 L 1.013694524765015 2.043930053710938 C 0.7047145366668701 2.043610095977783 0.4542045593261719 1.793089985847473 0.4538545608520508 1.484090089797974 L 0.4538545608520508 1.013700008392334 C 0.4541745781898499 0.7045400142669678 0.7046945691108704 0.4542000293731689 1.013694524765015 0.4536800384521484 M 14.04280471801758 2.697780132293701 L 1.013704538345337 2.697780132293701 C 0.6893645524978638 2.697360038757324 0.3848045766353607 2.570930004119873 0.155874565243721 2.341799974441528 C -0.06981543451547623 2.116310119628906 -0.1995654404163361 1.80374002456665 -0.1999854296445847 1.484350085258484 L -0.1999854296445847 1.013700008392334 C -0.1995654404163361 0.6894600391387939 -0.07316543161869049 0.3848600387573242 0.1559245586395264 0.155750036239624 C 0.3849145770072937 -0.07323995977640152 0.6894545555114746 -0.1995799541473389 1.013444542884827 -0.1999999582767487 L 14.0425443649292 -0.1999999582767487 C 14.36664485931396 -0.1995799541473389 14.67115497589111 -0.07324995845556259 14.90026473999023 0.1557000428438187 C 15.12941455841064 0.385060042142868 15.25566482543945 0.6896800398826599 15.25588417053223 1.013570070266724 L 15.25588417053223 1.484090089797974 C 15.2556848526001 1.808010101318359 15.12941455841064 2.112580060958862 14.90035438537598 2.341809988021851 C 14.67122459411621 2.57096004486084 14.36668491363525 2.697360038757324 14.04280471801758 2.697780132293701 Z M 1.014034509658813 0.6536800265312195 C 0.815634548664093 0.6540100574493408 0.6540645360946655 0.8156100511550903 0.6538545489311218 1.013910055160522 L 0.6538545489311218 1.484090089797974 C 0.6540745496749878 1.682200074195862 0.8155945539474487 1.843720078468323 1.013904571533203 1.843930006027222 L 14.04253482818604 1.843930006027222 C 14.24054431915283 1.843710064888 14.40201473236084 1.682180047035217 14.40223503112793 1.483860015869141 L 14.40223503112793 1.013700008392334 C 14.40201473236084 0.8156100511550903 14.24050426483154 0.6540000438690186 14.04221439361572 0.6536800265312195 L 1.013694524765015 0.6536800265312195 L 1.014034509658813 0.6536800265312195 Z" stroke="none" fill="#000"/>
    </g>
    <g id="Vector-3" data-name="Vector" transform="translate(943 409)">
      <path d="M 8.029580116271973 6.100005149841309 L 8.029509544372559 6.100005149841309 L 8.029439926147461 6.100005149841309 L 0.9703999757766724 6.099985122680664 C 0.6864699721336365 6.099595069885254 0.4092299938201904 5.970375061035156 0.2096299976110458 5.745465278625488 C 0.01011999975889921 5.520485401153564 -0.09984000027179718 5.222225189208984 -0.1000000014901161 4.905605316162109 L -0.1000000014901161 1.094435214996338 C -0.09983000159263611 0.7779152393341064 0.01011999975889921 0.4796652495861053 0.2095800042152405 0.2545852363109589 C 0.4090799987316132 0.02961524575948715 0.6863300204277039 -0.09960475564002991 0.9702600240707397 -0.09999475628137589 L 8.029439926147461 -0.09999475628137589 C 8.313469886779785 -0.09979475289583206 8.590749740600586 0.02944524586200714 8.790260314941406 0.2545852363109589 C 8.989809989929199 0.4793952405452728 9.09982967376709 0.7776652574539185 9.100000381469727 1.094375252723694 L 9.100000381469727 4.905555248260498 C 9.09982967376709 5.222215175628662 8.989819526672363 5.520535469055176 8.790240287780762 5.745625019073486 C 8.590869903564453 5.970455169677734 8.313619613647461 6.099615097045898 8.029580116271973 6.100005149841309 Z M 0.9705100059509277 0.5618352293968201 C 0.71670001745224 0.5621252655982971 0.5099899768829346 0.8010152578353882 0.5097200274467468 1.094355225563049 L 0.5097200274467468 4.90538501739502 C 0.5099800229072571 5.198525428771973 0.7166900038719177 5.437325477600098 0.97052001953125 5.437625408172607 L 8.029439926147461 5.437625408172607 C 8.283249855041504 5.437475204467773 8.490010261535645 5.198675155639648 8.490280151367188 4.905295372009277 L 8.490280151367188 1.094265222549438 C 8.490019798278809 0.8010252714157104 8.283229827880859 0.5621352195739746 8.029319763183594 0.5618352293968201 L 0.9703999757766724 0.5618352293968201 L 0.9705100059509277 0.5618352293968201 Z" stroke="none"/>
      <path d="M 8.029439926147461 6.00000524520874 C 8.286680221557617 5.999655246734619 8.533510208129883 5.884415149688721 8.715419769287109 5.679285049438477 C 8.897489547729492 5.473935127258301 8.999839782714844 5.195785045623779 9 4.905555248260498 L 9 1.094435214996338 C 8.999839782714844 0.8041852712631226 8.897489547729492 0.5260352492332458 8.715419769287109 0.3209052383899689 C 8.533490180969238 0.1156052425503731 8.286820411682129 0.0001852452114690095 8.029439926147461 5.245208740234375e-06 L 0.9703999757766724 5.245208740234375e-06 C 0.7129999995231628 0.0003552451962605119 0.4663299918174744 0.1157752424478531 0.2844200134277344 0.3209052383899689 C 0.1025099977850914 0.5261852741241455 0.00015999999595806 0.804385244846344 0 1.094435214996338 L 0 4.905555248260498 C 0.0001500000071246177 5.195805072784424 0.1025099977850914 5.473955154418945 0.2844200134277344 5.679085254669189 C 0.4664700031280518 5.884225368499756 0.7131800055503845 5.999635219573975 0.9703999757766724 5.999985218048096 L 8.029439926147461 6.00000524520874 M 0.9703999757766724 0.4618352353572845 L 8.029439926147461 0.4618352353572845 C 8.339030265808105 0.4622052311897278 8.589969635009766 0.7451752424240112 8.590279579162598 1.094265222549438 L 8.590279579162598 4.90538501739502 C 8.589960098266602 5.254485130310059 8.339019775390625 5.537445068359375 8.029439926147461 5.537625312805176 L 0.9703999757766724 5.537625312805176 C 0.6609699726104736 5.537265300750732 0.4100300073623657 5.254475116729736 0.4097200036048889 4.90538501739502 L 0.4097200036048889 1.094265222549438 C 0.4100399911403656 0.7451552748680115 0.6608200073242188 0.4621852338314056 0.9703999757766724 0.4618352353572845 M 8.029709815979004 6.200005054473877 L 0.9703999757766724 6.199985027313232 C 0.6578199863433838 6.199555397033691 0.3533599972724915 6.058085441589355 0.1348299980163574 5.811835289001465 C -0.08093000203371048 5.568535327911377 -0.1998199969530106 5.246735095977783 -0.2000000029802322 4.905655384063721 L -0.2000000029802322 1.094435214996338 C -0.1998099982738495 0.7534152269363403 -0.08093000203371048 0.4316352307796478 0.1347399950027466 0.18826524913311 C 0.353190004825592 -0.05807475373148918 0.6576600074768066 -0.1995647549629211 0.9701300263404846 -0.199994757771492 L 8.029439926147461 -0.199994757771492 C 8.342109680175781 -0.199774757027626 8.646639823913574 -0.05826475471258163 8.865099906921387 0.18826524913311 C 9.080840110778809 0.4313152432441711 9.199810028076172 0.7531452178955078 9.199999809265137 1.094325304031372 L 9.199999809265137 4.905555248260498 C 9.199810028076172 5.246715068817139 9.080860137939453 5.568585395812988 8.865070343017578 5.811965465545654 C 8.646750450134277 6.058155059814453 8.342280387878418 6.199575424194336 8.029709815979004 6.200005054473877 Z M 0.9706299901008606 0.661835253238678 C 0.77183997631073 0.6620552539825439 0.6099399924278259 0.8561252355575562 0.60971999168396 1.09444522857666 L 0.60971999168396 4.90538501739502 C 0.6099299788475037 5.143415451049805 0.77183997631073 5.337395191192627 0.9706299901008606 5.337625026702881 L 8.029439926147461 5.337625026702881 C 8.228139877319336 5.337505340576172 8.390060424804688 5.143525123596191 8.390279769897461 4.905205249786377 L 8.390279769897461 1.094265222549438 C 8.390069961547852 0.8561352491378784 8.228090286254883 0.6620752215385437 8.029199600219727 0.661835253238678 L 0.9706299901008606 0.661835253238678 Z" stroke="none" fill="#000"/>
    </g>
    <path id="Vector-4" data-name="Vector" d="M3.925,13.822A1.734,1.734,0,0,1,2.194,12.09V8.871a.369.369,0,0,0-.367-.37H.227A.227.227,0,0,1,0,8.275V7.387A.227.227,0,0,1,.227,7.16h1.6A1.713,1.713,0,0,1,3.537,8.871V12.09a.388.388,0,0,0,.776,0V7.957L3.7,6.359c-.062.005-.125.008-.189.008h0A2.187,2.187,0,0,1,2.188,2.432l.223-.168L.908,1.229A.671.671,0,1,1,1.666.123L3.939,1.682a.656.656,0,0,1,.188.195.511.511,0,0,1,.035.063.462.462,0,0,1,.035.086L5.332,5.215h0a.668.668,0,0,1-.038.538.682.682,0,0,1-.284.28l.6,1.557v0h0a.691.691,0,0,1,.044.237v4.26a1.734,1.734,0,0,1-1.733,1.731ZM.454,8.048H1.826a.823.823,0,0,1,.821.823V12.09a1.278,1.278,0,0,0,2.556,0V7.831a.25.25,0,0,0-.015-.08L4.5,5.976h0a.227.227,0,0,1,.154-.3l.1-.025a.22.22,0,0,0,.14-.11A.214.214,0,0,0,4.9,5.37l-1.139-3.2c0-.007-.012-.026-.015-.034a.216.216,0,0,0-.065-.073l-.025-.017L1.407.5A.213.213,0,0,0,1.246.463a.216.216,0,0,0-.084.392L2.927,2.069a.227.227,0,0,1,.008.368l-.474.357h0A1.734,1.734,0,0,0,3.508,5.913a1.668,1.668,0,0,0,.3-.026.227.227,0,0,1,.252.142l.694,1.805h0a.229.229,0,0,1,.015.081V12.09a.842.842,0,0,1-1.683,0V8.872A1.259,1.259,0,0,0,1.826,7.614H.454ZM3.511,5.477a1.3,1.3,0,0,1-.786-2.335l.484-.366a.227.227,0,0,1,.351.1l.771,2.172a.227.227,0,0,1-.161.3l-.136.037L4,5.393l-.174.045a1.3,1.3,0,0,1-.319.039ZM3.235,3.325,3,3.5H3A.845.845,0,0,0,3.718,5l.1-.026Z" transform="translate(953.342 412.127)"/>
    <text id="D" transform="translate(944 414.469)" font-size="10" font-family="Roboto-Regular, Roboto"><tspan x="-3" y="10">D</tspan></text>
  </g>
</svg>
