<svg xmlns="http://www.w3.org/2000/svg" width="13.832" height="9.78" viewBox="0 0 13.832 9.78">
  <path id="Icon_metro-equalizer" data-name="Icon metro-equalizer" d="M8.622,3.721V3.5a.65.65,0,0,0-.648-.648H5.812a.65.65,0,0,0-.648.648v.216H2.571V5.45H5.164v.216a.65.65,0,0,0,.648.648H7.974a.65.65,0,0,0,.648-.648V5.45H16.4V3.721H8.622ZM6.029,5.45V3.721H7.758V5.45Zm7.78,4.377a.65.65,0,0,0-.648-.648H11a.65.65,0,0,0-.648.648v.216H2.571v1.729h7.78v.216a.65.65,0,0,0,.648.648h2.161a.65.65,0,0,0,.648-.648v-.216H16.4V10.043H13.809Zm-2.593,1.945V10.043h1.729v1.729Z" transform="translate(-2.571 -2.856)" fill="#fff"/>
</svg>
