<svg id="noun-tick-801900" xmlns="http://www.w3.org/2000/svg" width="14" height="14" viewBox="0 0 14 14">
  <ellipse id="Ellipse_11" data-name="Ellipse 11" cx="3.424" cy="6.864" rx="3.424" ry="6.864" transform="translate(3.575)" fill="#fff"/>
  <path id="Path_6878" data-name="Path 6878" d="M88.2,11.2a7,7,0,1,0,7,7,7,7,0,0,0-7-7Zm3.6,5.308L87.69,20.634a.743.743,0,0,1-.51.219.684.684,0,0,1-.51-.219L84.6,18.564a.732.732,0,0,1,1.035-1.035l1.546,1.546,3.6-3.6a.722.722,0,0,1,1.035,0,.735.735,0,0,1-.015,1.035Z" transform="translate(-81.2 -11.199)" fill="#57b72d"/>
</svg>
