<svg xmlns="http://www.w3.org/2000/svg" width="17.34" height="21.342" viewBox="0 0 17.34 21.342">
  <g id="noun-shield-5686656" transform="translate(-122.5 0.003)">
    <path id="Path_13829" data-name="Path 13829" d="M124.5,4.794v4.79a10.351,10.351,0,0,0,6.669,9.656,10.351,10.351,0,0,0,6.669-9.656V4.794l-6.669-2.668Zm2.792.321-1.458.583V7.25a.333.333,0,0,1-.667,0V5.472a.334.334,0,0,1,.21-.31l1.667-.667a.334.334,0,1,1,.248.619ZM134.754,16a9.566,9.566,0,0,1-3.454,2.467.334.334,0,1,1-.26-.614,8.9,8.9,0,0,0,3.215-2.3.334.334,0,0,1,.5.443ZM133.74,7.431l1,1a.334.334,0,0,1,0,.472l-4.335,4.335a.334.334,0,0,1-.472,0L127.6,10.9a.334.334,0,0,1,0-.472l1-1a.334.334,0,0,1,.472,0l1.1,1.1,3.1-3.1h0a.334.334,0,0,1,.472,0Zm-3.335,3.806,3.1-3.1.529.529L130.17,12.53l-1.863-1.863.529-.529,1.1,1.1h0a.334.334,0,0,0,.472,0Zm9.225-7.882L131.294.02a.334.334,0,0,0-.248,0L122.71,3.355a.334.334,0,0,0-.21.31V9.584a12.286,12.286,0,0,0,8.568,11.739.336.336,0,0,0,.2,0A12.286,12.286,0,0,0,139.84,9.584V3.665a.333.333,0,0,0-.21-.31Zm-1.124,6.229a11.019,11.019,0,0,1-7.222,10.325.333.333,0,0,1-.228,0,11.019,11.019,0,0,1-7.222-10.325V4.568a.334.334,0,0,1,.21-.31l7-2.8a.336.336,0,0,1,.248,0l7,2.8a.333.333,0,0,1,.21.31Z" transform="translate(0 0)" fill="#191970"/>
  </g>
</svg>
