<svg xmlns="http://www.w3.org/2000/svg" width="14.433" height="22.167" viewBox="0 0 14.433 22.167">
  <g id="noun-loan-1814618" transform="translate(-167.652 0.06)">
    <path id="Path_13819" data-name="Path 13819" d="M167.819,18.345a14.5,14.5,0,0,1,.372-6.339c.895-2.523,2.118-3.083,4.086-4.318a1.032,1.032,0,0,0,.092.07,4.676,4.676,0,0,0,2.8.728,4.959,4.959,0,0,0,2.366-.641l.059.016c.447.593,1.3.631,2.156.97.178.151.345.313.507.464a1.065,1.065,0,0,0,.636.3c.992,1.083,1.617,3.417.857,9.034-.2,1.515-1.229,3.272-3.1,3.31l-7.854.167c-1.854.038-2.727-1.93-2.975-3.762ZM172.864,7.1A.283.283,0,0,1,172.8,6.7a.276.276,0,0,1,.388-.054,3.829,3.829,0,0,0,3.816-.124c.032-.027.065-.049.1-.075a3.806,3.806,0,0,1,2.129-.7,2.458,2.458,0,0,1,2.011.911l.054.07a.281.281,0,0,1-.065.388.276.276,0,0,1-.388-.065c-.016-.016-.027-.038-.043-.054a1.911,1.911,0,0,0-1.568-.7,3.183,3.183,0,0,0-1.154.243,5.855,5.855,0,0,1,1.38.437A6.613,6.613,0,0,1,181.213,8.3a.275.275,0,0,1,.011.393.28.28,0,0,1-.393.005,6.228,6.228,0,0,0-1.6-1.213,7.367,7.367,0,0,0-1.887-.517,4.354,4.354,0,0,1-4.479.129Zm-.447-1.154a10.12,10.12,0,0,0-1.606-.075c-1.876.038-1.121-1.374-.6-3.358s2.932.846,2.253-.485c-.173-.345-1.574-2.258-.426-2.07a10.436,10.436,0,0,0,4.086,1.757c3.056-.135,3.822,1.687,2.949,3.213a4.672,4.672,0,0,0-2.442.846l-.129.1a2.494,2.494,0,0,1-1.4.4,2.752,2.752,0,0,1-1.412-.286,1.112,1.112,0,0,0-1.272-.038Zm2.533,5.1a4.091,4.091,0,1,1-4.091,4.091A4.094,4.094,0,0,1,174.95,11.046Zm-1.472,4.285.544-.458.005.011a.752.752,0,0,0,.151.032.744.744,0,0,0,.162.016.969.969,0,0,0,.69-.286.884.884,0,0,0,.2-.3h-1.924v-.668h1.962a.985.985,0,0,0-.243-.4.94.94,0,0,0-.42-.243h-1.3v-.668h3.283v.668h-.949a1.52,1.52,0,0,1,.275.641h.674v.668h-.7a1.561,1.561,0,0,1-.426.744,1.6,1.6,0,0,1-.884.447l1.617,1.908-.544.453-2.183-2.571Zm1.472-4.97a4.773,4.773,0,1,1-4.77,4.776A4.774,4.774,0,0,1,174.95,10.362Z" transform="translate(0 0)" fill="#191970" fill-rule="evenodd"/>
  </g>
</svg>
