<svg xmlns="http://www.w3.org/2000/svg" width="31.994" height="24" viewBox="0 0 31.994 24">
  <path id="Icon_ionic-logo-youtube" data-name="Icon ionic-logo-youtube" d="M31.786,9.8a4.858,4.858,0,0,0-4.625-5.075C23.7,4.562,20.168,4.5,16.562,4.5H15.437c-3.6,0-7.137.062-10.6.225A4.869,4.869,0,0,0,.219,9.812C.062,12.037-.006,14.262,0,16.487s.062,4.45.212,6.681a4.874,4.874,0,0,0,4.618,5.093c3.637.169,7.368.244,11.162.237q5.7.019,11.162-.237a4.875,4.875,0,0,0,4.625-5.093c.15-2.231.219-4.456.212-6.687Q32.011,13.143,31.786,9.8ZM12.937,22.618V10.337L22,16.474Z" transform="translate(0 -4.5)" fill="#4e4e4e"/>
</svg>
