<svg id="noun-insurance-5017547" xmlns="http://www.w3.org/2000/svg" width="40.044" height="40.843" viewBox="0 0 40.044 40.843">
  <path id="Path_13585" data-name="Path 13585" d="M250.469,48.371V38.753a.73.73,0,0,0-.725-.729,15.134,15.134,0,0,1-8.835-2.886c-.578-.408-1.284.387-1.781.639h0a14.761,14.761,0,0,1-7.846,2.247.73.73,0,0,0-.725.729v9.617a8.242,8.242,0,0,0,5.106,7.276l4.541,2.125h0a.73.73,0,0,0,.618,0l4.541-2.125a8.243,8.243,0,0,0,5.107-7.276Zm-9.957,7.936-4.232-1.981a6.806,6.806,0,0,1-4.266-5.955V39.464a16.232,16.232,0,0,0,8.5-2.844,16.232,16.232,0,0,0,8.5,2.844v8.907a6.807,6.807,0,0,1-4.266,5.955Z" transform="translate(-220.49 -35.024)" fill="#191970"/>
  <path id="Path_13586" data-name="Path 13586" d="M272.546,68.665a.73.73,0,0,0-.725-.729,11.051,11.051,0,0,1-5.874-1.682c-.41-.23-1.041-.865-1.544-.486h0a11.339,11.339,0,0,1-6.627,2.167.73.73,0,0,0-.725.729V75.98a6.441,6.441,0,0,0,3.985,5.692c.075.019,3.81,1.848,3.763,1.686-.091.214,3.718-1.708,3.763-1.686h0a6.442,6.442,0,0,0,3.985-5.692Zm-1.459,7.316c-.022,3.452-3.559,4.553-6.289,5.843-2.731-1.292-6.266-2.39-6.289-5.843V69.37h0a12.452,12.452,0,0,0,6.289-2.121,12.459,12.459,0,0,0,6.289,2.121Z" transform="translate(-244.776 -63.097)" fill="#191970"/>
  <path id="Path_13587" data-name="Path 13587" d="M295.371,128.492A.729.729,0,0,0,294,129l1.341,3.632a.729.729,0,0,0,1.19.273l6.551-6.32a.73.73,0,0,0-1.013-1.05l-5.747,5.544Z" transform="translate(-278.611 -117.809)" fill="#191970"/>
  <path id="Path_13588" data-name="Path 13588" d="M124.937,196.184c.948-3.841-.273-5.22-.612-5.517l-7.934-8.2a1.47,1.47,0,0,0-.35-.26l.952-5.05a2.575,2.575,0,0,0-4.973-1.323l-1.919,6.312a7.11,7.11,0,0,0-.049,3.961c.792,2.869,2.089,6.432,3.776,7.107a2.362,2.362,0,0,1,1.564,1.912,2.315,2.315,0,0,0-2.068,1.931l-.565,3.435a.73.73,0,0,0,1.439.237l.246-1.495,10.524,1.188-.246,2.04h0a.729.729,0,1,0,1.448.175l.475-3.939h0a2.314,2.314,0,0,0-1.71-2.512Zm-10.566-4.326c-.643.15-4.017-6.57-2.874-9.289l1.918-6.312h0a1.117,1.117,0,0,1,2.15.6l-1.018,5.4h0a3.35,3.35,0,0,0-.867,4.112l1.389,2.777a.73.73,0,0,0,1.3-.653l-1.388-2.777h0a1.939,1.939,0,0,1,.357-2.234l7.96,8.228a.361.361,0,0,0,.063.057c.01.009.967.937.115,4.221l-6.61-.747h0a3.859,3.859,0,0,0-2.5-3.381Zm.312,5.934.082-.5h0a.867.867,0,0,1,.946-.716l8.73.986a.866.866,0,0,1,.758.959l-.054.451Z" transform="translate(-109.795 -162.436)" fill="#191970"/>
  <path id="Path_13589" data-name="Path 13589" d="M400.671,193.32c1.687-.675,2.984-4.237,3.776-7.107a7.108,7.108,0,0,0-.049-3.961l-1.918-6.312a2.576,2.576,0,0,0-4.979,1.3l.958,5.078a1.459,1.459,0,0,0-.35.259l-7.934,8.2c-.339.3-1.56,1.677-.612,5.517h0a2.314,2.314,0,0,0-1.71,2.512l.475,3.939a.729.729,0,0,0,1.448-.174l-.246-2.04,10.524-1.188.246,1.495a.73.73,0,0,0,1.439-.237l-.565-3.434a2.32,2.32,0,0,0-2.069-1.932,2.366,2.366,0,0,1,1.565-1.911Zm-9.563-1.426c.123-.1,7.95-8.2,8.06-8.307h0a1.951,1.951,0,0,1,.348,2.234l-1.389,2.777a.73.73,0,0,0,1.305.653l1.388-2.777a3.355,3.355,0,0,0-.868-4.116l-1.023-5.42h0a1.117,1.117,0,0,1,2.156-.573L403,182.675c1.145,2.723-2.232,9.435-2.873,9.289h0a3.86,3.86,0,0,0-2.5,3.381l-6.61.747c-.846-3.264.092-4.2.088-4.2Zm8.627,5.507.082.5-10.462,1.18-.054-.451a.865.865,0,0,1,.758-.959l8.73-.986a.862.862,0,0,1,.946.716Z" transform="translate(-364.661 -162.542)" fill="#191970"/>
</svg>
