<svg xmlns="http://www.w3.org/2000/svg" width="48" height="48" viewBox="0 0 48 48">
  <g id="Group_6692" data-name="Group 6692" transform="translate(-279 -1972)">
    <g id="noun-target-2995991" transform="translate(279 1972)">
      <path id="Path_7394" data-name="Path 7394" d="M122.2,28.207a.913.913,0,0,0-.932.932v2.972l-.932.083A20.092,20.092,0,0,0,102.1,50.345l-.083.929H99.137a.94.94,0,0,0-.365.073.9.9,0,0,0-.295.2.925.925,0,0,0-.258.47.974.974,0,0,0-.018.19v0a.931.931,0,0,0,.073.359l.009.018a.949.949,0,0,0,.19.282.923.923,0,0,0,.662.273h2.877l.086.926a20.079,20.079,0,0,0,2.751,8.393.9.9,0,0,0,.264.279l.163.117.108.166a19.764,19.764,0,0,0,6.6,6.427l.132.077.1.114a.93.93,0,0,0,.242.2,20.087,20.087,0,0,0,7.874,2.383l.932.083v2.972a.913.913,0,0,0,.932.932.962.962,0,0,0,.19-.018.92.92,0,0,0,.742-.914V72.3l.932-.083a20.083,20.083,0,0,0,7.874-2.383.931.931,0,0,0,.242-.2l.1-.114.132-.077a19.764,19.764,0,0,0,6.6-6.427l.108-.166.163-.117a.9.9,0,0,0,.264-.279,20.079,20.079,0,0,0,2.751-8.393l.086-.926h2.877a.931.931,0,0,0,.935-.935,1,1,0,0,0-.018-.19.921.921,0,0,0-.055-.172.946.946,0,0,0-.2-.3h0a.887.887,0,0,0-.294-.2.94.94,0,0,0-.365-.073h-2.877l-.083-.929a20.092,20.092,0,0,0-18.241-18.151l-.932-.083V29.139a.913.913,0,0,0-.932-.932Zm-.935,5.77V39.11a.912.912,0,0,0,.276.659.936.936,0,0,0,.295.2.968.968,0,0,0,.175.055,1,1,0,0,0,.194.018.926.926,0,0,0,.656-.273v0a.914.914,0,0,0,.276-.659V33.978l1.141.138a18.257,18.257,0,0,1,15.929,16.021l.128,1.137H135.3a1,1,0,0,0-.19.018.949.949,0,0,0-.175.055.936.936,0,0,0-.294.2.914.914,0,0,0-.276.659.9.9,0,0,0,.276.656.936.936,0,0,0,.294.2.9.9,0,0,0,.365.073h5.038l-.128,1.137A18.259,18.259,0,0,1,124.278,70.3l-1.141.138V65.306a.912.912,0,0,0-.276-.659v0a.931.931,0,0,0-.279-.19l-.018-.009a.907.907,0,0,0-.166-.052l-.006,0h0a.931.931,0,0,0-.19-.018.942.942,0,0,0-.932.935v5.132l-1.141-.138A18.256,18.256,0,0,1,104.2,54.279l-.128-1.137H109.1a.924.924,0,0,0,.662-.273v0a.9.9,0,0,0,.276-.656.912.912,0,0,0-.276-.659v0a.923.923,0,0,0-.659-.273h-5.038l.128-1.137a18.26,18.26,0,0,1,15.929-16.021Z" transform="translate(-98.201 -28.207)" fill="#191970"/>
    </g>
    <path id="Path_7395" data-name="Path 7395" d="M271.61,170.33h-9.063l-1.217,1.488h2.164a3.765,3.765,0,0,1,3.111,1.353h-4.058l-1.217,1.488h5.681c-.135,1.353-1.758,2.435-3.923,2.435h-1.352v1.353l5.41,6.628h2.3L263.9,178.31c2.57-.135,4.6-1.623,4.869-3.652h1.758l.812-1.488H268.5a3.091,3.091,0,0,0-.947-1.353h2.84Z" transform="translate(36.73 1818.311)" fill="#191970"/>
  </g>
</svg>
