<svg xmlns="http://www.w3.org/2000/svg" xmlns:xlink="http://www.w3.org/1999/xlink" width="132.7" height="6.545" viewBox="0 0 132.7 6.545">
  <defs>
    <clipPath id="clip-path">
      <rect id="Rectangle_2187" data-name="Rectangle 2187" width="132.7" height="6.544" fill="#fff"/>
    </clipPath>
  </defs>
  <g id="Logo_1_1_" data-name="Logo 1 (1)" clip-path="url(#clip-path)">
    <path id="Path_13715" data-name="Path 13715" d="M1.431,5.45V.479A.062.062,0,0,0,1.368.415H.06A.062.062,0,0,0,0,.479V6.95H10.929a.062.062,0,0,0,.064-.064V5.578a.062.062,0,0,0-.064-.064H1.495a.061.061,0,0,1-.064-.064Z" transform="translate(0.004 -0.412)"/>
    <path id="Path_13716" data-name="Path 13716" d="M1839.79.064V5a.135.135,0,0,1-.133.133h-8.211a.134.134,0,0,1-.133-.133V.064a.063.063,0,0,0,0-.025.064.064,0,0,0-.014-.021.063.063,0,0,0-.021-.014.062.062,0,0,0-.025,0h-1.078a.062.062,0,0,0-.045.018.064.064,0,0,0-.014.021.063.063,0,0,0,0,.025V5.133a1.338,1.338,0,0,0,1.205,1.333c.045,0,.091.006.133.006h8.205c.045,0,.091,0,.133-.006a1.346,1.346,0,0,0,1.208-1.336V.061a.065.065,0,0,0,0-.025.062.062,0,0,0-.059-.039h-1.078a.066.066,0,0,0-.061.067Z" transform="translate(-1816.8 0.003)"/>
    <path id="Path_13717" data-name="Path 13717" d="M6079.67.064V5a.135.135,0,0,1-.133.133h-8.211a.135.135,0,0,1-.133-.133V.064a.061.061,0,0,0,0-.025.06.06,0,0,0-.014-.021.063.063,0,0,0-.045-.018h-1.078a.061.061,0,0,0-.025,0,.057.057,0,0,0-.021.014.06.06,0,0,0-.014.021.071.071,0,0,0,0,.025V5.132a1.339,1.339,0,0,0,1.206,1.333c.045,0,.091.006.133.006h8.205c.045,0,.091,0,.133-.006a1.346,1.346,0,0,0,1.208-1.336V.061a.059.059,0,0,0-.018-.045.064.064,0,0,0-.021-.014.06.06,0,0,0-.024,0h-1.078a.068.068,0,0,0-.042.022A.069.069,0,0,0,6079.67.064Z" transform="translate(-6025.852 0.003)"/>
    <path id="Path_13718" data-name="Path 13718" d="M3689.1,1.251l-2.613.061a.088.088,0,0,0-.027.006l-4.729,2.46a.063.063,0,0,1-.029.007.064.064,0,0,1-.029-.007l-4.729-2.46a.088.088,0,0,0-.027-.006l-2.613-.061a.064.064,0,0,0-.04.013.065.065,0,0,0-.019.077.065.065,0,0,0,.029.031l5.91,3.1a.062.062,0,0,1,0,.109l-5.922,3.081a.064.064,0,0,0-.029.031.064.064,0,0,0,.019.077.064.064,0,0,0,.04.013h2.61a.106.106,0,0,0,.03-.006l4.741-2.49a.064.064,0,0,1,.029-.007.063.063,0,0,1,.029.007l4.742,2.49a.049.049,0,0,0,.03.006h2.61a.065.065,0,0,0,.039-.014.066.066,0,0,0,.023-.035.064.064,0,0,0,0-.042.065.065,0,0,0-.028-.031l-5.922-3.081a.064.064,0,0,1-.023-.023.063.063,0,0,1,0-.063.064.064,0,0,1,.023-.023l5.91-3.1a.066.066,0,0,0,.029-.031.064.064,0,0,0,0-.042.064.064,0,0,0-.063-.049Z" transform="translate(-3647.511 -1.242)"/>
    <path id="Path_13719" data-name="Path 13719" d="M9754.1,1.249l-2.613.061a.093.093,0,0,0-.027.006l-4.729,2.46a.066.066,0,0,1-.059,0l-4.729-2.46a.087.087,0,0,0-.027-.006l-2.613-.061a.064.064,0,0,0-.039.013.065.065,0,0,0-.023.035.062.062,0,0,0,0,.042.061.061,0,0,0,.029.031l5.91,3.1a.064.064,0,0,1,.023.023.068.068,0,0,1,0,.063.064.064,0,0,1-.023.023l-5.923,3.081a.063.063,0,0,0-.028.031.062.062,0,0,0,0,.042.061.061,0,0,0,.023.035.058.058,0,0,0,.039.013h2.61a.111.111,0,0,0,.03-.006l4.74-2.49,1.549-.812,5.909-3.1a.062.062,0,0,0,.03-.031.066.066,0,0,0,0-.043.058.058,0,0,0-.023-.036A.065.065,0,0,0,9754.1,1.249Z" transform="translate(-9668.412 -1.239)"/>
    <path id="Path_13720" data-name="Path 13720" d="M7902.274,3.038V1.951a1.536,1.536,0,0,0-1.535-1.536h-9.316a.06.06,0,0,0-.024,0,.057.057,0,0,0-.021.014.06.06,0,0,0-.019.045V6.886a.06.06,0,0,0,.019.045.057.057,0,0,0,.021.014.06.06,0,0,0,.024,0h1.189a.063.063,0,0,0,.046-.018.06.06,0,0,0,.014-.021.053.053,0,0,0,0-.025V5.3a.1.1,0,0,1,.008-.042.107.107,0,0,1,.059-.059.108.108,0,0,1,.042-.008h7.157a1.144,1.144,0,0,1,1.145,1.145v.548a.062.062,0,0,0,.018.045.062.062,0,0,0,.021.014.06.06,0,0,0,.024,0h1.048a.063.063,0,0,0,.043-.016.064.064,0,0,0,.021-.041c0-.055.006-.112.006-.17a1.993,1.993,0,0,0-1.359-1.951V4.562a1.535,1.535,0,0,0,1.366-1.524Zm-1.405.8H7892.9a.223.223,0,0,1-.221-.221V1.96a.223.223,0,0,1,.221-.221h7.972a.222.222,0,0,1,.221.221V3.62a.222.222,0,0,1-.221.221Z" transform="translate(-7833.98 -0.412)"/>
    <path id="Path_13721" data-name="Path 13721" d="M12736.39,3.038V1.951a1.535,1.535,0,0,0-1.534-1.536h-9.316a.062.062,0,0,0-.025,0,.071.071,0,0,0-.021.014.04.04,0,0,0-.013.021.055.055,0,0,0-.006.025V6.886a.055.055,0,0,0,.006.025.04.04,0,0,0,.013.021.071.071,0,0,0,.021.014.062.062,0,0,0,.025,0h1.189a.057.057,0,0,0,.024,0,.06.06,0,0,0,.021-.014.049.049,0,0,0,.014-.021.055.055,0,0,0,.006-.025V5.3a.121.121,0,0,1,.007-.042.125.125,0,0,1,.024-.035.1.1,0,0,1,.035-.024.11.11,0,0,1,.042-.008h7.157a1.139,1.139,0,0,1,.438.087,1.144,1.144,0,0,1,.707,1.058v.548a.1.1,0,0,0,0,.025.082.082,0,0,0,.015.021.06.06,0,0,0,.021.014.062.062,0,0,0,.023,0h1.049a.063.063,0,0,0,.043-.016.057.057,0,0,0,.02-.041c0-.055.007-.112.007-.17a1.991,1.991,0,0,0-1.359-1.951V4.562a1.534,1.534,0,0,0,1.365-1.524Zm-1.4.8h-7.973a.222.222,0,0,1-.155-.065.227.227,0,0,1-.065-.156V1.96a.227.227,0,0,1,.065-.156.222.222,0,0,1,.155-.065h7.973a.221.221,0,0,1,.221.221V3.62a.221.221,0,0,1-.221.221Z" transform="translate(-12632.947 -0.412)"/>
    <path id="Path_13722" data-name="Path 13722" d="M14499.753,6.953h-1.189a.061.061,0,0,1-.045-.018.082.082,0,0,1-.015-.021.07.07,0,0,1,0-.025V.478a.07.07,0,0,1,0-.025.082.082,0,0,1,.015-.021.061.061,0,0,1,.045-.018h1.189a.057.057,0,0,1,.024,0,.055.055,0,0,1,.021.014.06.06,0,0,1,.014.021.054.054,0,0,1,0,.025V6.889a.054.054,0,0,1,0,.025.06.06,0,0,1-.014.021.056.056,0,0,1-.021.014A.057.057,0,0,1,14499.753,6.953Z" transform="translate(-14393.081 -0.412)"/>
    <path id="Path_13723" data-name="Path 13723" d="M14953.4.415h-9.24a.059.059,0,0,0-.023,0,.064.064,0,0,0-.021.014.049.049,0,0,0-.014.021.053.053,0,0,0,0,.025V6.889a.053.053,0,0,0,0,.025.049.049,0,0,0,.014.021.064.064,0,0,0,.021.014.059.059,0,0,0,.023,0h9.24a1.615,1.615,0,0,0,1.615-1.615V2.033a1.64,1.64,0,0,0-.121-.619,1.657,1.657,0,0,0-.35-.525,1.617,1.617,0,0,0-1.145-.474Zm.41,4.956a.253.253,0,0,1-.07.171.246.246,0,0,1-.172.071h-7.957a.241.241,0,0,1-.242-.242V1.978a.241.241,0,0,1,.242-.242h7.957a.246.246,0,0,1,.172.071.253.253,0,0,1,.07.171Z" transform="translate(-14835.44 -0.412)"/>
    <path id="Path_13724" data-name="Path 13724" d="M16746.555,7.142h9.459a.031.031,0,0,0,.021-.009.03.03,0,0,0,.01-.021V6a.03.03,0,0,0-.01-.021.031.031,0,0,0-.021-.009h-9.459a.123.123,0,0,1-.047-.009.122.122,0,0,1-.041-.027.117.117,0,0,1-.027-.04.193.193,0,0,1-.008-.048V4.712a.193.193,0,0,1,.008-.048.117.117,0,0,1,.027-.04.125.125,0,0,1,.088-.036h9.459a.031.031,0,0,0,.021-.009.03.03,0,0,0,.01-.021V3.364a.03.03,0,0,0-.01-.021.031.031,0,0,0-.021-.009h-10.885a.035.035,0,0,0-.021.009.029.029,0,0,0-.008.021V9.82a.029.029,0,0,0,.008.021.035.035,0,0,0,.021.009h10.885a.031.031,0,0,0,.021-.009.03.03,0,0,0,.01-.021V8.557a.03.03,0,0,0-.01-.021.031.031,0,0,0-.021-.009h-9.459a.123.123,0,0,1-.047-.009.122.122,0,0,1-.041-.027.117.117,0,0,1-.027-.04.193.193,0,0,1-.008-.048V7.269a.136.136,0,0,1,.008-.049.121.121,0,0,1,.027-.041.138.138,0,0,1,.039-.028A.131.131,0,0,1,16746.555,7.142Z" transform="translate(-16623.346 -3.309)"/>
  </g>
</svg>
