<svg xmlns="http://www.w3.org/2000/svg" width="22.578" height="22.578" viewBox="0 0 22.578 22.578">
  <g id="noun-low-price-3953897" transform="translate(-87.515 -17.505)">
    <path id="Path_13821" data-name="Path 13821" d="M281.505,140.753a.753.753,0,1,1-.753-.753.753.753,0,0,1,.753.753" transform="translate(-184.207 -117.227)" fill="#191970"/>
    <path id="Path_13822" data-name="Path 13822" d="M386.505,245.753a.753.753,0,1,1-.753-.753.753.753,0,0,1,.753.753" transform="translate(-284.691 -217.711)" fill="#191970"/>
    <path id="Path_13823" data-name="Path 13823" d="M110.063,29.028a.377.377,0,0,0-.346-.233h-4.14V18.634a1.129,1.129,0,0,0-1.129-1.129H93.159a1.129,1.129,0,0,0-1.129,1.129V28.794h-4.14a.379.379,0,0,0-.267.643L98.006,39.753a1.129,1.129,0,0,0,1.6,0l10.383-10.315a.376.376,0,0,0,.079-.41Zm-15.023-5.5a1.505,1.505,0,1,1,.441,1.064A1.506,1.506,0,0,1,95.041,23.526Zm1.818,5.852a.376.376,0,0,1-.312.169.354.354,0,0,1-.207-.064.376.376,0,0,1-.105-.519l4.516-6.774a.376.376,0,0,1,.625.414Zm4.2.169a1.505,1.505,0,1,1,1.064-.441A1.506,1.506,0,0,1,101.062,29.547Z" fill="#191970"/>
  </g>
</svg>
