<svg xmlns="http://www.w3.org/2000/svg" width="38.391" height="41.092" viewBox="0 0 38.391 41.092">
  <g id="noun-care-1499488" transform="translate(-92.355 -2.359)">
    <path id="Path_13563" data-name="Path 13563" d="M223.544,119.724h0c-.665-3.324-3.074-5.443-6.107-5.443a8.144,8.144,0,0,0-4.487,1.5,8.269,8.269,0,0,0-4.528-1.5c-3.074,0-5.484,2.16-6.107,5.484-.872,4.612,1.87,10.719,10.012,13.959a1.665,1.665,0,0,0,.623.125,2.065,2.065,0,0,0,.665-.125c8.1-3.365,10.843-9.473,9.929-14Zm-10.636,11.965c-6.938-2.825-9.306-7.811-8.6-11.591.457-2.368,1.994-3.822,4.071-3.822a6.774,6.774,0,0,1,3.905,1.537,1,1,0,0,0,1.247,0,6.7,6.7,0,0,1,3.905-1.5c2.077,0,3.615,1.454,4.071,3.781.706,3.7-1.662,8.725-8.6,11.591Z" transform="translate(-101.357 -103.321)" fill="#4e4e4e" stroke="#fff" stroke-width="1"/>
    <path id="Path_13564" data-name="Path 13564" d="M108.6,254.075l-4.446-5.9a2.593,2.593,0,0,0-3.448-.623h-.041A2.676,2.676,0,0,0,99.793,251l1.288,2.327a.186.186,0,0,1,0,.208.574.574,0,0,1-.166.125c-.083,0-.166,0-.208-.083l-2.576-3.324c0-1.288-.083-5.65-.125-7.728a2.616,2.616,0,0,0-2.617-2.534h-.041a2.536,2.536,0,0,0-2.493,2.534v9.929a2.894,2.894,0,0,0,.831,2.036l7.1,8.06a1.1,1.1,0,0,0,.789.291h6.855a1,1,0,0,0,1.039-1.039l-.208-6.066a2.953,2.953,0,0,0-.665-1.662Zm-6.564,6.814-6.814-7.811-.041-.041a.845.845,0,0,1-.249-.623v-9.929a.448.448,0,0,1,.5-.457h.041a.491.491,0,0,1,.54.5c.041,2.451.125,8.06.125,8.06a1.238,1.238,0,0,0,.208.623l2.784,3.573a2.273,2.273,0,0,0,2.16.872,2.308,2.308,0,0,0,1.7-1.247,2.378,2.378,0,0,0-.041-2.119l-1.329-2.326a.5.5,0,0,1,.831-.54l4.528,5.941a.862.862,0,0,1,.208.5l.166,4.985Z" transform="translate(0 -219.891)" fill="#4e4e4e" stroke="#fff" stroke-width="1"/>
    <path id="Path_13565" data-name="Path 13565" d="M395.184,242.539a2.619,2.619,0,0,0-5.235,0c-.041,2.077-.083,6.481-.125,7.728l-2.576,3.282a.318.318,0,0,1-.208.083c-.083,0-.125-.083-.166-.125a.186.186,0,0,1,0-.208l1.288-2.327a2.591,2.591,0,0,0-.872-3.448h-.041a2.6,2.6,0,0,0-3.448.623l-4.363,5.9a2.9,2.9,0,0,0-.665,1.7l-.208,6.065a1,1,0,0,0,.291.748.969.969,0,0,0,.748.249l6.855.041a1.1,1.1,0,0,0,.789-.291l7.1-8.1a2.8,2.8,0,0,0,.831-1.994Zm-2.327,10.511c0,.041-.042.041,0,0L386,260.9l-5.318-.041.166-4.985a.877.877,0,0,1,.208-.54l4.446-5.9a.519.519,0,0,1,.665-.125.532.532,0,0,1,.166.665l-1.288,2.327a2.252,2.252,0,0,0-.042,2.119,2.308,2.308,0,0,0,1.7,1.247,2.273,2.273,0,0,0,2.16-.872l2.784-3.573a1.119,1.119,0,0,0,.208-.623s.083-5.609.125-8.06a.528.528,0,0,1,.582-.5.448.448,0,0,1,.5.457l.042,9.971a.755.755,0,0,1-.249.582Z" transform="translate(-264.938 -219.904)" fill="#4e4e4e" stroke="#fff" stroke-width="1"/>
    <path id="Path_13566" data-name="Path 13566" d="M333.89,7.927a1.028,1.028,0,0,0,1.039-1.039V3.9a1.039,1.039,0,0,0-2.077,0V6.889A1.029,1.029,0,0,0,333.89,7.927Z" transform="translate(-222.547 0)" fill="#4e4e4e" stroke="#fff" stroke-width="1"/>
    <path id="Path_13567" data-name="Path 13567" d="M459.238,29.979a1.1,1.1,0,0,0,.5.125,1.082,1.082,0,0,0,.914-.54l1.62-2.991a1.041,1.041,0,0,0-1.828-1l-1.62,2.991a1.065,1.065,0,0,0,.416,1.413Z" transform="translate(-339.254 -20.556)" fill="#4e4e4e" stroke="#fff" stroke-width="1"/>
    <path id="Path_13568" data-name="Path 13568" d="M192.206,29.564a1.083,1.083,0,0,0,.914.54,1.1,1.1,0,0,0,.5-.125,1.039,1.039,0,0,0,.415-1.413l-1.62-2.991a1.041,1.041,0,0,0-1.828,1Z" transform="translate(-90.502 -20.557)" fill="#4e4e4e" stroke="#fff" stroke-width="1"/>
  </g>
</svg>
