<svg xmlns="http://www.w3.org/2000/svg" width="24.221" height="16.309" viewBox="0 0 24.221 16.309">
  <g id="Group_7877" data-name="Group 7877" transform="translate(23788.371 23445.734)">
    <g id="noun-car-service-3786304" transform="translate(-23788.371 -23445.734)">
      <path id="Path_13602" data-name="Path 13602" d="M231.6,121.039v-.03a4.046,4.046,0,0,0-1.97-3.068v-.049l-.787-2.573a.3.3,0,0,0-.014-.044,3.428,3.428,0,0,0-2.535-2.03,17.7,17.7,0,0,0-4.552-.478,17.427,17.427,0,0,0-4.576.478,3.433,3.433,0,0,0-2.544,2.043l-.4,1.016a.383.383,0,1,0,.71.273l.391-1a2.69,2.69,0,0,1,2.057-1.606,21.282,21.282,0,0,1,8.688,0,2.676,2.676,0,0,1,2.049,1.585l.612,2.068h-1.533a2.227,2.227,0,0,0-1.992-1.287,2.314,2.314,0,0,0-2.287,1.276h-4.172a.383.383,0,0,0,0,.762h9.382c1.437,0,2.325.9,2.713,2.762l.361,2.986c.057.456.161,1.306-.109,1.612-.035.041-.147.167-.519.167h-1.025v-1.011a.383.383,0,0,0-.382-.38h-8.39a.38.38,0,0,0,0,.76h8v.631h-8.24a.382.382,0,1,0,0,.762h6.284v1.183a1.227,1.227,0,0,0,1.227,1.227h2.167a1.227,1.227,0,0,0,1.251-1.216v-1.423a1.047,1.047,0,0,0,.21-.186,2.858,2.858,0,0,0,.295-2.207Zm-7.783-3.418a1.6,1.6,0,0,1,1.35-.524,1.677,1.677,0,0,1,1.161.527H223.82Zm6.882,10.234a.467.467,0,0,1-.467.464h-2.167a.464.464,0,0,1-.464-.464v-1.183h3.1Z" transform="translate(-208.711 -112.763)" fill="#212121"/>
      <path id="Path_13603" data-name="Path 13603" d="M533.416,175.95a1.3,1.3,0,0,0-1.366,1.462c0,.915.656,1.057,1.366,1.057,1.047,0,1.869-.546,1.869-1.259s-.822-1.259-1.869-1.259Zm0,1.759c-.6,0-.6-.052-.6-.3,0-.582.24-.7.6-.7.667,0,1.093.3,1.093.5S534.1,177.709,533.416,177.709Z" transform="translate(-511.064 -172.867)" fill="#212121"/>
      <path id="Path_13604" data-name="Path 13604" d="M450.634,253.455a1.093,1.093,0,0,0,1.093-1.093v-.653a1.093,1.093,0,0,0-1.366-1.063l-2.582.656a1.093,1.093,0,0,0,.273,2.153Zm-2.918-1.093a.333.333,0,0,1,.243-.317l2.585-.653h0a.27.27,0,0,1,.082,0,.319.319,0,0,1,.2.071.327.327,0,0,1,.128.273v.653a.333.333,0,0,1-.33.333h-2.576a.333.333,0,0,1-.333-.361Z" transform="translate(-430.117 -243.886)" fill="#212121"/>
      <path id="Path_13605" data-name="Path 13605" d="M348.54,323.443a.38.38,0,0,0,.38.38h5.428a.383.383,0,0,0,0-.762H348.92A.383.383,0,0,0,348.54,323.443Z" transform="translate(-336.507 -312.801)" fill="#212121"/>
      <path id="Path_13606" data-name="Path 13606" d="M167.722,271.99a2.691,2.691,0,1,0,1.9.788A2.688,2.688,0,0,0,167.722,271.99Zm0,4.617a1.932,1.932,0,1,1,1.361-.567,1.929,1.929,0,0,1-1.361.567Z" transform="translate(-161.953 -264.222)" fill="#212121"/>
      <path id="Path_13607" data-name="Path 13607" d="M112.965,214.608a.645.645,0,0,0,.459-.732l-.158-.9h0a.647.647,0,0,0-.68-.53l-1.147.085-.249-.429.648-.951a.642.642,0,0,0-.12-.855l-.7-.587h0a.642.642,0,0,0-.863.033l-.82.8-.464-.169-.117-1.145h0a.642.642,0,0,0-.639-.576H107.2a.642.642,0,0,0-.639.576l-.117,1.145-.464.169-.82-.8h0a.642.642,0,0,0-.863-.033l-.7.587a.642.642,0,0,0-.118.855l.645.951-.24.429-1.15-.085h0a.645.645,0,0,0-.677.53l-.158.9h0a.644.644,0,0,0,.456.732l1.106.311.076.492-.932.669a.642.642,0,0,0-.183.844l.456.79a.642.642,0,0,0,.82.273l1.049-.47.38.32-.273,1.115h0a.645.645,0,0,0,.4.754l.858.311h0a.624.624,0,0,0,.235.038.641.641,0,0,0,.579-.363l.5-1.035h.495l.5,1.035h0a.642.642,0,0,0,.8.325l.858-.311h0a.642.642,0,0,0,.4-.762l-.273-1.115.38-.32,1.049.473h0a.642.642,0,0,0,.82-.273l.445-.784a.642.642,0,0,0-.18-.844l-.942-.669.085-.489Zm-1.7,1.366.9.656-.35.612-1.019-.464a.644.644,0,0,0-.677.093l-.492.415h0a.642.642,0,0,0-.21.65l.273,1.093-.656.24-.489-1.008a.645.645,0,0,0-.574-.363h-.648a.648.648,0,0,0-.579.361l-.486,1.008-.658-.241.273-1.093a.656.656,0,0,0-.21-.653l-.495-.413a.645.645,0,0,0-.675-.09l-1.019.464-.35-.6.907-.656h0a.642.642,0,0,0,.257-.634l-.112-.634h0a.642.642,0,0,0-.456-.506l-1.076-.306.12-.678,1.115.082a.65.65,0,0,0,.6-.32l.322-.546h0a.647.647,0,0,0-.025-.683l-.634-.948.546-.448.8.779a.645.645,0,0,0,.667.142l.607-.219a.648.648,0,0,0,.418-.547l.109-1.117h.7l.112,1.112a.65.65,0,0,0,.421.546l.6.219h0a.647.647,0,0,0,.669-.142l.8-.779.546.448-.637.932a.642.642,0,0,0-.025.683l.32.546h0a.658.658,0,0,0,.6.32l1.115-.082.123.689-1.076.317a.642.642,0,0,0-.456.506l-.112.634h0a.645.645,0,0,0,.246.634Z" transform="translate(-101.885 -203.974)" fill="#212121"/>
    </g>
  </g>
</svg>
