<svg xmlns="http://www.w3.org/2000/svg" width="25.754" height="17.158" viewBox="0 0 25.754 17.158">
  <g id="noun-car-painting-2279386" transform="translate(-111.068 -120.809)">
    <path id="Path_13701" data-name="Path 13701" d="M135.784,127.811l-4.719-.672a.418.418,0,0,1-.2-.087l-3.756-3.136a3.652,3.652,0,0,0-2.321-.837h-4.45v-.66a1.611,1.611,0,0,0-1.61-1.61h-3.388a1.611,1.611,0,0,0-1.61,1.61v2.422l-2.164-.542a.4.4,0,0,0-.5.39V126.7a.4.4,0,0,0,.4.4h.571l.568.993-.885.16a.808.808,0,0,0-.657.79v3.69a.4.4,0,0,0,.068.223l.8,1.207a.4.4,0,0,0,.335.179h.656l-.247,1.3a.4.4,0,0,0,.4.478h.389v1.445a.4.4,0,0,0,.4.4h1.319a.4.4,0,0,0,.4-.345l.215-1.5h.325a2.778,2.778,0,0,0,1.781.64,2.819,2.819,0,0,0,2.785-2.414h6.5a2.811,2.811,0,0,0,4.875,1.481c.056-.06.107-.125.16-.193a1.855,1.855,0,0,0,.121-.176.581.581,0,0,0,.033-.049l.034-.057c.031-.053.06-.105.078-.145a1.811,1.811,0,0,0,.1-.218,1.537,1.537,0,0,0,.078-.223,1.041,1.041,0,0,0,.039-.14,1.334,1.334,0,0,0,.035-.153c.008-.043.012-.085.018-.127h2.85a1.208,1.208,0,0,0,1.207-1.207v-4.133a1.206,1.206,0,0,0-1.038-1.2Zm-15.445-2.318h.386V127.5h-.386Zm-5.8-3.074a.806.806,0,0,1,.8-.8h3.388a.806.806,0,0,1,.8.8v.763h-5Zm0,4.282v-2.713h5v3.927a.806.806,0,0,1-.8.8h-3.388c-.025,0-.051,0-.082-.006a.637.637,0,0,1-.08-.012.274.274,0,0,1-.047-.01l-.041-.014-.029-.01-.024-.01a.338.338,0,0,0-.043-.016.331.331,0,0,1-.034-.018.785.785,0,0,1-.116-.078.709.709,0,0,1-.093-.086.82.82,0,0,1-.15-.234.478.478,0,0,1-.035-.1l0-.015,0-.014c0-.024-.01-.046-.014-.059s0-.027,0-.041-.006-.057-.006-.084Zm2.889,2.825v.253h-.777v-.253Zm-5.151-3.227h-.4V125.2l1.859.466v.628Zm1.457.8v.79l-.283.051-.481-.841Zm-.647,6.438h-.594l-.618-.926v-.683h.805a.806.806,0,0,0,.8-.8v-1.207a.806.806,0,0,0-.8-.8h-.806v-.067l1.875-.34.179-.032c.01.019.024.037.035.056s.033.057.052.084a1.615,1.615,0,0,0,.147.188,1.461,1.461,0,0,0,.183.169,1.557,1.557,0,0,0,.223.151c.019.011.043.024.07.037s.037.016.056.024l.036.015h0a1.065,1.065,0,0,0,.131.048,1,1,0,0,0,.159.041,1.185,1.185,0,0,0,.167.024c.052.005.1.009.155.009h.5v.253h-1.71a.4.4,0,0,0-.4.327Zm-1.212-2.414v-1.207h.8v1.207Zm2.969,6.036h-.567V136.12h.716Zm3.067-1.207a1.982,1.982,0,0,1-1.224-.417l.171-1.01.707,0,.429,0H118a.924.924,0,0,0,.863-.585l.293-.732h.631v0a2,2,0,0,1,.088.314c.005.026.01.052.014.079a2,2,0,0,1-1.982,2.341Zm-.916-2.232.085-.5h1.21l-.174.434a.151.151,0,0,1-.115.077l-.416,0Zm1.89-1.309h-2.146a.4.4,0,0,0-.4.335l-.221,1.306s0,.007,0,.01l-.189,1.118-.022.132h-2.341l.247-1.3h0l.654-3.435h7.707v1.831h-3.291Zm13.072,1.912a.416.416,0,0,1-.014.067.326.326,0,0,0-.02.082l-.019.06a1.064,1.064,0,0,1-.052.151,1.357,1.357,0,0,1-.072.16c-.017.036-.036.069-.056.1l-.017.03a.423.423,0,0,0-.034.05.968.968,0,0,1-.075.111c-.037.048-.075.1-.121.147a2.008,2.008,0,1,1,.519-1.342,2.048,2.048,0,0,1-.038.383Zm4.062-2.8h-1.28l-.241-1.207h1.521Zm0-2.012H134a.4.4,0,0,0-.395.481l.4,2.012a.4.4,0,0,0,.395.323h1.61v.8a.4.4,0,0,1-.4.4h-2.846c0-.031-.012-.061-.017-.091s-.013-.077-.022-.115-.025-.1-.039-.15-.019-.072-.031-.107c-.017-.052-.036-.1-.056-.152-.012-.032-.023-.064-.037-.095-.024-.056-.052-.111-.08-.165-.012-.023-.022-.048-.035-.071-.041-.076-.087-.15-.135-.221-.012-.018-.026-.034-.038-.052-.038-.053-.076-.106-.117-.156-.021-.025-.043-.049-.065-.074-.035-.04-.071-.081-.108-.119s-.052-.049-.078-.074-.074-.069-.112-.1-.058-.047-.087-.07-.078-.061-.119-.089-.063-.042-.095-.063-.083-.052-.126-.077l-.1-.055c-.044-.023-.089-.044-.134-.065s-.069-.031-.1-.045-.1-.036-.144-.053-.07-.024-.106-.035c-.051-.015-.1-.028-.156-.04-.035-.008-.068-.017-.1-.024-.059-.012-.119-.02-.179-.027-.03,0-.059-.009-.089-.012-.091-.009-.183-.014-.276-.014s-.185.005-.276.014c-.03,0-.059.009-.089.012-.06.008-.12.016-.179.027-.035.007-.069.016-.1.024-.053.012-.1.025-.156.04-.036.011-.071.023-.106.035s-.1.034-.144.053-.07.03-.1.045-.09.042-.134.065l-.1.055c-.043.024-.085.05-.126.077s-.064.041-.095.063-.08.059-.119.089-.059.046-.087.07-.076.067-.112.1-.053.049-.078.074-.073.079-.108.119c-.021.025-.044.048-.065.074-.041.05-.079.1-.117.156-.012.017-.026.034-.038.052q-.072.107-.135.221c-.013.023-.023.047-.035.071-.028.054-.055.109-.08.165-.013.031-.024.063-.037.095-.02.05-.039.1-.056.152-.011.035-.021.071-.031.107s-.028.1-.039.15-.015.076-.022.115-.013.06-.017.091h-6.5c-.008-.053-.021-.105-.032-.158s-.017-.095-.029-.141c0-.008,0-.016,0-.023h1.945a.4.4,0,0,0,.4-.4v-.145h1.179a.4.4,0,0,0,.4-.4v-1.545a.4.4,0,0,0-.4-.4h-1.179v-.141a.4.4,0,0,0-.4-.4H118.23v-.253h.5a1.6,1.6,0,0,0,.3-.031c.032-.006.062-.016.094-.024a1.552,1.552,0,0,0,.189-.059c.035-.014.069-.03.1-.046a1.575,1.575,0,0,0,.156-.085c.033-.021.066-.042.1-.065a1.614,1.614,0,0,0,.133-.109c.029-.027.059-.052.087-.081a1.653,1.653,0,0,0,.113-.137c.023-.029.047-.056.068-.087a1.617,1.617,0,0,0,.131-.241c.016-.037.026-.076.04-.115s.034-.087.046-.134h7.679a.4.4,0,0,0,.285-.687l-2.346-2.346a2.026,2.026,0,0,0-1.423-.589h-4.145v-.8h4.451a2.844,2.844,0,0,1,1.806.651l3.762,3.141a1.234,1.234,0,0,0,.6.26l4.713.671a.4.4,0,0,1,.35.4Zm-13.038,2.35v-.74h.777v.74ZM121.53,127.5v-2.012h.8V127.5Zm1.61,0v-2.012h1.344a1.216,1.216,0,0,1,.854.353L127,127.5Z"/>
    <path id="Path_13702" data-name="Path 13702" d="M362.449,284.66l-1.007.4a.4.4,0,1,0,.3.747l1.007-.4a.4.4,0,0,0-.3-.747Z" transform="translate(-236.642 -154.993)"/>
    <path id="Path_13703" data-name="Path 13703" d="M362.748,331.687l-1.006-.4a.4.4,0,1,0-.3.747l1.007.4a.4.4,0,0,0,.3-.747Z" transform="translate(-236.641 -199.105)"/>
    <path id="Path_13704" data-name="Path 13704" d="M367.229,312.485a.4.4,0,0,0,0-.8h-.743a.4.4,0,1,0,0,.8Z" transform="translate(-241.273 -180.585)"/>
  </g>
</svg>
