<svg xmlns="http://www.w3.org/2000/svg" width="23.01" height="16.928" viewBox="0 0 23.01 16.928">
  <g id="noun-car-insurance-4084951" transform="translate(-103.574 -100.803)">
    <path id="Path_13693" data-name="Path 13693" d="M228.6,206.8a.4.4,0,0,1-.4-.4,1.486,1.486,0,0,0-2.959-.227.4.4,0,0,1-.45.341.4.4,0,0,1-.333-.46,2.277,2.277,0,0,1,4.533.346.4.4,0,0,1-.394.4Z" transform="translate(-115.177 -98.394)"/>
    <path id="Path_13694" data-name="Path 13694" d="M444.715,208.506a2.306,2.306,0,1,1,1.621-.692A2.327,2.327,0,0,1,444.715,208.506Zm0-3.845h0a1.508,1.508,0,1,0,1.056.453,1.518,1.518,0,0,0-1.056-.453Z" transform="translate(-322.768 -98.182)"/>
    <path id="Path_13695" data-name="Path 13695" d="M360.142,131.24h-2.063a.4.4,0,0,1,0-.793h.624l-1.978-1.18h0a.4.4,0,0,1,.4-.682l3.216,1.917a.4.4,0,0,1-.2.738Z" transform="translate(-241.016 -26.42)"/>
    <path id="Path_13696" data-name="Path 13696" d="M331.407,245.363h-4.573a.4.4,0,0,1,0-.809h4.573a.4.4,0,0,1,0,.809Z" transform="translate(-212.331 -136.962)"/>
    <path id="Path_13697" data-name="Path 13697" d="M195.574,108.4h-1.19a.4.4,0,0,1,0-.809h.793v-1.872c0-.82-2.61-1.486-4.372-1.677a.344.344,0,0,1-.161-.056l-3.586-2.182a1.321,1.321,0,0,0-.688-.193h-3.888a1,1,0,0,0-.571.18l-2.206,1.555h0a2.792,2.792,0,0,1-1.61.51.886.886,0,0,0-.635.264.929.929,0,0,0-.267.648V106h0a.841.841,0,0,0,.241.593l.928.949h0a.407.407,0,0,1,0,.571.389.389,0,0,1-.561,0l-.928-.949h0a1.642,1.642,0,0,1-.474-1.156v-1.24a1.741,1.741,0,0,1,.495-1.222,1.684,1.684,0,0,1,1.2-.508,2.009,2.009,0,0,0,1.161-.368l2.206-1.552a1.748,1.748,0,0,1,1.023-.317h3.888a2.116,2.116,0,0,1,1.092.307l3.512,2.137c1.029.119,5,.69,5,2.473V108a.4.4,0,0,1-.4.4Z" transform="translate(-69.387)"/>
    <path id="Path_13698" data-name="Path 13698" d="M177.081,272.734h-5.757a.373.373,0,1,1,0-.746h5.7a1.341,1.341,0,0,0-1.3-1.3,23.032,23.032,0,0,1-2.348-.169,9.315,9.315,0,0,1-1.608-.439,7.6,7.6,0,0,0-2.507-.529c-1.23,0-2.766,1.457-3.253,2.018a.365.365,0,0,1-.529.034.375.375,0,0,1-.034-.529c.09-.09,2.015-2.269,3.816-2.269a8.29,8.29,0,0,1,2.74.566,8.685,8.685,0,0,0,1.484.41,22.328,22.328,0,0,0,2.264.161,2.084,2.084,0,0,1,2.026,2.1.693.693,0,0,1-.7.7Z" transform="translate(-58.868 -160.064)"/>
    <path id="Path_13699" data-name="Path 13699" d="M109.311,296.989l-.114-.265-.312-.748-1.587-3.808-.312-.74-.265-.611h0a.365.365,0,0,0-.481-.2l-2.441,1.058h0a.373.373,0,0,0-.2.489l.4.963h0a.37.37,0,0,0,.489.2.376.376,0,0,0,.19-.484l-.262-.635,1.764-.754,2.116,5.043.188.45-1.761.751-1.439-3.438h0a.371.371,0,1,0-.685.283l1.587,3.787h0a.365.365,0,0,0,.2.2.342.342,0,0,0,.135.027.39.39,0,0,0,.146-.029l2.441-1.058h0a.373.373,0,0,0,.193-.476Z" transform="translate(0 -180.821)"/>
    <path id="Path_13700" data-name="Path 13700" d="M214.99,324.9h-.3l-7.164-.492a.4.4,0,0,1,.053-.793l7.164.481h0a3.605,3.605,0,0,0,1.523-.225l6.876-2.592a.114.114,0,0,0,.074-.093.108.108,0,0,0-.045-.106,2.772,2.772,0,0,0-2.645-.389l-2.909,1.074h0a2.1,2.1,0,0,1-1.365.029l-2.5-.5a.4.4,0,0,1,.153-.793l2.531.505h.05a1.28,1.28,0,0,0,.859,0l2.909-1.074h0a3.57,3.57,0,0,1,3.4.5.926.926,0,0,1-.227,1.6l-6.876,2.592a4.367,4.367,0,0,1-1.566.272Z" transform="translate(-98.755 -208.569)"/>
  </g>
</svg>
