<svg xmlns="http://www.w3.org/2000/svg" width="12.925" height="16.726" viewBox="0 0 12.925 16.726">
  <g id="noun-warranty-3004543" transform="translate(-159.602 -33.114)">
    <path id="Path_13684" data-name="Path 13684" d="M159.946,33.114a.394.394,0,0,0-.344.381V47.764a.4.4,0,0,0,.38.381h4.865a.381.381,0,1,0,0-.761h-4.484V33.875h11.4v3.044a.38.38,0,1,0,.76,0V33.495a.4.4,0,0,0-.38-.381h-12.2Zm1.9,1.712a.381.381,0,0,0,.036.761h8.363a.381.381,0,1,0,0-.761h-8.4Zm0,1.9a.381.381,0,0,0,.036.761h6.653a.381.381,0,1,0,0-.761h-6.688Zm10.258,1.326a.394.394,0,0,0-.339.386v8.942h-.184a.381.381,0,1,0,0,.761h.564a.4.4,0,0,0,.38-.381V38.441a.4.4,0,0,0-.422-.386Zm-10.258.577a.381.381,0,0,0,.036.761h8.179a.381.381,0,1,0,0-.761h-8.215Zm0,1.9a.381.381,0,0,0,.036.761h3.611a.381.381,0,1,0,0-.761h-3.647Zm6.308.381a2.854,2.854,0,1,0,2.851,2.854A2.858,2.858,0,0,0,168.155,40.915Zm0,.761a2.093,2.093,0,1,1-2.091,2.093A2.086,2.086,0,0,1,168.155,41.676Zm.915,1.136a.385.385,0,0,0-.25.131l-1.063,1.213-.475-.47a.38.38,0,1,0-.535.541l.76.761a.4.4,0,0,0,.558-.018l1.325-1.522a.381.381,0,0,0-.321-.636Zm-2.857,3.805a.394.394,0,0,0-.339.386v2.473a.4.4,0,0,0,.594.309l1.687-1.165,1.687,1.165a.4.4,0,0,0,.594-.309V47a.38.38,0,1,0-.76,0v1.748l-1.307-.91a.39.39,0,0,0-.428,0l-1.307.91V47a.4.4,0,0,0-.422-.386Z"/>
  </g>
</svg>
