<svg xmlns="http://www.w3.org/2000/svg" width="24.621" height="16.67" viewBox="0 0 24.621 16.67">
  <g id="Group_7876" data-name="Group 7876" transform="translate(23790.57 23445.916)">
    <g id="noun-car-price-5410606" transform="translate(-23917.844 -23575.137)">
      <path id="Path_13618" data-name="Path 13618" d="M185.286,243.25c-.607.033-1.09,1.177-1.071,1.877a.872.872,0,0,0,.9.948h2.41a.762.762,0,0,0,.691-.561,1.261,1.261,0,0,0-.16-1.3,7.438,7.438,0,0,0-2.763-.96h0Zm2.229,1.514a.78.78,0,0,1-.054.536h-2.35c-.085,0-.089-.014-.1-.063a1.771,1.771,0,0,1,.373-1.213A8.486,8.486,0,0,1,187.515,244.764Z" transform="translate(-53.793 -107.725)" fill="#212121"/>
      <path id="Path_13619" data-name="Path 13619" d="M287.737,303.61a.387.387,0,1,0,0,.774H291.2a.387.387,0,1,0,0-.774Z" transform="translate(-151.228 -164.749)" fill="#212121"/>
      <path id="Path_13620" data-name="Path 13620" d="M386.506,239.29a5.292,5.292,0,1,0,5.292,5.293A5.3,5.3,0,0,0,386.506,239.29Zm0,9.811a4.519,4.519,0,1,1,4.519-4.518A4.523,4.523,0,0,1,386.506,249.1Z" transform="translate(-239.903 -103.984)" fill="#212121"/>
      <path id="Path_13621" data-name="Path 13621" d="M138.243,140.81a49.449,49.449,0,0,1-7.206-.556c-1.059-.238-1.391-.983-1.606-2.189a4,4,0,0,1,.114-2.821,2.037,2.037,0,0,1,1.424-.718,50.637,50.637,0,0,1,7.274-.669,50.645,50.645,0,0,1,7.274.669c.1.016.194.043.289.065a5.482,5.482,0,0,1,1.559-.006,2.43,2.43,0,0,0-.806-.558.863.863,0,0,1,.628-.431,1.684,1.684,0,0,1,1.142.23.365.365,0,0,1,.11.293c0,.162-.208.363-.539.555a6.2,6.2,0,0,1,.922.282,1.173,1.173,0,0,0,.392-.837,1.15,1.15,0,0,0-.348-.853,2.281,2.281,0,0,0-1.711-.444,1.592,1.592,0,0,0-1.21.739c-.692-1.685-1.668-3.534-2.689-3.763a22.086,22.086,0,0,0-10.019,0c-.839.189-1.742,1.465-2.686,3.766a1.591,1.591,0,0,0-1.213-.742,2.282,2.282,0,0,0-1.712.444,1.148,1.148,0,0,0-.348.853c0,.666.645,1.128,1.3,1.426a6.444,6.444,0,0,0,.1,2.659,3.318,3.318,0,0,0,1.431,2.5v1.969a1.054,1.054,0,0,0,1.052,1.053H133.3a1.054,1.054,0,0,0,1.052-1.053v-1.248c1.791.122,3.52.159,3.887.159.26,0,1.206-.018,2.37-.073a5.861,5.861,0,0,1-.069-.769c-1.128.052-2.045.068-2.3.068ZM133.4,130.551a21.32,21.32,0,0,1,9.678,0c.519.118,1.31,1.329,2.072,3.138a50.173,50.173,0,0,0-6.911-.607,50.185,50.185,0,0,0-6.911.607c.762-1.808,1.554-3.021,2.072-3.138Zm-4.512,4.28c-.508-.234-.844-.5-.844-.713a.364.364,0,0,1,.11-.293,1.678,1.678,0,0,1,1.143-.23.859.859,0,0,1,.627.431,2.308,2.308,0,0,0-1.014.768c-.009.012-.014.026-.022.038Zm4.69,7.841a.28.28,0,0,1-.279.279h-2.151a.28.28,0,0,1-.279-.279v-1.662a22.074,22.074,0,0,0,2.709.357Z" fill="#212121"/>
      <g id="noun-rupee-1792817" transform="translate(144.719 138.349)">
        <path id="Path_13622" data-name="Path 13622" d="M192.227,58.769h-3.242a.262.262,0,1,1,0-.525h3.242a.262.262,0,1,1,0,.525Z" transform="translate(-188.721 -58.237)" fill="#212121"/>
        <path id="Path_13623" data-name="Path 13623" d="M192.227,170.769h-3.242a.262.262,0,1,1,0-.525h3.242a.262.262,0,1,1,0,.525Z" transform="translate(-188.721 -168.925)" fill="#212121"/>
        <path id="Path_13624" data-name="Path 13624" d="M189.937,60.626h-.952a.263.263,0,0,1,0-.525h.952a.945.945,0,0,0,0-1.89h-.952a.262.262,0,0,1,0-.525h.952a1.47,1.47,0,1,1,0,2.94Z" transform="translate(-188.722 -57.686)" fill="#212121"/>
        <path id="Path_13625" data-name="Path 13625" d="M191.261,266.476a.282.282,0,0,1-.184-.072l-2.35-2.264a.265.265,0,1,1,.368-.381l2.35,2.258a.267.267,0,0,1,.007.374.3.3,0,0,1-.19.085Z" transform="translate(-188.648 -261.271)" fill="#212121"/>
      </g>
    </g>
  </g>
</svg>
