<svg xmlns="http://www.w3.org/2000/svg" width="23.739" height="16.064" viewBox="0 0 23.739 16.064">
  <g id="noun-car-service-5453250" transform="translate(-75.9 -94.513)">
    <path id="Path_13683" data-name="Path 13683" d="M78.553,106.129a.285.285,0,0,0,.109-.021l.4-.164a.656.656,0,0,0,.379-.589.748.748,0,0,0-.226-.612l-.414-.4a.289.289,0,0,0-.2-.081l-1.583-.03h0a.29.29,0,0,0-.249.446l.584.9a.291.291,0,0,0,.128.108l.948.414a.289.289,0,0,0,.116.024Zm-.993-1.308.924.017.332.321a.172.172,0,0,1,.051.147.253.253,0,0,1-.028.105l-.283.115L77.8,105.2Zm11-4.559a.289.289,0,0,1,0,.408l-.875.875a.29.29,0,0,1-.408,0l-.393-.391a.289.289,0,0,1,.408-.408l.187.187.67-.67a.289.289,0,0,1,.41,0Zm.451,0h6.244a.289.289,0,0,1,0,.579H89.015a.289.289,0,0,1,0-.579Zm4.014,1.329a.289.289,0,0,1-.29.289H89.015a.289.289,0,1,1,0-.579H92.74A.29.29,0,0,1,93.029,101.587ZM86.687,97.3a.289.289,0,0,1,.291-.289h3.569a.289.289,0,0,1,0,.579H86.978a.289.289,0,0,1-.291-.289Zm0,.929a.289.289,0,0,1,.291-.289h5.034a.289.289,0,1,1,0,.579H86.978a.289.289,0,0,1-.291-.289Zm.291,1.219a.29.29,0,0,1,0-.579h5.034a.29.29,0,0,1,0,.579Zm1.588,3.287a.29.29,0,0,1,0,.408l-.875.875a.29.29,0,0,1-.408,0l-.394-.391a.289.289,0,0,1,.408-.408l.187.187.67-.67a.289.289,0,0,1,.41,0Zm.162,1.325h0a.29.29,0,0,1,.29-.29h3.724a.289.289,0,0,1,0,.579H89.016a.289.289,0,0,1-.289-.289Zm-.162,1.146h0a.289.289,0,0,1,0,.408l-.875.875h0a.29.29,0,0,1-.408,0l-.394-.391a.289.289,0,0,1,.408-.408l.187.187.67-.67a.29.29,0,0,1,.41,0Zm4.464,1.324a.29.29,0,0,1-.29.289H89.016a.289.289,0,1,1,0-.579H92.74A.29.29,0,0,1,93.03,106.527Zm6.609-1.365a2.983,2.983,0,0,0-2.743-2.97V97.475a.29.29,0,0,0-.085-.2L94.137,94.6a.288.288,0,0,0-.2-.085H86.266a.892.892,0,0,0-.891.891v.132H85.2a.892.892,0,0,0-.891.891v1.832H81.569a2.744,2.744,0,0,0-2.418,1.3l-.912,1.5-.7-.189a.589.589,0,0,0-.44.05l-.542.289a.582.582,0,0,0-.1.963l.365.3a.592.592,0,0,0,.214.114,4.852,4.852,0,0,0-1.088,1.606.286.286,0,0,0,.01.156l.357,1.024-.369.538a.29.29,0,0,0-.049.2l.166,1.32a.29.29,0,0,0,.186.235l.142.053.107.04v.381h0a.761.761,0,0,0,.7.809h1.824a.717.717,0,0,0,.661-.555h4.629v1.287a.893.893,0,0,0,.891.891h9.738a.892.892,0,0,0,.891-.891v-.132H96a.892.892,0,0,0,.891-.891v-.531a2.983,2.983,0,0,0,2.743-2.97ZM94.222,95.5l1.685,1.685H94.533a.312.312,0,0,1-.312-.312ZM78.17,102.235a24.109,24.109,0,0,0,6.143.592v1.426h-4.3c-.054,0-.145-.088-.233-.173a1.355,1.355,0,0,0-.7-.416,6.744,6.744,0,0,0-1.254-.077,6.114,6.114,0,0,1-.838-.035,16.123,16.123,0,0,1,1.183-1.319Zm1.477-2.377h0a2.177,2.177,0,0,1,1.923-1.021h2.744v3.411a23.522,23.522,0,0,1-5.8-.528Zm-2.439,2.177H77.2l0,0-.364-.3,0,0s0,0,.006,0l.542-.29h0l.007,0h.008l.536.146-.128.211c-.077.077-.158.161-.243.249Zm.13,4.665.113.057.082.763-.1-.036Zm-.257,1.444v-.168a8.619,8.619,0,0,0,1.367.4H77.2c-.041,0-.118-.09-.118-.231Zm1.624-.324h0a2.447,2.447,0,0,1-.569-.11l-.125-1.174h0a.289.289,0,0,0-.161-.23l-.733-.359a.29.29,0,0,0-.415.294l.119,1.023-.2-.077-.13-1.037.391-.568a.289.289,0,0,0,.035-.26l-.377-1.074a1.226,1.226,0,0,1,.089-.179,4.467,4.467,0,0,0,1.2.1,6.325,6.325,0,0,1,1.147.066.823.823,0,0,1,.4.264.929.929,0,0,0,.631.335h4.305v.092h-2.82a1.6,1.6,0,0,0-1.081.383l-.5.443h0a1.78,1.78,0,0,1-.63.259c-.544.153-1.367.387-1.146,1.477a.29.29,0,0,0,.284.232h5.9v.1Zm-.005-.84h5.613v.159H78.675a.482.482,0,0,1,.025-.159Zm1.237-.579a1.438,1.438,0,0,0,.284-.16h4.092v.16Zm.963-.738a1.066,1.066,0,0,1,.593-.16h2.82v.16Zm14.353,4.023a.312.312,0,0,1-.312.312H85.2a.312.312,0,0,1-.312-.312V96.427a.312.312,0,0,1,.312-.312h.171v12.548h0a.892.892,0,0,0,.891.891h8.987Zm.751-.711H86.266a.312.312,0,0,1-.312-.312V95.4a.312.312,0,0,1,.312-.312h7.377v1.782h0a.893.893,0,0,0,.89.891h1.782V102.2a2.96,2.96,0,0,0-1.373.526H89.016a.289.289,0,0,0,0,.579h5.314a2.964,2.964,0,0,0-.65,1.855v.037H89.016a.289.289,0,0,0,0,.579h4.726a2.986,2.986,0,0,0,2.573,2.344v.541h0a.313.313,0,0,1-.311.312Zm.654-1.412h0a2.4,2.4,0,1,1,1.7-.7,2.4,2.4,0,0,1-1.7.7Zm1.9-2.153-.258-.19V105.1l.258-.19h0a.412.412,0,0,0,.05-.619.881.881,0,0,1-.222-.383.411.411,0,0,0-.562-.266l-.294.128q-.049-.031-.1-.058l-.035-.319a.411.411,0,0,0-.51-.353.878.878,0,0,1-.443,0,.412.412,0,0,0-.51.353l-.036.318q-.051.027-.1.058l-.294-.128h0a.412.412,0,0,0-.562.267.877.877,0,0,1-.221.383.412.412,0,0,0,.05.62l.258.19v.116l-.258.19h0a.412.412,0,0,0-.051.619.883.883,0,0,1,.222.383.411.411,0,0,0,.562.267l.294-.128c.033.021.066.04.1.058l.036.318h0a.412.412,0,0,0,.51.353.882.882,0,0,1,.443,0,.41.41,0,0,0,.511-.353l.036-.318c.034-.018.067-.037.1-.058l.294.128a.411.411,0,0,0,.562-.266.881.881,0,0,1,.222-.383.412.412,0,0,0-.05-.619Zm-.847-.4h0a1.068,1.068,0,0,1,0,.306.289.289,0,0,0,.115.274l.244.18h0a1.475,1.475,0,0,0-.179.308l-.278-.121h0a.289.289,0,0,0-.3.038,1.05,1.05,0,0,1-.265.153.29.29,0,0,0-.18.237l-.034.3h0a1.47,1.47,0,0,0-.355,0l-.032-.3a.29.29,0,0,0-.18-.237,1.046,1.046,0,0,1-.264-.153.29.29,0,0,0-.3-.038l-.278.121h0a1.468,1.468,0,0,0-.179-.308l.244-.18h0a.289.289,0,0,0,.115-.274,1.044,1.044,0,0,1,0-.306.29.29,0,0,0-.115-.274l-.244-.179h0a1.468,1.468,0,0,0,.179-.308l.278.121h0a.29.29,0,0,0,.3-.038,1.063,1.063,0,0,1,.264-.153.29.29,0,0,0,.18-.236l.034-.3h0a1.486,1.486,0,0,0,.355,0l.034.3a.29.29,0,0,0,.18.236,1.053,1.053,0,0,1,.264.153.29.29,0,0,0,.3.038l.278-.121a1.459,1.459,0,0,0,.179.308l-.244.179h0a.289.289,0,0,0-.116.275Zm-1.049-.637a.791.791,0,1,0,.558.232.789.789,0,0,0-.558-.232Zm0,1a.211.211,0,1,1,.211-.211A.211.211,0,0,1,96.658,105.373Z" transform="translate(0 0)"/>
  </g>
</svg>
