<svg xmlns="http://www.w3.org/2000/svg" width="20.64" height="14.306" viewBox="0 0 20.64 14.306">
  <g id="Group_7875" data-name="Group 7875" transform="translate(23786.58 23444.734)">
    <g id="noun-car-4499666" transform="translate(-23786.58 -23444.734)">
      <path id="Path_13608" data-name="Path 13608" d="M478.54,397.839a.875.875,0,0,1-.872-.872v-1.331a.333.333,0,0,1,.666,0v1.331a.209.209,0,0,0,.063.146.2.2,0,0,0,.143.06h1.574a.213.213,0,0,0,.21-.213V395.4a.333.333,0,0,1,.666,0v1.568a.883.883,0,0,1-.855.876Z" transform="translate(-462.492 -383.533)" fill="#212121"/>
      <path id="Path_13609" data-name="Path 13609" d="M135.97,398.26a.876.876,0,0,1-.872-.872v-1.554a.333.333,0,0,1,.666,0v1.554a.209.209,0,0,0,.063.146.2.2,0,0,0,.147.06h1.571a.213.213,0,0,0,.21-.213v-1.3a.333.333,0,1,1,.666,0v1.3a.882.882,0,0,1-.872.879Z" transform="translate(-132.953 -383.954)" fill="#212121"/>
      <path id="Path_13610" data-name="Path 13610" d="M528.293,168.622a.333.333,0,1,1-.017-.666,3.906,3.906,0,0,0,2.2-.519h0a.127.127,0,0,0,.043-.107.243.243,0,0,0-.1-.183,2.335,2.335,0,0,0-1.478-.2v.183a.8.8,0,0,1-.8.8h-.186a.333.333,0,1,1,0-.666h.186a.13.13,0,0,0,.093-.04.123.123,0,0,0,.04-.093v-.206a.636.636,0,0,1,.579-.639,2.954,2.954,0,0,1,2,.349.921.921,0,0,1,.333.639.792.792,0,0,1-.2.6,4.349,4.349,0,0,1-2.663.746Z" transform="translate(-510.548 -163.433)" fill="#212121"/>
      <path id="Path_13611" data-name="Path 13611" d="M81.624,168.621a4.28,4.28,0,0,1-2.663-.749.782.782,0,0,1-.233-.6.932.932,0,0,1,.333-.639,2.929,2.929,0,0,1,2-.349.639.639,0,0,1,.579.639v.206a.133.133,0,0,0,.13.133h.183a.333.333,0,1,1,0,.666h-.183a.8.8,0,0,1-.8-.8v-.183a2.247,2.247,0,0,0-1.478.2.243.243,0,0,0-.1.183.127.127,0,0,0,.043.107,3.906,3.906,0,0,0,2.2.519h0a.333.333,0,1,1-.013.666Z" transform="translate(-78.727 -163.432)" fill="#212121"/>
      <path id="Path_13612" data-name="Path 13612" d="M115.275,104.418a1.528,1.528,0,0,1-1.484-1.138,11.432,11.432,0,0,1-.389-2.5,9.894,9.894,0,0,1,0-1.042,3.992,3.992,0,0,1,.5-1.621l.892-1.664c.476-1.1,1.691-3.758,2.4-4.068a10.214,10.214,0,0,1,2.779-.333c1.022-.053,2-.08,2.383-.09h.037a30.388,30.388,0,0,1,5.169.393c.732.333,2.044,3.209,2.43,4.084l.885,1.638h0a4,4,0,0,1,.476,1.634,9.6,9.6,0,0,1,0,1.122,11.346,11.346,0,0,1-.366,2.42,1.541,1.541,0,0,1-1.491,1.145l-14.223.023Zm7.113-11.793c-.379,0-1.358.037-2.373.09a10.732,10.732,0,0,0-2.543.266,14.409,14.409,0,0,0-2.074,3.748l-.915,1.691a3.362,3.362,0,0,0-.4,1.358,9.616,9.616,0,0,0,0,.975,10.728,10.728,0,0,0,.346,2.353.869.869,0,0,0,.842.642l14.226-.023a.868.868,0,0,0,.845-.646,10.913,10.913,0,0,0,.333-2.28,8.353,8.353,0,0,0,0-1.045,3.329,3.329,0,0,0-.4-1.365l-.9-1.664a14.77,14.77,0,0,0-2.1-3.768,29.744,29.744,0,0,0-4.9-.333Z" transform="translate(-112.069 -91.96)" fill="#212121"/>
      <path id="Path_13613" data-name="Path 13613" d="M253.936,279.251c-.263,0-.526,0-.785-.02l-2.36-.12h0a1.065,1.065,0,0,1,.116-2.127c.925.043,1.884.077,2.852.1.862,0,1.734-.037,2.58-.067a1.074,1.074,0,0,1,.073,2.147l-1.811.07c-.216.01-.443.017-.666.017Zm-3.089-1.6h0a.39.39,0,0,0-.273.106.413.413,0,0,0-.126.29.4.4,0,0,0,.379.4l2.356.12a13.943,13.943,0,0,0,1.4,0l1.8-.08h0a.4.4,0,0,0,.256-.686.386.386,0,0,0-.293-.113c-.849.03-1.724.053-2.606.063-1-.02-1.95-.053-2.879-.1Z" transform="translate(-243.284 -269.945)" fill="#212121"/>
      <path id="Path_13614" data-name="Path 13614" d="M465.59,270.767a.959.959,0,0,1-.632-.243.973.973,0,0,1-.333-.719v-.619a.959.959,0,0,1,.905-.939l1.638-.117a.952.952,0,0,1,.922.533.935.935,0,0,1-.14,1.055,3.516,3.516,0,0,1-2.253,1.052Zm1.624-2-1.624.143a.289.289,0,0,0-.269.29v.619a.3.3,0,0,0,.1.22.276.276,0,0,0,.22.07,2.856,2.856,0,0,0,1.827-.832.29.29,0,0,0-.236-.479Z" transform="translate(-449.946 -261.428)" fill="#212121"/>
      <path id="Path_13615" data-name="Path 13615" d="M144.214,268.834H144.1a3.518,3.518,0,0,1-2.243-1.072.932.932,0,0,1-.13-1.068.945.945,0,0,1,.929-.523l1.634.126h0a.959.959,0,0,1,.879.959v.619a.968.968,0,0,1-.333.716.952.952,0,0,1-.619.243Zm-1.641-2a.29.29,0,0,0-.216.479,2.856,2.856,0,0,0,1.824.845.286.286,0,0,0,.22-.067.309.309,0,0,0,.1-.22v-.616a.286.286,0,0,0-.266-.29l-1.634-.13h-.027Z" transform="translate(-139.221 -259.541)" fill="#212121"/>
      <path id="Path_13616" data-name="Path 13616" d="M273.518,367.376h-5.605a.333.333,0,1,1,0-.666h5.605a.333.333,0,1,1,0,.666Z" transform="translate(-260.396 -356.259)" fill="#212121"/>
      <path id="Path_13617" data-name="Path 13617" d="M200.214,126.887a.333.333,0,0,1-.316-.469l1.132-2.52a.719.719,0,0,1,.622-.416l3.928-.11,3.934.1a.712.712,0,0,1,.626.416l1.138,2.513a.333.333,0,0,1-.3.469l-10.764.02Zm5.365-2.849-3.9.11a.04.04,0,0,0-.037.023l-.919,2.05,9.732-.017-.925-2.047h0a.046.046,0,0,0-.037-.023Z" transform="translate(-195.26 -122.177)" fill="#212121"/>
    </g>
  </g>
</svg>
