<svg xmlns="http://www.w3.org/2000/svg" width="18.153" height="18.187" viewBox="0 0 18.153 18.187">
  <g id="noun-car-loan-4831108" transform="translate(-70.001)">
    <path id="Path_13685" data-name="Path 13685" d="M223,8.509a4.255,4.255,0,1,0-4.255-4.255A4.26,4.26,0,0,0,223,8.509Zm0-7.942a3.687,3.687,0,1,1-3.687,3.687A3.692,3.692,0,0,1,223,.567Z" transform="translate(-143.927)"/>
    <path id="Path_13686" data-name="Path 13686" d="M362.181,142.53a.895.895,0,1,0,.895.895A.9.9,0,0,0,362.181,142.53Zm0,1.222a.327.327,0,1,1,.327-.327A.328.328,0,0,1,362.181,143.752Z" transform="translate(-281.842 -137.91)"/>
    <path id="Path_13687" data-name="Path 13687" d="M284.417,66.567a.895.895,0,1,0-.895-.895A.9.9,0,0,0,284.417,66.567Zm0-1.222a.327.327,0,1,1-.327.327A.328.328,0,0,1,284.417,65.345Z" transform="translate(-206.599 -62.678)"/>
    <path id="Path_13688" data-name="Path 13688" d="M283.813,69.088a.283.283,0,0,0,.2-.083l3.742-3.742a.284.284,0,1,0-.4-.4L283.612,68.6a.284.284,0,0,0,.2.484Z" transform="translate(-206.606 -62.679)"/>
    <path id="Path_13689" data-name="Path 13689" d="M155.4,328.71h-.427a1.364,1.364,0,0,0-1.362,1.362v.2a1.364,1.364,0,0,0,1.362,1.362H157a.284.284,0,0,0,.235-.443l-1.6-2.355a.284.284,0,0,0-.235-.124Zm-.427,2.355a.8.8,0,0,1-.795-.795v-.2a.8.8,0,0,1,.795-.795h.277l1.216,1.788h-1.493Z" transform="translate(-80.894 -318.054)"/>
    <path id="Path_13690" data-name="Path 13690" d="M433.057,331.48a.284.284,0,0,0,.251.151h2.029a1.364,1.364,0,0,0,1.362-1.362v-.2a1.364,1.364,0,0,0-1.362-1.362h-.428a.284.284,0,0,0-.235.124l-1.6,2.356a.283.283,0,0,0-.016.292Zm2-2.2h.277a.8.8,0,0,1,.795.795v.2a.8.8,0,0,1-.795.795h-1.493l1.216-1.788Z" transform="translate(-351.255 -318.052)"/>
    <path id="Path_13691" data-name="Path 13691" d="M250.1,328.71h-5.625a.629.629,0,0,0-.52.982l.983,1.445a1.132,1.132,0,0,0,.937.5H248.7a1.132,1.132,0,0,0,.937-.5l.983-1.445a.629.629,0,0,0-.52-.982Zm.051.663-.983,1.445a.565.565,0,0,1-.468.247h-2.826a.565.565,0,0,1-.468-.247l-.983-1.445a.061.061,0,0,1,.051-.1H250.1a.061.061,0,0,1,.051.1Z" transform="translate(-168.207 -318.054)"/>
    <path id="Path_13692" data-name="Path 13692" d="M87.241,190.838h-1a.909.909,0,0,0-.716.347l-.692.875-.035-.034-.642-2.213a1.428,1.428,0,0,0-.231-.461.284.284,0,0,0-.453.341.863.863,0,0,1,.14.278l.559,1.926H82.621a.284.284,0,1,0,0,.567h1.819l1.107,1.075a1.821,1.821,0,0,1,.549,1.3v2.152H75.674a.284.284,0,1,0,0,.567h10.42v.953a.228.228,0,0,1-.227.227H72.289a.228.228,0,0,1-.227-.227v-.953h2.487a.284.284,0,1,0,0-.567H72.062v-2.152a1.821,1.821,0,0,1,.549-1.3l1.107-1.075h7.769a.284.284,0,1,0,0-.567h-7.5l.559-1.926a.862.862,0,0,1,.14-.278.284.284,0,0,0-.454-.341,1.425,1.425,0,0,0-.231.461l-.642,2.213-.035.034-.692-.875a.909.909,0,0,0-.716-.347h-1a.915.915,0,0,0-.913.913v.737a.915.915,0,0,0,.913.913h1.063a2.393,2.393,0,0,0-.483,1.437v5.606a.847.847,0,0,0,.846.846h1.145a.847.847,0,0,0,.846-.846v-1.14h9.494v1.14a.847.847,0,0,0,.846.846h1.145a.847.847,0,0,0,.846-.846v-5.606a2.394,2.394,0,0,0-.483-1.437h1.063a.915.915,0,0,0,.913-.913v-.737a.915.915,0,0,0-.913-.913Zm-16.326,2a.347.347,0,0,1-.346-.346v-.737a.347.347,0,0,1,.346-.346h1a.344.344,0,0,1,.271.131l.728.92-.389.378Zm2.849,7.61a.279.279,0,0,1-.278.278H72.34a.279.279,0,0,1-.278-.278v-1.173a.792.792,0,0,0,.227.033h1.475v1.14Zm12.052.278H84.671a.279.279,0,0,1-.278-.278v-1.14h1.475a.792.792,0,0,0,.227-.033v1.173a.279.279,0,0,1-.278.278Zm1.771-8.235a.347.347,0,0,1-.346.346H85.634l-.389-.378.728-.92a.344.344,0,0,1,.271-.131h1a.347.347,0,0,1,.346.346Z" transform="translate(0 -183.104)"/>
  </g>
</svg>
