<svg xmlns="http://www.w3.org/2000/svg" width="45.172" height="48" viewBox="0 0 45.172 48">
  <g id="Group_6901" data-name="Group 6901" transform="translate(-190.964 -1964)">
    <path id="noun-bank-5364917" d="M120.574,45.5h5.35V43.685h-5.35Zm11.363-8.938a3.522,3.522,0,1,1,1.033,2.487A3.508,3.508,0,0,1,131.937,36.558ZM134.1,35.2a1.924,1.924,0,1,0,1.357-.56A1.917,1.917,0,0,0,134.1,35.2Zm-20.429,35.84h1.627V68.431a.8.8,0,0,1,.8-.8h2.879V65.02a.8.8,0,0,1,.8-.8h1.146A55.255,55.255,0,0,1,120.9,47.1h-1.123a.8.8,0,0,1-.8-.8V43.6h-5.305a.8.8,0,0,1-.8-.8V39.385a.8.8,0,0,1,.8-.8h.879v-2a.8.8,0,0,1,.586-.771L135.169,28.1a.8.8,0,0,1,.568,0l20.108,7.739a.8.8,0,0,1,.512.744l0,2h.88a.8.8,0,0,1,.8.8V42.8a.8.8,0,0,1-.8.8h-4.87v2.7a.8.8,0,0,1-.8.8h-1.122a55.256,55.256,0,0,1-.023,17.122h1.146a.8.8,0,0,1,.8.8v2.611h2.443a.8.8,0,0,1,.8.8v2.611h1.627a.8.8,0,0,1,.8.8v3.411a.8.8,0,0,1-.8.8H113.668a.8.8,0,0,1-.8-.8V71.842a.8.8,0,0,1,.8-.8Zm3.227,0h37.118V69.231H116.9Zm39.545,1.6H114.468v1.81H156.44ZM143.819,43.6h-16.3v2.7a.8.8,0,0,1-.8.8H125.6a55.316,55.316,0,0,1-.023,17.122h1.145a.8.8,0,0,1,.8.8V67.63h16.3V65.019a.8.8,0,0,1,.8-.8h1.146a55.316,55.316,0,0,1-.023-17.122h-1.123a.8.8,0,0,1-.8-.8Zm-29.351-3.411V42h41.971V40.184H141.294a.8.8,0,1,1,0-1.6H154.76V37.132L135.453,29.7l-19.306,7.431v1.452h13.465a.8.8,0,0,1,0,1.6ZM145.42,45.5h5.35V43.686h-5.35Zm3.412,1.6h-1.473a54.09,54.09,0,0,0,.02,17.108l0,.015h1.427l0-.015a54.044,54.044,0,0,0,.021-17.108Zm-26.32,0a54.046,54.046,0,0,0,.021,17.108l0,.015h1.427l0-.015a54.089,54.089,0,0,0,.02-17.108ZM145.42,67.63h5.351V65.82H145.42Zm-19.5-1.811h-5.35v1.81h5.35Z" transform="translate(78.096 1935.948)" fill="#191970"/>
    <path id="Path_13490" data-name="Path 13490" d="M268.854,170.33h-6.633l-.891,1.089h1.584a2.756,2.756,0,0,1,2.277.99h-2.97l-.891,1.089h4.158c-.1.99-1.287,1.782-2.871,1.782h-.99v.99l3.96,4.851h1.683l-4.059-4.95c1.881-.1,3.366-1.188,3.564-2.673h1.287l.594-1.089h-2.079a2.263,2.263,0,0,0-.693-.99h2.079Z" transform="translate(-51.543 1815.681)" fill="#191970"/>
  </g>
</svg>
