<svg xmlns="http://www.w3.org/2000/svg" width="37.234" height="37.234" viewBox="0 0 37.234 37.234">
  <g id="noun-bonus-2841996" transform="translate(-75.35 -17.5)">
    <path id="Path_12982" data-name="Path 12982" d="M315,122.5h1.241v1.241H315Z" transform="translate(-223.515 -97.553)" fill="#191970"/>
    <path id="Path_12983" data-name="Path 12983" d="M490,122.5h1.241v1.241H490Z" transform="translate(-386.104 -97.553)" fill="#191970"/>
    <path id="Path_12984" data-name="Path 12984" d="M315,490h1.241v1.241H315Z" transform="translate(-223.515 -438.989)" fill="#191970"/>
    <path id="Path_12985" data-name="Path 12985" d="M490,490h1.241v1.241H490Z" transform="translate(-386.104 -438.989)" fill="#191970"/>
    <path id="Path_12986" data-name="Path 12986" d="M366.2,248.723a3.727,3.727,0,1,0-1.092,2.632A3.724,3.724,0,0,0,366.2,248.723Zm-6.206,0a2.482,2.482,0,1,1,.727,1.755A2.483,2.483,0,0,1,359.991,248.723Z" transform="translate(-264.162 -211.365)" fill="#191970"/>
    <path id="Path_12987" data-name="Path 12987" d="M124.114,17.5H105.5a.621.621,0,0,0-.621.621v1.862h-1.862a.621.621,0,0,0-.621.621v1.862h-.621a.621.621,0,0,0-.621.621V33.1a3.391,3.391,0,0,0-3.613.594l-4.072,3.664h-.382v-.621a.62.62,0,0,0-.621-.621H87.5v1.241h4.344v11.17H87.5V49.77h4.965a.62.62,0,0,0,.621-.621v-.621h3.723a3.73,3.73,0,0,0,3.672-3.1h.672v8.688a.62.62,0,0,0,.621.621h17.376a.62.62,0,0,0,.621-.621v-.621h1.862a.62.62,0,0,0,.621-.621V51.011h1.862a.62.62,0,0,0,.621-.621V18.121a.62.62,0,0,0-.621-.621Zm-24.2,26.684a.621.621,0,0,0-.621.621,2.482,2.482,0,0,1-2.482,2.482H93.085V38.6h.621a.621.621,0,0,0,.415-.16l4.249-3.823h0a2.147,2.147,0,0,1,2.783-.072v5.916H99.912V41.7h6.206a1.241,1.241,0,1,1,0,2.482Zm18.617,9.309H102.394V45.426h3.723a2.482,2.482,0,1,0,0-4.965h-3.723V23.706h16.135Zm2.482-1.241H119.77V23.085a.62.62,0,0,0-.621-.621H103.635V21.223h17.376Zm2.482-2.482h-1.241V20.6a.62.62,0,0,0-.621-.621H106.117V18.741h17.376Z" transform="translate(-12.15)" fill="#191970"/>
    <path id="Path_12988" data-name="Path 12988" d="M113.75,420h1.241v1.241H113.75Z" transform="translate(-36.538 -373.954)" fill="#191970"/>
    <path id="Path_12989" data-name="Path 12989" d="M325.55,149.8H318.1a.621.621,0,0,1-.621-.621,1.861,1.861,0,0,0-1.862-1.862A.621.621,0,0,1,315,146.7v-2.482h1.241v1.924a3.111,3.111,0,0,1,2.42,2.42h6.33a3.112,3.112,0,0,1,2.42-2.42V126.158a3.112,3.112,0,0,1-2.42-2.42h-6.33a3.112,3.112,0,0,1-2.42,2.42v10.611H315V125.6a.621.621,0,0,1,.621-.621,1.861,1.861,0,0,0,1.862-1.862.621.621,0,0,1,.621-.621h7.447a.62.62,0,0,1,.621.621,1.862,1.862,0,0,0,1.862,1.862.621.621,0,0,1,.621.621v21.1a.621.621,0,0,1-.621.621,1.861,1.861,0,0,0-1.862,1.862.62.62,0,0,1-.621.621Z" transform="translate(-223.515 -97.549)" fill="#191970"/>
  </g>
</svg>
