<svg id="noun-secure-transaction-4588410" xmlns="http://www.w3.org/2000/svg" width="40.898" height="39.971" viewBox="0 0 40.898 39.971">
  <path id="Path_97" data-name="Path 97" d="M145.859,338.512a2.52,2.52,0,0,0-.272-.116,1.777,1.777,0,0,0-.4-1.232c-1.528-1.706-5.8.633-7.172,1.232a2.78,2.78,0,0,0-1.422-.829c-2.159-.569-4.4-1.188-7.026-1.838a33.592,33.592,0,0,0-6.75-1.056c-3.2.069-7.344,2.1-8.765,2.844l-.119-.443a1.24,1.24,0,0,0-1.59-.728l-5.324,1.391a1.242,1.242,0,0,0-1.027,1.422l2.782,10.412a1.255,1.255,0,0,0,1.59.729l5.325-1.391a1.244,1.244,0,0,0,1.029-1.422l-.4-1.5c1.858-.6,1.942-.576,4.277.209,2.712.84,9.419,3.223,11.552,3.369,2.483,0,5.148-2,8.278-4.031,1.159-.734,2.308-1.476,3.372-2.275,1.782-1.309,3.318-2.44,3.027-3.587h0a1.809,1.809,0,0,0-.964-1.161Zm-2.816-.781c.764-.095,1.355-.067,1.4.495-1.881-.006-5.35,2-5.994,2.439a2.308,2.308,0,0,0,.08-1.25A19.581,19.581,0,0,1,143.043,337.731ZM115.4,347.809l-5.325,1.389a.464.464,0,0,1-.223.009l-2.745-10.268a.458.458,0,0,1,.2-.1l5.326-1.391h0a.459.459,0,0,1,.222-.008l2.745,10.268a.469.469,0,0,1-.2.1Zm29.67-7a43.85,43.85,0,0,1-5.259,3.768c-2.537,1.611-5.891,4.171-8.041,3.824-1.5-.249-7.936-2.319-10.817-3.282-2.566-.862-2.85-.9-4.929-.229l-1.67-6.233c1.057-.569,5.372-2.772,8.487-2.844,2.959-.061,10.149,1.971,13.469,2.859.829.219,1.226.737,1.107,1.458a1.3,1.3,0,0,1-1.555.993c-1.679-.244-8.4-1.165-8.468-1.174a.569.569,0,0,0-.154,1.127l2.13.293c1.611.353,2.958,1.736,4.211,2.821h0a.569.569,0,0,0,.71.025,45.859,45.859,0,0,1,4.786-2.6,20.528,20.528,0,0,1,3.818-1.9,4.144,4.144,0,0,1,1.879-.339h0a.554.554,0,0,0,.182.026c.322.056.691.243.758.552,0,0,.025.232-.646.857Zm-9.684,1.4a15.51,15.51,0,0,0-1.4.831c-.464-.411-.917-.823-1.422-1.225C133.7,341.966,134.739,342.111,135.389,342.2Z" transform="translate(-105.962 -310.386)" fill="#191970"/>
  <path id="Path_98" data-name="Path 98" d="M314.567,134a7.23,7.23,0,0,1,1.97-6.567.569.569,0,0,0-.8-.8,8.364,8.364,0,0,0-2.28,7.6.569.569,0,0,0,1.115-.227Z" transform="translate(-295.313 -120.221)" fill="#191970"/>
  <path id="Path_100" data-name="Path 100" d="M305.48,58.87V56.338a1.1,1.1,0,0,0-.686-1.015,11.041,11.041,0,0,0-8.609,0h0a1.1,1.1,0,0,0-.682.929,11.24,11.24,0,1,0,7.057,8.574h0a7.528,7.528,0,0,0,2.92-5.956Zm-8.844-2.5a9.923,9.923,0,0,1,7.706,0v2.5a6.389,6.389,0,0,1-3.853,5.868,6.387,6.387,0,0,1-3.852-5.869Zm4.95,10.385c-.555,13.4-19.652,13.4-20.2,0A10.143,10.143,0,0,1,295.5,57.478c0,.421-.016,1.57.022,1.972a8.4,8.4,0,0,0-7.6-.259.569.569,0,1,0,.482,1.031,7.239,7.239,0,0,1,7.394.767,7.528,7.528,0,0,0,2.631,3.85,7.231,7.231,0,0,1-13.354,5.308.569.569,0,1,0-1,.533c4.481,8.158,16.778,4.214,15.683-5.03.718.4,1.085.211,1.754-.147a10.248,10.248,0,0,1,.079,1.248Z" transform="translate(-265.136 -54.449)" fill="#191970"/>
  <path id="Path_101" data-name="Path 101" d="M490.946,90a.569.569,0,0,0,.93.1l3.063-3.533a.569.569,0,0,0-.86-.745l-2.522,2.91-.758-1.4a.568.568,0,0,0-1,.538Z" transform="translate(-456.467 -82.924)" fill="#191970"/>
  <path id="Path_102" data-name="Path 102" d="M3.679-9.161v.054a.867.867,0,0,1,.43.86v.269H5.386q.215,0,.215.188v.417q0,.2-.215.2H4.109v.215A1.894,1.894,0,0,1,3.578-5.5a2.01,2.01,0,0,1-1.432.5H1.729L4.082-1.941a.358.358,0,0,1,.067.161.166.166,0,0,1-.188.188H3.4a.329.329,0,0,1-.242-.148L.976-4.644.64-5.007v-.578q0-.229.255-.229H2.038A1,1,0,0,0,3.181-6.943v-.229H.855q-.215,0-.215-.2V-7.79q0-.188.215-.188H3.181v-.3a.784.784,0,0,0-.887-.887H.855q-.215,0-.215-.2V-9.78q0-.188.215-.188H5.386q.215,0,.215.2v.4q0,.2-.215.2Z" transform="translate(23.295 18.148)" fill="#191970"/>
</svg>
