<svg xmlns="http://www.w3.org/2000/svg" width="54.673" height="55.711" viewBox="0 0 54.673 55.711">
  <g id="Group_749" data-name="Group 749" transform="translate(-793 -706)">
    <g id="Group_1255" data-name="Group 1255">
      <circle id="Ellipse_14" data-name="Ellipse 14" cx="27.336" cy="27.336" r="27.336" transform="translate(793 706)" fill="#191970"/>
      <g id="noun-verify-mobile-344017" transform="translate(710.242 645.665)">
        <path id="Path_6907" data-name="Path 6907" d="M302.45,226.2a6.259,6.259,0,1,1-6.259,6.259A6.259,6.259,0,0,1,302.45,226.2Zm3.795,4.88-4.138,4.138a.477.477,0,0,1-.35.145.469.469,0,0,1-.343-.145l-2.759-2.759a.464.464,0,0,1-.137-.343.476.476,0,0,1,.137-.349l.694-.686a.479.479,0,0,1,.686,0l1.722,1.722,3.109-3.1a.477.477,0,0,1,.686,0l.694.686a.474.474,0,0,1,.137.349.466.466,0,0,1-.137.343h0Z" transform="translate(-205.616 -141.268)" fill="#fff" fill-rule="evenodd"/>
        <path id="Path_6908" data-name="Path 6908" d="M253.529,66.336H232.613A3.619,3.619,0,0,0,229,69.959v42.47a3.618,3.618,0,0,0,3.616,3.618h20.917a3.621,3.621,0,0,0,3.619-3.618V69.959a3.623,3.623,0,0,0-3.619-3.623Zm.907,40.276H231.709V72.447h22.727Zm-6.515-36.6h-9.7V68.954h9.7v1.057Zm.006,41.682h-9.721v-1.445h9.721Z" transform="translate(-146.237 0)" fill="#fff" fill-rule="evenodd"/>
      </g>
    </g>
  </g>
</svg>
