<svg id="noun-car-service-4351497" xmlns="http://www.w3.org/2000/svg" width="96.001" height="96" viewBox="0 0 96.001 96">
  <path id="Path_13569" data-name="Path 13569" d="M212,105.967a36,36,0,1,0-69.123,14.1,11.1,11.1,0,0,1,2.434-1.986,33,33,0,1,1,61.376,0,11.1,11.1,0,0,1,2.434,1.986,35.794,35.794,0,0,0,2.879-14.1Z" transform="translate(-127.996 -57.967)" fill="#fff"/>
  <path id="Path_13570" data-name="Path 13570" d="M163,42.754l-1.826-.021a43.158,43.158,0,0,0-1.264-6.406l1.673-.693a3,3,0,0,0,1.625-3.92l-1.722-4.157h0a3,3,0,0,0-3.92-1.625l-1.693.678h0a43.461,43.461,0,0,0-3.631-5.424l1.29-1.29a3,3,0,0,0,0-4.242l-3.182-3.182h0a3,3,0,0,0-4.243,0L144.8,13.746h0a43.283,43.283,0,0,0-5.429-3.624l.7-1.686a3,3,0,0,0-1.624-3.92L134.289,2.8a3.007,3.007,0,0,0-3.92,1.624l-.714,1.665a43.247,43.247,0,0,0-6.407-1.256V3a3,3,0,0,0-3-3h-4.5a3,3,0,0,0-3,3l-.021,1.826a43.157,43.157,0,0,0-6.406,1.264l-.693-1.673a3,3,0,0,0-3.92-1.625L97.552,4.518a3,3,0,0,0-1.625,3.92l.678,1.693h0a43.459,43.459,0,0,0-5.424,3.631l-1.29-1.29a3,3,0,0,0-4.242,0l-3.182,3.182h0a3,3,0,0,0,0,4.243L83.741,21.2h0a43.282,43.282,0,0,0-3.624,5.429l-1.686-.7a3,3,0,0,0-3.92,1.624l-1.722,4.158a3,3,0,0,0,1.624,3.92l1.665.714a43.248,43.248,0,0,0-1.256,6.407H73a3,3,0,0,0-3,3v4.5a3,3,0,0,0,3,3l1.826.021a43.273,43.273,0,0,0,1.264,6.406l-1.673.693a3,3,0,0,0-1.625,3.92l1.722,4.157h0a3,3,0,0,0,3.92,1.625l1.693-.678c.579,1.025,1.207,2.029,1.872,3.009v-3a10.769,10.769,0,0,1,.218-2.144,2.994,2.994,0,0,0-3.246-.654l-1.685.7-1.722-4.157,1.673-.693h0a3.015,3.015,0,0,0,1.736-3.592A40.509,40.509,0,0,1,77.8,52.918a3.011,3.011,0,0,0-2.979-2.664H73v-4.5h1.826A3.013,3.013,0,0,0,77.8,43.091a40.51,40.51,0,0,1,1.169-5.943,3.017,3.017,0,0,0-1.735-3.593l-1.674-.693L77.284,28.7l1.686.7a3.012,3.012,0,0,0,3.768-1.315A40.629,40.629,0,0,1,86.1,23.052a3.013,3.013,0,0,0-.224-3.986l-1.29-1.29,3.182-3.182,1.29,1.29h0a3.013,3.013,0,0,0,3.986.226,40.618,40.618,0,0,1,5.036-3.366A3.015,3.015,0,0,0,99.4,8.975L98.7,7.29l4.157-1.722.693,1.673h0a3.016,3.016,0,0,0,3.592,1.735,40.5,40.5,0,0,1,5.943-1.169,3.011,3.011,0,0,0,2.664-2.979V3h4.5V4.829a3.013,3.013,0,0,0,2.663,2.979,40.506,40.506,0,0,1,5.943,1.169,3.012,3.012,0,0,0,3.593-1.735l.693-1.674L137.3,7.289l-.7,1.686a3.014,3.014,0,0,0,1.315,3.768,40.634,40.634,0,0,1,5.036,3.365,3.013,3.013,0,0,0,3.986-.224l1.29-1.29,3.182,3.182-1.29,1.29h0a3.013,3.013,0,0,0-.226,3.986,40.612,40.612,0,0,1,3.366,5.036,3.013,3.013,0,0,0,3.768,1.314l1.685-.7,1.722,4.157-1.673.693h0a3.016,3.016,0,0,0-1.735,3.592,40.507,40.507,0,0,1,1.169,5.943,3.011,3.011,0,0,0,2.979,2.664H163v4.5h-1.826a3.013,3.013,0,0,0-2.979,2.663,40.506,40.506,0,0,1-1.169,5.943,3.014,3.014,0,0,0,1.735,3.592l1.674.693L158.714,67.3l-1.686-.7h0a3,3,0,0,0-3.246.654A10.775,10.775,0,0,1,154,69.4v3c.665-.982,1.3-1.991,1.88-3.03l1.685.7a3,3,0,0,0,3.92-1.624l1.723-4.159h0a3,3,0,0,0-1.624-3.92l-1.665-.714a43.25,43.25,0,0,0,1.256-6.407H163a3,3,0,0,0,3-3v-4.5a3,3,0,0,0-3-3Z" transform="translate(-69.998 -0.004)" fill="#fff"/>
  <path id="Path_13571" data-name="Path 13571" d="M219,188.959v-2.606a4.743,4.743,0,0,0,4.5-4.685v-14.4a7.963,7.963,0,0,0-6.47-7.741l-3.942-8.48c-.017-.037-.036-.073-.056-.109-2.231-3.93-6.446-6.571-10.489-6.571h-6.91v-3.158a13.094,13.094,0,0,0,.408-22.805,2.25,2.25,0,0,0-2.251.031,2.383,2.383,0,0,0-1.157,2.05v9.009h-4.27v-9.01a2.387,2.387,0,0,0-1.158-2.053,2.243,2.243,0,0,0-2.242-.033,12.941,12.941,0,0,0-6.447,11.988,12.77,12.77,0,0,0,6.848,10.81v3.169h-6.911c-4.043,0-8.257,2.641-10.488,6.571-.02.035-.038.071-.056.108l-3.941,8.48a7.963,7.963,0,0,0-6.47,7.741v14.4a4.743,4.743,0,0,0,4.5,4.686v2.605a4.961,4.961,0,0,0,5,4.909h3.5a4.962,4.962,0,0,0,5-4.909v-2.591h30v2.591a4.962,4.962,0,0,0,5,4.909H214a4.962,4.962,0,0,0,5-4.909Zm-37.487-58.72a10.059,10.059,0,0,1,3.852-8.532v8.424a2.34,2.34,0,0,0,2.308,2.364h5.653a2.34,2.34,0,0,0,2.308-2.364V121.7A9.943,9.943,0,0,1,199.5,129.7a9.761,9.761,0,0,1-5.916,9.144,1.5,1.5,0,0,0-.949,1.4v4.128h-4.27V140.23a1.5,1.5,0,0,0-.944-1.393,9.818,9.818,0,0,1-5.908-8.6ZM170.6,152.368c1.7-2.947,4.916-5,7.85-5h24.091c2.934,0,6.155,2.054,7.851,5l3.253,7h-46.3Zm1.9,36.59a1.959,1.959,0,0,1-2,1.909H167a1.958,1.958,0,0,1-2-1.909v-2.591h7.5Zm-10.207-5.591a1.75,1.75,0,0,1-1.793-1.7v-14.4a5,5,0,0,1,5.087-4.9h49.826a5,5,0,0,1,5.087,4.9v14.4a1.75,1.75,0,0,1-1.793,1.7ZM216,188.959a1.959,1.959,0,0,1-2,1.909h-3.5a1.959,1.959,0,0,1-2-1.909v-2.591H216Z" transform="translate(-142.498 -97.868)" fill="#fff"/>
  <path id="Path_13572" data-name="Path 13572" d="M438.372,406.879a5.256,5.256,0,1,0,3.71,1.539,5.248,5.248,0,0,0-3.71-1.539Zm0,7.5a2.25,2.25,0,1,1,2.249-2.25A2.251,2.251,0,0,1,438.372,414.38Z" transform="translate(-370.871 -337.128)" fill="#fff"/>
  <path id="Path_13573" data-name="Path 13573" d="M210.872,406.879a5.256,5.256,0,1,0,3.71,1.539,5.248,5.248,0,0,0-3.71-1.539Zm0,7.5a2.25,2.25,0,1,1,2.249-2.25,2.251,2.251,0,0,1-2.249,2.25Z" transform="translate(-182.371 -337.128)" fill="#fff"/>
  <path id="Path_13574" data-name="Path 13574" d="M308.25,411.25h-18a1.5,1.5,0,0,0,0,3h18a1.5,1.5,0,1,0,0-3Z" transform="translate(-251.249 -340.75)" fill="#fff"/>
  <path id="Path_13575" data-name="Path 13575" d="M308.25,446.25h-18a1.5,1.5,0,0,0,0,3h18a1.5,1.5,0,0,0,0-3Z" transform="translate(-251.249 -369.75)" fill="#fff"/>
</svg>
