<svg xmlns="http://www.w3.org/2000/svg" width="77.9" height="77.899" viewBox="0 0 77.9 77.899">
  <g id="Group_7608" data-name="Group 7608" transform="translate(3693.67 1291)">
    <path id="Path_13621" data-name="Path 13621" d="M161.505,17.5H131.592a3.9,3.9,0,0,0-3.038,1.441L117.362,32.807V31.781a1.3,1.3,0,0,0-1.3-1.3H97.888a1.3,1.3,0,0,0-1.3,1.3v23.37a1.3,1.3,0,0,0,.649,1.13l5.842,3.337v3.323h-7.79a1.3,1.3,0,0,0-1.3-1.3H88.8a1.3,1.3,0,0,0-1.3,1.3V73.328a1.3,1.3,0,0,0,1.3,1.3h5.193a1.3,1.3,0,0,0,1.3-1.3h.961L91.435,93.8a1.3,1.3,0,0,0,.247,1.1,1.279,1.279,0,0,0,1.013.493h9.088a1.3,1.3,0,0,0,1.259-1l.688-2.9h57.776a3.906,3.906,0,0,0,3.895-3.895V21.395a3.906,3.906,0,0,0-3.895-3.895ZM92.694,72.029H90.1v-7.79h2.6Zm24.668-25.5L134.85,25.29h22.76V51.256H117.362ZM99.186,33.08h15.58v7.076A7.029,7.029,0,0,1,113.6,39.7a7.95,7.95,0,0,0-7.179,0,5.423,5.423,0,0,1-4.947,0,7.514,7.514,0,0,0-2.285-.766Zm0,21.319V41.585a7.028,7.028,0,0,1,1.168.454,7.95,7.95,0,0,0,7.179,0,5.4,5.4,0,0,1,4.934,0,7.743,7.743,0,0,0,2.3.766V54.4l-5.842,3.337a1.3,1.3,0,0,0-.649,1.129v4.077h-2.6V58.865a1.3,1.3,0,0,0-.649-1.129ZM95.291,70.731V65.538h22.071v5.193Zm16.449,2.6L109.9,79.82h-3.415L108,73.328ZM100.756,92.8H94.329l4.583-19.475h6.427ZM162.8,87.61a1.3,1.3,0,0,1-1.3,1.3H104.339l1.532-6.492h5a1.3,1.3,0,0,0,1.246-.948l2.324-8.141h2.921a1.3,1.3,0,0,0,1.3,1.3h3.895a1.291,1.291,0,0,0,.662-.182l6.492-3.895a1.285,1.285,0,0,0,.636-1.116v-2.6a1.285,1.285,0,0,0-.636-1.116l-6.492-3.895a1.291,1.291,0,0,0-.662-.182H118.66a1.3,1.3,0,0,0-1.3,1.3H110.87V59.618l5.842-3.337a1.3,1.3,0,0,0,.649-1.13v-1.3h41.546a1.3,1.3,0,0,0,1.3-1.3V23.992a1.3,1.3,0,0,0-1.3-1.3H134.24a1.287,1.287,0,0,0-1,.467l-15.878,19.28v-5.5l13.217-16.359a1.268,1.268,0,0,1,1.013-.48H161.5a1.3,1.3,0,0,1,1.3,1.3ZM119.958,72.03V64.24h1.3v7.79Zm3.895-1V65.24l3.895,2.337v1.116Z" transform="translate(-3781.171 -1308.5)" fill="#fff"/>
    <path id="Path_13622" data-name="Path 13622" d="M506.54,280h-3.895a3.895,3.895,0,1,0,0,7.79h3.895a3.895,3.895,0,1,0,0-7.79Zm0,5.193h-3.895a1.3,1.3,0,0,1,0-2.6h3.895a1.3,1.3,0,1,1,0,2.6Z" transform="translate(-4131.399 -1532.05)" fill="#fff"/>
    <path id="Path_13623" data-name="Path 13623" d="M402.5,350h2.6v2.6h-2.6Z" transform="translate(-4049.43 -1591.664)" fill="#fff"/>
    <path id="Path_13624" data-name="Path 13624" d="M437.5,350h2.6v2.6h-2.6Z" transform="translate(-4079.237 -1591.664)" fill="#fff"/>
    <path id="Path_13625" data-name="Path 13625" d="M472.5,350h2.6v2.6h-2.6Z" transform="translate(-4109.044 -1591.664)" fill="#fff"/>
    <path id="Path_13626" data-name="Path 13626" d="M379.88,372.961l1.836-1.836,1.836,1.836-1.836,1.836Z" transform="translate(-4030.167 -1609.654)" fill="#fff"/>
    <path id="Path_13627" data-name="Path 13627" d="M404.62,397.711l1.836-1.836,1.836,1.836-1.836,1.836Z" transform="translate(-4051.236 -1630.732)" fill="#fff"/>
    <path id="Path_13628" data-name="Path 13628" d="M429.37,422.461l1.836-1.836,1.836,1.836-1.836,1.836Z" transform="translate(-4072.313 -1651.809)" fill="#fff"/>
    <path id="Path_13629" data-name="Path 13629" d="M379.87,323.471l1.836-1.836,1.836,1.836-1.836,1.836Z" transform="translate(-4030.158 -1567.508)" fill="#fff"/>
    <path id="Path_13630" data-name="Path 13630" d="M404.62,298.711l1.836-1.836,1.836,1.836-1.836,1.836Z" transform="translate(-4051.236 -1546.421)" fill="#fff"/>
    <path id="Path_13631" data-name="Path 13631" d="M429.37,273.971l1.836-1.836,1.836,1.836-1.836,1.836Z" transform="translate(-4072.313 -1525.352)" fill="#fff"/>
  </g>
</svg>
