<svg xmlns="http://www.w3.org/2000/svg" width="41" height="48" viewBox="0 0 41 48">
  <g id="noun-loan-approved-1147138" transform="translate(-122.501 -17.498)">
    <path id="Path_7316" data-name="Path 7316" d="M123.29,63.9h27.616a7.758,7.758,0,0,0,4.711,1.6,8.014,8.014,0,0,0,4.731-14.385V18.3a.8.8,0,0,0-.788-.8h-27.6c-.017,0-.032.009-.048.01a.786.786,0,0,0-.21.043c-.024.009-.048.015-.072.026a.776.776,0,0,0-.226.154h0l-8.672,8.8h0a.793.793,0,0,0-.152.229c-.011.024-.017.05-.026.075a.772.772,0,0,0-.042.211c0,.017-.01.031-.01.049v36a.8.8,0,0,0,.788.8Zm38.635-6.4a6.362,6.362,0,0,1-6.308,6.4,6.219,6.219,0,0,1-3.979-1.44,6.4,6.4,0,0,1-.491-.451c-.046-.048-.088-.1-.134-.15-.1-.112-.2-.224-.3-.343-.063-.079-.121-.162-.181-.245s-.137-.19-.2-.289-.114-.185-.167-.279-.109-.2-.16-.3-.1-.194-.139-.293-.091-.215-.132-.325-.073-.193-.1-.291c-.039-.121-.072-.246-.1-.37-.024-.091-.05-.181-.069-.273-.031-.146-.053-.294-.074-.443-.011-.075-.026-.149-.034-.225a6.645,6.645,0,0,1-.038-.688,6.362,6.362,0,0,1,6.308-6.4,6.209,6.209,0,0,1,.829.061c.072.01.144.021.214.034a6.28,6.28,0,0,1,.71.161c.032.01.066.016.1.026a6.127,6.127,0,0,1,.746.292c.069.032.137.066.2.1a6.363,6.363,0,0,1,3.506,5.726Zm-3.154-7.334c-.017-.008-.036-.013-.053-.021-.121-.053-.247-.1-.371-.143s-.24-.1-.364-.135c-.145-.046-.295-.081-.443-.119-.107-.027-.213-.061-.321-.084-.185-.039-.374-.064-.565-.089-.076-.01-.15-.027-.226-.035a8.115,8.115,0,0,0-.811-.041,7.952,7.952,0,0,0-7.885,8c0,.251.015.5.037.748.007.077.018.151.027.227.02.174.046.346.078.516.015.079.031.158.048.236.039.176.083.35.133.523.017.06.033.121.052.181a8.015,8.015,0,0,0,.572,1.366c.01.019.021.036.031.054q.158.29.341.568c.027.042.057.083.085.125.058.085.113.173.174.255H124.078V27.9h7.885a.8.8,0,0,0,.788-.8v-8H158.77Zm-27.6-29.935V26.3h-5.981Z" transform="translate(0)" fill="#191970"/>
    <path id="Path_7317" data-name="Path 7317" d="M443.035,418.857l-1.836-1.836-1.132,1.132,2.4,2.4a.8.8,0,0,0,1.132,0l5.606-5.606-1.132-1.132Z" transform="translate(-289.144 -360.097)" fill="#191970"/>
    <path id="Path_7318" data-name="Path 7318" d="M332.5,70h12.813v1.6H332.5Z" transform="translate(-191.207 -47.697)" fill="#191970"/>
    <path id="Path_7319" data-name="Path 7319" d="M332.5,105h12.813v1.6H332.5Z" transform="translate(-191.207 -79.502)" fill="#191970"/>
    <path id="Path_7320" data-name="Path 7320" d="M227.5,175h10.41v1.6H227.5Z" transform="translate(-95.587 -143.102)" fill="#191970"/>
    <path id="Path_7321" data-name="Path 7321" d="M358.75,175h3.2v1.6h-3.2Z" transform="translate(-214.988 -143.102)" fill="#191970"/>
    <path id="Path_7322" data-name="Path 7322" d="M411.25,175h6.406v1.6H411.25Z" transform="translate(-262.804 -143.102)" fill="#191970"/>
    <path id="Path_7323" data-name="Path 7323" d="M183.75,218.75h6.406v1.6H183.75Z" transform="translate(-55.643 -182.853)" fill="#191970"/>
    <path id="Path_7324" data-name="Path 7324" d="M271.25,218.75h4v1.6h-4Z" transform="translate(-135.367 -182.853)" fill="#191970"/>
    <path id="Path_7325" data-name="Path 7325" d="M332.5,218.75h9.61v1.6H332.5Z" transform="translate(-191.165 -182.853)" fill="#191970"/>
    <path id="Path_7326" data-name="Path 7326" d="M455,218.75h2.4v1.6H455Z" transform="translate(-302.566 -182.853)" fill="#191970"/>
    <path id="Path_7327" data-name="Path 7327" d="M183.75,262.5h10.41v1.6H183.75Z" transform="translate(-55.643 -222.603)" fill="#191970"/>
    <path id="Path_7328" data-name="Path 7328" d="M315,262.5h15.215v1.6H315Z" transform="translate(-175.309 -222.603)" fill="#191970"/>
    <path id="Path_7330" data-name="Path 7330" d="M288.75,402.5h8.008v1.6H288.75Z" transform="translate(-151.324 -349.803)" fill="#191970"/>
    <path id="Path_7331" data-name="Path 7331" d="M288.75,323.75h7.207v1.6H288.75Z" transform="translate(-151.317 -278.253)" fill="#191970"/>
    <path id="Path_7332" data-name="Path 7332" d="M402.5,323.75h7.207v1.6H402.5Z" transform="translate(-254.851 -278.253)" fill="#191970"/>
    <path id="Path_7333" data-name="Path 7333" d="M288.75,446.25h8.008v1.6H288.75Z" transform="translate(-151.324 -389.561)" fill="#191970"/>
    <g id="noun-rupee-156829" transform="translate(128.343 45.509)">
      <path id="Path_7335" data-name="Path 7335" d="M268.854,170.33h-6.633l-.891,1.089h1.584a2.756,2.756,0,0,1,2.277.99h-2.97l-.891,1.089h4.158c-.1.99-1.287,1.782-2.871,1.782h-.99v.99l3.96,4.851h1.683l-4.059-4.95c1.881-.1,3.366-1.188,3.564-2.673h1.287l.594-1.089h-2.079a2.263,2.263,0,0,0-.693-.99h2.079Z" transform="translate(-261.33 -170.33)" fill="#191970"/>
    </g>
  </g>
</svg>
