<svg xmlns="http://www.w3.org/2000/svg" width="35.853" height="40.023" viewBox="0 0 35.853 40.023">
  <g id="noun-discounts-4609251" transform="translate(-114.908 -17.5)">
    <path id="Path_12921" data-name="Path 12921" d="M116.374,50.743c1.068.146,4.346.534,4.368.539a.628.628,0,0,1,.411.411s.364,3.214.523,4.28a2.032,2.032,0,0,0,3.446.934c1.443-1.5,5.893-5.892,5.893-5.892h0a3.469,3.469,0,0,0,3.645,0s4.45,4.39,5.893,5.892A2.032,2.032,0,0,0,144,55.974c.159-1.068.523-4.28.523-4.28h0a.628.628,0,0,1,.411-.411s3.214-.363,4.279-.523a2.032,2.032,0,0,0,.934-3.447c-1.089-1.046-4.271-4.271-4.271-4.271.276-.247.589-.488.918-.734a5.551,5.551,0,0,0,2.233-2.53,5.5,5.5,0,0,0-.312-3.27h0a7.32,7.32,0,0,1-.416-1.991,7.316,7.316,0,0,1,.416-1.991,5.491,5.491,0,0,0,.312-3.27,5.554,5.554,0,0,0-2.233-2.529,7.027,7.027,0,0,1-1.447-1.3,7.1,7.1,0,0,1-.8-1.8,5.585,5.585,0,0,0-1.7-2.879,5.466,5.466,0,0,0-3.244-.727,7.217,7.217,0,0,1-1.981-.213,6.9,6.9,0,0,1-1.65-.958,4.3,4.3,0,0,0-6.258,0,6.9,6.9,0,0,1-1.65.958,7.219,7.219,0,0,1-1.982.213,5.526,5.526,0,0,0-3.243.727,5.592,5.592,0,0,0-1.7,2.88h0a7.07,7.07,0,0,1-.8,1.8,7,7,0,0,1-1.447,1.3,5.551,5.551,0,0,0-2.233,2.53,5.5,5.5,0,0,0,.312,3.27,7.318,7.318,0,0,1,.413,1.987,7.321,7.321,0,0,1-.416,1.991,5.491,5.491,0,0,0-.312,3.27,5.554,5.554,0,0,0,2.233,2.529c.329.248.642.489.918.734,0,0-3.184,3.224-4.271,4.271a2.048,2.048,0,0,0,.845,3.432Zm32.831-2.486a.765.765,0,0,1,.215.744.618.618,0,0,1-.42.441c-.1.018-4.28.514-4.369.54a2.069,2.069,0,0,0-1.409,1.41c-.023.079-.524,4.281-.54,4.369a.693.693,0,0,1-1.184.2l-5.68-5.679h0A5.112,5.112,0,0,1,139.6,49.01a5.526,5.526,0,0,0,3.243-.727,5.592,5.592,0,0,0,1.7-2.88h0a11.5,11.5,0,0,1,.51-1.3ZM119.686,41.24a4.547,4.547,0,0,1-1.766-1.875,4.527,4.527,0,0,1,.32-2.472h0a8.372,8.372,0,0,0,.472-2.375,8.361,8.361,0,0,0-.472-2.375,4.518,4.518,0,0,1-.32-2.469,4.572,4.572,0,0,1,1.766-1.876,8.038,8.038,0,0,0,1.723-1.579,8.127,8.127,0,0,0,.985-2.151,4.56,4.56,0,0,1,1.226-2.238,4.55,4.55,0,0,1,2.486-.471h0a8.258,8.258,0,0,0,2.365-.278,7.889,7.889,0,0,0,2-1.134,4.6,4.6,0,0,1,2.365-1.11,4.593,4.593,0,0,1,2.364,1.11,7.888,7.888,0,0,0,2,1.134,8.232,8.232,0,0,0,2.364.278,4.558,4.558,0,0,1,2.486.472,4.583,4.583,0,0,1,1.226,2.238h0a8.12,8.12,0,0,0,.985,2.148,8.055,8.055,0,0,0,1.722,1.579,4.547,4.547,0,0,1,1.766,1.875,4.527,4.527,0,0,1-.32,2.472h0a8.361,8.361,0,0,0-.472,2.375,8.361,8.361,0,0,0,.472,2.375,4.519,4.519,0,0,1,.32,2.469,4.572,4.572,0,0,1-1.766,1.876,8.031,8.031,0,0,0-1.723,1.579,8.118,8.118,0,0,0-.984,2.151,4.56,4.56,0,0,1-1.226,2.238,4.55,4.55,0,0,1-2.486.471h0a8.258,8.258,0,0,0-2.365.278,7.89,7.89,0,0,0-2,1.134,4.6,4.6,0,0,1-2.365,1.11,4.593,4.593,0,0,1-2.364-1.11,7.887,7.887,0,0,0-2-1.134,8.233,8.233,0,0,0-2.364-.278,4.558,4.558,0,0,1-2.486-.472,4.582,4.582,0,0,1-1.226-2.238h0a8.12,8.12,0,0,0-.985-2.148,8.054,8.054,0,0,0-1.724-1.579Zm-3.214,7.017c1.018-1.056,4.154-4.15,4.154-4.15a11.565,11.565,0,0,1,.511,1.3,5.553,5.553,0,0,0,1.7,2.88,5.486,5.486,0,0,0,3.244.727h0a5.111,5.111,0,0,1,3.78,1.276s-4.234,4.285-5.68,5.679c-.366.353-1.03.392-1.184-.2-.267-1.044-.378-3.212-.523-4.281h0a1.845,1.845,0,0,0-1.515-1.515c-1.064-.169-3.234-.261-4.28-.523-.6-.15-.56-.82-.208-1.184Z" fill="#191970"/>
    <path id="Path_12922" data-name="Path 12922" d="M200.475,103.449a12.358,12.358,0,1,0-8.725-3.619,12.345,12.345,0,0,0,8.725,3.619Zm0-23.356a11.023,11.023,0,1,1-7.782,3.229,11.012,11.012,0,0,1,7.782-3.229Z" transform="translate(-67.637 -56.588)" fill="#191970"/>
    <path id="Path_12923" data-name="Path 12923" d="M265.169,162.838a2.669,2.669,0,1,0-1.888-.782A2.67,2.67,0,0,0,265.169,162.838Zm0-4a1.334,1.334,0,1,1-.944.391A1.335,1.335,0,0,1,265.169,158.835Z" transform="translate(-136.336 -129.323)" fill="#191970"/>
    <path id="Path_12924" data-name="Path 12924" d="M370.169,262.5a2.669,2.669,0,1,0,1.888.782A2.67,2.67,0,0,0,370.169,262.5Zm0,4a1.334,1.334,0,1,1,.944-.391A1.335,1.335,0,0,1,370.169,266.5Z" transform="translate(-233.328 -226.315)" fill="#191970"/>
    <path id="Path_12925" data-name="Path 12925" d="M270.976,177.989a2.11,2.11,0,0,0,2.943-.009c1.967-2.034,7.953-8.056,7.953-8.056h0a2,2,0,0,0,0-2.831,2.052,2.052,0,0,0-2.829,0s-6.024,5.984-8.059,7.955a2.1,2.1,0,0,0-.009,2.941Zm.946-1.993c2.036-1.969,6.077-5.939,8.062-7.96a.668.668,0,1,1,.941.947c-2.021,1.984-5.989,6.023-7.957,8.059A.74.74,0,1,1,271.923,176Z" transform="translate(-143.616 -137.663)" fill="#191970"/>
  </g>
</svg>
