<svg xmlns="http://www.w3.org/2000/svg" width="18.322" height="12.22" viewBox="0 0 18.322 12.22">
  <path id="Icon_ionic-ios-arrow-round-forward" data-name="Icon ionic-ios-arrow-round-forward" d="M19.559,11.486a.832.832,0,0,0-.006,1.171l3.869,3.876H8.7a.827.827,0,0,0,0,1.655h14.72l-3.869,3.876a.838.838,0,0,0,.006,1.171.824.824,0,0,0,1.165-.006l5.244-5.282h0a.929.929,0,0,0,.172-.261.79.79,0,0,0,.064-.318.83.83,0,0,0-.235-.579L20.718,11.5A.811.811,0,0,0,19.559,11.486Z" transform="translate(-7.875 -11.252)" fill="#191970"/>
</svg>
