<svg xmlns="http://www.w3.org/2000/svg" width="29.522" height="24.263" viewBox="0 0 29.522 24.263">
  <g id="noun-fast-payment-2029714" transform="translate(-78.488 -56.847)">
    <path id="Path_13803" data-name="Path 13803" d="M214.812,154.465h-20.25a1.536,1.536,0,0,1-1.522-1.522v-2.491a.461.461,0,0,1,.923,0v2.491a.611.611,0,0,0,.6.6h20.25a.611.611,0,0,0,.6-.6v-12.27a.611.611,0,0,0-.6-.6h-20.25a.611.611,0,0,0-.6.6v2.814a.461.461,0,0,1-.923,0v-2.814a1.536,1.536,0,0,1,1.522-1.522h20.25a1.536,1.536,0,0,1,1.522,1.522v12.316a1.527,1.527,0,0,1-1.522,1.476Z" transform="translate(-108.325 -77.828)" fill="#191970"/>
    <path id="Path_13804" data-name="Path 13804" d="M366.1,235.869a2.537,2.537,0,1,1-2.537-2.537A2.56,2.56,0,0,1,366.1,235.869Z" transform="translate(-267.176 -166.89)" fill="#191970"/>
    <path id="Path_13805" data-name="Path 13805" d="M250.7,179.773a1.969,1.969,0,0,1-1.983-1.983.462.462,0,0,0-.461-.461H234.975a.462.462,0,0,0-.461.461,1.969,1.969,0,0,1-1.983,1.983.5.5,0,0,0-.461.461v5.3a.462.462,0,0,0,.461.461,1.969,1.969,0,0,1,1.983,1.983.436.436,0,0,0,.461.461H248.26a.436.436,0,0,0,.461-.461A1.969,1.969,0,0,1,250.7,186a.462.462,0,0,0,.461-.461v-5.3A.5.5,0,0,0,250.7,179.773Zm-9.087,6.6a3.46,3.46,0,1,1,3.46-3.46A3.455,3.455,0,0,1,241.617,186.369Z" transform="translate(-145.232 -113.931)" fill="#191970"/>
    <path id="Path_13806" data-name="Path 13806" d="M366.781,452.314h-3.6a.461.461,0,1,1,0-.923h3.6a.436.436,0,0,1,.461.461A.462.462,0,0,1,366.781,452.314Z" transform="translate(-268.781 -373.094)" fill="#191970"/>
    <path id="Path_13807" data-name="Path 13807" d="M323.7,451.977a.418.418,0,0,1,.138-.323.461.461,0,1,1-.138.323Z" transform="translate(-231.881 -373.219)" fill="#191970"/>
    <path id="Path_13808" data-name="Path 13808" d="M241.211,487.1h-3.6a.461.461,0,1,1,0-.922h3.6a.461.461,0,0,1,0,.922Z" transform="translate(-150.038 -405.993)" fill="#191970"/>
    <path id="Path_13809" data-name="Path 13809" d="M199.427,487.224a.436.436,0,0,1-.461-.461.418.418,0,0,1,.138-.323.462.462,0,0,1,.784.323A.5.5,0,0,1,199.427,487.224Z" transform="translate(-113.928 -406.113)" fill="#191970"/>
    <path id="Path_13810" data-name="Path 13810" d="M294.661,57.77h-3.6a.461.461,0,0,1,0-.923h3.6a.436.436,0,0,1,.461.461A.462.462,0,0,1,294.661,57.77Z" transform="translate(-200.582 0)" fill="#191970"/>
    <path id="Path_13811" data-name="Path 13811" d="M252.562,58.683a.419.419,0,0,1-.138-.323.461.461,0,0,1,.923,0,.418.418,0,0,1-.138.323A.49.49,0,0,1,252.562,58.683Z" transform="translate(-164.479 -1.005)" fill="#191970"/>
    <path id="Path_13812" data-name="Path 13812" d="M424.481,92.564h-3.6a.461.461,0,0,1,0-.923h3.6a.436.436,0,0,1,.461.461A.462.462,0,0,1,424.481,92.564Z" transform="translate(-323.345 -32.902)" fill="#191970"/>
    <path id="Path_13813" data-name="Path 13813" d="M381.533,92.419a.457.457,0,1,1,.646,0A.446.446,0,0,1,381.533,92.419Z" transform="translate(-286.439 -32.897)" fill="#191970"/>
    <path id="Path_13814" data-name="Path 13814" d="M83.562,235.954H78.949a.461.461,0,0,1,0-.923h4.613a.461.461,0,1,1,0,.923Z" transform="translate(0 -168.497)" fill="#191970"/>
    <path id="Path_13815" data-name="Path 13815" d="M139.295,272.434h-3.506a.461.461,0,1,1,0-.922h3.506a.461.461,0,0,1,0,.922Z" transform="translate(-53.75 -202.994)" fill="#191970"/>
    <path id="Path_13816" data-name="Path 13816" d="M83.562,308.924H78.949a.461.461,0,0,1,0-.923h4.613a.461.461,0,1,1,0,.923Z" transform="translate(0 -237.5)" fill="#191970"/>
  </g>
</svg>
