<svg xmlns="http://www.w3.org/2000/svg" width="24.861" height="22.62" viewBox="0 0 24.861 22.62">
  <g id="Group_8646" data-name="Group 8646" transform="translate(-8.281 -10.019)">
    <g id="noun-callback-399346" transform="translate(8.281 10.019)">
      <path id="Path_13745" data-name="Path 13745" d="M266.052,169.257l-2.63-2.833a.778.778,0,0,0-1.1-.041l-1.022.949a2.355,2.355,0,0,0-.266-.43s-2.434-2.461-3.138-3.365-2.5-3.863-2.5-3.863c-.049-.063-.1-.122-.155-.179a.77.77,0,0,0,.478-.114l1.2-.758a.778.778,0,0,0,.244-1.073l-2.06-3.271a.777.777,0,0,0-1.072-.244l-1.2.758a.774.774,0,0,0-.232.228l-.495.359c-.927.672-1.033,1.593-.643,2.866a25.346,25.346,0,0,0,3.447,6.3,31.6,31.6,0,0,0,6.272,6.882c1.087.814,1.969,1.134,2.9.461l.519-.376a.765.765,0,0,0,.373-.189l1.043-.968a.777.777,0,0,0,.041-1.1Z" transform="translate(-245.783 -150.364)" fill="#fff"/>
      <path id="Path_13746" data-name="Path 13746" d="M185.566,107.237a11.31,11.31,0,1,0-11.3,11.883.693.693,0,0,0,0-1.386,9.923,9.923,0,1,1,9.905-10.5l-2.222,0,2.93,3.305,2.936-3.3Z" transform="translate(-162.96 -96.5)" fill="#fff"/>
    </g>
  </g>
</svg>
