<svg xmlns="http://www.w3.org/2000/svg" width="26.822" height="24.404" viewBox="0 0 26.822 24.404">
  <g id="noun-callback-399346" transform="translate(-162.96 -96.5)">
    <path id="Path_13745" data-name="Path 13745" d="M267.22,170.468l-2.837-3.056a.839.839,0,0,0-1.186-.044l-1.1,1.024a2.542,2.542,0,0,0-.287-.464s-2.626-2.655-3.385-3.63-2.7-4.167-2.7-4.167c-.053-.068-.109-.132-.167-.193a.83.83,0,0,0,.516-.123l1.3-.818a.839.839,0,0,0,.263-1.157l-2.222-3.529a.839.839,0,0,0-1.156-.263l-1.3.818a.834.834,0,0,0-.251.247l-.534.387c-1,.725-1.115,1.719-.694,3.092a27.346,27.346,0,0,0,3.719,6.795,34.1,34.1,0,0,0,6.767,7.425c1.173.879,2.124,1.223,3.124.5l.56-.406a.825.825,0,0,0,.4-.2l1.125-1.044a.838.838,0,0,0,.044-1.185Z" transform="translate(-82.392 -53.584)" fill="#191970"/>
    <path id="Path_13746" data-name="Path 13746" d="M187.349,108.084A12.2,12.2,0,1,0,175.163,120.9a.748.748,0,1,0,0-1.5,10.706,10.706,0,1,1,10.687-11.325l-2.4,0,3.162,3.566,3.168-3.562Z" fill="#191970"/>
  </g>
</svg>
