<svg xmlns="http://www.w3.org/2000/svg" width="22.301" height="22.398" viewBox="0 0 22.301 22.398">
  <g id="Group_8630" data-name="Group 8630" transform="translate(-9.776 -10.13)">
    <g id="noun-car-check-5498168" transform="translate(9.776 10.13)">
      <path id="Path_13781" data-name="Path 13781" d="M242.858,32.165A4.883,4.883,0,1,0,238,27.258,4.893,4.893,0,0,0,242.858,32.165Zm-2.381-5.3a.851.851,0,0,1,1.215,0l.437.437,1.846-1.895a.859.859,0,1,1,1.215,1.215L242.713,29.1a.924.924,0,0,1-.632.243,1.022,1.022,0,0,1-.632-.243l-1.02-1.02a.9.9,0,0,1,.049-1.215Z" transform="translate(-231.732 -22.4)" fill="#fff"/>
      <path id="Path_13782" data-name="Path 13782" d="M531.478,382.6a.615.615,0,0,0-.049-.291c0-.1-.049-.243-.049-.34v-.049a11.452,11.452,0,0,0-3.158.583q-.146.073-.146.146a.367.367,0,0,0,.049.194,4.827,4.827,0,0,0,3.4,1.312v-1.117a1.345,1.345,0,0,0-.048-.437Z" transform="translate(-509.227 -366.325)" fill="#fff"/>
      <path id="Path_13783" data-name="Path 13783" d="M96.918,382.648a.155.155,0,0,0-.146-.146,14.155,14.155,0,0,0-3.158-.583c0,.1-.049.243-.049.34s-.049.194-.049.291v1.6a5.052,5.052,0,0,0,3.4-1.312c0-.049,0-.146,0-.194Z" transform="translate(-93.517 -366.324)" fill="#fff"/>
      <path id="Path_13784" data-name="Path 13784" d="M111.406,166.03a1.241,1.241,0,0,1,.826-.874,13.656,13.656,0,0,1,3.109-.583,4.2,4.2,0,0,0-.486-.777l-.583-.777a4.189,4.189,0,0,1-.486-.777h1.069a.473.473,0,0,0,.486-.389l.194-.972a.487.487,0,0,0-.486-.583h-1.895a15.472,15.472,0,0,0-1.36-3.255,2.118,2.118,0,0,0-.632-.68s-.34-.243-.777-.534a4.7,4.7,0,0,1-.583,1.7c.34.389.583.729.583.729a12.714,12.714,0,0,1,1.069,2.915H97.8a11.944,11.944,0,0,1,1.069-2.915,3.829,3.829,0,0,1,.583-.729,6.4,6.4,0,0,1-.632-1.846,4.671,4.671,0,0,0-1.409,1.312,20.306,20.306,0,0,0-1.312,3.3H94.207a.513.513,0,0,0-.486.583l.194.972a.473.473,0,0,0,.486.389h1.118a4.025,4.025,0,0,1-.437.777l-.632.777a4.193,4.193,0,0,0-.486.777,13.647,13.647,0,0,1,3.109.583,1.247,1.247,0,0,1,.826.875,1.185,1.185,0,0,1-.291,1.118,5.615,5.615,0,0,1-4.081,1.6v2.624a.923.923,0,0,0,.923.923h2.672a.883.883,0,0,0,.875-.923v-1.118h13.409v1.118a.914.914,0,0,0,.875.923h2.672a.883.883,0,0,0,.875-.923v-2.624a5.615,5.615,0,0,1-4.081-1.6,1.211,1.211,0,0,1-.341-1.118Zm-8.6,2.332h-.194a1.324,1.324,0,0,1-1.215-.826l-.34-.777a1.354,1.354,0,0,1,1.215-1.895h.534Zm2.721,0h-1.749v-3.5h1.749Zm2.769-1.6-.34.826a1.324,1.324,0,0,1-1.215.826h-.194v-3.5h.534a1.327,1.327,0,0,1,.923.389,1.3,1.3,0,0,1,.437.972c-.049.146-.1.34-.146.486Z" transform="translate(-93.527 -149.9)" fill="#fff"/>
    </g>
  </g>
</svg>
