<svg xmlns="http://www.w3.org/2000/svg" width="26.961" height="22.158" viewBox="0 0 26.961 22.158">
  <g id="Group_8647" data-name="Group 8647" transform="translate(-7.466 -10.25)">
    <g id="noun-fast-payment-2029714" transform="translate(7.466 10.25)">
      <path id="Path_13803" data-name="Path 13803" d="M212.923,153.136H194.43a1.4,1.4,0,0,1-1.39-1.39v-2.275a.421.421,0,0,1,.842,0v2.275a.558.558,0,0,0,.548.548h18.493a.558.558,0,0,0,.548-.548V140.54a.558.558,0,0,0-.548-.548H194.43a.558.558,0,0,0-.548.548v2.57a.421.421,0,0,1-.842,0v-2.57a1.4,1.4,0,0,1,1.39-1.39h18.493a1.4,1.4,0,0,1,1.39,1.39v11.248a1.4,1.4,0,0,1-1.39,1.348Z" transform="translate(-187.353 -135.064)" fill="#fff"/>
      <path id="Path_13804" data-name="Path 13804" d="M365.658,235.649a2.317,2.317,0,1,1-2.317-2.317A2.338,2.338,0,0,1,365.658,235.649Z" transform="translate(-346.997 -224.57)" fill="#fff"/>
      <path id="Path_13805" data-name="Path 13805" d="M249.087,179.56a1.8,1.8,0,0,1-1.811-1.811.422.422,0,0,0-.421-.421H234.723a.422.422,0,0,0-.421.421,1.8,1.8,0,0,1-1.811,1.811.453.453,0,0,0-.421.421v4.844a.422.422,0,0,0,.421.421,1.8,1.8,0,0,1,1.811,1.811.4.4,0,0,0,.421.421h12.132a.4.4,0,0,0,.421-.421,1.8,1.8,0,0,1,1.811-1.811.422.422,0,0,0,.421-.421v-4.844A.453.453,0,0,0,249.087,179.56Zm-8.3,6.024a3.159,3.159,0,1,1,3.159-3.159A3.155,3.155,0,0,1,240.789,185.584Z" transform="translate(-224.444 -171.346)" fill="#fff"/>
      <path id="Path_13806" data-name="Path 13806" d="M366.429,452.234h-3.286a.421.421,0,0,1,0-.842h3.286a.4.4,0,0,1,.421.421A.422.422,0,0,1,366.429,452.234Z" transform="translate(-348.61 -431.803)" fill="#fff"/>
      <path id="Path_13807" data-name="Path 13807" d="M323.7,451.938a.382.382,0,0,1,.126-.295.421.421,0,1,1-.126.295Z" transform="translate(-311.526 -431.928)" fill="#fff"/>
      <path id="Path_13808" data-name="Path 13808" d="M240.859,487.024h-3.286a.421.421,0,1,1,0-.842h3.286a.421.421,0,1,1,0,.842Z" transform="translate(-229.274 -464.866)" fill="#fff"/>
      <path id="Path_13809" data-name="Path 13809" d="M199.387,487.144a.4.4,0,0,1-.421-.421.382.382,0,0,1,.126-.295.421.421,0,0,1,.716.295A.453.453,0,0,1,199.387,487.144Z" transform="translate(-192.984 -464.986)" fill="#fff"/>
      <path id="Path_13810" data-name="Path 13810" d="M294.309,57.69h-3.286a.421.421,0,1,1,0-.842h3.286a.4.4,0,0,1,.421.421A.422.422,0,0,1,294.309,57.69Z" transform="translate(-280.071 -56.847)" fill="#fff"/>
      <path id="Path_13811" data-name="Path 13811" d="M252.55,58.616a.383.383,0,0,1-.126-.295.421.421,0,0,1,.843,0,.382.382,0,0,1-.126.295A.447.447,0,0,1,252.55,58.616Z" transform="translate(-243.788 -57.857)" fill="#fff"/>
      <path id="Path_13812" data-name="Path 13812" d="M424.129,92.484h-3.286a.421.421,0,0,1,0-.842h3.286a.4.4,0,0,1,.421.421A.422.422,0,0,1,424.129,92.484Z" transform="translate(-403.445 -89.914)" fill="#fff"/>
      <path id="Path_13813" data-name="Path 13813" d="M381.521,92.351a.417.417,0,1,1,.59,0A.407.407,0,0,1,381.521,92.351Z" transform="translate(-366.355 -89.908)" fill="#fff"/>
      <path id="Path_13814" data-name="Path 13814" d="M83.121,235.874H78.909a.421.421,0,1,1,0-.842h4.213a.421.421,0,1,1,0,.842Z" transform="translate(-78.488 -226.185)" fill="#fff"/>
      <path id="Path_13815" data-name="Path 13815" d="M138.951,272.354h-3.2a.421.421,0,1,1,0-.842h3.2a.421.421,0,0,1,0,.842Z" transform="translate(-132.506 -260.854)" fill="#fff"/>
      <path id="Path_13816" data-name="Path 13816" d="M83.121,308.844H78.909a.421.421,0,0,1,0-.842h4.213a.421.421,0,1,1,0,.842Z" transform="translate(-78.488 -295.532)" fill="#fff"/>
    </g>
  </g>
</svg>
