<svg xmlns="http://www.w3.org/2000/svg" width="27.496" height="25.83" viewBox="0 0 27.496 25.83">
  <g id="noun-calendar-3376288" transform="translate(-165.198 -106.4)">
    <path id="Path_13602" data-name="Path 13602" d="M185.82,106.4a.625.625,0,0,1,.625.625v1.458h4.582a1.667,1.667,0,0,1,1.667,1.667v20.413a1.667,1.667,0,0,1-1.667,1.667H166.865a1.667,1.667,0,0,1-1.667-1.667V110.15a1.667,1.667,0,0,1,1.667-1.667h4.582v-1.458a.625.625,0,1,1,1.25,0v1.458h12.5v-1.458a.625.625,0,0,1,.625-.625Zm5.624,8.749h-25v15.414a.417.417,0,0,0,.368.414l.049,0h24.163a.417.417,0,0,0,.414-.368l0-.049Zm-.417-5.416h-4.582v1.042a.625.625,0,1,1-1.25,0v-1.042H172.7v1.042a.625.625,0,1,1-1.25,0v-1.042h-4.582a.416.416,0,0,0-.414.368l0,.049V113.9h25v-3.749a.417.417,0,0,0-.417-.417ZM174.9,122.02l-.091.019a1.477,1.477,0,0,1-1.493-.645l-.045-.074-.04-.074-1-2a1.474,1.474,0,0,1,.217-1.64l.059-.062.5-.5a1.475,1.475,0,0,1,1.624-.312l.078.036,2,1a1.476,1.476,0,0,1,.792,1.585l-.016.077,0,.007.352.352v-.007a3.958,3.958,0,0,1,6.221-2.528l-2.175,2.175a.625.625,0,0,0,.839.924l.044-.041,2.175-2.174a3.961,3.961,0,0,1-1.755,6h0l.922.921a2.466,2.466,0,0,1,.074,3.411l-.074.077-.1.1a2.466,2.466,0,0,1-3.411.074l-.077-.074-2.164-2.164-2.368,2.368a1.875,1.875,0,0,1-2.651-2.651l2.869-2.869Zm6.87-4.271a2.707,2.707,0,0,0-1.871.722l-.074.071a2.706,2.706,0,0,0-.707,2.594l.028.1.214.715-5.133,5.132a.625.625,0,0,0,.839.924l.044-.04,5.133-5.132.715.214a2.709,2.709,0,0,0,3.489-2.624V120.4l-.792.792-.043.041-.045.04-.045.039a1.875,1.875,0,0,1-2.58-2.708l.061-.064.792-.792Zm-5.84,1.895.309-.431a.225.225,0,0,0-.05-.309l-.035-.022-2-1a.225.225,0,0,0-.228.016l-.031.026-.5.5a.225.225,0,0,0-.057.222l.015.038,1,2a.229.229,0,0,0,.271.117l.033-.016.468-.314,1.975,1.975.819-.819Zm3.317,5.957,2.164,2.164a1.217,1.217,0,0,0,1.662.055l.058-.055.1-.1a1.217,1.217,0,0,0,.055-1.662l-.055-.058-1.53-1.529h.028a3.975,3.975,0,0,1-1.13-.167Z" transform="translate(0 0)" fill="#191970" fill-rule="evenodd"/>
  </g>
</svg>
