<svg id="noun-car-service-5077039" xmlns="http://www.w3.org/2000/svg" width="115.826" height="78.848" viewBox="0 0 115.826 78.848">
  <path id="Path_13508" data-name="Path 13508" d="M164.622,133.178c.909-2.754,2.863-4.533,4.979-4.533h46.9c2.116,0,4.069,1.779,4.991,4.568l1.294,3.527h2.444l-1.572-4.281c-1.225-3.711-4.034-6.108-7.158-6.108H169.6c-3.124,0-5.933,2.4-7.146,6.072l-5.667,15.443a4.957,4.957,0,0,0,4.654,6.665h38.108l-.879-2.295H161.443a2.662,2.662,0,0,1-2.5-3.58Z" transform="translate(-140.705 -120.379)" fill="#f0f0f0"/>
  <path id="Path_13509" data-name="Path 13509" d="M104.565,167.424a1.147,1.147,0,0,0-1.147,1.147v5.252a1.12,1.12,0,0,1-1.118,1.119H91.761a1.121,1.121,0,0,1-1.119-1.119l0-28.3a41.344,41.344,0,0,1,1.268-10.153l.844-2.019,1.147-3.019a1.844,1.844,0,0,0-1.724-2.5H87a.727.727,0,0,1-.7-.748v-2.733a.728.728,0,0,1,.7-.749h6.01a1.181,1.181,0,0,1,1.067.725,1.148,1.148,0,0,0,2.124-.053l6.047-15.915a10.537,10.537,0,0,1,9.689-7.135H160.77a10.536,10.536,0,0,1,9.689,7.135l2.634,6.931h2.455l-2.944-7.746a12.811,12.811,0,0,0-11.835-8.615H111.944a12.811,12.811,0,0,0-11.835,8.615l-5.4,14.214a3.407,3.407,0,0,0-1.692-.451h-6.01a3.025,3.025,0,0,0-3,3.044v2.733a3.025,3.025,0,0,0,3,3.043h4.522l-.9,2.374-.851,2.039c-.014.036-.027.071-.039.108a43.1,43.1,0,0,0-1.384,10.875l0,28.3a3.418,3.418,0,0,0,3.414,3.414H102.3a3.418,3.418,0,0,0,3.414-3.414v-4.1h31.678a13.863,13.863,0,0,1,.026-2.295Z" transform="translate(-84.007 -98.926)" fill="#f0f0f0"/>
  <path id="Path_13510" data-name="Path 13510" d="M132.548,309.83a1.147,1.147,0,0,0-1.147,1.147v5.868a6.939,6.939,0,0,0,6.931,6.931h8.159a3.132,3.132,0,0,0,3.129-3.129A10.83,10.83,0,0,0,138.8,309.829Zm14.777,10.818a.835.835,0,0,1-.834.834h-8.159a4.641,4.641,0,0,1-4.636-4.636v-4.721H138.8A8.533,8.533,0,0,1,147.325,320.648Z" transform="translate(-121.082 -263.912)" fill="#f0f0f0"/>
  <path id="Path_13511" data-name="Path 13511" d="M247.786,322.924a2.669,2.669,0,0,1-2.666-2.665v-6.122a2.669,2.669,0,0,1,2.666-2.666h13.8v-2.295h-13.8a4.967,4.967,0,0,0-4.961,4.961v6.122a4.967,4.967,0,0,0,4.961,4.961H264.15a13.92,13.92,0,0,1,1.5-1.787c.145-.145.309-.281.469-.418l-.2-.09Z" transform="translate(-208.247 -263.4)" fill="#f0f0f0"/>
  <path id="Path_13512" data-name="Path 13512" d="M471.822,328.959a11.839,11.839,0,0,1-1.317-.082l-1.978,1.978a14.23,14.23,0,0,0,3.295.4A14.375,14.375,0,0,0,486.18,316.9a14.186,14.186,0,0,0-.4-3.295l-1.978,1.978a11.624,11.624,0,0,1,.082,1.317,12.076,12.076,0,0,1-12.063,12.063Z" transform="translate(-384.809 -266.862)" fill="#f0f0f0"/>
  <path id="Path_13513" data-name="Path 13513" d="M482.747,294.288l-3.725-1.662L478.6,291.6a16.194,16.194,0,0,1-2.232.609l.712,1.719a1.149,1.149,0,0,0,.593.609l3.463,1.545v7.207l-3.463,1.545a1.15,1.15,0,0,0-.593.609l-2.506,6.049a1.15,1.15,0,0,0-.012.85l1.36,3.553-5.1,5.1-3.553-1.361a1.146,1.146,0,0,0-.85.012l-6.049,2.507a1.149,1.149,0,0,0-.609.593l-1.545,3.463h-7.207l-1.545-3.463a1.149,1.149,0,0,0-.609-.593l-1.716-.712a16.13,16.13,0,0,1-.61,2.232l1.026.425,1.662,3.726a1.148,1.148,0,0,0,1.048.68h8.7a1.147,1.147,0,0,0,1.048-.68l1.662-3.725,5.2-2.157L470.7,323.4a1.148,1.148,0,0,0,1.221-.26l6.148-6.148a1.147,1.147,0,0,0,.26-1.221l-1.462-3.821,2.157-5.2,3.725-1.662a1.151,1.151,0,0,0,.681-1.049v-8.7a1.148,1.148,0,0,0-.68-1.048Z" transform="translate(-367.6 -249.65)" fill="#f0f0f0"/>
  <path id="Path_13514" data-name="Path 13514" d="M352,230.6l3.726,1.662.425,1.027a16.311,16.311,0,0,1,2.232-.609l-.712-1.718a1.15,1.15,0,0,0-.593-.609l-3.463-1.545V221.6l3.463-1.545a1.15,1.15,0,0,0,.593-.609l2.506-6.049a1.15,1.15,0,0,0,.012-.85l-1.36-3.552,5.1-5.1,3.552,1.359a1.146,1.146,0,0,0,.85-.012l6.049-2.506a1.149,1.149,0,0,0,.609-.593l1.545-3.463h7.207l1.545,3.463a1.15,1.15,0,0,0,.609.593l1.717.711a16.362,16.362,0,0,1,.6-2.233l-1.021-.423-1.662-3.726a1.148,1.148,0,0,0-1.048-.68h-8.7a1.147,1.147,0,0,0-1.048.68l-1.662,3.725-5.2,2.157-3.821-1.462a1.146,1.146,0,0,0-1.221.26l-6.149,6.148a1.146,1.146,0,0,0-.26,1.221l1.462,3.821-2.157,5.2L352,219.8a1.148,1.148,0,0,0-.68,1.048v8.7a1.147,1.147,0,0,0,.68,1.05Z" transform="translate(-293.12 -175.168)" fill="#f0f0f0"/>
  <path id="Path_13515" data-name="Path 13515" d="M432.069,265.076a11.825,11.825,0,0,1,1.317.083l1.978-1.978a14.231,14.231,0,0,0-3.295-.4,14.375,14.375,0,0,0-14.358,14.358,14.181,14.181,0,0,0,.4,3.295l1.978-1.978a11.618,11.618,0,0,1-.083-1.317,12.077,12.077,0,0,1,12.063-12.064Z" transform="translate(-345.057 -227.107)" fill="#f0f0f0"/>
  <path id="Path_13516" data-name="Path 13516" d="M394.327,218.428a9.586,9.586,0,0,1,5.644-2.713l.066-.008c2.8-.358,4.818-1.137,6-2.318a9.956,9.956,0,0,0,2.451-10.058,1.148,1.148,0,0,0-1.907-.469l-3.779,3.817-4.146-4.106,3.817-3.817a1.148,1.148,0,0,0,.284-1.091,1.181,1.181,0,0,0-.791-.827,9.94,9.94,0,0,0-10.019,2.463c-1.18,1.18-1.959,3.2-2.319,6.009l-.007.054a9.582,9.582,0,0,1-2.713,5.644l-20.955,20.956a9.58,9.58,0,0,1-5.641,2.712l-.069.008c-2.8.358-4.818,1.137-6,2.318a9.956,9.956,0,0,0-2.451,10.058,1.147,1.147,0,0,0,1.906.469l3.779-3.817,4.144,4.107-3.817,3.817a1.148,1.148,0,0,0-.284,1.091,1.181,1.181,0,0,0,.791.827,10.013,10.013,0,0,0,2.985.457,9.887,9.887,0,0,0,7.034-2.919c1.18-1.18,1.959-3.2,2.317-6,0,0,0,0,0-.005l.008-.06a9.586,9.586,0,0,1,2.713-5.644Zm-25.946,26.32-.007.057c-.284,2.218-.874,3.874-1.663,4.662a7.617,7.617,0,0,1-5.731,2.24l2.266-2.266a2.267,2.267,0,0,0,0-3.206l-4.144-4.145a2.27,2.27,0,0,0-3.207,0l-2.266,2.266a7.642,7.642,0,0,1,2.24-5.73c.789-.789,2.446-1.38,4.709-1.669a11.894,11.894,0,0,0,7-3.37l20.956-20.956a11.923,11.923,0,0,0,3.375-7.041c.283-2.22.874-3.876,1.663-4.667a7.632,7.632,0,0,1,5.727-2.236l-2.262,2.263a2.27,2.27,0,0,0,0,3.207l4.145,4.144a2.27,2.27,0,0,0,3.207,0l2.266-2.266a7.642,7.642,0,0,1-2.24,5.73c-.789.789-2.447,1.38-4.709,1.669a11.888,11.888,0,0,0-7,3.369l-20.957,20.956a11.885,11.885,0,0,0-3.368,6.988Z" transform="translate(-293.128 -175.164)" fill="#f0f0f0"/>
</svg>
