<svg xmlns="http://www.w3.org/2000/svg" width="20.82" height="20.82" viewBox="0 0 20.82 20.82">
  <path id="noun-approval-1872977" d="M164.7,83.846l-.938-1.525h0a1.181,1.181,0,0,1-.174-.65l.049-1.79h0a1.179,1.179,0,0,0-.618-1.07l-1.575-.852a1.18,1.18,0,0,1-.476-.476l-.852-1.574h0a1.179,1.179,0,0,0-1.037-.618h-.033l-1.79.049h-.033a1.177,1.177,0,0,1-.617-.175l-1.526-.938a1.18,1.18,0,0,0-1.235,0l-1.526.938a1.177,1.177,0,0,1-.617.175h-.033l-1.79-.049h-.033a1.179,1.179,0,0,0-1.037.618l-.852,1.575a1.18,1.18,0,0,1-.476.476l-1.575.852a1.179,1.179,0,0,0-.618,1.07l.049,1.79a1.181,1.181,0,0,1-.174.65l-.938,1.525h0a1.18,1.18,0,0,0,0,1.235l.938,1.525h0a1.181,1.181,0,0,1,.174.65l-.049,1.79h0a1.179,1.179,0,0,0,.618,1.07l1.575.852a1.179,1.179,0,0,1,.476.476l.852,1.574h0a1.179,1.179,0,0,0,1.037.618h.033l1.79-.049h.033a1.178,1.178,0,0,1,.617.175l1.526.938h0a1.18,1.18,0,0,0,1.235,0l1.526-.938a1.177,1.177,0,0,1,.617-.175h.033l1.79.049h.033a1.18,1.18,0,0,0,1.037-.618l.852-1.574h0a1.18,1.18,0,0,1,.476-.476l1.575-.852a1.179,1.179,0,0,0,.618-1.07l-.049-1.79a1.18,1.18,0,0,1,.174-.65l.938-1.525h0a1.18,1.18,0,0,0,0-1.235Zm-5.776-1-4.718,5.9h0a1.181,1.181,0,0,1-.856.44l-.066,0a1.175,1.175,0,0,1-.834-.346l-2.359-2.359a1.179,1.179,0,0,1,1.668-1.668l1.427,1.427,3.894-4.869a1.18,1.18,0,0,1,1.843,1.474Z" transform="translate(-144.053 -74.054)" fill="#191970"/>
</svg>
