<svg xmlns="http://www.w3.org/2000/svg" width="16.282" height="23.077" viewBox="0 0 16.282 23.077">
  <g id="noun-easy-4676086" transform="translate(-217.02 -91.499)">
    <path id="Path_13824" data-name="Path 13824" d="M224.577,327.548l-4.8-5.116a.475.475,0,0,0-.343-.154.491.491,0,0,0-.343.13l-1.92,1.8a.483.483,0,0,0-.021.686l5.795,6.172a.48.48,0,0,0,.686.021l1.92-1.8a.49.49,0,0,0,.154-.343.479.479,0,0,0-.134-.343Zm-.686,1.872h0a.685.685,0,0,1-.459.182h-.021a.655.655,0,0,1-.466-.209.669.669,0,1,1,.946.031Z" transform="translate(0 -216.648)" fill="#191970"/>
    <path id="Path_13825" data-name="Path 13825" d="M273.129,148.906a.933.933,0,0,0-.655-.295.923.923,0,0,0-.686.254l-.528.521a.32.32,0,1,1-.439-.466l.538-.5.521-.49h0a.87.87,0,0,0-1.176-1.282l-.72.686h0a.319.319,0,1,1-.436-.466l1.029-.97a.972.972,0,1,0-1.331-1.416l-.778.73h0a.319.319,0,0,1-.435-.463l4.458-4.245h0a.847.847,0,0,0,.031-1.193.837.837,0,0,0-.59-.264.847.847,0,0,0-.607.23L264.235,146a.343.343,0,0,1-.343.058.322.322,0,0,1-.185-.3,4.756,4.756,0,0,0-1.31-2.976,2.932,2.932,0,0,0-2.057-1.118.494.494,0,0,0-.487.227,1.258,1.258,0,0,0,.048,1.231,8.547,8.547,0,0,1,1.029,5.054,7.606,7.606,0,0,1-.473,1.965l2.9,3.086,2.52,2.675,1.029-.549h0a14.935,14.935,0,0,0,3.134-2.26l3.041-2.856a.943.943,0,0,0,.045-1.33Z" transform="translate(-40.08 -44.631)" fill="#191970"/>
    <path id="Path_13826" data-name="Path 13826" d="M289.727,117.734a.32.32,0,1,0,.453-.453l-1.115-1.094a.319.319,0,0,0-.449,0,.312.312,0,0,0,0,.449Z" transform="translate(-67.123 -23.09)" fill="#191970"/>
    <path id="Path_13827" data-name="Path 13827" d="M344.272,93.711a.319.319,0,0,0,.319-.319V91.818a.319.319,0,0,0-.638,0v1.574A.319.319,0,0,0,344.272,93.711Z" transform="translate(-119.161)" fill="#191970"/>
    <path id="Path_13828" data-name="Path 13828" d="M382.937,117.279a.32.32,0,0,0,.226-.093l1.111-1.114a.312.312,0,0,0,0-.449.319.319,0,0,0-.449,0l-1.111,1.111a.319.319,0,0,0,.223.545Z" transform="translate(-155.46 -22.56)" fill="#191970"/>
  </g>
</svg>
