<svg xmlns="http://www.w3.org/2000/svg" width="47.867" height="40" viewBox="0 0 47.867 40">
  <g id="XMLID_10_" transform="translate(0 -30.608)">
    <g id="Group_6832" data-name="Group 6832" transform="translate(0 30.608)">
      <path id="Path_6925" data-name="Path 6925" d="M47.867,60.478a13.78,13.78,0,0,0-2.426-7.821,13.987,13.987,0,0,0-4.315-4.077A10.409,10.409,0,1,0,25.441,35.056a10.345,10.345,0,0,0-3.014,0A10.409,10.409,0,1,0,6.741,48.58a13.983,13.983,0,0,0-4.315,4.077A13.781,13.781,0,0,0,0,60.478V66.27H10.039v4.338H37.828V66.27H47.867V60.478Zm-13.894-27.3a7.844,7.844,0,0,1,0,15.688q-.116,0-.233,0c.006-.016.011-.033.017-.05a10.311,10.311,0,0,0,.335-1.168c.006-.028.013-.056.02-.085.023-.107.044-.216.064-.325.009-.051.019-.1.028-.154q.024-.146.044-.292c.009-.068.018-.136.026-.2.01-.086.02-.173.028-.26s.014-.178.02-.267c0-.07.01-.14.014-.211q.011-.227.012-.454c0-.011,0-.022,0-.033s0-.012,0-.018c0-.155,0-.309-.012-.462,0-.045,0-.089-.007-.134q-.011-.2-.03-.389c0-.029-.005-.059-.008-.088a10.362,10.362,0,0,0-6.181-8.452A7.867,7.867,0,0,1,33.972,33.178ZM21.219,38l.075-.027q.117-.042.236-.08l.181-.055.133-.038c.079-.022.159-.043.239-.062a7.8,7.8,0,0,1,3.7,0c.08.019.159.04.238.062l.135.038.179.055c.08.026.16.053.239.081l.073.026a7.869,7.869,0,0,1,5.035,6.138l.01.068c.014.1.026.193.037.29,0,.036.008.071.011.107.008.089.015.178.02.267,0,.038.006.076.007.115q.008.171.009.345c0,.01,0,.02,0,.03s0,.009,0,.014c0,.112,0,.223-.008.333,0,.035,0,.07-.005.1q-.009.16-.024.319c0,.041-.009.082-.014.122q-.012.1-.026.2c-.007.053-.015.106-.023.158q-.019.12-.043.239c-.014.071-.029.141-.044.211q-.014.063-.029.127-.038.156-.082.311c-.012.041-.023.082-.035.123-.018.059-.037.118-.056.176s-.031.094-.048.14-.037.106-.056.158q-.05.134-.1.265c-.016.039-.033.078-.05.117q-.048.109-.1.217l-.012.025-.037.076q-.057.116-.118.23c-.016.03-.031.059-.047.089l0,.006c-.044.081-.091.161-.138.24l-.056.094q-.077.125-.159.247c-.034.051-.069.1-.1.15s-.059.084-.09.126-.08.107-.121.16l-.084.107c-.043.054-.087.108-.131.161l-.084.1c-.046.053-.092.106-.14.158-.028.031-.058.06-.086.091q-.116.122-.237.24c-.048.046-.1.093-.145.138l-.1.092c-.056.05-.113.1-.171.148l-.089.073q-.1.085-.212.167l-.058.044a7.826,7.826,0,0,1-9.34,0l-.057-.044q-.108-.082-.213-.168l-.088-.072c-.058-.049-.115-.1-.171-.148l-.1-.092c-.049-.045-.1-.092-.145-.138q-.122-.118-.238-.24c-.028-.03-.057-.059-.085-.089-.048-.052-.094-.105-.14-.158l-.084-.1c-.045-.053-.088-.107-.131-.16l-.084-.107q-.061-.079-.12-.159c-.03-.042-.06-.084-.09-.126s-.07-.1-.1-.149q-.082-.122-.159-.248l-.056-.093c-.048-.08-.095-.161-.14-.243L17,49.032c-.041-.076-.08-.153-.118-.231l-.04-.083L16.84,48.7c-.036-.075-.07-.151-.1-.227-.016-.036-.032-.073-.047-.109q-.056-.134-.107-.271c-.018-.049-.035-.1-.053-.148s-.035-.1-.052-.153-.036-.111-.053-.167q-.038-.125-.072-.252c-.016-.059-.03-.119-.045-.179s-.022-.094-.033-.141-.026-.116-.037-.174q-.027-.136-.049-.273c-.008-.049-.015-.1-.022-.148q-.016-.11-.028-.22c0-.036-.009-.073-.013-.109-.011-.108-.019-.217-.025-.327,0-.031,0-.063,0-.094-.005-.117-.009-.235-.009-.353s0-.253.01-.378c0-.034,0-.068.006-.1.006-.094.012-.188.021-.281,0-.033.007-.065.01-.1.011-.1.024-.2.038-.3,0-.019.006-.039.009-.058A7.868,7.868,0,0,1,21.219,38ZM6.05,41.022a7.841,7.841,0,0,1,13.707-5.206,10.363,10.363,0,0,0-6.181,8.456c0,.025,0,.051-.007.077q-.019.2-.031.4c0,.041,0,.082-.007.123-.007.161-.012.322-.012.484s0,.328.012.491c0,.066.008.131.013.2.006.094.013.188.021.282s.017.166.027.249.017.144.028.216q.02.142.043.282c.009.056.02.111.03.167.019.1.039.209.061.313.007.034.016.068.024.1a10.292,10.292,0,0,0,.325,1.132c.008.024.015.048.024.071q-.116,0-.232,0A7.853,7.853,0,0,1,6.05,41.022Zm6.143,16.385c-.028.045-.055.09-.083.135-.059.095-.117.19-.173.286-.031.054-.062.108-.092.162-.051.089-.1.178-.149.268l-.09.171q-.07.134-.137.27c-.028.057-.056.113-.083.171-.045.1-.089.191-.133.287-.024.052-.048.1-.07.157-.05.115-.1.231-.145.348-.014.034-.028.068-.042.1q-.089.227-.17.457c-.012.035-.023.071-.036.106-.041.118-.08.236-.118.355-.017.055-.033.109-.049.164-.03.1-.06.2-.088.3-.017.06-.032.121-.048.182q-.038.146-.073.293-.022.093-.043.186c-.022.1-.043.2-.063.3-.012.06-.024.12-.035.18-.02.109-.038.218-.056.327-.008.051-.017.1-.025.154-.024.161-.046.322-.064.483v.006q-.025.221-.043.442H2.57V60.478a11.3,11.3,0,0,1,6.5-10.233,10.368,10.368,0,0,0,6.339,1.08c.078.111.158.222.24.33.028.036.057.072.085.108.081.1.164.207.249.307.035.041.071.082.106.122q.12.137.243.27c.043.047.088.093.132.138q.114.117.23.231c.029.028.057.058.086.087q-.168.1-.332.207l-.053.035q-.164.107-.326.218l-.111.078q-.144.1-.284.206l-.089.066q-.179.136-.354.276l-.076.063q-.139.114-.275.232l-.105.092q-.136.12-.269.244l-.07.064q-.163.154-.322.313l-.082.084q-.121.124-.24.251l-.094.1q-.133.146-.263.3l-.041.047q-.147.172-.289.35l-.078.1q-.107.136-.211.274l-.08.107c-.09.123-.18.248-.267.374S12.282,57.268,12.194,57.407Zm.415,10.631V64.816q0-.214.008-.427c0-.047.005-.093.008-.139,0-.095.009-.189.016-.283,0-.057.011-.114.016-.171.007-.083.014-.166.023-.249.007-.06.016-.12.023-.181.01-.079.019-.157.031-.235.009-.062.021-.124.031-.186s.024-.151.038-.226.026-.126.039-.189.029-.146.045-.218.031-.127.046-.19.034-.142.053-.212.036-.127.054-.19.039-.138.059-.207.041-.127.061-.19.043-.135.066-.2.045-.126.068-.188.048-.132.073-.2.05-.124.075-.186.052-.13.08-.194.055-.123.082-.184.057-.126.086-.189.059-.121.089-.182.061-.123.092-.185.064-.12.1-.179.065-.121.1-.18.068-.117.1-.176.069-.118.1-.176.072-.115.109-.172.073-.115.111-.172.077-.113.115-.169.077-.112.117-.167.081-.11.122-.165.081-.109.123-.162.085-.107.128-.161.085-.106.129-.158.089-.1.133-.156.089-.1.135-.154.092-.1.139-.151.093-.1.14-.149.1-.1.145-.146l.146-.144c.049-.047.1-.094.149-.141l.152-.139.155-.136.158-.134.16-.13L17,55.868l.164-.124.169-.124.169-.118.175-.118.173-.112.181-.113.177-.106.186-.107.181-.1.192-.1.185-.093.147-.07a10.38,10.38,0,0,0,9.657,0l.146.07.187.094.19.1.183.1.184.106.179.107.179.111.175.114.173.117.171.12.168.123.166.126.162.128.161.131.157.133c.052.045.1.09.156.137l.151.138c.051.047.1.094.151.142s.1.095.145.143.1.1.146.147l.14.148c.047.051.094.1.14.152s.09.1.134.153.09.1.134.157.086.1.128.157.086.107.129.162.082.107.122.162.082.11.122.166.078.111.116.166.078.113.116.17.074.113.11.171.074.115.11.174.07.116.1.175.07.118.1.177.066.12.1.179.065.119.1.18.062.123.092.184.06.121.089.182.058.126.086.189.056.123.082.185.053.128.079.192.051.125.076.188.049.131.073.2.047.125.068.189.044.135.066.2.042.126.061.19.04.138.059.207.037.126.054.19.035.141.053.212.032.127.046.19.03.145.045.218.027.126.039.189.026.149.038.224.022.125.031.188.021.156.031.233c.008.061.017.121.024.182.009.083.016.166.023.249.005.057.012.114.016.171.007.094.011.189.016.284,0,.046.006.093.008.139q.008.213.008.427v3.222H12.609ZM37.783,63.7q-.038-.47-.107-.933c-.007-.049-.016-.1-.024-.146-.018-.112-.036-.224-.057-.335-.011-.059-.023-.117-.035-.175q-.03-.152-.064-.3-.02-.091-.042-.182-.035-.149-.074-.3c-.016-.06-.031-.119-.048-.179-.028-.1-.058-.2-.089-.306-.016-.054-.032-.108-.048-.161-.038-.121-.078-.241-.119-.36-.012-.033-.022-.067-.034-.1q-.081-.23-.171-.458c-.013-.033-.027-.065-.04-.1-.047-.118-.1-.235-.147-.352-.022-.052-.046-.1-.069-.154-.044-.1-.088-.194-.134-.29-.027-.056-.055-.112-.082-.168q-.068-.137-.138-.272c-.03-.057-.059-.113-.09-.169q-.073-.136-.15-.269c-.031-.054-.061-.107-.092-.161-.057-.1-.115-.192-.174-.287-.028-.044-.054-.089-.082-.133q-.132-.208-.272-.412c-.087-.127-.176-.251-.267-.374l-.079-.107q-.1-.139-.212-.276l-.078-.1q-.142-.178-.29-.351l-.039-.044q-.13-.151-.265-.3l-.093-.1q-.119-.128-.241-.252l-.08-.082q-.159-.16-.323-.314l-.068-.063q-.134-.124-.271-.245l-.1-.091q-.136-.118-.276-.232L32.639,54q-.175-.141-.354-.276l-.09-.067q-.14-.1-.283-.2l-.112-.079q-.16-.11-.322-.216l-.057-.037q-.164-.105-.331-.207c.029-.027.056-.057.084-.084q.12-.116.235-.235c.043-.044.086-.089.128-.134.084-.09.166-.182.247-.275.034-.039.069-.079.1-.119.086-.1.17-.206.252-.312.027-.034.055-.068.081-.1.083-.109.162-.219.241-.331a10.371,10.371,0,0,0,6.339-1.08,11.3,11.3,0,0,1,6.5,10.233V63.7Z" transform="translate(0 -30.608)" fill="#191970"/>
    </g>
  </g>
</svg>
