<svg xmlns="http://www.w3.org/2000/svg" width="27.059" height="27.059" viewBox="0 0 27.059 27.059">
  <g id="Group_7847" data-name="Group 7847" transform="translate(-75.04 -27.7)">
    <path id="Path_13604" data-name="Path 13604" d="M147.622,66.279A11.156,11.156,0,0,0,136.409,77.2a.169.169,0,0,0,.233.161c2.19-.9,7.643-2.978,11.052-2.859,3.489.12,8.793,2.041,10.912,2.862a.161.161,0,0,0,.061.011.171.171,0,0,0,.1-.031.168.168,0,0,0,.071-.142,11.154,11.154,0,0,0-11.212-10.921Zm.083,7.883c-.1,0-.193,0-.291,0-3.351,0-8.376,1.866-10.657,2.79a10.88,10.88,0,0,1,21.732.008c-2.272-.87-7.368-2.675-10.783-2.793Z" transform="translate(-59.053 -36.269)" fill="#191970"/>
    <path id="Path_7317_-_Outline" data-name="Path 7317 - Outline" d="M147.622,65.978a11.452,11.452,0,0,1,11.512,11.213.468.468,0,0,1-.468.481.46.46,0,0,1-.174-.034c-2.1-.813-7.365-2.721-10.809-2.84-.09,0-.184,0-.278,0-3.364,0-8.568,1.987-10.65,2.841a.469.469,0,0,1-.646-.446,11.454,11.454,0,0,1,11.459-11.21h.054Zm10.534,10.53a10.577,10.577,0,0,0-21.067-.018c2.674-1.059,7.177-2.633,10.324-2.633.1,0,.2,0,.3.005h.032C151.025,73.985,155.834,75.639,158.157,76.508Z" transform="translate(-59.053 -36.269)" fill="#191970"/>
    <path id="Path_13605" data-name="Path 13605" d="M151.721,302.9a4.113,4.113,0,0,0-4.809-1.385l-3.475,1.293a.168.168,0,0,0-.1.2,11.173,11.173,0,0,0,9.325,8.231l.023,0a.169.169,0,0,0,.168-.176c-.052-1.254-.2-4.389-.437-6.4a3.806,3.806,0,0,0-.692-1.766Zm-8.022.171,3.33-1.239a3.773,3.773,0,0,1,4.417,1.264,3.469,3.469,0,0,1,.632,1.611c.224,1.9.367,4.813.426,6.173a10.836,10.836,0,0,1-8.8-7.807Z" transform="translate(-65.608 -258.896)" fill="#191970"/>
    <path id="Path_7318_-_Outline" data-name="Path 7318 - Outline" d="M148.428,300.94h0a4.32,4.32,0,0,1,3.538,1.786l.274.386-.026,0a4.031,4.031,0,0,1,.5,1.513c.239,2.028.386,5.168.438,6.424a.466.466,0,0,1-.153.366.47.47,0,0,1-.369.119h-.009a11.473,11.473,0,0,1-9.575-8.452.466.466,0,0,1,.289-.559l3.475-1.293A4.639,4.639,0,0,1,148.428,300.94Zm3.76,9.579c-.063-1.375-.2-4.029-.408-5.779a3.173,3.173,0,0,0-.579-1.473,3.38,3.38,0,0,0-2.772-1.391,3.7,3.7,0,0,0-1.3.235l-3.068,1.142a10.533,10.533,0,0,0,8.122,7.266Z" transform="translate(-65.608 -258.896)" fill="#191970"/>
    <path id="Path_13606" data-name="Path 13606" d="M111.229,28a13.229,13.229,0,1,0,13.229,13.229A13.245,13.245,0,0,0,111.229,28Zm0,26.122a12.892,12.892,0,1,1,12.892-12.892A12.907,12.907,0,0,1,111.229,54.122Z" transform="translate(-22.66)" fill="#191970"/>
    <path id="Path_7319_-_Outline" data-name="Path 7319 - Outline" d="M111.229,27.7A13.529,13.529,0,1,1,97.7,41.229,13.545,13.545,0,0,1,111.229,27.7Zm0,26.122A12.592,12.592,0,1,0,98.637,41.229,12.607,12.607,0,0,0,111.229,53.822Z" transform="translate(-22.66)" fill="#191970"/>
    <path id="Path_13607" data-name="Path 13607" d="M380.8,294.176a27.5,27.5,0,0,0-5.16-1.7c-1.5-.151-1.924.278-3.183,1.547l-.354.356c-1.287,1.287-1.047,6.294-.884,8.387a.169.169,0,0,0,.168.155h.021a11.254,11.254,0,0,0,9.491-8.545.169.169,0,0,0-.1-.195Zm-9.258,8.382c-.131-1.779-.38-6.765.8-7.945l.355-.357c1.072-1.081,1.464-1.477,2.421-1.477.148,0,.31.009.489.027a27.359,27.359,0,0,1,4.931,1.627,10.918,10.918,0,0,1-9,8.124Z" transform="translate(-281.409 -250.56)" fill="#191970"/>
    <path id="Path_7320_-_Outline" data-name="Path 7320 - Outline" d="M375.114,292.143h0a5.5,5.5,0,0,1,.552.03,27.64,27.64,0,0,1,5.243,1.725l.149.061.009.045a.467.467,0,0,1,.121.435,11.555,11.555,0,0,1-9.743,8.774.443.443,0,0,1-.062,0,.469.469,0,0,1-.467-.433c-.206-2.651-.355-7.3.971-8.622l.359-.361C373.342,292.7,373.892,292.143,375.114,292.143Zm5.063,2.47a25.755,25.755,0,0,0-4.6-1.507c-.175-.017-.325-.026-.459-.026-.831,0-1.15.322-2.208,1.388l-.355.357c-.849.849-.939,4.31-.736,7.385a10.624,10.624,0,0,0,8.362-7.6Z" transform="translate(-281.409 -250.56)" fill="#191970"/>
    <path id="Path_13608" data-name="Path 13608" d="M305.219,242.678a2.41,2.41,0,1,0-2.41,2.41A2.413,2.413,0,0,0,305.219,242.678Zm-2.41,2.073a2.073,2.073,0,1,1,2.073-2.073A2.075,2.075,0,0,1,302.809,244.75Z" transform="translate(-214.435 -201.124)" fill="#191970"/>
    <path id="Path_7321_-_Outline" data-name="Path 7321 - Outline" d="M302.81,239.968a2.71,2.71,0,1,1-2.71,2.71A2.713,2.713,0,0,1,302.81,239.968Zm0,4.482a1.773,1.773,0,1,0-1.773-1.773A1.761,1.761,0,0,0,302.809,244.45Z" transform="translate(-214.435 -201.124)" fill="#191970"/>
    <path id="Path_13609" data-name="Path 13609" d="M321.935,260.45a1.35,1.35,0,1,0,1.35,1.35A1.351,1.351,0,0,0,321.935,260.45Zm0,2.363a1.013,1.013,0,1,1,1.013-1.013A1.014,1.014,0,0,1,321.935,262.813Z" transform="translate(-233.56 -220.247)" fill="#191970"/>
    <path id="Path_7322_-_Outline" data-name="Path 7322 - Outline" d="M321.935,260.15a1.65,1.65,0,1,1-1.65,1.65A1.652,1.652,0,0,1,321.935,260.15Zm0,2.363a.713.713,0,1,0-.713-.713A.708.708,0,0,0,321.935,262.513Z" transform="translate(-233.56 -220.247)" fill="#191970"/>
  </g>
</svg>
