<svg xmlns="http://www.w3.org/2000/svg" width="36.303" height="34.033" viewBox="0 0 36.303 34.033">
  <g id="Group_6473" data-name="Group 6473" transform="translate(-70 -17.5)">
    <path id="Path_13081" data-name="Path 13081" d="M608.9,241.491a.567.567,0,0,0-.459.658c.015.091.03.185.045.284a.568.568,0,0,0,.567.479h.091a.567.567,0,0,0,.471-.65q-.023-.145-.048-.284h0a.567.567,0,0,0-.667-.488Z" transform="translate(-503.525 -209.462)" fill="#191970"/>
    <path id="Path_13082" data-name="Path 13082" d="M600.132,208.061c.028.088.054.176.079.264A.568.568,0,1,0,601.3,208l-.085-.284a.568.568,0,0,0-1.083.34Z" transform="translate(-495.742 -177.514)" fill="#191970"/>
    <path id="Path_13085" data-name="Path 13085" d="M612.236,276.94v.284a.567.567,0,0,0,.567.55h.017a.567.567,0,0,0,.567-.593V276.9a.576.576,0,0,0-1.151.043Z" transform="translate(-507.086 -242.075)" fill="#191970"/>
    <g id="Group_6513" data-name="Group 6513" transform="translate(70 17.5)">
      <path id="Path_13075" data-name="Path 13075" d="M405.641,26.18l.267.065h0a.558.558,0,0,0,.142.017.567.567,0,0,0,.13-1.112l-.284-.071a.567.567,0,0,0-.255,1.1Z" transform="translate(-383.519 -24.584)" fill="#191970"/>
      <path id="Path_13076" data-name="Path 13076" d="M300.346,21.091h.085l.284-.04a.572.572,0,1,0-.153-1.134l-.284.043a.569.569,0,0,0,.085,1.134Z" transform="translate(-284.858 -19.755)" fill="#191970"/>
      <path id="Path_13077" data-name="Path 13077" d="M266.729,28.278a.569.569,0,0,0,.156-.023l.264-.074a.567.567,0,0,0-.284-1.095l-.284.08a.567.567,0,0,0,.156,1.112Z" transform="translate(-253.456 -26.457)" fill="#191970"/>
      <path id="Path_13078" data-name="Path 13078" d="M335.557,18.634h.284a.567.567,0,1,0,0-1.134h-.284a.567.567,0,0,0,0,1.134Z" transform="translate(-317.812 -17.5)" fill="#191970"/>
      <path id="Path_13079" data-name="Path 13079" d="M370.655,19.991l.284.031h.068a.568.568,0,0,0,.068-1.134l-.284-.034h0a.57.57,0,1,0-.119,1.134Z" transform="translate(-350.704 -18.763)" fill="#191970"/>
      <path id="Path_13080" data-name="Path 13080" d="M526.544,91.443a.568.568,0,1,0,.789-.817l-.213-.2h0a.567.567,0,1,0-.774.828Z" transform="translate(-496.58 -85.541)" fill="#191970"/>
      <path id="Path_13083" data-name="Path 13083" d="M587.654,175.769l.113.25a.568.568,0,0,0,1.038-.459l-.119-.267h0a.567.567,0,0,0-1.029.476Z" transform="translate(-554.052 -164.759)" fill="#191970"/>
      <path id="Path_13084" data-name="Path 13084" d="M499.857,69.411l.221.162a.567.567,0,0,0,.675-.91l-.235-.173h0a.567.567,0,0,0-.661.922Z" transform="translate(-471.78 -65.092)" fill="#191970"/>
      <path id="Path_13086" data-name="Path 13086" d="M202.4,55.128a.567.567,0,0,0,.284-.082l.23-.136a.567.567,0,0,0-.567-.981l-.252.147a.567.567,0,0,0,.284,1.055Z" transform="translate(-193.273 -51.506)" fill="#191970"/>
      <path id="Path_13087" data-name="Path 13087" d="M550.578,116.848a.571.571,0,1,0,.891-.715l-.184-.224a.567.567,0,1,0-.874.723Z" transform="translate(-519.137 -109.327)" fill="#191970"/>
      <path id="Path_13088" data-name="Path 13088" d="M570.694,144.633a.568.568,0,0,0,.97-.59l-.153-.25h0a.567.567,0,1,0-.958.6Z" transform="translate(-537.997 -135.317)" fill="#191970"/>
      <path id="Path_13089" data-name="Path 13089" d="M470.117,50.809l.241.133a.57.57,0,0,0,.567-.99l-.258-.142a.567.567,0,0,0-.539,1Z" transform="translate(-443.911 -47.653)" fill="#191970"/>
      <path id="Path_13090" data-name="Path 13090" d="M105.654,151.738a.567.567,0,0,0,.774-.213l.136-.238a.567.567,0,1,0-.976-.567l-.147.255a.567.567,0,0,0,.213.763Z" transform="translate(-103.079 -141.772)" fill="#191970"/>
      <path id="Path_13091" data-name="Path 13091" d="M90.407,183.652a.567.567,0,0,0,.74-.312l.1-.252a.568.568,0,0,0-1.044-.448l-.113.284a.567.567,0,0,0,.312.729Z" transform="translate(-88.756 -171.612)" fill="#191970"/>
      <path id="Path_13092" data-name="Path 13092" d="M70.567,285.793a.567.567,0,0,0,.567-.567v-.284a.567.567,0,1,0-1.134,0v.284a.567.567,0,0,0,.567.567Z" transform="translate(-70 -267.075)" fill="#191970"/>
      <path id="Path_13093" data-name="Path 13093" d="M79.451,216.93a.567.567,0,0,0,.7-.4q.034-.133.071-.264a.567.567,0,0,0-1.092-.306q-.04.142-.076.284a.567.567,0,0,0,.4.689Z" transform="translate(-78.45 -202.718)" fill="#191970"/>
      <path id="Path_13094" data-name="Path 13094" d="M233.637,38.507l-.267.113a.574.574,0,1,0,.451,1.055l.252-.108h0a.567.567,0,0,0-.437-1.046Z" transform="translate(-222.454 -37.123)" fill="#191970"/>
      <path id="Path_13095" data-name="Path 13095" d="M439.01,36.045a.567.567,0,0,0-.318-.737l-.284-.108A.568.568,0,0,0,438,36.261l.258.1h0a.567.567,0,0,0,.737-.318Z" transform="translate(-413.806 -34.017)" fill="#191970"/>
      <path id="Path_13096" data-name="Path 13096" d="M72.57,250.582h.074a.567.567,0,0,0,.567-.494,2.166,2.166,0,0,1,.037-.284.573.573,0,1,0-1.134-.164,2.262,2.262,0,0,1-.04.284.567.567,0,0,0,.5.658Z" transform="translate(-71.932 -234.133)" fill="#191970"/>
      <path id="Path_13097" data-name="Path 13097" d="M173.812,74.366a.568.568,0,0,0,.352-.122l.215-.167a.568.568,0,0,0-.689-.9l-.232.179h0a.567.567,0,0,0,.352,1.012Z" transform="translate(-166.549 -69.457)" fill="#191970"/>
      <path id="Path_13098" data-name="Path 13098" d="M124.742,123.285a.567.567,0,0,0,.794-.11l.167-.218h0a.567.567,0,1,0-.9-.695l-.176.232h0a.567.567,0,0,0,.111.791Z" transform="translate(-120.984 -115.254)" fill="#191970"/>
      <path id="Path_13099" data-name="Path 13099" d="M148.025,96.816a.567.567,0,0,0,.406-.17l.2-.2a.567.567,0,1,0-.791-.805l-.2.207h0a.567.567,0,0,0,.405.964Z" transform="translate(-142.447 -90.389)" fill="#191970"/>
      <path id="Path_13100" data-name="Path 13100" d="M106.1,430.524a.708.708,0,0,1,.156-.519.6.6,0,0,1,.383-.136.568.568,0,0,0,.065-1.134,1.73,1.73,0,0,0-1.219.437,1.769,1.769,0,0,0-.519,1.353V431a.567.567,0,0,0,1.134,0Z" transform="translate(-102.692 -402.075)" fill="#191970"/>
      <path id="Path_13101" data-name="Path 13101" d="M78.724,394.62a3.991,3.991,0,0,1-1.418,1.078h.806a2.008,2.008,0,0,1,2.1,1.88v5.493H71.134v-5.493a2.007,2.007,0,0,1,2.1-1.88h.806a3.993,3.993,0,0,1-1.418-1.078A3.08,3.08,0,0,0,70,397.578V403.6a.627.627,0,0,0,.647.6H80.7a.627.627,0,0,0,.647-.6v-6.027a3.08,3.08,0,0,0-2.621-2.958Z" transform="translate(-70 -370.173)" fill="#191970"/>
      <path id="Path_13102" data-name="Path 13102" d="M119.422,314.556a2.836,2.836,0,1,0-.831,2.006A2.837,2.837,0,0,0,119.422,314.556Zm-4.538,0a1.7,1.7,0,1,1,.5,1.2A1.7,1.7,0,0,1,114.884,314.556Z" transform="translate(-110.914 -292.647)" fill="#191970"/>
      <path id="Path_13103" data-name="Path 13103" d="M106.134,490.567a.567.567,0,1,1-.567-.567.567.567,0,0,1,.567.567" transform="translate(-102.731 -459.37)" fill="#191970"/>
      <path id="Path_13104" data-name="Path 13104" d="M491.094,430.524a.708.708,0,0,1,.156-.519.6.6,0,0,1,.383-.136.568.568,0,0,0,.062-1.134,1.731,1.731,0,0,0-1.22.437,1.77,1.77,0,0,0-.516,1.353V431a.567.567,0,1,0,1.134,0Z" transform="translate(-462.733 -402.075)" fill="#191970"/>
      <path id="Path_13105" data-name="Path 13105" d="M463.724,394.62a3.991,3.991,0,0,1-1.418,1.078h.805a2.008,2.008,0,0,1,2.1,1.88v5.493h-9.078v-5.493a2.007,2.007,0,0,1,2.1-1.88h.806a3.985,3.985,0,0,1-1.418-1.078A3.08,3.08,0,0,0,455,397.578V403.6a.627.627,0,0,0,.647.6H465.7a.627.627,0,0,0,.647-.6v-6.027a3.08,3.08,0,0,0-2.621-2.958Z" transform="translate(-430.042 -370.173)" fill="#191970"/>
      <path id="Path_13106" data-name="Path 13106" d="M501.586,317.392a2.836,2.836,0,1,0-2.006-.831A2.837,2.837,0,0,0,501.586,317.392Zm0-4.538a1.7,1.7,0,1,1-1.2.5A1.7,1.7,0,0,1,501.586,312.854Z" transform="translate(-470.956 -292.647)" fill="#191970"/>
      <path id="Path_13107" data-name="Path 13107" d="M491.134,490.567a.567.567,0,1,1-.567-.567.567.567,0,0,1,.567.567" transform="translate(-462.773 -459.37)" fill="#191970"/>
      <path id="Path_13108" data-name="Path 13108" d="M298.594,176.773a.708.708,0,0,1,.156-.519.6.6,0,0,1,.383-.136.568.568,0,1,0,.062-1.134,1.727,1.727,0,0,0-1.219.437,1.77,1.77,0,0,0-.516,1.353v.479a.567.567,0,0,0,1.134,0Z" transform="translate(-282.712 -164.774)" fill="#191970"/>
      <path id="Path_13109" data-name="Path 13109" d="M271.41,141.49a4,4,0,0,1-1.086,1.038h.284a2.007,2.007,0,0,1,2.1,1.88V149.9h-9.076v-5.493a2.007,2.007,0,0,1,2.1-1.88h.284a4,4,0,0,1-1.083-1.038,3.06,3.06,0,0,0-2.436,2.918v6.027a.627.627,0,0,0,.647.6H273.2a.627.627,0,0,0,.647-.6v-6.027a3.06,3.06,0,0,0-2.436-2.918Z" transform="translate(-250.023 -133.452)" fill="#191970"/>
      <path id="Path_13110" data-name="Path 13110" d="M311.922,65.176a2.836,2.836,0,1,0-.831,2.006A2.837,2.837,0,0,0,311.922,65.176Zm-4.538,0a1.7,1.7,0,1,1,.5,1.2A1.7,1.7,0,0,1,307.384,65.176Z" transform="translate(-290.935 -59.433)" fill="#191970"/>
      <path id="Path_13111" data-name="Path 13111" d="M298.634,236.817a.567.567,0,1,1-.567-.567.567.567,0,0,1,.567.567" transform="translate(-282.752 -222.07)" fill="#191970"/>
      <path id="Path_13112" data-name="Path 13112" d="M321.373,313.9a.567.567,0,0,0,.567-.567v-4.589l.374.581a.568.568,0,0,0,.956-.613l-1.418-2.209a.567.567,0,0,0-.956,0l-1.418,2.209a.568.568,0,1,0,.956.613l.372-.581v4.589a.567.567,0,0,0,.567.567Z" transform="translate(-303.222 -287.525)" fill="#191970"/>
      <path id="Path_13113" data-name="Path 13113" d="M273.759,443.336l-2.158-1.373h0a.567.567,0,0,0-.607.959l.587.371h-6.239l.584-.371a.567.567,0,1,0-.607-.959l-2.158,1.373a.567.567,0,0,0,0,1.049l2.158,1.373a.567.567,0,1,0,.607-.959l-.584-.372h6.239L271,444.8a.567.567,0,1,0,.607.959l2.158-1.373a.567.567,0,0,0,0-1.049Z" transform="translate(-250.309 -414.365)" fill="#191970"/>
    </g>
  </g>
</svg>
