<svg xmlns="http://www.w3.org/2000/svg" width="39.772" height="39.772" viewBox="0 0 39.772 39.772">
  <g id="noun-sedan-tyre-1931329" transform="translate(0)">
    <path id="Path_6890" data-name="Path 6890" d="M207.87,126.56a11.352,11.352,0,1,0,11.31,11.352A11.3,11.3,0,0,0,207.87,126.56Zm0,7.872a.565.565,0,0,1,.578.58.64.64,0,0,1-.578.663.652.652,0,0,1-.661-.663A.7.7,0,0,1,207.87,134.432ZM210.1,139.9a.6.6,0,1,1-.825-.166C209.439,139.569,209.851,139.652,210.1,139.9Zm.33-3.48a.6.6,0,1,1-.413.746A.673.673,0,0,1,210.429,136.42ZM207.87,139.4a1.491,1.491,0,1,1,1.486-1.491A1.483,1.483,0,0,1,207.87,139.4Zm-2.229.5a.6.6,0,1,1,.165.828A.624.624,0,0,1,205.641,139.9Zm-.743-2.237a.593.593,0,0,1-.413-.746.628.628,0,0,1,.743-.414.593.593,0,0,1,.413.746C205.641,137.58,205.228,137.746,204.9,137.663Zm1.238-9.86.165,1.077h.5V133.6a4.4,4.4,0,0,0-2.807,2.071l-4.375-1.491.165-.5-.908-.5a10.165,10.165,0,0,1,7.265-5.386Zm-4.788,16.489-.743.746a10.107,10.107,0,0,1-2.889-7.126c0-.5.083-.994.083-1.491l1.073.166.165-.5,4.458,1.409v.414a4.314,4.314,0,0,0,1.073,2.9l-2.724,3.812Zm6.522,3.894a10.472,10.472,0,0,1-4.541-1.077l.5-.911-.413-.331,2.724-3.812a4.047,4.047,0,0,0,1.734.332,5.85,5.85,0,0,0,1.734-.332l2.724,3.812-.413.331.5.994A11.733,11.733,0,0,1,207.87,148.186Zm10.072-11.766a9.025,9.025,0,0,1,.083,1.491,9.964,9.964,0,0,1-2.889,7.126l-.743-.746-.413.331-2.724-3.811a4.475,4.475,0,0,0,1.073-2.9V137.5l4.458-1.409.165.5ZM215.96,133.6l.165.5-4.458,1.491a4.791,4.791,0,0,0-2.807-2.071V128.8h.5l.165-1.077a10.427,10.427,0,0,1,7.347,5.3Z" transform="translate(-188.025 -118.025)" fill="#191970"/>
    <path id="Path_6891" data-name="Path 6891" d="M122.824,34.719a18.146,18.146,0,1,0,18.1,18.146A18.12,18.12,0,0,0,122.824,34.719Zm0,30.492a12.346,12.346,0,1,1,12.318-12.346A12.363,12.363,0,0,1,122.824,65.211Z" transform="translate(-102.98 -32.979)" fill="none" stroke="#191970" stroke-width="0.5"/>
    <path id="Path_6892" data-name="Path 6892" d="M85.805,220.64l-1.077.663a5.59,5.59,0,0,0-.166,1.16l1.077-.746a4.2,4.2,0,0,1,.166-1.077Z" transform="translate(-84.314 -205.145)" fill="#191970"/>
    <path id="Path_6893" data-name="Path 6893" d="M95.093,178.08l-1.16.414c-.166.331-.249.746-.414,1.077l1.16-.58a3.06,3.06,0,0,0,.414-.911Z" transform="translate(-92.607 -165.734)" fill="#191970"/>
    <path id="Path_6894" data-name="Path 6894" d="M170.713,70.808l-1.243-.249c-.331.249-.58.58-.911.829l1.326.083C170.133,71.222,170.465,71.056,170.713,70.808Z" transform="translate(-162.11 -66.167)" fill="#191970"/>
    <path id="Path_6895" data-name="Path 6895" d="M88.291,198.24l-1.16.5a6.1,6.1,0,0,1-.331,1.16l1.16-.58a5.377,5.377,0,0,0,.331-1.077Z" transform="translate(-86.385 -184.403)" fill="#191970"/>
    <path id="Path_6896" data-name="Path 6896" d="M115.216,394.24l-.414,1.16c.166.332.414.663.58.994l.331-1.243A9.067,9.067,0,0,1,115.216,394.24Z" transform="translate(-112.316 -365.902)" fill="#191970"/>
    <path id="Path_6897" data-name="Path 6897" d="M139.19,104.16h-1.243a8.811,8.811,0,0,0-.746.911l1.326-.083A7.24,7.24,0,0,1,139.19,104.16Z" transform="translate(-133.058 -97.283)" fill="#191970"/>
    <path id="Path_6898" data-name="Path 6898" d="M113.262,138.88l-1.243.249c-.166.331-.414.663-.58.994l1.243-.331C112.931,139.46,113.1,139.128,113.262,138.88Z" transform="translate(-109.202 -129.434)" fill="#191970"/>
    <path id="Path_6899" data-name="Path 6899" d="M125.664,120.96l-1.243.083c-.249.331-.414.663-.663.994l1.326-.249A7.175,7.175,0,0,1,125.664,120.96Z" transform="translate(-120.61 -112.84)" fill="#191970"/>
    <path id="Path_6900" data-name="Path 6900" d="M103.1,157.92l-1.243.331c-.166.331-.331.746-.5,1.077l1.243-.414A11.089,11.089,0,0,1,103.1,157.92Z" transform="translate(-99.869 -147.065)" fill="#191970"/>
    <path id="Path_6901" data-name="Path 6901" d="M105.218,374.08l-.5,1.16c.166.331.331.746.5,1.077l.414-1.243A5.09,5.09,0,0,0,105.218,374.08Z" transform="translate(-102.981 -347.234)" fill="#191970"/>
    <path id="Path_6902" data-name="Path 6902" d="M96.422,352.8l-.663,1.077c.166.414.249.746.414,1.077l.58-1.16A4.676,4.676,0,0,1,96.422,352.8Z" transform="translate(-94.682 -327.528)" fill="#191970"/>
    <path id="Path_6903" data-name="Path 6903" d="M82.359,241.92l-1.077.746c0,.414-.083.746-.083,1.16l.994-.828c.083-.331.083-.746.166-1.077Z" transform="translate(-81.199 -224.851)" fill="#191970"/>
    <path id="Path_6904" data-name="Path 6904" d="M127.12,414.526a8.676,8.676,0,0,0,.663.911l.249-1.243c-.166-.331-.414-.58-.58-.911Z" transform="translate(-123.723 -383.536)" fill="#191970"/>
    <path id="Path_6905" data-name="Path 6905" d="M89.789,331.52l-.746,1.077a6.1,6.1,0,0,0,.331,1.16l.663-1.16c-.083-.414-.166-.746-.249-1.077Z" transform="translate(-88.463 -307.822)" fill="#191970"/>
    <path id="Path_6906" data-name="Path 6906" d="M85.392,309.12l-.828.994c.083.414.166.746.249,1.16l.746-1.077a5.7,5.7,0,0,1-.166-1.077Z" transform="translate(-84.314 -287.08)" fill="#191970"/>
    <path id="Path_6907" data-name="Path 6907" d="M82.194,264.32l-.994.828v1.16l.911-.911c0-.331.083-.746.083-1.077Z" transform="translate(-81.2 -245.593)" fill="#191970"/>
    <path id="Path_6908" data-name="Path 6908" d="M82.111,286.72l-.911.911c0,.414.083.746.083,1.16l.829-.994a2.363,2.363,0,0,0,0-1.077Z" transform="translate(-81.2 -266.337)" fill="#191970"/>
    <path id="Path_6909" data-name="Path 6909" d="M141.68,433.562c.249.331.5.58.746.911l.083-1.326c-.248-.249-.414-.58-.663-.829Z" transform="translate(-137.206 -401.164)" fill="#191970"/>
    <path id="Path_6910" data-name="Path 6910" d="M433.251,25.094l-.414-1.16c-.332-.166-.746-.249-1.077-.414l.58,1.16a3.061,3.061,0,0,0,.911.414Z" transform="translate(-405.881 -22.608)" fill="#191970"/>
    <path id="Path_6911" data-name="Path 6911" d="M495.555,55.664l-.083-1.243c-.331-.249-.663-.414-.994-.663l.248,1.326a7.186,7.186,0,0,1,.829.58Z" transform="translate(-463.969 -50.61)" fill="#191970"/>
    <path id="Path_6912" data-name="Path 6912" d="M189.753,57.453l-1.243-.331a8.671,8.671,0,0,0-.911.663l1.243.249A8.7,8.7,0,0,1,189.753,57.453Z" transform="translate(-179.745 -53.724)" fill="#191970"/>
    <path id="Path_6913" data-name="Path 6913" d="M454.449,33.1l-.332-1.243c-.331-.166-.746-.331-1.077-.5l.414,1.243A11.08,11.08,0,0,1,454.449,33.1Z" transform="translate(-425.591 -29.868)" fill="#191970"/>
    <path id="Path_6914" data-name="Path 6914" d="M475.563,43.264l-.249-1.243c-.249-.166-.663-.331-.994-.58l.331,1.243C474.982,42.933,475.314,43.1,475.563,43.264Z" transform="translate(-445.299 -39.204)" fill="#191970"/>
    <path id="Path_6915" data-name="Path 6915" d="M519.12,462.188l1.243.083.828-.828h-1.326A3.161,3.161,0,0,1,519.12,462.188Z" transform="translate(-486.805 -428.133)" fill="#191970"/>
    <path id="Path_6916" data-name="Path 6916" d="M334.32,535.36l.828.994h1.16l-.911-.911C335.065,535.443,334.651,535.36,334.32,535.36Z" transform="translate(-315.635 -496.582)" fill="#191970"/>
    <path id="Path_6917" data-name="Path 6917" d="M153.917,86.4l-1.326-.166-.828.828h1.326c.248-.166.5-.414.828-.663Z" transform="translate(-146.543 -80.686)" fill="#191970"/>
    <path id="Path_6918" data-name="Path 6918" d="M340.79,12.194l-.829-.994H338.8l.911.911c.332,0,.746.083,1.077.083Z" transform="translate(-319.786 -11.2)" fill="#191970"/>
    <path id="Path_6919" data-name="Path 6919" d="M227.918,34.181l-1.16-.58c-.332.166-.746.331-1.077.5l1.243.414A2.358,2.358,0,0,0,227.918,34.181Z" transform="translate(-215.016 -31.944)" fill="#191970"/>
    <path id="Path_6920" data-name="Path 6920" d="M270.478,19.789l-1.077-.746a6.1,6.1,0,0,0-1.16.331l1.16.663c.414-.083.746-.166,1.077-.249Z" transform="translate(-254.434 -18.463)" fill="#191970"/>
    <path id="Path_6921" data-name="Path 6921" d="M250.236,26.421l-1.077-.663c-.414.166-.746.249-1.077.414l1.16.58A4.675,4.675,0,0,1,250.236,26.421Z" transform="translate(-235.763 -24.681)" fill="#191970"/>
    <path id="Path_6922" data-name="Path 6922" d="M411.018,18.292l-.5-1.16a6.1,6.1,0,0,1-1.16-.331l.58,1.16A5.373,5.373,0,0,0,411.018,18.292Z" transform="translate(-385.136 -16.386)" fill="#191970"/>
    <path id="Path_6923" data-name="Path 6923" d="M208.79,45.214l-1.16-.414c-.331.166-.663.414-.994.58l1.243.331A9.068,9.068,0,0,1,208.79,45.214Z" transform="translate(-197.376 -42.314)" fill="#191970"/>
    <path id="Path_6924" data-name="Path 6924" d="M317.351,12.111l-.911-.911c-.414,0-.746.083-1.16.083l.994.829a2.362,2.362,0,0,0,1.077,0Z" transform="translate(-298.001 -11.2)" fill="#191970"/>
    <path id="Path_6925" data-name="Path 6925" d="M386.542,15.8l-.663-1.077a5.59,5.59,0,0,0-1.16-.166l.746,1.077a4.194,4.194,0,0,1,1.077.166Z" transform="translate(-362.313 -14.313)" fill="#191970"/>
    <path id="Path_6926" data-name="Path 6926" d="M364.228,12.359l-.746-1.077c-.414,0-.746-.083-1.16-.083l.829.994c.331.083.746.083,1.077.166Z" transform="translate(-341.57 -11.199)" fill="#191970"/>
    <path id="Path_6927" data-name="Path 6927" d="M293.913,15.392l-.994-.829c-.414.083-.746.166-1.16.249l1.077.746a5.7,5.7,0,0,1,1.077-.166Z" transform="translate(-276.216 -14.314)" fill="#191970"/>
    <path id="Path_6928" data-name="Path 6928" d="M483.28,491.14l1.243.331a8.681,8.681,0,0,0,.911-.663l-1.243-.248A8.762,8.762,0,0,1,483.28,491.14Z" transform="translate(-453.599 -455.097)" fill="#191970"/>
    <path id="Path_6929" data-name="Path 6929" d="M464.24,503.378l1.16.414c.331-.166.663-.414.994-.58l-1.243-.331A9.078,9.078,0,0,1,464.24,503.378Z" transform="translate(-435.965 -466.506)" fill="#191970"/>
    <path id="Path_6930" data-name="Path 6930" d="M502.32,478.82l1.243.248c.331-.248.58-.5.911-.746l-1.326-.083A5.047,5.047,0,0,0,502.32,478.82Z" transform="translate(-471.234 -443.688)" fill="#191970"/>
    <path id="Path_6931" data-name="Path 6931" d="M444.08,513.373l1.16.5c.331-.166.746-.331,1.077-.5l-1.243-.415A5.088,5.088,0,0,0,444.08,513.373Z" transform="translate(-417.293 -475.838)" fill="#191970"/>
    <path id="Path_6932" data-name="Path 6932" d="M535.92,444.431h1.243c.249-.331.5-.58.745-.911l-1.326.083A7.262,7.262,0,0,1,535.92,444.431Z" transform="translate(-502.362 -411.536)" fill="#191970"/>
    <path id="Path_6933" data-name="Path 6933" d="M311.92,533.12l.746,1.077c.414,0,.746.083,1.16.083l-.828-.994C312.666,533.2,312.251,533.2,311.92,533.12Z" transform="translate(-294.888 -494.508)" fill="#191970"/>
    <path id="Path_6934" data-name="Path 6934" d="M356.72,535.7l.912.911c.414,0,.746-.083,1.16-.083l-.994-.828A2.362,2.362,0,0,0,356.72,535.7Z" transform="translate(-336.382 -496.841)" fill="#191970"/>
    <path id="Path_6935" data-name="Path 6935" d="M379.12,532.167l.994.829c.414-.083.746-.166,1.16-.249L380.2,532A5.707,5.707,0,0,1,379.12,532.167Z" transform="translate(-357.128 -493.472)" fill="#191970"/>
    <path id="Path_6936" data-name="Path 6936" d="M401.52,527.765l1.077.746a6.106,6.106,0,0,0,1.16-.331l-1.16-.663C402.183,527.6,401.852,527.683,401.52,527.765Z" transform="translate(-377.875 -489.319)" fill="#191970"/>
    <path id="Path_6937" data-name="Path 6937" d="M422.8,521.131l1.077.663c.414-.165.746-.248,1.077-.414l-1.16-.58A4.689,4.689,0,0,1,422.8,521.131Z" transform="translate(-397.584 -483.099)" fill="#191970"/>
    <path id="Path_6938" data-name="Path 6938" d="M533.39,82.591l-.829-.829v1.326l.746.746Z" transform="translate(-499.252 -76.542)" fill="#191970"/>
    <path id="Path_6939" data-name="Path 6939" d="M598.64,316.542l1.077-.663a5.573,5.573,0,0,0,.166-1.16l-1.077.746a4.2,4.2,0,0,1-.166,1.077Z" transform="translate(-560.442 -292.264)" fill="#191970"/>
    <path id="Path_6940" data-name="Path 6940" d="M156.24,451.482l.828.829v-1.326l-.746-.745Z" transform="translate(-150.688 -417.759)" fill="#191970"/>
    <path id="Path_6941" data-name="Path 6941" d="M550.48,425.555l1.243-.083c.249-.331.414-.663.663-.994l-1.326.249A7.161,7.161,0,0,1,550.48,425.555Z" transform="translate(-515.845 -393.903)" fill="#191970"/>
    <path id="Path_6942" data-name="Path 6942" d="M593.04,341.018l1.16-.5a6.1,6.1,0,0,1,.331-1.16l-1.16.58a5.376,5.376,0,0,0-.331,1.077Z" transform="translate(-555.257 -315.083)" fill="#191970"/>
    <path id="Path_6943" data-name="Path 6943" d="M563.92,405.563l1.243-.249c.166-.331.414-.663.58-.994l-1.243.331C564.251,404.982,564.086,405.314,563.92,405.563Z" transform="translate(-528.291 -375.236)" fill="#191970"/>
    <path id="Path_6944" data-name="Path 6944" d="M585.2,363.251l1.16-.414c.166-.331.248-.746.414-1.077l-1.16.58a3.052,3.052,0,0,0-.414.911Z" transform="translate(-547.997 -335.825)" fill="#191970"/>
    <path id="Path_6945" data-name="Path 6945" d="M575.12,384.449l1.243-.331c.166-.331.332-.746.5-1.077l-1.243.414C575.451,383.869,575.286,384.118,575.12,384.449Z" transform="translate(-538.662 -355.531)" fill="#191970"/>
    <path id="Path_6946" data-name="Path 6946" d="M547.949,99.471c-.248-.331-.5-.58-.745-.911l-.083,1.326c.249.249.414.58.663.828Z" transform="translate(-512.735 -92.097)" fill="#191970"/>
    <path id="Path_6947" data-name="Path 6947" d="M602.167,223.913l.829-.994c-.083-.414-.166-.746-.249-1.16L602,222.836A5.707,5.707,0,0,1,602.167,223.913Z" transform="translate(-563.555 -206.182)" fill="#191970"/>
    <path id="Path_6948" data-name="Path 6948" d="M597.765,200.478l.746-1.077a6.085,6.085,0,0,0-.331-1.16l-.663,1.16C597.6,199.815,597.683,200.147,597.765,200.478Z" transform="translate(-559.402 -184.404)" fill="#191970"/>
    <path id="Path_6949" data-name="Path 6949" d="M605.7,247.351l.911-.911c0-.414-.083-.746-.083-1.16l-.828.994A2.361,2.361,0,0,0,605.7,247.351Z" transform="translate(-566.924 -227.963)" fill="#191970"/>
    <path id="Path_6950" data-name="Path 6950" d="M290.64,528.64l.663,1.077a5.592,5.592,0,0,0,1.16.166l-.746-1.077a4.191,4.191,0,0,1-1.077-.166Z" transform="translate(-275.179 -490.359)" fill="#191970"/>
    <path id="Path_6951" data-name="Path 6951" d="M607.391,268.8l-.911.911v1.077l.994-.829v-.331a2.814,2.814,0,0,1-.083-.828Z" transform="translate(-567.702 -249.742)" fill="#191970"/>
    <path id="Path_6952" data-name="Path 6952" d="M514.431,69.188V67.945a8.8,8.8,0,0,0-.911-.746l.083,1.326A7.24,7.24,0,0,1,514.431,69.188Z" transform="translate(-481.62 -63.056)" fill="#191970"/>
    <path id="Path_6953" data-name="Path 6953" d="M583.373,157.918l.5-1.16c-.166-.331-.331-.746-.5-1.077l-.414,1.243A5.1,5.1,0,0,0,583.373,157.918Z" transform="translate(-545.921 -144.992)" fill="#191970"/>
    <path id="Path_6954" data-name="Path 6954" d="M603.12,294.228l1.077-.746c0-.414.083-.746.083-1.16l-.994.829C603.2,293.482,603.2,293.9,603.12,294.228Z" transform="translate(-564.591 -271.524)" fill="#191970"/>
    <path id="Path_6955" data-name="Path 6955" d="M591.131,180.236l.663-1.077c-.166-.414-.249-.746-.414-1.077l-.58,1.16A4.684,4.684,0,0,1,591.131,180.236Z" transform="translate(-553.182 -165.736)" fill="#191970"/>
    <path id="Path_6956" data-name="Path 6956" d="M227.92,505.12l.331,1.243c.332.166.746.332,1.077.5l-.414-1.243A11.064,11.064,0,0,1,227.92,505.12Z" transform="translate(-217.089 -468.579)" fill="#191970"/>
    <path id="Path_6957" data-name="Path 6957" d="M248.08,515.2l.414,1.16c.331.166.746.249,1.077.414l-.58-1.16a3.062,3.062,0,0,0-.911-.414Z" transform="translate(-235.761 -477.914)" fill="#191970"/>
    <path id="Path_6958" data-name="Path 6958" d="M208.88,493.92l.249,1.243c.331.166.663.414.994.58l-.331-1.243C209.46,494.251,209.128,494.086,208.88,493.92Z" transform="translate(-199.454 -458.208)" fill="#191970"/>
    <path id="Path_6959" data-name="Path 6959" d="M268.24,523.04l.5,1.16a6.1,6.1,0,0,1,1.16.331l-.58-1.16a5.4,5.4,0,0,0-1.077-.331Z" transform="translate(-254.433 -485.174)" fill="#191970"/>
    <path id="Path_6960" data-name="Path 6960" d="M561.471,118.511a8.687,8.687,0,0,0-.663-.911l-.249,1.243c.165.331.414.58.58.911Z" transform="translate(-525.179 -109.728)" fill="#191970"/>
    <path id="Path_6961" data-name="Path 6961" d="M190.96,480.48l.083,1.243c.331.249.663.414.994.663l-.249-1.326A7.169,7.169,0,0,1,190.96,480.48Z" transform="translate(-182.857 -445.762)" fill="#191970"/>
    <path id="Path_6962" data-name="Path 6962" d="M573.378,138.793l.414-1.16c-.166-.331-.414-.663-.58-.994l-.332,1.243A9.119,9.119,0,0,1,573.378,138.793Z" transform="translate(-536.589 -127.359)" fill="#191970"/>
    <path id="Path_6963" data-name="Path 6963" d="M174.16,465.92v1.243c.331.248.58.5.911.746l-.083-1.326A7.221,7.221,0,0,1,174.16,465.92Z" transform="translate(-167.283 -432.279)" fill="#191970"/>
  </g>
</svg>
