<svg xmlns="http://www.w3.org/2000/svg" width="19.63" height="19.714" viewBox="0 0 19.63 19.714">
  <g id="icons8-whatsapp" transform="translate(-3.868 -4)">
    <path id="Path_13830" data-name="Path 13830" d="M4.868,23.735l1.318-4.811a9.287,9.287,0,1,1,8.047,4.65h0a9.276,9.276,0,0,1-4.438-1.13Z" transform="translate(-0.511 -0.511)" fill="#fff" fill-rule="evenodd"/>
    <path id="Path_13831" data-name="Path 13831" d="M4.613,23.724a.244.244,0,0,1-.236-.309L5.668,18.7A9.53,9.53,0,1,1,9.505,22.45l-4.83,1.266A.224.224,0,0,1,4.613,23.724Z" transform="translate(-0.256 -0.255)" fill="#fff" fill-rule="evenodd"/>
    <path id="Path_13832" data-name="Path 13832" d="M13.722,4.489a9.287,9.287,0,0,1,0,18.574h0a9.276,9.276,0,0,1-4.438-1.13L4.357,23.224l1.318-4.811A9.288,9.288,0,0,1,13.722,4.489m0,18.574h0m0,0h0M13.722,4h0A9.778,9.778,0,0,0,5.149,18.479L3.885,23.1a.489.489,0,0,0,.6.6l4.738-1.242A9.777,9.777,0,1,0,13.722,4Z" transform="translate(0)" fill="#cfd8dc" fill-rule="evenodd"/>
    <path id="Path_13833" data-name="Path 13833" d="M21.411,10.469a7.719,7.719,0,0,0-12,9.56l.184.292-.78,2.847,2.922-.766.282.167a7.7,7.7,0,0,0,3.929,1.076h0a7.719,7.719,0,0,0,5.46-13.176Z" transform="translate(-2.23 -2.149)" fill="#40c351" fill-rule="evenodd"/>
    <path id="Path_13834" data-name="Path 13834" d="M16.763,15.62c-.174-.386-.357-.394-.522-.4-.135-.006-.29-.005-.445-.005a.853.853,0,0,0-.619.291,2.6,2.6,0,0,0-.812,1.935,4.512,4.512,0,0,0,.947,2.4,9.527,9.527,0,0,0,3.964,3.5c1.96.773,2.359.619,2.785.581a2.342,2.342,0,0,0,1.566-1.1,1.943,1.943,0,0,0,.135-1.1c-.058-.1-.213-.155-.445-.271s-1.373-.677-1.586-.755-.367-.116-.522.116-.6.755-.735.909-.271.175-.5.058a6.352,6.352,0,0,1-1.866-1.151,6.991,6.991,0,0,1-1.291-1.607c-.135-.232-.015-.358.1-.473s.232-.271.348-.406a1.587,1.587,0,0,0,.232-.387.427.427,0,0,0-.02-.406C17.421,17.227,16.97,16.079,16.763,15.62Z" transform="translate(-5.363 -5.729)" fill="#fff" fill-rule="evenodd"/>
  </g>
</svg>
