<svg id="noun-tick-801900" xmlns="http://www.w3.org/2000/svg" width="23.857" height="23.857" viewBox="0 0 23.857 23.857">
  <ellipse id="Ellipse_11" data-name="Ellipse 11" cx="7.656" cy="9.006" rx="7.656" ry="9.006" transform="translate(4.273 2.923)" fill="#fff"/>
  <path id="Path_6878" data-name="Path 6878" d="M93.129,11.2a11.928,11.928,0,1,0,11.929,11.928A11.932,11.932,0,0,0,93.129,11.2Zm6.138,9.046-7.008,7.033a1.266,1.266,0,0,1-.87.373,1.166,1.166,0,0,1-.87-.373L86.99,23.749a1.248,1.248,0,0,1,1.765-1.765l2.634,2.634,6.138-6.138a1.231,1.231,0,0,1,1.765,0,1.253,1.253,0,0,1-.025,1.765Z" transform="translate(-81.2 -11.199)" fill="#5aa700"/>
</svg>
