<svg xmlns="http://www.w3.org/2000/svg" width="53.814" height="18.99" viewBox="0 0 53.814 18.99">
  <g id="Group_1890" data-name="Group 1890" transform="translate(0.103 0.1)">
    <path id="Path_3043" data-name="Path 3043" d="M269.784,307.95a.52.52,0,0,0-.116-1.034l-13.154,1.461a.521.521,0,0,0,.057,1.037.352.352,0,0,0,.059,0l1.9-.211-.893.732c-1.316-.043-2.594-.07-3.785-.07-4.139,0-9.324.31-13.546.62l-1.406,1.151c4.418-.346,10.341-.726,14.951-.726.816,0,1.675.014,2.557.034l-.994.814a.52.52,0,0,0,.659.8L260.433,309Z" transform="translate(-222.054 -293.908)" fill="#191970" stroke="#191970" stroke-width="0.2"/>
    <path id="Path_3044" data-name="Path 3044" d="M241.587,227.893l-4.493-14.1a.555.555,0,0,0-.32-.33c-.3-.13-7.589-3.188-21.964-3.191s-21.661,3.063-21.966,3.191a.557.557,0,0,0-.32.33l-4.493,14.1a.449.449,0,0,0,.133.469.719.719,0,0,0,.55.179c.053,0,1.918-.155,4.754-.349a.452.452,0,0,0,.044.7.752.752,0,0,0,.855.038l5.362-3.567,11.495-1.039a.557.557,0,0,0,.564-.575.623.623,0,0,0-.707-.459l-16.171,1.461a.563.563,0,0,0-.555.545.6.6,0,0,0,.626.492.545.545,0,0,0,.071,0l2.335-.211-2.2,1.462c-2.549.167-4.586.318-5.692.4l4.194-13.143c1.38-.523,8.53-2.973,21.121-2.974s19.739,2.452,21.121,2.974l4.194,13.143c-2.634-.2-10.538-.775-18.09-1.053l-1.489.992c9.531.3,20.237,1.158,20.366,1.169h.063a.7.7,0,0,0,.506-.2.448.448,0,0,0,.115-.449Z" transform="translate(-188.011 -210.276)" fill="#191970" stroke="#191970" stroke-width="0.2"/>
    <path id="Path_3045" data-name="Path 3045" d="M311.972,233.68l4.981-3.078a.174.174,0,1,0-.181-.3l-4.981,3.078a.174.174,0,0,0,.091.321.171.171,0,0,0,.09-.026Z" transform="translate(-290.713 -227.588)" fill="#191970" stroke="#191970" stroke-width="0.2"/>
    <path id="Path_3046" data-name="Path 3046" d="M297.206,236.935a.175.175,0,0,0,.155.082.17.17,0,0,0,.091-.026l10.338-6.39a.174.174,0,0,0-.181-.3l-10.337,6.39a.174.174,0,0,0-.057.239Z" transform="translate(-278.014 -227.587)" fill="#191970" stroke="#191970" stroke-width="0.2"/>
    <path id="Path_3047" data-name="Path 3047" d="M328.984,251.628a.168.168,0,0,0,.091-.026l6.668-4.117a.174.174,0,0,0-.183-.295l-6.668,4.117a.174.174,0,0,0,.091.321Z" transform="translate(-304.688 -242.201)" fill="#191970" stroke="#191970" stroke-width="0.2"/>
  </g>
</svg>
