<svg xmlns="http://www.w3.org/2000/svg" width="21.339" height="20.478" viewBox="0 0 21.339 20.478">
  <g id="noun-happy-1418693" transform="translate(-70.013 -11.194)">
    <path id="Path_13820" data-name="Path 13820" d="M80.644,26.932a4.775,4.775,0,0,1-4.772-4.768.418.418,0,0,1,.418-.418H85a.418.418,0,0,1,.418.418A4.775,4.775,0,0,1,80.644,26.932Zm-2.623-8.1a1.544,1.544,0,0,1,1.543,1.542.418.418,0,0,1-.837,0,.706.706,0,0,0-1.412,0,.418.418,0,0,1-.837,0,1.544,1.544,0,0,1,1.543-1.542Zm5.3,0a1.544,1.544,0,0,1,1.543,1.542.418.418,0,0,1-.837,0,.706.706,0,0,0-1.412,0,.418.418,0,0,1-.837,0,1.544,1.544,0,0,1,1.543-1.542Zm7.409,2.123A2.041,2.041,0,0,0,89.6,17.477l-4.269-.62a1.206,1.206,0,0,1-.908-.659l-1.909-3.865a2.031,2.031,0,0,0-1.832-1.138h0a2.031,2.031,0,0,0-1.832,1.138L76.941,16.2a1.206,1.206,0,0,1-.908.659l-4.269.62a2.041,2.041,0,0,0-1.132,3.483l3.089,3.009a1.2,1.2,0,0,1,.347,1.067l-.729,4.248A2.041,2.041,0,0,0,76.3,31.435l3.818-2.006a1.207,1.207,0,0,1,1.123,0l3.818,2.006a2.043,2.043,0,0,0,2.965-2.152L87.3,25.035a1.2,1.2,0,0,1,.347-1.067Z" fill="#191970" fill-rule="evenodd"/>
  </g>
</svg>
